%FSLAX25Y25*%
%MOIN*%
G70*
G01*
G75*
G04 Layer_Color=16711935*
%ADD10C,0.01200*%
G04:AMPARAMS|DCode=11|XSize=37.4mil|YSize=25.59mil|CornerRadius=6.4mil|HoleSize=0mil|Usage=FLASHONLY|Rotation=270.000|XOffset=0mil|YOffset=0mil|HoleType=Round|Shape=RoundedRectangle|*
%AMROUNDEDRECTD11*
21,1,0.03740,0.01280,0,0,270.0*
21,1,0.02461,0.02559,0,0,270.0*
1,1,0.01280,-0.00640,-0.01230*
1,1,0.01280,-0.00640,0.01230*
1,1,0.01280,0.00640,0.01230*
1,1,0.01280,0.00640,-0.01230*
%
%ADD11ROUNDEDRECTD11*%
%ADD12R,0.02559X0.03740*%
%ADD13O,0.02362X0.07480*%
%ADD14R,0.03900X0.04300*%
%ADD15C,0.04000*%
%ADD16R,0.04300X0.03900*%
%ADD17C,0.01500*%
%ADD18C,0.01000*%
%ADD19C,0.02000*%
%ADD20C,0.00394*%
%ADD21R,0.07087X0.07087*%
%ADD22C,0.07087*%
%ADD23C,0.09449*%
%ADD24R,0.07500X0.07500*%
%ADD25C,0.07500*%
%ADD26C,0.08661*%
%ADD27C,0.31496*%
%ADD28C,0.02500*%
%ADD29C,0.00787*%
%ADD30C,0.01575*%
%ADD31C,0.00984*%
%ADD32C,0.00700*%
%ADD33C,0.00800*%
G04:AMPARAMS|DCode=34|XSize=45.4mil|YSize=33.59mil|CornerRadius=10.4mil|HoleSize=0mil|Usage=FLASHONLY|Rotation=270.000|XOffset=0mil|YOffset=0mil|HoleType=Round|Shape=RoundedRectangle|*
%AMROUNDEDRECTD34*
21,1,0.04540,0.01280,0,0,270.0*
21,1,0.02461,0.03359,0,0,270.0*
1,1,0.02080,-0.00640,-0.01230*
1,1,0.02080,-0.00640,0.01230*
1,1,0.02080,0.00640,0.01230*
1,1,0.02080,0.00640,-0.01230*
%
%ADD34ROUNDEDRECTD34*%
%ADD35R,0.03359X0.04540*%
%ADD36O,0.03162X0.08280*%
%ADD37R,0.04700X0.05100*%
%ADD38C,0.08000*%
%ADD39R,0.05100X0.04700*%
%ADD40R,0.07887X0.07887*%
%ADD41C,0.07887*%
%ADD42C,0.10249*%
%ADD43R,0.08300X0.08300*%
%ADD44C,0.08300*%
%ADD45C,0.09461*%
%ADD46C,0.32296*%
%ADD47C,0.03300*%
%ADD48C,0.00197*%
D10*
X17199Y2078300D02*
X15200D01*
Y2084298D01*
X17199D01*
X20198Y2078300D02*
Y2084298D01*
X22198Y2082299D01*
X24197Y2084298D01*
Y2078300D01*
X26196D02*
X28196D01*
X27196D01*
Y2084298D01*
X26196Y2083298D01*
X31195Y2078300D02*
X33194D01*
Y2084298D01*
X31195D01*
X42191D02*
Y2078300D01*
X45190D01*
X46190Y2079300D01*
Y2080299D01*
X45190Y2081299D01*
X42191D01*
X45190D01*
X46190Y2082299D01*
Y2083298D01*
X45190Y2084298D01*
X42191D01*
X49189Y2078300D02*
X51188D01*
X52188Y2079300D01*
Y2081299D01*
X51188Y2082299D01*
X49189D01*
X48189Y2081299D01*
Y2079300D01*
X49189Y2078300D01*
X55187Y2082299D02*
X57186D01*
X58186Y2081299D01*
Y2078300D01*
X55187D01*
X54187Y2079300D01*
X55187Y2080299D01*
X58186D01*
X60185Y2082299D02*
Y2078300D01*
Y2080299D01*
X61185Y2081299D01*
X62185Y2082299D01*
X63184D01*
X70182Y2084298D02*
Y2078300D01*
X67183D01*
X66184Y2079300D01*
Y2081299D01*
X67183Y2082299D01*
X70182D01*
X81179Y2084298D02*
X79179D01*
X78180Y2083298D01*
Y2079300D01*
X79179Y2078300D01*
X81179D01*
X82178Y2079300D01*
Y2083298D01*
X81179Y2084298D01*
X84178Y2082299D02*
Y2079300D01*
X85177Y2078300D01*
X88176D01*
Y2082299D01*
X91175Y2083298D02*
Y2082299D01*
X90176D01*
X92175D01*
X91175D01*
Y2079300D01*
X92175Y2078300D01*
X95174D02*
X97174D01*
X96174D01*
Y2084298D01*
X95174D01*
X100172Y2078300D02*
X102172D01*
X101172D01*
Y2082299D01*
X100172D01*
X105171Y2078300D02*
Y2082299D01*
X108170D01*
X109170Y2081299D01*
Y2078300D01*
X114168D02*
X112169D01*
X111169Y2079300D01*
Y2081299D01*
X112169Y2082299D01*
X114168D01*
X115168Y2081299D01*
Y2080299D01*
X111169D01*
X14600Y2172878D02*
Y2168879D01*
X16599Y2166879D01*
X18599Y2168879D01*
Y2172878D01*
X20598Y2166879D02*
X22597D01*
X21598D01*
Y2170878D01*
X20598D01*
X25596Y2166879D02*
X28596D01*
X29595Y2167879D01*
X28596Y2168879D01*
X26596D01*
X25596Y2169879D01*
X26596Y2170878D01*
X29595D01*
X31594Y2166879D02*
X33594D01*
X32594D01*
Y2170878D01*
X31594D01*
X36593Y2172878D02*
Y2166879D01*
X39592D01*
X40592Y2167879D01*
Y2168879D01*
Y2169879D01*
X39592Y2170878D01*
X36593D01*
X42591Y2166879D02*
X44590D01*
X43591D01*
Y2172878D01*
X42591D01*
X50588Y2166879D02*
X48589D01*
X47589Y2167879D01*
Y2169879D01*
X48589Y2170878D01*
X50588D01*
X51588Y2169879D01*
Y2168879D01*
X47589D01*
X59585Y2172878D02*
Y2166879D01*
X63584D01*
X66583Y2170878D02*
X68582D01*
X69582Y2169879D01*
Y2166879D01*
X66583D01*
X65583Y2167879D01*
X66583Y2168879D01*
X69582D01*
X71582Y2170878D02*
Y2167879D01*
X72581Y2166879D01*
X75580D01*
Y2165880D01*
X74581Y2164880D01*
X73581D01*
X75580Y2166879D02*
Y2170878D01*
X80579Y2166879D02*
X78579D01*
X77580Y2167879D01*
Y2169879D01*
X78579Y2170878D01*
X80579D01*
X81578Y2169879D01*
Y2168879D01*
X77580D01*
X83578Y2170878D02*
Y2166879D01*
Y2168879D01*
X84577Y2169879D01*
X85577Y2170878D01*
X86577D01*
X91575Y2166879D02*
X89576Y2168879D01*
Y2170878D01*
X91575Y2172878D01*
X94574Y2166879D02*
X97573D01*
X98573Y2167879D01*
X97573Y2168879D01*
X95574D01*
X94574Y2169879D01*
X95574Y2170878D01*
X98573D01*
X100572Y2166879D02*
X102571Y2168879D01*
Y2170878D01*
X100572Y2172878D01*
X21364Y2235431D02*
Y2242428D01*
X24863D01*
X26029Y2241262D01*
Y2238930D01*
X24863Y2237763D01*
X21364D01*
X28362Y2240096D02*
Y2235431D01*
Y2237763D01*
X29528Y2238930D01*
X30694Y2240096D01*
X31861D01*
X36526Y2235431D02*
X38858D01*
X40025Y2236597D01*
Y2238930D01*
X38858Y2240096D01*
X36526D01*
X35359Y2238930D01*
Y2236597D01*
X36526Y2235431D01*
X42357Y2233098D02*
X43523D01*
X44690Y2234264D01*
Y2240096D01*
X52854Y2235431D02*
X50521D01*
X49355Y2236597D01*
Y2238930D01*
X50521Y2240096D01*
X52854D01*
X54020Y2238930D01*
Y2237763D01*
X49355D01*
X61018Y2240096D02*
X57519D01*
X56353Y2238930D01*
Y2236597D01*
X57519Y2235431D01*
X61018D01*
X64517Y2241262D02*
Y2240096D01*
X63350D01*
X65683D01*
X64517D01*
Y2236597D01*
X65683Y2235431D01*
X69182Y2240096D02*
X70348D01*
Y2238930D01*
X69182D01*
Y2240096D01*
Y2236597D02*
X70348D01*
Y2235431D01*
X69182D01*
Y2236597D01*
X15532Y2223620D02*
Y2230617D01*
X19031D01*
X20198Y2229451D01*
Y2227118D01*
X19031Y2225952D01*
X15532D01*
X17865D02*
X20198Y2223620D01*
X26029D02*
X23697D01*
X22530Y2224786D01*
Y2227118D01*
X23697Y2228285D01*
X26029D01*
X27195Y2227118D01*
Y2225952D01*
X22530D01*
X29528Y2228285D02*
X31861Y2223620D01*
X34193Y2228285D01*
X36526Y2223620D02*
X38858D01*
X37692D01*
Y2228285D01*
X36526D01*
X42357Y2223620D02*
X45856D01*
X47022Y2224786D01*
X45856Y2225952D01*
X43523D01*
X42357Y2227118D01*
X43523Y2228285D01*
X47022D01*
X49355Y2223620D02*
X51688D01*
X50521D01*
Y2228285D01*
X49355D01*
X56353Y2223620D02*
X58685D01*
X59851Y2224786D01*
Y2227118D01*
X58685Y2228285D01*
X56353D01*
X55186Y2227118D01*
Y2224786D01*
X56353Y2223620D01*
X62184D02*
Y2228285D01*
X65683D01*
X66849Y2227118D01*
Y2223620D01*
X69182Y2228285D02*
X70348D01*
Y2227118D01*
X69182D01*
Y2228285D01*
Y2224786D02*
X70348D01*
Y2223620D01*
X69182D01*
Y2224786D01*
X13200Y2218806D02*
Y2211809D01*
X16699D01*
X17865Y2212975D01*
Y2217640D01*
X16699Y2218806D01*
X13200D01*
X20198Y2216474D02*
Y2211809D01*
Y2214141D01*
X21364Y2215307D01*
X22530Y2216474D01*
X23697D01*
X28362D02*
X30694D01*
X31861Y2215307D01*
Y2211809D01*
X28362D01*
X27195Y2212975D01*
X28362Y2214141D01*
X31861D01*
X34193Y2216474D02*
Y2212975D01*
X35359Y2211809D01*
X36526Y2212975D01*
X37692Y2211809D01*
X38858Y2212975D01*
Y2216474D01*
X41191Y2211809D02*
Y2216474D01*
X44690D01*
X45856Y2215307D01*
Y2211809D01*
X55186Y2218806D02*
Y2211809D01*
X58685D01*
X59851Y2212975D01*
Y2214141D01*
X58685Y2215307D01*
X55186D01*
X58685D01*
X59851Y2216474D01*
Y2217640D01*
X58685Y2218806D01*
X55186D01*
X62184Y2216474D02*
Y2212975D01*
X63350Y2211809D01*
X66849D01*
Y2210642D01*
X65683Y2209476D01*
X64517D01*
X66849Y2211809D02*
Y2216474D01*
X69182D02*
X70348D01*
Y2215307D01*
X69182D01*
Y2216474D01*
Y2212975D02*
X70348D01*
Y2211809D01*
X69182D01*
Y2212975D01*
X42357Y2206995D02*
Y2199998D01*
X45856D01*
X47022Y2201164D01*
Y2205829D01*
X45856Y2206995D01*
X42357D01*
X50521Y2204663D02*
X52854D01*
X54020Y2203497D01*
Y2199998D01*
X50521D01*
X49355Y2201164D01*
X50521Y2202330D01*
X54020D01*
X57519Y2205829D02*
Y2204663D01*
X56353D01*
X58685D01*
X57519D01*
Y2201164D01*
X58685Y2199998D01*
X65683D02*
X63350D01*
X62184Y2201164D01*
Y2203497D01*
X63350Y2204663D01*
X65683D01*
X66849Y2203497D01*
Y2202330D01*
X62184D01*
X69182Y2204663D02*
X70348D01*
Y2203497D01*
X69182D01*
Y2204663D01*
Y2201164D02*
X70348D01*
Y2199998D01*
X69182D01*
Y2201164D01*
X42357Y2195184D02*
X47022D01*
X44690D01*
Y2188187D01*
X49355D02*
X51688D01*
X50521D01*
Y2192852D01*
X49355D01*
X55186Y2188187D02*
Y2192852D01*
X56353D01*
X57519Y2191685D01*
Y2188187D01*
Y2191685D01*
X58685Y2192852D01*
X59851Y2191685D01*
Y2188187D01*
X65683D02*
X63350D01*
X62184Y2189353D01*
Y2191685D01*
X63350Y2192852D01*
X65683D01*
X66849Y2191685D01*
Y2190519D01*
X62184D01*
X69182Y2192852D02*
X70348D01*
Y2191685D01*
X69182D01*
Y2192852D01*
Y2189353D02*
X70348D01*
Y2188187D01*
X69182D01*
Y2189353D01*
X84794Y2241262D02*
X83628Y2242428D01*
X81295D01*
X80129Y2241262D01*
Y2240096D01*
X81295Y2238930D01*
X83628D01*
X84794Y2237763D01*
Y2236597D01*
X83628Y2235431D01*
X81295D01*
X80129Y2236597D01*
X87127Y2233098D02*
Y2240096D01*
X90626D01*
X91792Y2238930D01*
Y2236597D01*
X90626Y2235431D01*
X87127D01*
X95291Y2240096D02*
X97623D01*
X98790Y2238930D01*
Y2235431D01*
X95291D01*
X94125Y2236597D01*
X95291Y2237763D01*
X98790D01*
X101122Y2240096D02*
Y2235431D01*
Y2237763D01*
X102289Y2238930D01*
X103455Y2240096D01*
X104621D01*
X108120Y2235431D02*
Y2242428D01*
Y2237763D02*
X111619Y2240096D01*
X108120Y2237763D02*
X111619Y2235431D01*
X115118Y2242428D02*
X117450D01*
X116284D01*
Y2235431D01*
X115118D01*
X117450D01*
X124448Y2242428D02*
X122116D01*
X120949Y2241262D01*
Y2236597D01*
X122116Y2235431D01*
X124448D01*
X125614Y2236597D01*
Y2241262D01*
X124448Y2242428D01*
X134945D02*
X139610D01*
X137277D01*
Y2235431D01*
X141943Y2242428D02*
Y2235431D01*
Y2238930D01*
X143109Y2240096D01*
X145441D01*
X146608Y2238930D01*
Y2235431D01*
X152439D02*
X150107D01*
X148940Y2236597D01*
Y2238930D01*
X150107Y2240096D01*
X152439D01*
X153605Y2238930D01*
Y2237763D01*
X148940D01*
X155938Y2240096D02*
Y2235431D01*
Y2237763D01*
X157104Y2238930D01*
X158271Y2240096D01*
X159437D01*
X162936Y2235431D02*
Y2240096D01*
X164102D01*
X165268Y2238930D01*
Y2235431D01*
Y2238930D01*
X166435Y2240096D01*
X167601Y2238930D01*
Y2235431D01*
X171100Y2240096D02*
X173432D01*
X174599Y2238930D01*
Y2235431D01*
X171100D01*
X169933Y2236597D01*
X171100Y2237763D01*
X174599D01*
X176931Y2235431D02*
X179264D01*
X178097D01*
Y2242428D01*
X176931D01*
X194425Y2241262D02*
X193259Y2242428D01*
X190927D01*
X189760Y2241262D01*
Y2240096D01*
X190927Y2238930D01*
X193259D01*
X194425Y2237763D01*
Y2236597D01*
X193259Y2235431D01*
X190927D01*
X189760Y2236597D01*
X196758Y2242428D02*
Y2235431D01*
Y2238930D01*
X197924Y2240096D01*
X200257D01*
X201423Y2238930D01*
Y2235431D01*
X203756D02*
X206088D01*
X204922D01*
Y2240096D01*
X203756D01*
X213086Y2235431D02*
X210754D01*
X209587Y2236597D01*
Y2238930D01*
X210754Y2240096D01*
X213086D01*
X214252Y2238930D01*
Y2237763D01*
X209587D01*
X216585Y2235431D02*
X218918D01*
X217751D01*
Y2242428D01*
X216585D01*
X227082D02*
Y2235431D01*
X223583D01*
X222416Y2236597D01*
Y2238930D01*
X223583Y2240096D01*
X227082D01*
X80129Y2223620D02*
Y2228285D01*
X82462Y2230617D01*
X84794Y2228285D01*
Y2223620D01*
Y2227118D01*
X80129D01*
X84794Y2218806D02*
X82462D01*
X83628D01*
Y2212975D01*
X82462Y2211809D01*
X81295D01*
X80129Y2212975D01*
X87127Y2211809D02*
X89459D01*
X88293D01*
Y2216474D01*
X87127D01*
X92958Y2211809D02*
Y2216474D01*
X94125D01*
X95291Y2215307D01*
Y2211809D01*
Y2215307D01*
X96457Y2216474D01*
X97623Y2215307D01*
Y2211809D01*
X111619Y2217640D02*
X110453Y2218806D01*
X108120D01*
X106954Y2217640D01*
Y2212975D01*
X108120Y2211809D01*
X110453D01*
X111619Y2212975D01*
Y2215307D01*
X109286D01*
X113952Y2216474D02*
Y2211809D01*
Y2214141D01*
X115118Y2215307D01*
X116284Y2216474D01*
X117450D01*
X120949Y2211809D02*
X123282D01*
X122116D01*
Y2216474D01*
X120949D01*
X126781Y2211809D02*
X130280D01*
X131446Y2212975D01*
X130280Y2214141D01*
X127947D01*
X126781Y2215307D01*
X127947Y2216474D01*
X131446D01*
X133778D02*
X138444D01*
X133778Y2211809D01*
X138444D01*
X140776Y2218806D02*
Y2211809D01*
X144275D01*
X145441Y2212975D01*
Y2214141D01*
Y2215307D01*
X144275Y2216474D01*
X140776D01*
X148940D02*
X151273D01*
X152439Y2215307D01*
Y2211809D01*
X148940D01*
X147774Y2212975D01*
X148940Y2214141D01*
X152439D01*
X159437Y2216474D02*
X155938D01*
X154772Y2215307D01*
Y2212975D01*
X155938Y2211809D01*
X159437D01*
X161769Y2218806D02*
Y2211809D01*
Y2215307D01*
X162936Y2216474D01*
X165268D01*
X166435Y2215307D01*
Y2211809D01*
X172266D02*
X169933D01*
X168767Y2212975D01*
Y2215307D01*
X169933Y2216474D01*
X172266D01*
X173432Y2215307D01*
Y2214141D01*
X168767D01*
X175765Y2216474D02*
Y2211809D01*
Y2214141D01*
X176931Y2215307D01*
X178097Y2216474D01*
X179264D01*
X84794Y2195184D02*
X82462Y2194018D01*
X80129Y2191685D01*
Y2189353D01*
X81295Y2188187D01*
X83628D01*
X84794Y2189353D01*
Y2190519D01*
X83628Y2191685D01*
X80129D01*
X87127Y2192852D02*
X88293D01*
Y2191685D01*
X87127D01*
Y2192852D01*
Y2189353D02*
X88293D01*
Y2188187D01*
X87127D01*
Y2189353D01*
X97623Y2188187D02*
X92958D01*
X97623Y2192852D01*
Y2194018D01*
X96457Y2195184D01*
X94125D01*
X92958Y2194018D01*
X104621Y2195184D02*
X99956D01*
Y2191685D01*
X102289Y2192852D01*
X103455D01*
X104621Y2191685D01*
Y2189353D01*
X103455Y2188187D01*
X101122D01*
X99956Y2189353D01*
X106954Y2192852D02*
X108120D01*
Y2191685D01*
X106954D01*
Y2192852D01*
Y2189353D02*
X108120D01*
Y2188187D01*
X106954D01*
Y2189353D01*
X116284Y2188187D02*
Y2195184D01*
X112785Y2191685D01*
X117450D01*
X123282Y2188187D02*
Y2195184D01*
X119783Y2191685D01*
X124448D01*
X133778Y2188187D02*
Y2195184D01*
X137277D01*
X138444Y2194018D01*
Y2191685D01*
X137277Y2190519D01*
X133778D01*
X140776Y2188187D02*
Y2195184D01*
X143109Y2192852D01*
X145441Y2195184D01*
Y2188187D01*
X80129Y2205829D02*
X81295Y2206995D01*
X83628D01*
X84794Y2205829D01*
Y2204663D01*
X83628Y2203497D01*
X84794Y2202330D01*
Y2201164D01*
X83628Y2199998D01*
X81295D01*
X80129Y2201164D01*
Y2202330D01*
X81295Y2203497D01*
X80129Y2204663D01*
Y2205829D01*
X81295Y2203497D02*
X83628D01*
X87127Y2199998D02*
X91792Y2204663D01*
X94125Y2205829D02*
X95291Y2206995D01*
X97623D01*
X98790Y2205829D01*
Y2204663D01*
X97623Y2203497D01*
X96457D01*
X97623D01*
X98790Y2202330D01*
Y2201164D01*
X97623Y2199998D01*
X95291D01*
X94125Y2201164D01*
X101122Y2199998D02*
X105788Y2204663D01*
X112785Y2199998D02*
X108120D01*
X112785Y2204663D01*
Y2205829D01*
X111619Y2206995D01*
X109286D01*
X108120Y2205829D01*
X115118D02*
X116284Y2206995D01*
X118617D01*
X119783Y2205829D01*
Y2201164D01*
X118617Y2199998D01*
X116284D01*
X115118Y2201164D01*
Y2205829D01*
X122116Y2199998D02*
X124448D01*
X123282D01*
Y2206995D01*
X122116Y2205829D01*
X131446Y2199998D02*
Y2206995D01*
X127947Y2203497D01*
X132612D01*
D18*
X58031Y359300D02*
G03*
X58031Y359300I-4031J0D01*
G01*
X75631Y182200D02*
G03*
X75631Y182200I-4031J0D01*
G01*
X173031Y359300D02*
G03*
X173031Y359300I-4031J0D01*
G01*
X298031D02*
G03*
X298031Y359300I-4031J0D01*
G01*
X315631Y182200D02*
G03*
X315631Y182200I-4031J0D01*
G01*
X413031Y359300D02*
G03*
X413031Y359300I-4031J0D01*
G01*
X538031D02*
G03*
X538031Y359300I-4031J0D01*
G01*
X555631Y182200D02*
G03*
X555631Y182200I-4031J0D01*
G01*
X653031Y359300D02*
G03*
X653031Y359300I-4031J0D01*
G01*
X778031D02*
G03*
X778031Y359300I-4031J0D01*
G01*
X795631Y182200D02*
G03*
X795631Y182200I-4031J0D01*
G01*
X893031Y359300D02*
G03*
X893031Y359300I-4031J0D01*
G01*
X1018031D02*
G03*
X1018031Y359300I-4031J0D01*
G01*
X1035631Y182200D02*
G03*
X1035631Y182200I-4031J0D01*
G01*
X1133031Y359300D02*
G03*
X1133031Y359300I-4031J0D01*
G01*
X1258031D02*
G03*
X1258031Y359300I-4031J0D01*
G01*
X1275631Y182200D02*
G03*
X1275631Y182200I-4031J0D01*
G01*
X1373031Y359300D02*
G03*
X1373031Y359300I-4031J0D01*
G01*
X1498031D02*
G03*
X1498031Y359300I-4031J0D01*
G01*
X1515631Y182200D02*
G03*
X1515631Y182200I-4031J0D01*
G01*
X1613031Y359300D02*
G03*
X1613031Y359300I-4031J0D01*
G01*
X1738031D02*
G03*
X1738031Y359300I-4031J0D01*
G01*
X1755631Y182200D02*
G03*
X1755631Y182200I-4031J0D01*
G01*
X1853031Y359300D02*
G03*
X1853031Y359300I-4031J0D01*
G01*
X1978031D02*
G03*
X1978031Y359300I-4031J0D01*
G01*
X1995631Y182200D02*
G03*
X1995631Y182200I-4031J0D01*
G01*
X2093031Y359300D02*
G03*
X2093031Y359300I-4031J0D01*
G01*
X2218031D02*
G03*
X2218031Y359300I-4031J0D01*
G01*
X2235631Y182200D02*
G03*
X2235631Y182200I-4031J0D01*
G01*
X2333031Y359300D02*
G03*
X2333031Y359300I-4031J0D01*
G01*
X58031Y699300D02*
G03*
X58031Y699300I-4031J0D01*
G01*
X75631Y522200D02*
G03*
X75631Y522200I-4031J0D01*
G01*
X173031Y699300D02*
G03*
X173031Y699300I-4031J0D01*
G01*
X298031D02*
G03*
X298031Y699300I-4031J0D01*
G01*
X315631Y522200D02*
G03*
X315631Y522200I-4031J0D01*
G01*
X413031Y699300D02*
G03*
X413031Y699300I-4031J0D01*
G01*
X538031D02*
G03*
X538031Y699300I-4031J0D01*
G01*
X555631Y522200D02*
G03*
X555631Y522200I-4031J0D01*
G01*
X653031Y699300D02*
G03*
X653031Y699300I-4031J0D01*
G01*
X778031D02*
G03*
X778031Y699300I-4031J0D01*
G01*
X795631Y522200D02*
G03*
X795631Y522200I-4031J0D01*
G01*
X893031Y699300D02*
G03*
X893031Y699300I-4031J0D01*
G01*
X1018031D02*
G03*
X1018031Y699300I-4031J0D01*
G01*
X1035631Y522200D02*
G03*
X1035631Y522200I-4031J0D01*
G01*
X1133031Y699300D02*
G03*
X1133031Y699300I-4031J0D01*
G01*
X1258031D02*
G03*
X1258031Y699300I-4031J0D01*
G01*
X1275631Y522200D02*
G03*
X1275631Y522200I-4031J0D01*
G01*
X1373031Y699300D02*
G03*
X1373031Y699300I-4031J0D01*
G01*
X1498031D02*
G03*
X1498031Y699300I-4031J0D01*
G01*
X1515631Y522200D02*
G03*
X1515631Y522200I-4031J0D01*
G01*
X1613031Y699300D02*
G03*
X1613031Y699300I-4031J0D01*
G01*
X1738031D02*
G03*
X1738031Y699300I-4031J0D01*
G01*
X1755631Y522200D02*
G03*
X1755631Y522200I-4031J0D01*
G01*
X1853031Y699300D02*
G03*
X1853031Y699300I-4031J0D01*
G01*
X1978031D02*
G03*
X1978031Y699300I-4031J0D01*
G01*
X1995631Y522200D02*
G03*
X1995631Y522200I-4031J0D01*
G01*
X2093031Y699300D02*
G03*
X2093031Y699300I-4031J0D01*
G01*
X2218031D02*
G03*
X2218031Y699300I-4031J0D01*
G01*
X2235631Y522200D02*
G03*
X2235631Y522200I-4031J0D01*
G01*
X2333031Y699300D02*
G03*
X2333031Y699300I-4031J0D01*
G01*
X58031Y1039300D02*
G03*
X58031Y1039300I-4031J0D01*
G01*
X75631Y862200D02*
G03*
X75631Y862200I-4031J0D01*
G01*
X173031Y1039300D02*
G03*
X173031Y1039300I-4031J0D01*
G01*
X298031D02*
G03*
X298031Y1039300I-4031J0D01*
G01*
X315631Y862200D02*
G03*
X315631Y862200I-4031J0D01*
G01*
X413031Y1039300D02*
G03*
X413031Y1039300I-4031J0D01*
G01*
X538031D02*
G03*
X538031Y1039300I-4031J0D01*
G01*
X555631Y862200D02*
G03*
X555631Y862200I-4031J0D01*
G01*
X653031Y1039300D02*
G03*
X653031Y1039300I-4031J0D01*
G01*
X778031D02*
G03*
X778031Y1039300I-4031J0D01*
G01*
X795631Y862200D02*
G03*
X795631Y862200I-4031J0D01*
G01*
X893031Y1039300D02*
G03*
X893031Y1039300I-4031J0D01*
G01*
X1018031D02*
G03*
X1018031Y1039300I-4031J0D01*
G01*
X1035631Y862200D02*
G03*
X1035631Y862200I-4031J0D01*
G01*
X1133031Y1039300D02*
G03*
X1133031Y1039300I-4031J0D01*
G01*
X1258031D02*
G03*
X1258031Y1039300I-4031J0D01*
G01*
X1275631Y862200D02*
G03*
X1275631Y862200I-4031J0D01*
G01*
X1373031Y1039300D02*
G03*
X1373031Y1039300I-4031J0D01*
G01*
X1498031D02*
G03*
X1498031Y1039300I-4031J0D01*
G01*
X1515631Y862200D02*
G03*
X1515631Y862200I-4031J0D01*
G01*
X1613031Y1039300D02*
G03*
X1613031Y1039300I-4031J0D01*
G01*
X1738031D02*
G03*
X1738031Y1039300I-4031J0D01*
G01*
X1755631Y862200D02*
G03*
X1755631Y862200I-4031J0D01*
G01*
X1853031Y1039300D02*
G03*
X1853031Y1039300I-4031J0D01*
G01*
X1978031D02*
G03*
X1978031Y1039300I-4031J0D01*
G01*
X1995631Y862200D02*
G03*
X1995631Y862200I-4031J0D01*
G01*
X2093031Y1039300D02*
G03*
X2093031Y1039300I-4031J0D01*
G01*
X2218031D02*
G03*
X2218031Y1039300I-4031J0D01*
G01*
X2235631Y862200D02*
G03*
X2235631Y862200I-4031J0D01*
G01*
X2333031Y1039300D02*
G03*
X2333031Y1039300I-4031J0D01*
G01*
X58031Y1379300D02*
G03*
X58031Y1379300I-4031J0D01*
G01*
X75631Y1202200D02*
G03*
X75631Y1202200I-4031J0D01*
G01*
X173031Y1379300D02*
G03*
X173031Y1379300I-4031J0D01*
G01*
X298031D02*
G03*
X298031Y1379300I-4031J0D01*
G01*
X315631Y1202200D02*
G03*
X315631Y1202200I-4031J0D01*
G01*
X413031Y1379300D02*
G03*
X413031Y1379300I-4031J0D01*
G01*
X538031D02*
G03*
X538031Y1379300I-4031J0D01*
G01*
X555631Y1202200D02*
G03*
X555631Y1202200I-4031J0D01*
G01*
X653031Y1379300D02*
G03*
X653031Y1379300I-4031J0D01*
G01*
X778031D02*
G03*
X778031Y1379300I-4031J0D01*
G01*
X795631Y1202200D02*
G03*
X795631Y1202200I-4031J0D01*
G01*
X893031Y1379300D02*
G03*
X893031Y1379300I-4031J0D01*
G01*
X1018031D02*
G03*
X1018031Y1379300I-4031J0D01*
G01*
X1035631Y1202200D02*
G03*
X1035631Y1202200I-4031J0D01*
G01*
X1133031Y1379300D02*
G03*
X1133031Y1379300I-4031J0D01*
G01*
X1258031D02*
G03*
X1258031Y1379300I-4031J0D01*
G01*
X1275631Y1202200D02*
G03*
X1275631Y1202200I-4031J0D01*
G01*
X1373031Y1379300D02*
G03*
X1373031Y1379300I-4031J0D01*
G01*
X1498031D02*
G03*
X1498031Y1379300I-4031J0D01*
G01*
X1515631Y1202200D02*
G03*
X1515631Y1202200I-4031J0D01*
G01*
X1613031Y1379300D02*
G03*
X1613031Y1379300I-4031J0D01*
G01*
X1738031D02*
G03*
X1738031Y1379300I-4031J0D01*
G01*
X1755631Y1202200D02*
G03*
X1755631Y1202200I-4031J0D01*
G01*
X1853031Y1379300D02*
G03*
X1853031Y1379300I-4031J0D01*
G01*
X1978031D02*
G03*
X1978031Y1379300I-4031J0D01*
G01*
X1995631Y1202200D02*
G03*
X1995631Y1202200I-4031J0D01*
G01*
X2093031Y1379300D02*
G03*
X2093031Y1379300I-4031J0D01*
G01*
X2218031D02*
G03*
X2218031Y1379300I-4031J0D01*
G01*
X2235631Y1202200D02*
G03*
X2235631Y1202200I-4031J0D01*
G01*
X2333031Y1379300D02*
G03*
X2333031Y1379300I-4031J0D01*
G01*
X58031Y1719300D02*
G03*
X58031Y1719300I-4031J0D01*
G01*
X75631Y1542200D02*
G03*
X75631Y1542200I-4031J0D01*
G01*
X173031Y1719300D02*
G03*
X173031Y1719300I-4031J0D01*
G01*
X298031D02*
G03*
X298031Y1719300I-4031J0D01*
G01*
X315631Y1542200D02*
G03*
X315631Y1542200I-4031J0D01*
G01*
X413031Y1719300D02*
G03*
X413031Y1719300I-4031J0D01*
G01*
X538031D02*
G03*
X538031Y1719300I-4031J0D01*
G01*
X555631Y1542200D02*
G03*
X555631Y1542200I-4031J0D01*
G01*
X653031Y1719300D02*
G03*
X653031Y1719300I-4031J0D01*
G01*
X778031D02*
G03*
X778031Y1719300I-4031J0D01*
G01*
X795631Y1542200D02*
G03*
X795631Y1542200I-4031J0D01*
G01*
X893031Y1719300D02*
G03*
X893031Y1719300I-4031J0D01*
G01*
X1018031D02*
G03*
X1018031Y1719300I-4031J0D01*
G01*
X1035631Y1542200D02*
G03*
X1035631Y1542200I-4031J0D01*
G01*
X1133031Y1719300D02*
G03*
X1133031Y1719300I-4031J0D01*
G01*
X1258031D02*
G03*
X1258031Y1719300I-4031J0D01*
G01*
X1275631Y1542200D02*
G03*
X1275631Y1542200I-4031J0D01*
G01*
X1373031Y1719300D02*
G03*
X1373031Y1719300I-4031J0D01*
G01*
X1498031D02*
G03*
X1498031Y1719300I-4031J0D01*
G01*
X1515631Y1542200D02*
G03*
X1515631Y1542200I-4031J0D01*
G01*
X1613031Y1719300D02*
G03*
X1613031Y1719300I-4031J0D01*
G01*
X1738031D02*
G03*
X1738031Y1719300I-4031J0D01*
G01*
X1755631Y1542200D02*
G03*
X1755631Y1542200I-4031J0D01*
G01*
X1853031Y1719300D02*
G03*
X1853031Y1719300I-4031J0D01*
G01*
X1978031D02*
G03*
X1978031Y1719300I-4031J0D01*
G01*
X1995631Y1542200D02*
G03*
X1995631Y1542200I-4031J0D01*
G01*
X2093031Y1719300D02*
G03*
X2093031Y1719300I-4031J0D01*
G01*
X2218031D02*
G03*
X2218031Y1719300I-4031J0D01*
G01*
X2235631Y1542200D02*
G03*
X2235631Y1542200I-4031J0D01*
G01*
X2333031Y1719300D02*
G03*
X2333031Y1719300I-4031J0D01*
G01*
X0Y0D02*
Y1800000D01*
Y0D02*
X2400000D01*
X0Y1800000D02*
X2400000D01*
Y0D02*
Y1800000D01*
X0Y50000D02*
X230000D01*
Y50500D02*
Y390000D01*
X0D02*
X230000D01*
X0Y50000D02*
Y390000D01*
X240000Y50000D02*
X470000D01*
Y50500D02*
Y390000D01*
X240000D02*
X470000D01*
X240000Y50000D02*
Y390000D01*
X480000Y50000D02*
X710000D01*
Y50500D02*
Y390000D01*
X480000D02*
X710000D01*
X480000Y50000D02*
Y390000D01*
X720000Y50000D02*
X950000D01*
Y50500D02*
Y390000D01*
X720000D02*
X950000D01*
X720000Y50000D02*
Y390000D01*
X960000Y50000D02*
X1190000D01*
Y50500D02*
Y390000D01*
X960000D02*
X1190000D01*
X960000Y50000D02*
Y390000D01*
X1200000Y50000D02*
X1430000D01*
Y50500D02*
Y390000D01*
X1200000D02*
X1430000D01*
X1200000Y50000D02*
Y390000D01*
X1440000Y50000D02*
X1670000D01*
Y50500D02*
Y390000D01*
X1440000D02*
X1670000D01*
X1440000Y50000D02*
Y390000D01*
X1680000Y50000D02*
X1910000D01*
Y50500D02*
Y390000D01*
X1680000D02*
X1910000D01*
X1680000Y50000D02*
Y390000D01*
X1920000Y50000D02*
X2150000D01*
Y50500D02*
Y390000D01*
X1920000D02*
X2150000D01*
X1920000Y50000D02*
Y390000D01*
X2160000Y50000D02*
X2390000D01*
Y50500D02*
Y390000D01*
X2160000D02*
X2390000D01*
X2160000Y50000D02*
Y390000D01*
X0D02*
X230000D01*
Y390500D02*
Y730000D01*
X0D02*
X230000D01*
X0Y390000D02*
Y730000D01*
X240000Y390000D02*
X470000D01*
Y390500D02*
Y730000D01*
X240000D02*
X470000D01*
X240000Y390000D02*
Y730000D01*
X480000Y390000D02*
X710000D01*
Y390500D02*
Y730000D01*
X480000D02*
X710000D01*
X480000Y390000D02*
Y730000D01*
X720000Y390000D02*
X950000D01*
Y390500D02*
Y730000D01*
X720000D02*
X950000D01*
X720000Y390000D02*
Y730000D01*
X960000Y390000D02*
X1190000D01*
Y390500D02*
Y730000D01*
X960000D02*
X1190000D01*
X960000Y390000D02*
Y730000D01*
X1200000Y390000D02*
X1430000D01*
Y390500D02*
Y730000D01*
X1200000D02*
X1430000D01*
X1200000Y390000D02*
Y730000D01*
X1440000Y390000D02*
X1670000D01*
Y390500D02*
Y730000D01*
X1440000D02*
X1670000D01*
X1440000Y390000D02*
Y730000D01*
X1680000Y390000D02*
X1910000D01*
Y390500D02*
Y730000D01*
X1680000D02*
X1910000D01*
X1680000Y390000D02*
Y730000D01*
X1920000Y390000D02*
X2150000D01*
Y390500D02*
Y730000D01*
X1920000D02*
X2150000D01*
X1920000Y390000D02*
Y730000D01*
X2160000Y390000D02*
X2390000D01*
Y390500D02*
Y730000D01*
X2160000D02*
X2390000D01*
X2160000Y390000D02*
Y730000D01*
X0D02*
X230000D01*
Y730500D02*
Y1070000D01*
X0D02*
X230000D01*
X0Y730000D02*
Y1070000D01*
X240000Y730000D02*
X470000D01*
Y730500D02*
Y1070000D01*
X240000D02*
X470000D01*
X240000Y730000D02*
Y1070000D01*
X480000Y730000D02*
X710000D01*
Y730500D02*
Y1070000D01*
X480000D02*
X710000D01*
X480000Y730000D02*
Y1070000D01*
X720000Y730000D02*
X950000D01*
Y730500D02*
Y1070000D01*
X720000D02*
X950000D01*
X720000Y730000D02*
Y1070000D01*
X960000Y730000D02*
X1190000D01*
Y730500D02*
Y1070000D01*
X960000D02*
X1190000D01*
X960000Y730000D02*
Y1070000D01*
X1200000Y730000D02*
X1430000D01*
Y730500D02*
Y1070000D01*
X1200000D02*
X1430000D01*
X1200000Y730000D02*
Y1070000D01*
X1440000Y730000D02*
X1670000D01*
Y730500D02*
Y1070000D01*
X1440000D02*
X1670000D01*
X1440000Y730000D02*
Y1070000D01*
X1680000Y730000D02*
X1910000D01*
Y730500D02*
Y1070000D01*
X1680000D02*
X1910000D01*
X1680000Y730000D02*
Y1070000D01*
X1920000Y730000D02*
X2150000D01*
Y730500D02*
Y1070000D01*
X1920000D02*
X2150000D01*
X1920000Y730000D02*
Y1070000D01*
X2160000Y730000D02*
X2390000D01*
Y730500D02*
Y1070000D01*
X2160000D02*
X2390000D01*
X2160000Y730000D02*
Y1070000D01*
X0D02*
X230000D01*
Y1070500D02*
Y1410000D01*
X0D02*
X230000D01*
X0Y1070000D02*
Y1410000D01*
X240000Y1070000D02*
X470000D01*
Y1070500D02*
Y1410000D01*
X240000D02*
X470000D01*
X240000Y1070000D02*
Y1410000D01*
X480000Y1070000D02*
X710000D01*
Y1070500D02*
Y1410000D01*
X480000D02*
X710000D01*
X480000Y1070000D02*
Y1410000D01*
X720000Y1070000D02*
X950000D01*
Y1070500D02*
Y1410000D01*
X720000D02*
X950000D01*
X720000Y1070000D02*
Y1410000D01*
X960000Y1070000D02*
X1190000D01*
Y1070500D02*
Y1410000D01*
X960000D02*
X1190000D01*
X960000Y1070000D02*
Y1410000D01*
X1200000Y1070000D02*
X1430000D01*
Y1070500D02*
Y1410000D01*
X1200000D02*
X1430000D01*
X1200000Y1070000D02*
Y1410000D01*
X1440000Y1070000D02*
X1670000D01*
Y1070500D02*
Y1410000D01*
X1440000D02*
X1670000D01*
X1440000Y1070000D02*
Y1410000D01*
X1680000Y1070000D02*
X1910000D01*
Y1070500D02*
Y1410000D01*
X1680000D02*
X1910000D01*
X1680000Y1070000D02*
Y1410000D01*
X1920000Y1070000D02*
X2150000D01*
Y1070500D02*
Y1410000D01*
X1920000D02*
X2150000D01*
X1920000Y1070000D02*
Y1410000D01*
X2160000Y1070000D02*
X2390000D01*
Y1070500D02*
Y1410000D01*
X2160000D02*
X2390000D01*
X2160000Y1070000D02*
Y1410000D01*
X0D02*
X230000D01*
Y1410500D02*
Y1750000D01*
X0D02*
X230000D01*
X0Y1410000D02*
Y1750000D01*
X240000Y1410000D02*
X470000D01*
Y1410500D02*
Y1750000D01*
X240000D02*
X470000D01*
X240000Y1410000D02*
Y1750000D01*
X480000Y1410000D02*
X710000D01*
Y1410500D02*
Y1750000D01*
X480000D02*
X710000D01*
X480000Y1410000D02*
Y1750000D01*
X720000Y1410000D02*
X950000D01*
Y1410500D02*
Y1750000D01*
X720000D02*
X950000D01*
X720000Y1410000D02*
Y1750000D01*
X960000Y1410000D02*
X1190000D01*
Y1410500D02*
Y1750000D01*
X960000D02*
X1190000D01*
X960000Y1410000D02*
Y1750000D01*
X1200000Y1410000D02*
X1430000D01*
Y1410500D02*
Y1750000D01*
X1200000D02*
X1430000D01*
X1200000Y1410000D02*
Y1750000D01*
X1440000Y1410000D02*
X1670000D01*
Y1410500D02*
Y1750000D01*
X1440000D02*
X1670000D01*
X1440000Y1410000D02*
Y1750000D01*
X1680000Y1410000D02*
X1910000D01*
Y1410500D02*
Y1750000D01*
X1680000D02*
X1910000D01*
X1680000Y1410000D02*
Y1750000D01*
X1920000Y1410000D02*
X2150000D01*
Y1410500D02*
Y1750000D01*
X1920000D02*
X2150000D01*
X1920000Y1410000D02*
Y1750000D01*
X2160000Y1410000D02*
X2390000D01*
Y1410500D02*
Y1750000D01*
X2160000D02*
X2390000D01*
X2160000Y1410000D02*
Y1750000D01*
D20*
X9063Y2052377D02*
X11032D01*
X13000D02*
X14968D01*
X16937D02*
X18905D01*
X20874D02*
X22842D01*
X24811D02*
X26779D01*
X28748D02*
X30716D01*
X32685D02*
X34653D01*
X36622D02*
X38591D01*
X40559D02*
X42528D01*
X44496D02*
X46465D01*
X48433D02*
X50402D01*
X52370D02*
X54339D01*
X56307D02*
X58276D01*
X60244D02*
X62213D01*
X64181D02*
X66150D01*
X68118D02*
X70087D01*
X72055D02*
X74024D01*
X75992D02*
X77961D01*
X79929D02*
X81898D01*
X83866D02*
X85835D01*
X87803D02*
X89772D01*
X91740D02*
X93709D01*
X95677D02*
X97646D01*
X99614D02*
X101583D01*
X103551D02*
X105520D01*
X107488D02*
X109457D01*
X111425D02*
X113394D01*
X115362D02*
X117331D01*
X119299D02*
X121268D01*
X123236D02*
X125205D01*
X127173D02*
X129142D01*
X131110D02*
X133079D01*
X135047D02*
X137016D01*
X138984D02*
X140953D01*
X142921D02*
X144890D01*
X146858D02*
X148827D01*
X150795D02*
X152764D01*
X154732D02*
X156701D01*
X158669D02*
X160638D01*
X162606D02*
X164575D01*
X166543D02*
X168512D01*
X170480D02*
X172449D01*
X174417D02*
X176386D01*
X178354D02*
X180323D01*
X9363Y2089817D02*
X11332D01*
X13300D02*
X15269D01*
X17237D02*
X19206D01*
X21174D02*
X23143D01*
X25111D02*
X27079D01*
X29048D02*
X31016D01*
X32985D02*
X34953D01*
X36922D02*
X38891D01*
X40859D02*
X42828D01*
X44796D02*
X46765D01*
X48733D02*
X50702D01*
X52670D02*
X54639D01*
X56607D02*
X58576D01*
X60544D02*
X62513D01*
X64481D02*
X66450D01*
X68418D02*
X70387D01*
X72355D02*
X74324D01*
X76292D02*
X78261D01*
X80229D02*
X82198D01*
X84166D02*
X86135D01*
X88103D02*
X90072D01*
X92040D02*
X94009D01*
X95977D02*
X97946D01*
X99914D02*
X101883D01*
X103851D02*
X105820D01*
X107788D02*
X109757D01*
X111725D02*
X113694D01*
X115662D02*
X117631D01*
X119599D02*
X121568D01*
X123536D02*
X125505D01*
X127473D02*
X129442D01*
X131410D02*
X133379D01*
X135347D02*
X137316D01*
X139284D02*
X141253D01*
X143221D02*
X145190D01*
X147158D02*
X149127D01*
X151095D02*
X153064D01*
X155032D02*
X157001D01*
X158969D02*
X160938D01*
X162906D02*
X164875D01*
X166843D02*
X168812D01*
X170780D02*
X172749D01*
X174717D02*
X176686D01*
X178654D02*
X180623D01*
X178054Y2163927D02*
X180023D01*
X174117D02*
X176086D01*
X170180D02*
X172149D01*
X166243D02*
X168212D01*
X162306D02*
X164275D01*
X158369D02*
X160338D01*
X154432D02*
X156401D01*
X150495D02*
X152464D01*
X146558D02*
X148527D01*
X142621D02*
X144590D01*
X138684D02*
X140653D01*
X134747D02*
X136716D01*
X130810D02*
X132779D01*
X126873D02*
X128842D01*
X122936D02*
X124905D01*
X118999D02*
X120968D01*
X115062D02*
X117031D01*
X111125D02*
X113094D01*
X107188D02*
X109157D01*
X103251D02*
X105220D01*
X99314D02*
X101283D01*
X95377D02*
X97346D01*
X91440D02*
X93409D01*
X87503D02*
X89472D01*
X83566D02*
X85535D01*
X79629D02*
X81598D01*
X75692D02*
X77661D01*
X71755D02*
X73724D01*
X67818D02*
X69787D01*
X63881D02*
X65850D01*
X59944D02*
X61913D01*
X56007D02*
X57976D01*
X52070D02*
X54039D01*
X48133D02*
X50102D01*
X44196D02*
X46165D01*
X40259D02*
X42228D01*
X36322D02*
X38291D01*
X32385D02*
X34354D01*
X28448D02*
X30417D01*
X24511D02*
X26480D01*
X20574D02*
X22543D01*
X16637D02*
X18606D01*
X12700D02*
X14669D01*
X8763D02*
X10731D01*
X181991Y2030500D02*
Y2162943D01*
X8763Y2030500D02*
X181991D01*
X8763D02*
Y2162943D01*
Y2174754D01*
X181991D01*
Y2162943D02*
Y2174754D01*
X9263Y2184249D02*
Y2250200D01*
Y2184249D02*
X235400D01*
Y2250200D01*
X9263D02*
X235400D01*
M02*
