%FSLAX25Y25*%
%MOIN*%
G70*
G01*
G75*
G04 Layer_Color=16711935*
%ADD10C,0.01200*%
G04:AMPARAMS|DCode=11|XSize=37.4mil|YSize=25.59mil|CornerRadius=6.4mil|HoleSize=0mil|Usage=FLASHONLY|Rotation=270.000|XOffset=0mil|YOffset=0mil|HoleType=Round|Shape=RoundedRectangle|*
%AMROUNDEDRECTD11*
21,1,0.03740,0.01280,0,0,270.0*
21,1,0.02461,0.02559,0,0,270.0*
1,1,0.01280,-0.00640,-0.01230*
1,1,0.01280,-0.00640,0.01230*
1,1,0.01280,0.00640,0.01230*
1,1,0.01280,0.00640,-0.01230*
%
%ADD11ROUNDEDRECTD11*%
%ADD12R,0.02559X0.03740*%
%ADD13O,0.02362X0.07480*%
%ADD14R,0.03900X0.04300*%
%ADD15C,0.04000*%
%ADD16R,0.04300X0.03900*%
%ADD17C,0.01500*%
%ADD18C,0.01000*%
%ADD19C,0.02000*%
%ADD20C,0.00394*%
%ADD21R,0.07087X0.07087*%
%ADD22C,0.07087*%
%ADD23C,0.09449*%
%ADD24R,0.07500X0.07500*%
%ADD25C,0.07500*%
%ADD26C,0.08661*%
%ADD27C,0.31496*%
%ADD28C,0.02500*%
%ADD29C,0.00787*%
%ADD30C,0.01575*%
%ADD31C,0.00984*%
%ADD32C,0.00700*%
%ADD33C,0.00800*%
G04:AMPARAMS|DCode=34|XSize=45.4mil|YSize=33.59mil|CornerRadius=10.4mil|HoleSize=0mil|Usage=FLASHONLY|Rotation=270.000|XOffset=0mil|YOffset=0mil|HoleType=Round|Shape=RoundedRectangle|*
%AMROUNDEDRECTD34*
21,1,0.04540,0.01280,0,0,270.0*
21,1,0.02461,0.03359,0,0,270.0*
1,1,0.02080,-0.00640,-0.01230*
1,1,0.02080,-0.00640,0.01230*
1,1,0.02080,0.00640,0.01230*
1,1,0.02080,0.00640,-0.01230*
%
%ADD34ROUNDEDRECTD34*%
%ADD35R,0.03359X0.04540*%
%ADD36O,0.03162X0.08280*%
%ADD37R,0.04700X0.05100*%
%ADD38C,0.08000*%
%ADD39R,0.05100X0.04700*%
%ADD40R,0.07887X0.07887*%
%ADD41C,0.07887*%
%ADD42C,0.10249*%
%ADD43R,0.08300X0.08300*%
%ADD44C,0.08300*%
%ADD45C,0.09461*%
%ADD46C,0.32296*%
%ADD47C,0.03300*%
D10*
X14600Y2112198D02*
Y2106200D01*
X17599D01*
X18599Y2107200D01*
Y2108199D01*
X17599Y2109199D01*
X14600D01*
X17599D01*
X18599Y2110199D01*
Y2111198D01*
X17599Y2112198D01*
X14600D01*
X21598Y2106200D02*
X23597D01*
X24597Y2107200D01*
Y2109199D01*
X23597Y2110199D01*
X21598D01*
X20598Y2109199D01*
Y2107200D01*
X21598Y2106200D01*
X27596Y2111198D02*
Y2110199D01*
X26596D01*
X28596D01*
X27596D01*
Y2107200D01*
X28596Y2106200D01*
X32594Y2111198D02*
Y2110199D01*
X31594D01*
X33594D01*
X32594D01*
Y2107200D01*
X33594Y2106200D01*
X37593D02*
X39592D01*
X40592Y2107200D01*
Y2109199D01*
X39592Y2110199D01*
X37593D01*
X36593Y2109199D01*
Y2107200D01*
X37593Y2106200D01*
X42591D02*
Y2110199D01*
X43591D01*
X44590Y2109199D01*
Y2106200D01*
Y2109199D01*
X45590Y2110199D01*
X46590Y2109199D01*
Y2106200D01*
X58586Y2111198D02*
X57586Y2112198D01*
X55587D01*
X54587Y2111198D01*
Y2110199D01*
X55587Y2109199D01*
X57586D01*
X58586Y2108199D01*
Y2107200D01*
X57586Y2106200D01*
X55587D01*
X54587Y2107200D01*
X61585Y2106200D02*
X63584D01*
X64584Y2107200D01*
Y2109199D01*
X63584Y2110199D01*
X61585D01*
X60585Y2109199D01*
Y2107200D01*
X61585Y2106200D01*
X66583D02*
X68582D01*
X67583D01*
Y2112198D01*
X66583D01*
X75580D02*
Y2106200D01*
X72581D01*
X71582Y2107200D01*
Y2109199D01*
X72581Y2110199D01*
X75580D01*
X80579Y2106200D02*
X78579D01*
X77580Y2107200D01*
Y2109199D01*
X78579Y2110199D01*
X80579D01*
X81578Y2109199D01*
Y2108199D01*
X77580D01*
X83578Y2110199D02*
Y2106200D01*
Y2108199D01*
X84577Y2109199D01*
X85577Y2110199D01*
X86577D01*
X17199Y2078300D02*
X15200D01*
Y2084298D01*
X17199D01*
X20198Y2078300D02*
Y2084298D01*
X22198Y2082299D01*
X24197Y2084298D01*
Y2078300D01*
X26196D02*
X28196D01*
X27196D01*
Y2084298D01*
X26196Y2083298D01*
X31195Y2078300D02*
X33194D01*
Y2084298D01*
X31195D01*
X42191D02*
Y2078300D01*
X45190D01*
X46190Y2079300D01*
Y2080299D01*
X45190Y2081299D01*
X42191D01*
X45190D01*
X46190Y2082299D01*
Y2083298D01*
X45190Y2084298D01*
X42191D01*
X49189Y2078300D02*
X51188D01*
X52188Y2079300D01*
Y2081299D01*
X51188Y2082299D01*
X49189D01*
X48189Y2081299D01*
Y2079300D01*
X49189Y2078300D01*
X55187Y2082299D02*
X57186D01*
X58186Y2081299D01*
Y2078300D01*
X55187D01*
X54187Y2079300D01*
X55187Y2080299D01*
X58186D01*
X60185Y2082299D02*
Y2078300D01*
Y2080299D01*
X61185Y2081299D01*
X62185Y2082299D01*
X63184D01*
X70182Y2084298D02*
Y2078300D01*
X67183D01*
X66184Y2079300D01*
Y2081299D01*
X67183Y2082299D01*
X70182D01*
X81179Y2084298D02*
X79179D01*
X78180Y2083298D01*
Y2079300D01*
X79179Y2078300D01*
X81179D01*
X82178Y2079300D01*
Y2083298D01*
X81179Y2084298D01*
X84178Y2082299D02*
Y2079300D01*
X85177Y2078300D01*
X88176D01*
Y2082299D01*
X91175Y2083298D02*
Y2082299D01*
X90176D01*
X92175D01*
X91175D01*
Y2079300D01*
X92175Y2078300D01*
X95174D02*
X97174D01*
X96174D01*
Y2084298D01*
X95174D01*
X100172Y2078300D02*
X102172D01*
X101172D01*
Y2082299D01*
X100172D01*
X105171Y2078300D02*
Y2082299D01*
X108170D01*
X109170Y2081299D01*
Y2078300D01*
X114168D02*
X112169D01*
X111169Y2079300D01*
Y2081299D01*
X112169Y2082299D01*
X114168D01*
X115168Y2081299D01*
Y2080299D01*
X111169D01*
X14600Y2172878D02*
Y2168879D01*
X16599Y2166879D01*
X18599Y2168879D01*
Y2172878D01*
X20598Y2166879D02*
X22597D01*
X21598D01*
Y2170878D01*
X20598D01*
X25596Y2166879D02*
X28596D01*
X29595Y2167879D01*
X28596Y2168879D01*
X26596D01*
X25596Y2169879D01*
X26596Y2170878D01*
X29595D01*
X31594Y2166879D02*
X33594D01*
X32594D01*
Y2170878D01*
X31594D01*
X36593Y2172878D02*
Y2166879D01*
X39592D01*
X40592Y2167879D01*
Y2168879D01*
Y2169879D01*
X39592Y2170878D01*
X36593D01*
X42591Y2166879D02*
X44590D01*
X43591D01*
Y2172878D01*
X42591D01*
X50588Y2166879D02*
X48589D01*
X47589Y2167879D01*
Y2169879D01*
X48589Y2170878D01*
X50588D01*
X51588Y2169879D01*
Y2168879D01*
X47589D01*
X59585Y2172878D02*
Y2166879D01*
X63584D01*
X66583Y2170878D02*
X68582D01*
X69582Y2169879D01*
Y2166879D01*
X66583D01*
X65583Y2167879D01*
X66583Y2168879D01*
X69582D01*
X71582Y2170878D02*
Y2167879D01*
X72581Y2166879D01*
X75580D01*
Y2165880D01*
X74581Y2164880D01*
X73581D01*
X75580Y2166879D02*
Y2170878D01*
X80579Y2166879D02*
X78579D01*
X77580Y2167879D01*
Y2169879D01*
X78579Y2170878D01*
X80579D01*
X81578Y2169879D01*
Y2168879D01*
X77580D01*
X83578Y2170878D02*
Y2166879D01*
Y2168879D01*
X84577Y2169879D01*
X85577Y2170878D01*
X86577D01*
X91575Y2166879D02*
X89576Y2168879D01*
Y2170878D01*
X91575Y2172878D01*
X94574Y2166879D02*
X97573D01*
X98573Y2167879D01*
X97573Y2168879D01*
X95574D01*
X94574Y2169879D01*
X95574Y2170878D01*
X98573D01*
X100572Y2166879D02*
X102571Y2168879D01*
Y2170878D01*
X100572Y2172878D01*
X21364Y2235431D02*
Y2242428D01*
X24863D01*
X26029Y2241262D01*
Y2238930D01*
X24863Y2237763D01*
X21364D01*
X28362Y2240096D02*
Y2235431D01*
Y2237763D01*
X29528Y2238930D01*
X30694Y2240096D01*
X31861D01*
X36526Y2235431D02*
X38858D01*
X40025Y2236597D01*
Y2238930D01*
X38858Y2240096D01*
X36526D01*
X35359Y2238930D01*
Y2236597D01*
X36526Y2235431D01*
X42357Y2233098D02*
X43523D01*
X44690Y2234264D01*
Y2240096D01*
X52854Y2235431D02*
X50521D01*
X49355Y2236597D01*
Y2238930D01*
X50521Y2240096D01*
X52854D01*
X54020Y2238930D01*
Y2237763D01*
X49355D01*
X61018Y2240096D02*
X57519D01*
X56353Y2238930D01*
Y2236597D01*
X57519Y2235431D01*
X61018D01*
X64517Y2241262D02*
Y2240096D01*
X63350D01*
X65683D01*
X64517D01*
Y2236597D01*
X65683Y2235431D01*
X69182Y2240096D02*
X70348D01*
Y2238930D01*
X69182D01*
Y2240096D01*
Y2236597D02*
X70348D01*
Y2235431D01*
X69182D01*
Y2236597D01*
X15532Y2223620D02*
Y2230617D01*
X19031D01*
X20198Y2229451D01*
Y2227118D01*
X19031Y2225952D01*
X15532D01*
X17865D02*
X20198Y2223620D01*
X26029D02*
X23697D01*
X22530Y2224786D01*
Y2227118D01*
X23697Y2228285D01*
X26029D01*
X27195Y2227118D01*
Y2225952D01*
X22530D01*
X29528Y2228285D02*
X31861Y2223620D01*
X34193Y2228285D01*
X36526Y2223620D02*
X38858D01*
X37692D01*
Y2228285D01*
X36526D01*
X42357Y2223620D02*
X45856D01*
X47022Y2224786D01*
X45856Y2225952D01*
X43523D01*
X42357Y2227118D01*
X43523Y2228285D01*
X47022D01*
X49355Y2223620D02*
X51688D01*
X50521D01*
Y2228285D01*
X49355D01*
X56353Y2223620D02*
X58685D01*
X59851Y2224786D01*
Y2227118D01*
X58685Y2228285D01*
X56353D01*
X55186Y2227118D01*
Y2224786D01*
X56353Y2223620D01*
X62184D02*
Y2228285D01*
X65683D01*
X66849Y2227118D01*
Y2223620D01*
X69182Y2228285D02*
X70348D01*
Y2227118D01*
X69182D01*
Y2228285D01*
Y2224786D02*
X70348D01*
Y2223620D01*
X69182D01*
Y2224786D01*
X13200Y2218806D02*
Y2211809D01*
X16699D01*
X17865Y2212975D01*
Y2217640D01*
X16699Y2218806D01*
X13200D01*
X20198Y2216474D02*
Y2211809D01*
Y2214141D01*
X21364Y2215307D01*
X22530Y2216474D01*
X23697D01*
X28362D02*
X30694D01*
X31861Y2215307D01*
Y2211809D01*
X28362D01*
X27195Y2212975D01*
X28362Y2214141D01*
X31861D01*
X34193Y2216474D02*
Y2212975D01*
X35359Y2211809D01*
X36526Y2212975D01*
X37692Y2211809D01*
X38858Y2212975D01*
Y2216474D01*
X41191Y2211809D02*
Y2216474D01*
X44690D01*
X45856Y2215307D01*
Y2211809D01*
X55186Y2218806D02*
Y2211809D01*
X58685D01*
X59851Y2212975D01*
Y2214141D01*
X58685Y2215307D01*
X55186D01*
X58685D01*
X59851Y2216474D01*
Y2217640D01*
X58685Y2218806D01*
X55186D01*
X62184Y2216474D02*
Y2212975D01*
X63350Y2211809D01*
X66849D01*
Y2210642D01*
X65683Y2209476D01*
X64517D01*
X66849Y2211809D02*
Y2216474D01*
X69182D02*
X70348D01*
Y2215307D01*
X69182D01*
Y2216474D01*
Y2212975D02*
X70348D01*
Y2211809D01*
X69182D01*
Y2212975D01*
X42357Y2206995D02*
Y2199998D01*
X45856D01*
X47022Y2201164D01*
Y2205829D01*
X45856Y2206995D01*
X42357D01*
X50521Y2204663D02*
X52854D01*
X54020Y2203497D01*
Y2199998D01*
X50521D01*
X49355Y2201164D01*
X50521Y2202330D01*
X54020D01*
X57519Y2205829D02*
Y2204663D01*
X56353D01*
X58685D01*
X57519D01*
Y2201164D01*
X58685Y2199998D01*
X65683D02*
X63350D01*
X62184Y2201164D01*
Y2203497D01*
X63350Y2204663D01*
X65683D01*
X66849Y2203497D01*
Y2202330D01*
X62184D01*
X69182Y2204663D02*
X70348D01*
Y2203497D01*
X69182D01*
Y2204663D01*
Y2201164D02*
X70348D01*
Y2199998D01*
X69182D01*
Y2201164D01*
X42357Y2195184D02*
X47022D01*
X44690D01*
Y2188187D01*
X49355D02*
X51688D01*
X50521D01*
Y2192852D01*
X49355D01*
X55186Y2188187D02*
Y2192852D01*
X56353D01*
X57519Y2191685D01*
Y2188187D01*
Y2191685D01*
X58685Y2192852D01*
X59851Y2191685D01*
Y2188187D01*
X65683D02*
X63350D01*
X62184Y2189353D01*
Y2191685D01*
X63350Y2192852D01*
X65683D01*
X66849Y2191685D01*
Y2190519D01*
X62184D01*
X69182Y2192852D02*
X70348D01*
Y2191685D01*
X69182D01*
Y2192852D01*
Y2189353D02*
X70348D01*
Y2188187D01*
X69182D01*
Y2189353D01*
X84794Y2241262D02*
X83628Y2242428D01*
X81295D01*
X80129Y2241262D01*
Y2240096D01*
X81295Y2238930D01*
X83628D01*
X84794Y2237763D01*
Y2236597D01*
X83628Y2235431D01*
X81295D01*
X80129Y2236597D01*
X87127Y2233098D02*
Y2240096D01*
X90626D01*
X91792Y2238930D01*
Y2236597D01*
X90626Y2235431D01*
X87127D01*
X95291Y2240096D02*
X97623D01*
X98790Y2238930D01*
Y2235431D01*
X95291D01*
X94125Y2236597D01*
X95291Y2237763D01*
X98790D01*
X101122Y2240096D02*
Y2235431D01*
Y2237763D01*
X102289Y2238930D01*
X103455Y2240096D01*
X104621D01*
X108120Y2235431D02*
Y2242428D01*
Y2237763D02*
X111619Y2240096D01*
X108120Y2237763D02*
X111619Y2235431D01*
X115118Y2242428D02*
X117450D01*
X116284D01*
Y2235431D01*
X115118D01*
X117450D01*
X124448Y2242428D02*
X122116D01*
X120949Y2241262D01*
Y2236597D01*
X122116Y2235431D01*
X124448D01*
X125614Y2236597D01*
Y2241262D01*
X124448Y2242428D01*
X134945D02*
X139610D01*
X137277D01*
Y2235431D01*
X141943Y2242428D02*
Y2235431D01*
Y2238930D01*
X143109Y2240096D01*
X145441D01*
X146608Y2238930D01*
Y2235431D01*
X152439D02*
X150107D01*
X148940Y2236597D01*
Y2238930D01*
X150107Y2240096D01*
X152439D01*
X153605Y2238930D01*
Y2237763D01*
X148940D01*
X155938Y2240096D02*
Y2235431D01*
Y2237763D01*
X157104Y2238930D01*
X158271Y2240096D01*
X159437D01*
X162936Y2235431D02*
Y2240096D01*
X164102D01*
X165268Y2238930D01*
Y2235431D01*
Y2238930D01*
X166435Y2240096D01*
X167601Y2238930D01*
Y2235431D01*
X171100Y2240096D02*
X173432D01*
X174599Y2238930D01*
Y2235431D01*
X171100D01*
X169933Y2236597D01*
X171100Y2237763D01*
X174599D01*
X176931Y2235431D02*
X179264D01*
X178097D01*
Y2242428D01*
X176931D01*
X194425Y2241262D02*
X193259Y2242428D01*
X190927D01*
X189760Y2241262D01*
Y2240096D01*
X190927Y2238930D01*
X193259D01*
X194425Y2237763D01*
Y2236597D01*
X193259Y2235431D01*
X190927D01*
X189760Y2236597D01*
X196758Y2242428D02*
Y2235431D01*
Y2238930D01*
X197924Y2240096D01*
X200257D01*
X201423Y2238930D01*
Y2235431D01*
X203756D02*
X206088D01*
X204922D01*
Y2240096D01*
X203756D01*
X213086Y2235431D02*
X210754D01*
X209587Y2236597D01*
Y2238930D01*
X210754Y2240096D01*
X213086D01*
X214252Y2238930D01*
Y2237763D01*
X209587D01*
X216585Y2235431D02*
X218918D01*
X217751D01*
Y2242428D01*
X216585D01*
X227082D02*
Y2235431D01*
X223583D01*
X222416Y2236597D01*
Y2238930D01*
X223583Y2240096D01*
X227082D01*
X80129Y2223620D02*
Y2228285D01*
X82462Y2230617D01*
X84794Y2228285D01*
Y2223620D01*
Y2227118D01*
X80129D01*
X84794Y2218806D02*
X82462D01*
X83628D01*
Y2212975D01*
X82462Y2211809D01*
X81295D01*
X80129Y2212975D01*
X87127Y2211809D02*
X89459D01*
X88293D01*
Y2216474D01*
X87127D01*
X92958Y2211809D02*
Y2216474D01*
X94125D01*
X95291Y2215307D01*
Y2211809D01*
Y2215307D01*
X96457Y2216474D01*
X97623Y2215307D01*
Y2211809D01*
X111619Y2217640D02*
X110453Y2218806D01*
X108120D01*
X106954Y2217640D01*
Y2212975D01*
X108120Y2211809D01*
X110453D01*
X111619Y2212975D01*
Y2215307D01*
X109286D01*
X113952Y2216474D02*
Y2211809D01*
Y2214141D01*
X115118Y2215307D01*
X116284Y2216474D01*
X117450D01*
X120949Y2211809D02*
X123282D01*
X122116D01*
Y2216474D01*
X120949D01*
X126781Y2211809D02*
X130280D01*
X131446Y2212975D01*
X130280Y2214141D01*
X127947D01*
X126781Y2215307D01*
X127947Y2216474D01*
X131446D01*
X133778D02*
X138444D01*
X133778Y2211809D01*
X138444D01*
X140776Y2218806D02*
Y2211809D01*
X144275D01*
X145441Y2212975D01*
Y2214141D01*
Y2215307D01*
X144275Y2216474D01*
X140776D01*
X148940D02*
X151273D01*
X152439Y2215307D01*
Y2211809D01*
X148940D01*
X147774Y2212975D01*
X148940Y2214141D01*
X152439D01*
X159437Y2216474D02*
X155938D01*
X154772Y2215307D01*
Y2212975D01*
X155938Y2211809D01*
X159437D01*
X161769Y2218806D02*
Y2211809D01*
Y2215307D01*
X162936Y2216474D01*
X165268D01*
X166435Y2215307D01*
Y2211809D01*
X172266D02*
X169933D01*
X168767Y2212975D01*
Y2215307D01*
X169933Y2216474D01*
X172266D01*
X173432Y2215307D01*
Y2214141D01*
X168767D01*
X175765Y2216474D02*
Y2211809D01*
Y2214141D01*
X176931Y2215307D01*
X178097Y2216474D01*
X179264D01*
X84794Y2195184D02*
X82462Y2194018D01*
X80129Y2191685D01*
Y2189353D01*
X81295Y2188187D01*
X83628D01*
X84794Y2189353D01*
Y2190519D01*
X83628Y2191685D01*
X80129D01*
X87127Y2192852D02*
X88293D01*
Y2191685D01*
X87127D01*
Y2192852D01*
Y2189353D02*
X88293D01*
Y2188187D01*
X87127D01*
Y2189353D01*
X97623Y2188187D02*
X92958D01*
X97623Y2192852D01*
Y2194018D01*
X96457Y2195184D01*
X94125D01*
X92958Y2194018D01*
X104621Y2195184D02*
X99956D01*
Y2191685D01*
X102289Y2192852D01*
X103455D01*
X104621Y2191685D01*
Y2189353D01*
X103455Y2188187D01*
X101122D01*
X99956Y2189353D01*
X106954Y2192852D02*
X108120D01*
Y2191685D01*
X106954D01*
Y2192852D01*
Y2189353D02*
X108120D01*
Y2188187D01*
X106954D01*
Y2189353D01*
X116284Y2188187D02*
Y2195184D01*
X112785Y2191685D01*
X117450D01*
X119783Y2188187D02*
X122116D01*
X120949D01*
Y2195184D01*
X119783Y2194018D01*
X132612Y2188187D02*
Y2195184D01*
X136111D01*
X137277Y2194018D01*
Y2191685D01*
X136111Y2190519D01*
X132612D01*
X139610Y2188187D02*
Y2195184D01*
X141943Y2192852D01*
X144275Y2195184D01*
Y2188187D01*
X80129Y2205829D02*
X81295Y2206995D01*
X83628D01*
X84794Y2205829D01*
Y2204663D01*
X83628Y2203497D01*
X84794Y2202330D01*
Y2201164D01*
X83628Y2199998D01*
X81295D01*
X80129Y2201164D01*
Y2202330D01*
X81295Y2203497D01*
X80129Y2204663D01*
Y2205829D01*
X81295Y2203497D02*
X83628D01*
X87127Y2199998D02*
X91792Y2204663D01*
X94125Y2205829D02*
X95291Y2206995D01*
X97623D01*
X98790Y2205829D01*
Y2204663D01*
X97623Y2203497D01*
X96457D01*
X97623D01*
X98790Y2202330D01*
Y2201164D01*
X97623Y2199998D01*
X95291D01*
X94125Y2201164D01*
X101122Y2199998D02*
X105788Y2204663D01*
X112785Y2199998D02*
X108120D01*
X112785Y2204663D01*
Y2205829D01*
X111619Y2206995D01*
X109286D01*
X108120Y2205829D01*
X115118D02*
X116284Y2206995D01*
X118617D01*
X119783Y2205829D01*
Y2201164D01*
X118617Y2199998D01*
X116284D01*
X115118Y2201164D01*
Y2205829D01*
X122116Y2199998D02*
X124448D01*
X123282D01*
Y2206995D01*
X122116Y2205829D01*
X131446Y2199998D02*
Y2206995D01*
X127947Y2203497D01*
X132612D01*
D18*
X0Y0D02*
Y1800000D01*
Y0D02*
X2400000D01*
X0Y1800000D02*
X2400000D01*
Y0D02*
Y1800000D01*
X0Y50000D02*
X230000D01*
Y50500D02*
Y390000D01*
X0D02*
X230000D01*
X0Y50000D02*
Y390000D01*
X240000Y50000D02*
X470000D01*
Y50500D02*
Y390000D01*
X240000D02*
X470000D01*
X240000Y50000D02*
Y390000D01*
X480000Y50000D02*
X710000D01*
Y50500D02*
Y390000D01*
X480000D02*
X710000D01*
X480000Y50000D02*
Y390000D01*
X720000Y50000D02*
X950000D01*
Y50500D02*
Y390000D01*
X720000D02*
X950000D01*
X720000Y50000D02*
Y390000D01*
X960000Y50000D02*
X1190000D01*
Y50500D02*
Y390000D01*
X960000D02*
X1190000D01*
X960000Y50000D02*
Y390000D01*
X1200000Y50000D02*
X1430000D01*
Y50500D02*
Y390000D01*
X1200000D02*
X1430000D01*
X1200000Y50000D02*
Y390000D01*
X1440000Y50000D02*
X1670000D01*
Y50500D02*
Y390000D01*
X1440000D02*
X1670000D01*
X1440000Y50000D02*
Y390000D01*
X1680000Y50000D02*
X1910000D01*
Y50500D02*
Y390000D01*
X1680000D02*
X1910000D01*
X1680000Y50000D02*
Y390000D01*
X1920000Y50000D02*
X2150000D01*
Y50500D02*
Y390000D01*
X1920000D02*
X2150000D01*
X1920000Y50000D02*
Y390000D01*
X2160000Y50000D02*
X2390000D01*
Y50500D02*
Y390000D01*
X2160000D02*
X2390000D01*
X2160000Y50000D02*
Y390000D01*
X0D02*
X230000D01*
Y390500D02*
Y730000D01*
X0D02*
X230000D01*
X0Y390000D02*
Y730000D01*
X240000Y390000D02*
X470000D01*
Y390500D02*
Y730000D01*
X240000D02*
X470000D01*
X240000Y390000D02*
Y730000D01*
X480000Y390000D02*
X710000D01*
Y390500D02*
Y730000D01*
X480000D02*
X710000D01*
X480000Y390000D02*
Y730000D01*
X720000Y390000D02*
X950000D01*
Y390500D02*
Y730000D01*
X720000D02*
X950000D01*
X720000Y390000D02*
Y730000D01*
X960000Y390000D02*
X1190000D01*
Y390500D02*
Y730000D01*
X960000D02*
X1190000D01*
X960000Y390000D02*
Y730000D01*
X1200000Y390000D02*
X1430000D01*
Y390500D02*
Y730000D01*
X1200000D02*
X1430000D01*
X1200000Y390000D02*
Y730000D01*
X1440000Y390000D02*
X1670000D01*
Y390500D02*
Y730000D01*
X1440000D02*
X1670000D01*
X1440000Y390000D02*
Y730000D01*
X1680000Y390000D02*
X1910000D01*
Y390500D02*
Y730000D01*
X1680000D02*
X1910000D01*
X1680000Y390000D02*
Y730000D01*
X1920000Y390000D02*
X2150000D01*
Y390500D02*
Y730000D01*
X1920000D02*
X2150000D01*
X1920000Y390000D02*
Y730000D01*
X2160000Y390000D02*
X2390000D01*
Y390500D02*
Y730000D01*
X2160000D02*
X2390000D01*
X2160000Y390000D02*
Y730000D01*
X0D02*
X230000D01*
Y730500D02*
Y1070000D01*
X0D02*
X230000D01*
X0Y730000D02*
Y1070000D01*
X240000Y730000D02*
X470000D01*
Y730500D02*
Y1070000D01*
X240000D02*
X470000D01*
X240000Y730000D02*
Y1070000D01*
X480000Y730000D02*
X710000D01*
Y730500D02*
Y1070000D01*
X480000D02*
X710000D01*
X480000Y730000D02*
Y1070000D01*
X720000Y730000D02*
X950000D01*
Y730500D02*
Y1070000D01*
X720000D02*
X950000D01*
X720000Y730000D02*
Y1070000D01*
X960000Y730000D02*
X1190000D01*
Y730500D02*
Y1070000D01*
X960000D02*
X1190000D01*
X960000Y730000D02*
Y1070000D01*
X1200000Y730000D02*
X1430000D01*
Y730500D02*
Y1070000D01*
X1200000D02*
X1430000D01*
X1200000Y730000D02*
Y1070000D01*
X1440000Y730000D02*
X1670000D01*
Y730500D02*
Y1070000D01*
X1440000D02*
X1670000D01*
X1440000Y730000D02*
Y1070000D01*
X1680000Y730000D02*
X1910000D01*
Y730500D02*
Y1070000D01*
X1680000D02*
X1910000D01*
X1680000Y730000D02*
Y1070000D01*
X1920000Y730000D02*
X2150000D01*
Y730500D02*
Y1070000D01*
X1920000D02*
X2150000D01*
X1920000Y730000D02*
Y1070000D01*
X2160000Y730000D02*
X2390000D01*
Y730500D02*
Y1070000D01*
X2160000D02*
X2390000D01*
X2160000Y730000D02*
Y1070000D01*
X0D02*
X230000D01*
Y1070500D02*
Y1410000D01*
X0D02*
X230000D01*
X0Y1070000D02*
Y1410000D01*
X240000Y1070000D02*
X470000D01*
Y1070500D02*
Y1410000D01*
X240000D02*
X470000D01*
X240000Y1070000D02*
Y1410000D01*
X480000Y1070000D02*
X710000D01*
Y1070500D02*
Y1410000D01*
X480000D02*
X710000D01*
X480000Y1070000D02*
Y1410000D01*
X720000Y1070000D02*
X950000D01*
Y1070500D02*
Y1410000D01*
X720000D02*
X950000D01*
X720000Y1070000D02*
Y1410000D01*
X960000Y1070000D02*
X1190000D01*
Y1070500D02*
Y1410000D01*
X960000D02*
X1190000D01*
X960000Y1070000D02*
Y1410000D01*
X1200000Y1070000D02*
X1430000D01*
Y1070500D02*
Y1410000D01*
X1200000D02*
X1430000D01*
X1200000Y1070000D02*
Y1410000D01*
X1440000Y1070000D02*
X1670000D01*
Y1070500D02*
Y1410000D01*
X1440000D02*
X1670000D01*
X1440000Y1070000D02*
Y1410000D01*
X1680000Y1070000D02*
X1910000D01*
Y1070500D02*
Y1410000D01*
X1680000D02*
X1910000D01*
X1680000Y1070000D02*
Y1410000D01*
X1920000Y1070000D02*
X2150000D01*
Y1070500D02*
Y1410000D01*
X1920000D02*
X2150000D01*
X1920000Y1070000D02*
Y1410000D01*
X2160000Y1070000D02*
X2390000D01*
Y1070500D02*
Y1410000D01*
X2160000D02*
X2390000D01*
X2160000Y1070000D02*
Y1410000D01*
X0D02*
X230000D01*
Y1410500D02*
Y1750000D01*
X0D02*
X230000D01*
X0Y1410000D02*
Y1750000D01*
X240000Y1410000D02*
X470000D01*
Y1410500D02*
Y1750000D01*
X240000D02*
X470000D01*
X240000Y1410000D02*
Y1750000D01*
X480000Y1410000D02*
X710000D01*
Y1410500D02*
Y1750000D01*
X480000D02*
X710000D01*
X480000Y1410000D02*
Y1750000D01*
X720000Y1410000D02*
X950000D01*
Y1410500D02*
Y1750000D01*
X720000D02*
X950000D01*
X720000Y1410000D02*
Y1750000D01*
X960000Y1410000D02*
X1190000D01*
Y1410500D02*
Y1750000D01*
X960000D02*
X1190000D01*
X960000Y1410000D02*
Y1750000D01*
X1200000Y1410000D02*
X1430000D01*
Y1410500D02*
Y1750000D01*
X1200000D02*
X1430000D01*
X1200000Y1410000D02*
Y1750000D01*
X1440000Y1410000D02*
X1670000D01*
Y1410500D02*
Y1750000D01*
X1440000D02*
X1670000D01*
X1440000Y1410000D02*
Y1750000D01*
X1680000Y1410000D02*
X1910000D01*
Y1410500D02*
Y1750000D01*
X1680000D02*
X1910000D01*
X1680000Y1410000D02*
Y1750000D01*
X1920000Y1410000D02*
X2150000D01*
Y1410500D02*
Y1750000D01*
X1920000D02*
X2150000D01*
X1920000Y1410000D02*
Y1750000D01*
X2160000Y1410000D02*
X2390000D01*
Y1410500D02*
Y1750000D01*
X2160000D02*
X2390000D01*
X2160000Y1410000D02*
Y1750000D01*
D20*
X9063Y2052377D02*
X11032D01*
X13000D02*
X14968D01*
X16937D02*
X18905D01*
X20874D02*
X22842D01*
X24811D02*
X26779D01*
X28748D02*
X30716D01*
X32685D02*
X34653D01*
X36622D02*
X38591D01*
X40559D02*
X42528D01*
X44496D02*
X46465D01*
X48433D02*
X50402D01*
X52370D02*
X54339D01*
X56307D02*
X58276D01*
X60244D02*
X62213D01*
X64181D02*
X66150D01*
X68118D02*
X70087D01*
X72055D02*
X74024D01*
X75992D02*
X77961D01*
X79929D02*
X81898D01*
X83866D02*
X85835D01*
X87803D02*
X89772D01*
X91740D02*
X93709D01*
X95677D02*
X97646D01*
X99614D02*
X101583D01*
X103551D02*
X105520D01*
X107488D02*
X109457D01*
X111425D02*
X113394D01*
X115362D02*
X117331D01*
X119299D02*
X121268D01*
X123236D02*
X125205D01*
X127173D02*
X129142D01*
X131110D02*
X133079D01*
X135047D02*
X137016D01*
X138984D02*
X140953D01*
X142921D02*
X144890D01*
X146858D02*
X148827D01*
X150795D02*
X152764D01*
X154732D02*
X156701D01*
X158669D02*
X160638D01*
X162606D02*
X164575D01*
X166543D02*
X168512D01*
X170480D02*
X172449D01*
X174417D02*
X176386D01*
X178354D02*
X180323D01*
X9363Y2089817D02*
X11332D01*
X13300D02*
X15269D01*
X17237D02*
X19206D01*
X21174D02*
X23143D01*
X25111D02*
X27079D01*
X29048D02*
X31016D01*
X32985D02*
X34953D01*
X36922D02*
X38891D01*
X40859D02*
X42828D01*
X44796D02*
X46765D01*
X48733D02*
X50702D01*
X52670D02*
X54639D01*
X56607D02*
X58576D01*
X60544D02*
X62513D01*
X64481D02*
X66450D01*
X68418D02*
X70387D01*
X72355D02*
X74324D01*
X76292D02*
X78261D01*
X80229D02*
X82198D01*
X84166D02*
X86135D01*
X88103D02*
X90072D01*
X92040D02*
X94009D01*
X95977D02*
X97946D01*
X99914D02*
X101883D01*
X103851D02*
X105820D01*
X107788D02*
X109757D01*
X111725D02*
X113694D01*
X115662D02*
X117631D01*
X119599D02*
X121568D01*
X123536D02*
X125505D01*
X127473D02*
X129442D01*
X131410D02*
X133379D01*
X135347D02*
X137316D01*
X139284D02*
X141253D01*
X143221D02*
X145190D01*
X147158D02*
X149127D01*
X151095D02*
X153064D01*
X155032D02*
X157001D01*
X158969D02*
X160938D01*
X162906D02*
X164875D01*
X166843D02*
X168812D01*
X170780D02*
X172749D01*
X174717D02*
X176686D01*
X178654D02*
X180623D01*
X178054Y2163927D02*
X180023D01*
X174117D02*
X176086D01*
X170180D02*
X172149D01*
X166243D02*
X168212D01*
X162306D02*
X164275D01*
X158369D02*
X160338D01*
X154432D02*
X156401D01*
X150495D02*
X152464D01*
X146558D02*
X148527D01*
X142621D02*
X144590D01*
X138684D02*
X140653D01*
X134747D02*
X136716D01*
X130810D02*
X132779D01*
X126873D02*
X128842D01*
X122936D02*
X124905D01*
X118999D02*
X120968D01*
X115062D02*
X117031D01*
X111125D02*
X113094D01*
X107188D02*
X109157D01*
X103251D02*
X105220D01*
X99314D02*
X101283D01*
X95377D02*
X97346D01*
X91440D02*
X93409D01*
X87503D02*
X89472D01*
X83566D02*
X85535D01*
X79629D02*
X81598D01*
X75692D02*
X77661D01*
X71755D02*
X73724D01*
X67818D02*
X69787D01*
X63881D02*
X65850D01*
X59944D02*
X61913D01*
X56007D02*
X57976D01*
X52070D02*
X54039D01*
X48133D02*
X50102D01*
X44196D02*
X46165D01*
X40259D02*
X42228D01*
X36322D02*
X38291D01*
X32385D02*
X34354D01*
X28448D02*
X30417D01*
X24511D02*
X26480D01*
X20574D02*
X22543D01*
X16637D02*
X18606D01*
X12700D02*
X14669D01*
X8763D02*
X10731D01*
X181991Y2030500D02*
Y2162943D01*
X8763Y2030500D02*
X181991D01*
X8763D02*
Y2162943D01*
Y2174754D01*
X181991D01*
Y2162943D02*
Y2174754D01*
X9263Y2184249D02*
Y2250200D01*
Y2184249D02*
X235400D01*
Y2250200D01*
X9263D02*
X235400D01*
D40*
X17000Y339670D02*
D03*
X210000Y190930D02*
D03*
X257000Y339670D02*
D03*
X450000Y190930D02*
D03*
X497000Y339670D02*
D03*
X690000Y190930D02*
D03*
X737000Y339670D02*
D03*
X930000Y190930D02*
D03*
X977000Y339670D02*
D03*
X1170000Y190930D02*
D03*
X1217000Y339670D02*
D03*
X1410000Y190930D02*
D03*
X1457000Y339670D02*
D03*
X1650000Y190930D02*
D03*
X1697000Y339670D02*
D03*
X1890000Y190930D02*
D03*
X1937000Y339670D02*
D03*
X2130000Y190930D02*
D03*
X2177000Y339670D02*
D03*
X2370000Y190930D02*
D03*
X17000Y679670D02*
D03*
X210000Y530930D02*
D03*
X257000Y679670D02*
D03*
X450000Y530930D02*
D03*
X497000Y679670D02*
D03*
X690000Y530930D02*
D03*
X737000Y679670D02*
D03*
X930000Y530930D02*
D03*
X977000Y679670D02*
D03*
X1170000Y530930D02*
D03*
X1217000Y679670D02*
D03*
X1410000Y530930D02*
D03*
X1457000Y679670D02*
D03*
X1650000Y530930D02*
D03*
X1697000Y679670D02*
D03*
X1890000Y530930D02*
D03*
X1937000Y679670D02*
D03*
X2130000Y530930D02*
D03*
X2177000Y679670D02*
D03*
X2370000Y530930D02*
D03*
X17000Y1019670D02*
D03*
X210000Y870930D02*
D03*
X257000Y1019670D02*
D03*
X450000Y870930D02*
D03*
X497000Y1019670D02*
D03*
X690000Y870930D02*
D03*
X737000Y1019670D02*
D03*
X930000Y870930D02*
D03*
X977000Y1019670D02*
D03*
X1170000Y870930D02*
D03*
X1217000Y1019670D02*
D03*
X1410000Y870930D02*
D03*
X1457000Y1019670D02*
D03*
X1650000Y870930D02*
D03*
X1697000Y1019670D02*
D03*
X1890000Y870930D02*
D03*
X1937000Y1019670D02*
D03*
X2130000Y870930D02*
D03*
X2177000Y1019670D02*
D03*
X2370000Y870930D02*
D03*
X17000Y1359670D02*
D03*
X210000Y1210930D02*
D03*
X257000Y1359670D02*
D03*
X450000Y1210930D02*
D03*
X497000Y1359670D02*
D03*
X690000Y1210930D02*
D03*
X737000Y1359670D02*
D03*
X930000Y1210930D02*
D03*
X977000Y1359670D02*
D03*
X1170000Y1210930D02*
D03*
X1217000Y1359670D02*
D03*
X1410000Y1210930D02*
D03*
X1457000Y1359670D02*
D03*
X1650000Y1210930D02*
D03*
X1697000Y1359670D02*
D03*
X1890000Y1210930D02*
D03*
X1937000Y1359670D02*
D03*
X2130000Y1210930D02*
D03*
X2177000Y1359670D02*
D03*
X2370000Y1210930D02*
D03*
X17000Y1699670D02*
D03*
X210000Y1550930D02*
D03*
X257000Y1699670D02*
D03*
X450000Y1550930D02*
D03*
X497000Y1699670D02*
D03*
X690000Y1550930D02*
D03*
X737000Y1699670D02*
D03*
X930000Y1550930D02*
D03*
X977000Y1699670D02*
D03*
X1170000Y1550930D02*
D03*
X1217000Y1699670D02*
D03*
X1410000Y1550930D02*
D03*
X1457000Y1699670D02*
D03*
X1650000Y1550930D02*
D03*
X1697000Y1699670D02*
D03*
X1890000Y1550930D02*
D03*
X1937000Y1699670D02*
D03*
X2130000Y1550930D02*
D03*
X2177000Y1699670D02*
D03*
X2370000Y1550930D02*
D03*
D41*
X17000Y325890D02*
D03*
Y312111D02*
D03*
Y298331D02*
D03*
Y284552D02*
D03*
Y270772D02*
D03*
Y256993D02*
D03*
Y243213D02*
D03*
Y229434D02*
D03*
Y215654D02*
D03*
Y201875D02*
D03*
Y188095D02*
D03*
X34945Y105457D02*
D03*
X42819Y131442D02*
D03*
X44000Y115300D02*
D03*
X34945Y66457D02*
D03*
X42819Y92442D02*
D03*
X44000Y76300D02*
D03*
X210000Y204709D02*
D03*
Y218489D02*
D03*
Y232269D02*
D03*
Y246048D02*
D03*
Y259828D02*
D03*
Y273607D02*
D03*
Y287387D02*
D03*
Y301166D02*
D03*
Y314946D02*
D03*
Y328725D02*
D03*
Y342505D02*
D03*
X257000Y325890D02*
D03*
Y312111D02*
D03*
Y298331D02*
D03*
Y284552D02*
D03*
Y270772D02*
D03*
Y256993D02*
D03*
Y243213D02*
D03*
Y229434D02*
D03*
Y215654D02*
D03*
Y201875D02*
D03*
Y188095D02*
D03*
X274945Y105457D02*
D03*
X282819Y131442D02*
D03*
X284000Y115300D02*
D03*
X274945Y66457D02*
D03*
X282819Y92442D02*
D03*
X284000Y76300D02*
D03*
X450000Y204709D02*
D03*
Y218489D02*
D03*
Y232269D02*
D03*
Y246048D02*
D03*
Y259828D02*
D03*
Y273607D02*
D03*
Y287387D02*
D03*
Y301166D02*
D03*
Y314946D02*
D03*
Y328725D02*
D03*
Y342505D02*
D03*
X497000Y325890D02*
D03*
Y312111D02*
D03*
Y298331D02*
D03*
Y284552D02*
D03*
Y270772D02*
D03*
Y256993D02*
D03*
Y243213D02*
D03*
Y229434D02*
D03*
Y215654D02*
D03*
Y201875D02*
D03*
Y188095D02*
D03*
X514945Y105457D02*
D03*
X522819Y131442D02*
D03*
X524000Y115300D02*
D03*
X514945Y66457D02*
D03*
X522819Y92442D02*
D03*
X524000Y76300D02*
D03*
X690000Y204709D02*
D03*
Y218489D02*
D03*
Y232269D02*
D03*
Y246048D02*
D03*
Y259828D02*
D03*
Y273607D02*
D03*
Y287387D02*
D03*
Y301166D02*
D03*
Y314946D02*
D03*
Y328725D02*
D03*
Y342505D02*
D03*
X737000Y325890D02*
D03*
Y312111D02*
D03*
Y298331D02*
D03*
Y284552D02*
D03*
Y270772D02*
D03*
Y256993D02*
D03*
Y243213D02*
D03*
Y229434D02*
D03*
Y215654D02*
D03*
Y201875D02*
D03*
Y188095D02*
D03*
X754945Y105457D02*
D03*
X762819Y131442D02*
D03*
X764000Y115300D02*
D03*
X754945Y66457D02*
D03*
X762819Y92442D02*
D03*
X764000Y76300D02*
D03*
X930000Y204709D02*
D03*
Y218489D02*
D03*
Y232269D02*
D03*
Y246048D02*
D03*
Y259828D02*
D03*
Y273607D02*
D03*
Y287387D02*
D03*
Y301166D02*
D03*
Y314946D02*
D03*
Y328725D02*
D03*
Y342505D02*
D03*
X977000Y325890D02*
D03*
Y312111D02*
D03*
Y298331D02*
D03*
Y284552D02*
D03*
Y270772D02*
D03*
Y256993D02*
D03*
Y243213D02*
D03*
Y229434D02*
D03*
Y215654D02*
D03*
Y201875D02*
D03*
Y188095D02*
D03*
X994945Y105457D02*
D03*
X1002819Y131442D02*
D03*
X1004000Y115300D02*
D03*
X994945Y66457D02*
D03*
X1002819Y92442D02*
D03*
X1004000Y76300D02*
D03*
X1170000Y204709D02*
D03*
Y218489D02*
D03*
Y232269D02*
D03*
Y246048D02*
D03*
Y259828D02*
D03*
Y273607D02*
D03*
Y287387D02*
D03*
Y301166D02*
D03*
Y314946D02*
D03*
Y328725D02*
D03*
Y342505D02*
D03*
X1217000Y325890D02*
D03*
Y312111D02*
D03*
Y298331D02*
D03*
Y284552D02*
D03*
Y270772D02*
D03*
Y256993D02*
D03*
Y243213D02*
D03*
Y229434D02*
D03*
Y215654D02*
D03*
Y201875D02*
D03*
Y188095D02*
D03*
X1234945Y105457D02*
D03*
X1242819Y131442D02*
D03*
X1244000Y115300D02*
D03*
X1234945Y66457D02*
D03*
X1242819Y92442D02*
D03*
X1244000Y76300D02*
D03*
X1410000Y204709D02*
D03*
Y218489D02*
D03*
Y232269D02*
D03*
Y246048D02*
D03*
Y259828D02*
D03*
Y273607D02*
D03*
Y287387D02*
D03*
Y301166D02*
D03*
Y314946D02*
D03*
Y328725D02*
D03*
Y342505D02*
D03*
X1457000Y325890D02*
D03*
Y312111D02*
D03*
Y298331D02*
D03*
Y284552D02*
D03*
Y270772D02*
D03*
Y256993D02*
D03*
Y243213D02*
D03*
Y229434D02*
D03*
Y215654D02*
D03*
Y201875D02*
D03*
Y188095D02*
D03*
X1474945Y105457D02*
D03*
X1482819Y131442D02*
D03*
X1484000Y115300D02*
D03*
X1474945Y66457D02*
D03*
X1482819Y92442D02*
D03*
X1484000Y76300D02*
D03*
X1650000Y204709D02*
D03*
Y218489D02*
D03*
Y232269D02*
D03*
Y246048D02*
D03*
Y259828D02*
D03*
Y273607D02*
D03*
Y287387D02*
D03*
Y301166D02*
D03*
Y314946D02*
D03*
Y328725D02*
D03*
Y342505D02*
D03*
X1697000Y325890D02*
D03*
Y312111D02*
D03*
Y298331D02*
D03*
Y284552D02*
D03*
Y270772D02*
D03*
Y256993D02*
D03*
Y243213D02*
D03*
Y229434D02*
D03*
Y215654D02*
D03*
Y201875D02*
D03*
Y188095D02*
D03*
X1714945Y105457D02*
D03*
X1722819Y131442D02*
D03*
X1724000Y115300D02*
D03*
X1714945Y66457D02*
D03*
X1722819Y92442D02*
D03*
X1724000Y76300D02*
D03*
X1890000Y204709D02*
D03*
Y218489D02*
D03*
Y232269D02*
D03*
Y246048D02*
D03*
Y259828D02*
D03*
Y273607D02*
D03*
Y287387D02*
D03*
Y301166D02*
D03*
Y314946D02*
D03*
Y328725D02*
D03*
Y342505D02*
D03*
X1937000Y325890D02*
D03*
Y312111D02*
D03*
Y298331D02*
D03*
Y284552D02*
D03*
Y270772D02*
D03*
Y256993D02*
D03*
Y243213D02*
D03*
Y229434D02*
D03*
Y215654D02*
D03*
Y201875D02*
D03*
Y188095D02*
D03*
X1954945Y105457D02*
D03*
X1962819Y131442D02*
D03*
X1964000Y115300D02*
D03*
X1954945Y66457D02*
D03*
X1962819Y92442D02*
D03*
X1964000Y76300D02*
D03*
X2130000Y204709D02*
D03*
Y218489D02*
D03*
Y232269D02*
D03*
Y246048D02*
D03*
Y259828D02*
D03*
Y273607D02*
D03*
Y287387D02*
D03*
Y301166D02*
D03*
Y314946D02*
D03*
Y328725D02*
D03*
Y342505D02*
D03*
X2177000Y325890D02*
D03*
Y312111D02*
D03*
Y298331D02*
D03*
Y284552D02*
D03*
Y270772D02*
D03*
Y256993D02*
D03*
Y243213D02*
D03*
Y229434D02*
D03*
Y215654D02*
D03*
Y201875D02*
D03*
Y188095D02*
D03*
X2194945Y105457D02*
D03*
X2202819Y131442D02*
D03*
X2204000Y115300D02*
D03*
X2194945Y66457D02*
D03*
X2202819Y92442D02*
D03*
X2204000Y76300D02*
D03*
X2370000Y204709D02*
D03*
Y218489D02*
D03*
Y232269D02*
D03*
Y246048D02*
D03*
Y259828D02*
D03*
Y273607D02*
D03*
Y287387D02*
D03*
Y301166D02*
D03*
Y314946D02*
D03*
Y328725D02*
D03*
Y342505D02*
D03*
X17000Y665891D02*
D03*
Y652111D02*
D03*
Y638332D02*
D03*
Y624552D02*
D03*
Y610772D02*
D03*
Y596993D02*
D03*
Y583213D02*
D03*
Y569434D02*
D03*
Y555654D02*
D03*
Y541875D02*
D03*
Y528095D02*
D03*
X34945Y445458D02*
D03*
X42819Y471442D02*
D03*
X44000Y455300D02*
D03*
X34945Y406458D02*
D03*
X42819Y432442D02*
D03*
X44000Y416300D02*
D03*
X210000Y544709D02*
D03*
Y558489D02*
D03*
Y572268D02*
D03*
Y586048D02*
D03*
Y599828D02*
D03*
Y613607D02*
D03*
Y627387D02*
D03*
Y641166D02*
D03*
Y654946D02*
D03*
Y668725D02*
D03*
Y682505D02*
D03*
X257000Y665891D02*
D03*
Y652111D02*
D03*
Y638332D02*
D03*
Y624552D02*
D03*
Y610772D02*
D03*
Y596993D02*
D03*
Y583213D02*
D03*
Y569434D02*
D03*
Y555654D02*
D03*
Y541875D02*
D03*
Y528095D02*
D03*
X274945Y445458D02*
D03*
X282819Y471442D02*
D03*
X284000Y455300D02*
D03*
X274945Y406458D02*
D03*
X282819Y432442D02*
D03*
X284000Y416300D02*
D03*
X450000Y544709D02*
D03*
Y558489D02*
D03*
Y572268D02*
D03*
Y586048D02*
D03*
Y599828D02*
D03*
Y613607D02*
D03*
Y627387D02*
D03*
Y641166D02*
D03*
Y654946D02*
D03*
Y668725D02*
D03*
Y682505D02*
D03*
X497000Y665891D02*
D03*
Y652111D02*
D03*
Y638332D02*
D03*
Y624552D02*
D03*
Y610772D02*
D03*
Y596993D02*
D03*
Y583213D02*
D03*
Y569434D02*
D03*
Y555654D02*
D03*
Y541875D02*
D03*
Y528095D02*
D03*
X514945Y445458D02*
D03*
X522819Y471442D02*
D03*
X524000Y455300D02*
D03*
X514945Y406458D02*
D03*
X522819Y432442D02*
D03*
X524000Y416300D02*
D03*
X690000Y544709D02*
D03*
Y558489D02*
D03*
Y572268D02*
D03*
Y586048D02*
D03*
Y599828D02*
D03*
Y613607D02*
D03*
Y627387D02*
D03*
Y641166D02*
D03*
Y654946D02*
D03*
Y668725D02*
D03*
Y682505D02*
D03*
X737000Y665891D02*
D03*
Y652111D02*
D03*
Y638332D02*
D03*
Y624552D02*
D03*
Y610772D02*
D03*
Y596993D02*
D03*
Y583213D02*
D03*
Y569434D02*
D03*
Y555654D02*
D03*
Y541875D02*
D03*
Y528095D02*
D03*
X754945Y445458D02*
D03*
X762819Y471442D02*
D03*
X764000Y455300D02*
D03*
X754945Y406458D02*
D03*
X762819Y432442D02*
D03*
X764000Y416300D02*
D03*
X930000Y544709D02*
D03*
Y558489D02*
D03*
Y572268D02*
D03*
Y586048D02*
D03*
Y599828D02*
D03*
Y613607D02*
D03*
Y627387D02*
D03*
Y641166D02*
D03*
Y654946D02*
D03*
Y668725D02*
D03*
Y682505D02*
D03*
X977000Y665891D02*
D03*
Y652111D02*
D03*
Y638332D02*
D03*
Y624552D02*
D03*
Y610772D02*
D03*
Y596993D02*
D03*
Y583213D02*
D03*
Y569434D02*
D03*
Y555654D02*
D03*
Y541875D02*
D03*
Y528095D02*
D03*
X994945Y445458D02*
D03*
X1002819Y471442D02*
D03*
X1004000Y455300D02*
D03*
X994945Y406458D02*
D03*
X1002819Y432442D02*
D03*
X1004000Y416300D02*
D03*
X1170000Y544709D02*
D03*
Y558489D02*
D03*
Y572268D02*
D03*
Y586048D02*
D03*
Y599828D02*
D03*
Y613607D02*
D03*
Y627387D02*
D03*
Y641166D02*
D03*
Y654946D02*
D03*
Y668725D02*
D03*
Y682505D02*
D03*
X1217000Y665891D02*
D03*
Y652111D02*
D03*
Y638332D02*
D03*
Y624552D02*
D03*
Y610772D02*
D03*
Y596993D02*
D03*
Y583213D02*
D03*
Y569434D02*
D03*
Y555654D02*
D03*
Y541875D02*
D03*
Y528095D02*
D03*
X1234945Y445458D02*
D03*
X1242819Y471442D02*
D03*
X1244000Y455300D02*
D03*
X1234945Y406458D02*
D03*
X1242819Y432442D02*
D03*
X1244000Y416300D02*
D03*
X1410000Y544709D02*
D03*
Y558489D02*
D03*
Y572268D02*
D03*
Y586048D02*
D03*
Y599828D02*
D03*
Y613607D02*
D03*
Y627387D02*
D03*
Y641166D02*
D03*
Y654946D02*
D03*
Y668725D02*
D03*
Y682505D02*
D03*
X1457000Y665891D02*
D03*
Y652111D02*
D03*
Y638332D02*
D03*
Y624552D02*
D03*
Y610772D02*
D03*
Y596993D02*
D03*
Y583213D02*
D03*
Y569434D02*
D03*
Y555654D02*
D03*
Y541875D02*
D03*
Y528095D02*
D03*
X1474945Y445458D02*
D03*
X1482819Y471442D02*
D03*
X1484000Y455300D02*
D03*
X1474945Y406458D02*
D03*
X1482819Y432442D02*
D03*
X1484000Y416300D02*
D03*
X1650000Y544709D02*
D03*
Y558489D02*
D03*
Y572268D02*
D03*
Y586048D02*
D03*
Y599828D02*
D03*
Y613607D02*
D03*
Y627387D02*
D03*
Y641166D02*
D03*
Y654946D02*
D03*
Y668725D02*
D03*
Y682505D02*
D03*
X1697000Y665891D02*
D03*
Y652111D02*
D03*
Y638332D02*
D03*
Y624552D02*
D03*
Y610772D02*
D03*
Y596993D02*
D03*
Y583213D02*
D03*
Y569434D02*
D03*
Y555654D02*
D03*
Y541875D02*
D03*
Y528095D02*
D03*
X1714945Y445458D02*
D03*
X1722819Y471442D02*
D03*
X1724000Y455300D02*
D03*
X1714945Y406458D02*
D03*
X1722819Y432442D02*
D03*
X1724000Y416300D02*
D03*
X1890000Y544709D02*
D03*
Y558489D02*
D03*
Y572268D02*
D03*
Y586048D02*
D03*
Y599828D02*
D03*
Y613607D02*
D03*
Y627387D02*
D03*
Y641166D02*
D03*
Y654946D02*
D03*
Y668725D02*
D03*
Y682505D02*
D03*
X1937000Y665891D02*
D03*
Y652111D02*
D03*
Y638332D02*
D03*
Y624552D02*
D03*
Y610772D02*
D03*
Y596993D02*
D03*
Y583213D02*
D03*
Y569434D02*
D03*
Y555654D02*
D03*
Y541875D02*
D03*
Y528095D02*
D03*
X1954945Y445458D02*
D03*
X1962819Y471442D02*
D03*
X1964000Y455300D02*
D03*
X1954945Y406458D02*
D03*
X1962819Y432442D02*
D03*
X1964000Y416300D02*
D03*
X2130000Y544709D02*
D03*
Y558489D02*
D03*
Y572268D02*
D03*
Y586048D02*
D03*
Y599828D02*
D03*
Y613607D02*
D03*
Y627387D02*
D03*
Y641166D02*
D03*
Y654946D02*
D03*
Y668725D02*
D03*
Y682505D02*
D03*
X2177000Y665891D02*
D03*
Y652111D02*
D03*
Y638332D02*
D03*
Y624552D02*
D03*
Y610772D02*
D03*
Y596993D02*
D03*
Y583213D02*
D03*
Y569434D02*
D03*
Y555654D02*
D03*
Y541875D02*
D03*
Y528095D02*
D03*
X2194945Y445458D02*
D03*
X2202819Y471442D02*
D03*
X2204000Y455300D02*
D03*
X2194945Y406458D02*
D03*
X2202819Y432442D02*
D03*
X2204000Y416300D02*
D03*
X2370000Y544709D02*
D03*
Y558489D02*
D03*
Y572268D02*
D03*
Y586048D02*
D03*
Y599828D02*
D03*
Y613607D02*
D03*
Y627387D02*
D03*
Y641166D02*
D03*
Y654946D02*
D03*
Y668725D02*
D03*
Y682505D02*
D03*
X17000Y1005891D02*
D03*
Y992111D02*
D03*
Y978331D02*
D03*
Y964552D02*
D03*
Y950772D02*
D03*
Y936993D02*
D03*
Y923213D02*
D03*
Y909434D02*
D03*
Y895654D02*
D03*
Y881875D02*
D03*
Y868095D02*
D03*
X34945Y785458D02*
D03*
X42819Y811442D02*
D03*
X44000Y795300D02*
D03*
X34945Y746457D02*
D03*
X42819Y772442D02*
D03*
X44000Y756300D02*
D03*
X210000Y884709D02*
D03*
Y898489D02*
D03*
Y912269D02*
D03*
Y926048D02*
D03*
Y939828D02*
D03*
Y953607D02*
D03*
Y967387D02*
D03*
Y981166D02*
D03*
Y994946D02*
D03*
Y1008725D02*
D03*
Y1022505D02*
D03*
X257000Y1005891D02*
D03*
Y992111D02*
D03*
Y978331D02*
D03*
Y964552D02*
D03*
Y950772D02*
D03*
Y936993D02*
D03*
Y923213D02*
D03*
Y909434D02*
D03*
Y895654D02*
D03*
Y881875D02*
D03*
Y868095D02*
D03*
X274945Y785458D02*
D03*
X282819Y811442D02*
D03*
X284000Y795300D02*
D03*
X274945Y746457D02*
D03*
X282819Y772442D02*
D03*
X284000Y756300D02*
D03*
X450000Y884709D02*
D03*
Y898489D02*
D03*
Y912269D02*
D03*
Y926048D02*
D03*
Y939828D02*
D03*
Y953607D02*
D03*
Y967387D02*
D03*
Y981166D02*
D03*
Y994946D02*
D03*
Y1008725D02*
D03*
Y1022505D02*
D03*
X497000Y1005891D02*
D03*
Y992111D02*
D03*
Y978331D02*
D03*
Y964552D02*
D03*
Y950772D02*
D03*
Y936993D02*
D03*
Y923213D02*
D03*
Y909434D02*
D03*
Y895654D02*
D03*
Y881875D02*
D03*
Y868095D02*
D03*
X514945Y785458D02*
D03*
X522819Y811442D02*
D03*
X524000Y795300D02*
D03*
X514945Y746457D02*
D03*
X522819Y772442D02*
D03*
X524000Y756300D02*
D03*
X690000Y884709D02*
D03*
Y898489D02*
D03*
Y912269D02*
D03*
Y926048D02*
D03*
Y939828D02*
D03*
Y953607D02*
D03*
Y967387D02*
D03*
Y981166D02*
D03*
Y994946D02*
D03*
Y1008725D02*
D03*
Y1022505D02*
D03*
X737000Y1005891D02*
D03*
Y992111D02*
D03*
Y978331D02*
D03*
Y964552D02*
D03*
Y950772D02*
D03*
Y936993D02*
D03*
Y923213D02*
D03*
Y909434D02*
D03*
Y895654D02*
D03*
Y881875D02*
D03*
Y868095D02*
D03*
X754945Y785458D02*
D03*
X762819Y811442D02*
D03*
X764000Y795300D02*
D03*
X754945Y746457D02*
D03*
X762819Y772442D02*
D03*
X764000Y756300D02*
D03*
X930000Y884709D02*
D03*
Y898489D02*
D03*
Y912269D02*
D03*
Y926048D02*
D03*
Y939828D02*
D03*
Y953607D02*
D03*
Y967387D02*
D03*
Y981166D02*
D03*
Y994946D02*
D03*
Y1008725D02*
D03*
Y1022505D02*
D03*
X977000Y1005891D02*
D03*
Y992111D02*
D03*
Y978331D02*
D03*
Y964552D02*
D03*
Y950772D02*
D03*
Y936993D02*
D03*
Y923213D02*
D03*
Y909434D02*
D03*
Y895654D02*
D03*
Y881875D02*
D03*
Y868095D02*
D03*
X994945Y785458D02*
D03*
X1002819Y811442D02*
D03*
X1004000Y795300D02*
D03*
X994945Y746457D02*
D03*
X1002819Y772442D02*
D03*
X1004000Y756300D02*
D03*
X1170000Y884709D02*
D03*
Y898489D02*
D03*
Y912269D02*
D03*
Y926048D02*
D03*
Y939828D02*
D03*
Y953607D02*
D03*
Y967387D02*
D03*
Y981166D02*
D03*
Y994946D02*
D03*
Y1008725D02*
D03*
Y1022505D02*
D03*
X1217000Y1005891D02*
D03*
Y992111D02*
D03*
Y978331D02*
D03*
Y964552D02*
D03*
Y950772D02*
D03*
Y936993D02*
D03*
Y923213D02*
D03*
Y909434D02*
D03*
Y895654D02*
D03*
Y881875D02*
D03*
Y868095D02*
D03*
X1234945Y785458D02*
D03*
X1242819Y811442D02*
D03*
X1244000Y795300D02*
D03*
X1234945Y746457D02*
D03*
X1242819Y772442D02*
D03*
X1244000Y756300D02*
D03*
X1410000Y884709D02*
D03*
Y898489D02*
D03*
Y912269D02*
D03*
Y926048D02*
D03*
Y939828D02*
D03*
Y953607D02*
D03*
Y967387D02*
D03*
Y981166D02*
D03*
Y994946D02*
D03*
Y1008725D02*
D03*
Y1022505D02*
D03*
X1457000Y1005891D02*
D03*
Y992111D02*
D03*
Y978331D02*
D03*
Y964552D02*
D03*
Y950772D02*
D03*
Y936993D02*
D03*
Y923213D02*
D03*
Y909434D02*
D03*
Y895654D02*
D03*
Y881875D02*
D03*
Y868095D02*
D03*
X1474945Y785458D02*
D03*
X1482819Y811442D02*
D03*
X1484000Y795300D02*
D03*
X1474945Y746457D02*
D03*
X1482819Y772442D02*
D03*
X1484000Y756300D02*
D03*
X1650000Y884709D02*
D03*
Y898489D02*
D03*
Y912269D02*
D03*
Y926048D02*
D03*
Y939828D02*
D03*
Y953607D02*
D03*
Y967387D02*
D03*
Y981166D02*
D03*
Y994946D02*
D03*
Y1008725D02*
D03*
Y1022505D02*
D03*
X1697000Y1005891D02*
D03*
Y992111D02*
D03*
Y978331D02*
D03*
Y964552D02*
D03*
Y950772D02*
D03*
Y936993D02*
D03*
Y923213D02*
D03*
Y909434D02*
D03*
Y895654D02*
D03*
Y881875D02*
D03*
Y868095D02*
D03*
X1714945Y785458D02*
D03*
X1722819Y811442D02*
D03*
X1724000Y795300D02*
D03*
X1714945Y746457D02*
D03*
X1722819Y772442D02*
D03*
X1724000Y756300D02*
D03*
X1890000Y884709D02*
D03*
Y898489D02*
D03*
Y912269D02*
D03*
Y926048D02*
D03*
Y939828D02*
D03*
Y953607D02*
D03*
Y967387D02*
D03*
Y981166D02*
D03*
Y994946D02*
D03*
Y1008725D02*
D03*
Y1022505D02*
D03*
X1937000Y1005891D02*
D03*
Y992111D02*
D03*
Y978331D02*
D03*
Y964552D02*
D03*
Y950772D02*
D03*
Y936993D02*
D03*
Y923213D02*
D03*
Y909434D02*
D03*
Y895654D02*
D03*
Y881875D02*
D03*
Y868095D02*
D03*
X1954945Y785458D02*
D03*
X1962819Y811442D02*
D03*
X1964000Y795300D02*
D03*
X1954945Y746457D02*
D03*
X1962819Y772442D02*
D03*
X1964000Y756300D02*
D03*
X2130000Y884709D02*
D03*
Y898489D02*
D03*
Y912269D02*
D03*
Y926048D02*
D03*
Y939828D02*
D03*
Y953607D02*
D03*
Y967387D02*
D03*
Y981166D02*
D03*
Y994946D02*
D03*
Y1008725D02*
D03*
Y1022505D02*
D03*
X2177000Y1005891D02*
D03*
Y992111D02*
D03*
Y978331D02*
D03*
Y964552D02*
D03*
Y950772D02*
D03*
Y936993D02*
D03*
Y923213D02*
D03*
Y909434D02*
D03*
Y895654D02*
D03*
Y881875D02*
D03*
Y868095D02*
D03*
X2194945Y785458D02*
D03*
X2202819Y811442D02*
D03*
X2204000Y795300D02*
D03*
X2194945Y746457D02*
D03*
X2202819Y772442D02*
D03*
X2204000Y756300D02*
D03*
X2370000Y884709D02*
D03*
Y898489D02*
D03*
Y912269D02*
D03*
Y926048D02*
D03*
Y939828D02*
D03*
Y953607D02*
D03*
Y967387D02*
D03*
Y981166D02*
D03*
Y994946D02*
D03*
Y1008725D02*
D03*
Y1022505D02*
D03*
X17000Y1345891D02*
D03*
Y1332111D02*
D03*
Y1318332D02*
D03*
Y1304552D02*
D03*
Y1290772D02*
D03*
Y1276993D02*
D03*
Y1263213D02*
D03*
Y1249434D02*
D03*
Y1235654D02*
D03*
Y1221875D02*
D03*
Y1208095D02*
D03*
X34945Y1125457D02*
D03*
X42819Y1151442D02*
D03*
X44000Y1135300D02*
D03*
X34945Y1086458D02*
D03*
X42819Y1112442D02*
D03*
X44000Y1096300D02*
D03*
X210000Y1224709D02*
D03*
Y1238489D02*
D03*
Y1252269D02*
D03*
Y1266048D02*
D03*
Y1279828D02*
D03*
Y1293607D02*
D03*
Y1307387D02*
D03*
Y1321166D02*
D03*
Y1334946D02*
D03*
Y1348725D02*
D03*
Y1362505D02*
D03*
X257000Y1345891D02*
D03*
Y1332111D02*
D03*
Y1318332D02*
D03*
Y1304552D02*
D03*
Y1290772D02*
D03*
Y1276993D02*
D03*
Y1263213D02*
D03*
Y1249434D02*
D03*
Y1235654D02*
D03*
Y1221875D02*
D03*
Y1208095D02*
D03*
X274945Y1125457D02*
D03*
X282819Y1151442D02*
D03*
X284000Y1135300D02*
D03*
X274945Y1086458D02*
D03*
X282819Y1112442D02*
D03*
X284000Y1096300D02*
D03*
X450000Y1224709D02*
D03*
Y1238489D02*
D03*
Y1252269D02*
D03*
Y1266048D02*
D03*
Y1279828D02*
D03*
Y1293607D02*
D03*
Y1307387D02*
D03*
Y1321166D02*
D03*
Y1334946D02*
D03*
Y1348725D02*
D03*
Y1362505D02*
D03*
X497000Y1345891D02*
D03*
Y1332111D02*
D03*
Y1318332D02*
D03*
Y1304552D02*
D03*
Y1290772D02*
D03*
Y1276993D02*
D03*
Y1263213D02*
D03*
Y1249434D02*
D03*
Y1235654D02*
D03*
Y1221875D02*
D03*
Y1208095D02*
D03*
X514945Y1125457D02*
D03*
X522819Y1151442D02*
D03*
X524000Y1135300D02*
D03*
X514945Y1086458D02*
D03*
X522819Y1112442D02*
D03*
X524000Y1096300D02*
D03*
X690000Y1224709D02*
D03*
Y1238489D02*
D03*
Y1252269D02*
D03*
Y1266048D02*
D03*
Y1279828D02*
D03*
Y1293607D02*
D03*
Y1307387D02*
D03*
Y1321166D02*
D03*
Y1334946D02*
D03*
Y1348725D02*
D03*
Y1362505D02*
D03*
X737000Y1345891D02*
D03*
Y1332111D02*
D03*
Y1318332D02*
D03*
Y1304552D02*
D03*
Y1290772D02*
D03*
Y1276993D02*
D03*
Y1263213D02*
D03*
Y1249434D02*
D03*
Y1235654D02*
D03*
Y1221875D02*
D03*
Y1208095D02*
D03*
X754945Y1125457D02*
D03*
X762819Y1151442D02*
D03*
X764000Y1135300D02*
D03*
X754945Y1086458D02*
D03*
X762819Y1112442D02*
D03*
X764000Y1096300D02*
D03*
X930000Y1224709D02*
D03*
Y1238489D02*
D03*
Y1252269D02*
D03*
Y1266048D02*
D03*
Y1279828D02*
D03*
Y1293607D02*
D03*
Y1307387D02*
D03*
Y1321166D02*
D03*
Y1334946D02*
D03*
Y1348725D02*
D03*
Y1362505D02*
D03*
X977000Y1345891D02*
D03*
Y1332111D02*
D03*
Y1318332D02*
D03*
Y1304552D02*
D03*
Y1290772D02*
D03*
Y1276993D02*
D03*
Y1263213D02*
D03*
Y1249434D02*
D03*
Y1235654D02*
D03*
Y1221875D02*
D03*
Y1208095D02*
D03*
X994945Y1125457D02*
D03*
X1002819Y1151442D02*
D03*
X1004000Y1135300D02*
D03*
X994945Y1086458D02*
D03*
X1002819Y1112442D02*
D03*
X1004000Y1096300D02*
D03*
X1170000Y1224709D02*
D03*
Y1238489D02*
D03*
Y1252269D02*
D03*
Y1266048D02*
D03*
Y1279828D02*
D03*
Y1293607D02*
D03*
Y1307387D02*
D03*
Y1321166D02*
D03*
Y1334946D02*
D03*
Y1348725D02*
D03*
Y1362505D02*
D03*
X1217000Y1345891D02*
D03*
Y1332111D02*
D03*
Y1318332D02*
D03*
Y1304552D02*
D03*
Y1290772D02*
D03*
Y1276993D02*
D03*
Y1263213D02*
D03*
Y1249434D02*
D03*
Y1235654D02*
D03*
Y1221875D02*
D03*
Y1208095D02*
D03*
X1234945Y1125457D02*
D03*
X1242819Y1151442D02*
D03*
X1244000Y1135300D02*
D03*
X1234945Y1086458D02*
D03*
X1242819Y1112442D02*
D03*
X1244000Y1096300D02*
D03*
X1410000Y1224709D02*
D03*
Y1238489D02*
D03*
Y1252269D02*
D03*
Y1266048D02*
D03*
Y1279828D02*
D03*
Y1293607D02*
D03*
Y1307387D02*
D03*
Y1321166D02*
D03*
Y1334946D02*
D03*
Y1348725D02*
D03*
Y1362505D02*
D03*
X1457000Y1345891D02*
D03*
Y1332111D02*
D03*
Y1318332D02*
D03*
Y1304552D02*
D03*
Y1290772D02*
D03*
Y1276993D02*
D03*
Y1263213D02*
D03*
Y1249434D02*
D03*
Y1235654D02*
D03*
Y1221875D02*
D03*
Y1208095D02*
D03*
X1474945Y1125457D02*
D03*
X1482819Y1151442D02*
D03*
X1484000Y1135300D02*
D03*
X1474945Y1086458D02*
D03*
X1482819Y1112442D02*
D03*
X1484000Y1096300D02*
D03*
X1650000Y1224709D02*
D03*
Y1238489D02*
D03*
Y1252269D02*
D03*
Y1266048D02*
D03*
Y1279828D02*
D03*
Y1293607D02*
D03*
Y1307387D02*
D03*
Y1321166D02*
D03*
Y1334946D02*
D03*
Y1348725D02*
D03*
Y1362505D02*
D03*
X1697000Y1345891D02*
D03*
Y1332111D02*
D03*
Y1318332D02*
D03*
Y1304552D02*
D03*
Y1290772D02*
D03*
Y1276993D02*
D03*
Y1263213D02*
D03*
Y1249434D02*
D03*
Y1235654D02*
D03*
Y1221875D02*
D03*
Y1208095D02*
D03*
X1714945Y1125457D02*
D03*
X1722819Y1151442D02*
D03*
X1724000Y1135300D02*
D03*
X1714945Y1086458D02*
D03*
X1722819Y1112442D02*
D03*
X1724000Y1096300D02*
D03*
X1890000Y1224709D02*
D03*
Y1238489D02*
D03*
Y1252269D02*
D03*
Y1266048D02*
D03*
Y1279828D02*
D03*
Y1293607D02*
D03*
Y1307387D02*
D03*
Y1321166D02*
D03*
Y1334946D02*
D03*
Y1348725D02*
D03*
Y1362505D02*
D03*
X1937000Y1345891D02*
D03*
Y1332111D02*
D03*
Y1318332D02*
D03*
Y1304552D02*
D03*
Y1290772D02*
D03*
Y1276993D02*
D03*
Y1263213D02*
D03*
Y1249434D02*
D03*
Y1235654D02*
D03*
Y1221875D02*
D03*
Y1208095D02*
D03*
X1954945Y1125457D02*
D03*
X1962819Y1151442D02*
D03*
X1964000Y1135300D02*
D03*
X1954945Y1086458D02*
D03*
X1962819Y1112442D02*
D03*
X1964000Y1096300D02*
D03*
X2130000Y1224709D02*
D03*
Y1238489D02*
D03*
Y1252269D02*
D03*
Y1266048D02*
D03*
Y1279828D02*
D03*
Y1293607D02*
D03*
Y1307387D02*
D03*
Y1321166D02*
D03*
Y1334946D02*
D03*
Y1348725D02*
D03*
Y1362505D02*
D03*
X2177000Y1345891D02*
D03*
Y1332111D02*
D03*
Y1318332D02*
D03*
Y1304552D02*
D03*
Y1290772D02*
D03*
Y1276993D02*
D03*
Y1263213D02*
D03*
Y1249434D02*
D03*
Y1235654D02*
D03*
Y1221875D02*
D03*
Y1208095D02*
D03*
X2194945Y1125457D02*
D03*
X2202819Y1151442D02*
D03*
X2204000Y1135300D02*
D03*
X2194945Y1086458D02*
D03*
X2202819Y1112442D02*
D03*
X2204000Y1096300D02*
D03*
X2370000Y1224709D02*
D03*
Y1238489D02*
D03*
Y1252269D02*
D03*
Y1266048D02*
D03*
Y1279828D02*
D03*
Y1293607D02*
D03*
Y1307387D02*
D03*
Y1321166D02*
D03*
Y1334946D02*
D03*
Y1348725D02*
D03*
Y1362505D02*
D03*
X17000Y1685891D02*
D03*
Y1672111D02*
D03*
Y1658331D02*
D03*
Y1644552D02*
D03*
Y1630772D02*
D03*
Y1616993D02*
D03*
Y1603213D02*
D03*
Y1589434D02*
D03*
Y1575654D02*
D03*
Y1561875D02*
D03*
Y1548095D02*
D03*
X34945Y1465458D02*
D03*
X42819Y1491442D02*
D03*
X44000Y1475300D02*
D03*
X34945Y1426458D02*
D03*
X42819Y1452442D02*
D03*
X44000Y1436300D02*
D03*
X210000Y1564709D02*
D03*
Y1578489D02*
D03*
Y1592268D02*
D03*
Y1606048D02*
D03*
Y1619828D02*
D03*
Y1633607D02*
D03*
Y1647387D02*
D03*
Y1661166D02*
D03*
Y1674946D02*
D03*
Y1688725D02*
D03*
Y1702505D02*
D03*
X257000Y1685891D02*
D03*
Y1672111D02*
D03*
Y1658331D02*
D03*
Y1644552D02*
D03*
Y1630772D02*
D03*
Y1616993D02*
D03*
Y1603213D02*
D03*
Y1589434D02*
D03*
Y1575654D02*
D03*
Y1561875D02*
D03*
Y1548095D02*
D03*
X274945Y1465458D02*
D03*
X282819Y1491442D02*
D03*
X284000Y1475300D02*
D03*
X274945Y1426458D02*
D03*
X282819Y1452442D02*
D03*
X284000Y1436300D02*
D03*
X450000Y1564709D02*
D03*
Y1578489D02*
D03*
Y1592268D02*
D03*
Y1606048D02*
D03*
Y1619828D02*
D03*
Y1633607D02*
D03*
Y1647387D02*
D03*
Y1661166D02*
D03*
Y1674946D02*
D03*
Y1688725D02*
D03*
Y1702505D02*
D03*
X497000Y1685891D02*
D03*
Y1672111D02*
D03*
Y1658331D02*
D03*
Y1644552D02*
D03*
Y1630772D02*
D03*
Y1616993D02*
D03*
Y1603213D02*
D03*
Y1589434D02*
D03*
Y1575654D02*
D03*
Y1561875D02*
D03*
Y1548095D02*
D03*
X514945Y1465458D02*
D03*
X522819Y1491442D02*
D03*
X524000Y1475300D02*
D03*
X514945Y1426458D02*
D03*
X522819Y1452442D02*
D03*
X524000Y1436300D02*
D03*
X690000Y1564709D02*
D03*
Y1578489D02*
D03*
Y1592268D02*
D03*
Y1606048D02*
D03*
Y1619828D02*
D03*
Y1633607D02*
D03*
Y1647387D02*
D03*
Y1661166D02*
D03*
Y1674946D02*
D03*
Y1688725D02*
D03*
Y1702505D02*
D03*
X737000Y1685891D02*
D03*
Y1672111D02*
D03*
Y1658331D02*
D03*
Y1644552D02*
D03*
Y1630772D02*
D03*
Y1616993D02*
D03*
Y1603213D02*
D03*
Y1589434D02*
D03*
Y1575654D02*
D03*
Y1561875D02*
D03*
Y1548095D02*
D03*
X754945Y1465458D02*
D03*
X762819Y1491442D02*
D03*
X764000Y1475300D02*
D03*
X754945Y1426458D02*
D03*
X762819Y1452442D02*
D03*
X764000Y1436300D02*
D03*
X930000Y1564709D02*
D03*
Y1578489D02*
D03*
Y1592268D02*
D03*
Y1606048D02*
D03*
Y1619828D02*
D03*
Y1633607D02*
D03*
Y1647387D02*
D03*
Y1661166D02*
D03*
Y1674946D02*
D03*
Y1688725D02*
D03*
Y1702505D02*
D03*
X977000Y1685891D02*
D03*
Y1672111D02*
D03*
Y1658331D02*
D03*
Y1644552D02*
D03*
Y1630772D02*
D03*
Y1616993D02*
D03*
Y1603213D02*
D03*
Y1589434D02*
D03*
Y1575654D02*
D03*
Y1561875D02*
D03*
Y1548095D02*
D03*
X994945Y1465458D02*
D03*
X1002819Y1491442D02*
D03*
X1004000Y1475300D02*
D03*
X994945Y1426458D02*
D03*
X1002819Y1452442D02*
D03*
X1004000Y1436300D02*
D03*
X1170000Y1564709D02*
D03*
Y1578489D02*
D03*
Y1592268D02*
D03*
Y1606048D02*
D03*
Y1619828D02*
D03*
Y1633607D02*
D03*
Y1647387D02*
D03*
Y1661166D02*
D03*
Y1674946D02*
D03*
Y1688725D02*
D03*
Y1702505D02*
D03*
X1217000Y1685891D02*
D03*
Y1672111D02*
D03*
Y1658331D02*
D03*
Y1644552D02*
D03*
Y1630772D02*
D03*
Y1616993D02*
D03*
Y1603213D02*
D03*
Y1589434D02*
D03*
Y1575654D02*
D03*
Y1561875D02*
D03*
Y1548095D02*
D03*
X1234945Y1465458D02*
D03*
X1242819Y1491442D02*
D03*
X1244000Y1475300D02*
D03*
X1234945Y1426458D02*
D03*
X1242819Y1452442D02*
D03*
X1244000Y1436300D02*
D03*
X1410000Y1564709D02*
D03*
Y1578489D02*
D03*
Y1592268D02*
D03*
Y1606048D02*
D03*
Y1619828D02*
D03*
Y1633607D02*
D03*
Y1647387D02*
D03*
Y1661166D02*
D03*
Y1674946D02*
D03*
Y1688725D02*
D03*
Y1702505D02*
D03*
X1457000Y1685891D02*
D03*
Y1672111D02*
D03*
Y1658331D02*
D03*
Y1644552D02*
D03*
Y1630772D02*
D03*
Y1616993D02*
D03*
Y1603213D02*
D03*
Y1589434D02*
D03*
Y1575654D02*
D03*
Y1561875D02*
D03*
Y1548095D02*
D03*
X1474945Y1465458D02*
D03*
X1482819Y1491442D02*
D03*
X1484000Y1475300D02*
D03*
X1474945Y1426458D02*
D03*
X1482819Y1452442D02*
D03*
X1484000Y1436300D02*
D03*
X1650000Y1564709D02*
D03*
Y1578489D02*
D03*
Y1592268D02*
D03*
Y1606048D02*
D03*
Y1619828D02*
D03*
Y1633607D02*
D03*
Y1647387D02*
D03*
Y1661166D02*
D03*
Y1674946D02*
D03*
Y1688725D02*
D03*
Y1702505D02*
D03*
X1697000Y1685891D02*
D03*
Y1672111D02*
D03*
Y1658331D02*
D03*
Y1644552D02*
D03*
Y1630772D02*
D03*
Y1616993D02*
D03*
Y1603213D02*
D03*
Y1589434D02*
D03*
Y1575654D02*
D03*
Y1561875D02*
D03*
Y1548095D02*
D03*
X1714945Y1465458D02*
D03*
X1722819Y1491442D02*
D03*
X1724000Y1475300D02*
D03*
X1714945Y1426458D02*
D03*
X1722819Y1452442D02*
D03*
X1724000Y1436300D02*
D03*
X1890000Y1564709D02*
D03*
Y1578489D02*
D03*
Y1592268D02*
D03*
Y1606048D02*
D03*
Y1619828D02*
D03*
Y1633607D02*
D03*
Y1647387D02*
D03*
Y1661166D02*
D03*
Y1674946D02*
D03*
Y1688725D02*
D03*
Y1702505D02*
D03*
X1937000Y1685891D02*
D03*
Y1672111D02*
D03*
Y1658331D02*
D03*
Y1644552D02*
D03*
Y1630772D02*
D03*
Y1616993D02*
D03*
Y1603213D02*
D03*
Y1589434D02*
D03*
Y1575654D02*
D03*
Y1561875D02*
D03*
Y1548095D02*
D03*
X1954945Y1465458D02*
D03*
X1962819Y1491442D02*
D03*
X1964000Y1475300D02*
D03*
X1954945Y1426458D02*
D03*
X1962819Y1452442D02*
D03*
X1964000Y1436300D02*
D03*
X2130000Y1564709D02*
D03*
Y1578489D02*
D03*
Y1592268D02*
D03*
Y1606048D02*
D03*
Y1619828D02*
D03*
Y1633607D02*
D03*
Y1647387D02*
D03*
Y1661166D02*
D03*
Y1674946D02*
D03*
Y1688725D02*
D03*
Y1702505D02*
D03*
X2177000Y1685891D02*
D03*
Y1672111D02*
D03*
Y1658331D02*
D03*
Y1644552D02*
D03*
Y1630772D02*
D03*
Y1616993D02*
D03*
Y1603213D02*
D03*
Y1589434D02*
D03*
Y1575654D02*
D03*
Y1561875D02*
D03*
Y1548095D02*
D03*
X2194945Y1465458D02*
D03*
X2202819Y1491442D02*
D03*
X2204000Y1475300D02*
D03*
X2194945Y1426458D02*
D03*
X2202819Y1452442D02*
D03*
X2204000Y1436300D02*
D03*
X2370000Y1564709D02*
D03*
Y1578489D02*
D03*
Y1592268D02*
D03*
Y1606048D02*
D03*
Y1619828D02*
D03*
Y1633607D02*
D03*
Y1647387D02*
D03*
Y1661166D02*
D03*
Y1674946D02*
D03*
Y1688725D02*
D03*
Y1702505D02*
D03*
D42*
X134866Y69505D02*
D03*
X73055D02*
D03*
X130929Y122654D02*
D03*
X76992D02*
D03*
X217543Y69505D02*
D03*
X155732D02*
D03*
X213606Y122654D02*
D03*
X159669D02*
D03*
X374866Y69505D02*
D03*
X313055D02*
D03*
X370929Y122654D02*
D03*
X316992D02*
D03*
X457543Y69505D02*
D03*
X395732D02*
D03*
X453606Y122654D02*
D03*
X399669D02*
D03*
X614866Y69505D02*
D03*
X553055D02*
D03*
X610929Y122654D02*
D03*
X556992D02*
D03*
X697543Y69505D02*
D03*
X635732D02*
D03*
X693606Y122654D02*
D03*
X639669D02*
D03*
X854866Y69505D02*
D03*
X793055D02*
D03*
X850929Y122654D02*
D03*
X796992D02*
D03*
X937543Y69505D02*
D03*
X875732D02*
D03*
X933606Y122654D02*
D03*
X879669D02*
D03*
X1094866Y69505D02*
D03*
X1033055D02*
D03*
X1090929Y122654D02*
D03*
X1036992D02*
D03*
X1177543Y69505D02*
D03*
X1115732D02*
D03*
X1173606Y122654D02*
D03*
X1119669D02*
D03*
X1334866Y69505D02*
D03*
X1273055D02*
D03*
X1330929Y122654D02*
D03*
X1276992D02*
D03*
X1417543Y69505D02*
D03*
X1355732D02*
D03*
X1413606Y122654D02*
D03*
X1359669D02*
D03*
X1574866Y69505D02*
D03*
X1513055D02*
D03*
X1570929Y122654D02*
D03*
X1516992D02*
D03*
X1657543Y69505D02*
D03*
X1595732D02*
D03*
X1653606Y122654D02*
D03*
X1599669D02*
D03*
X1814866Y69505D02*
D03*
X1753055D02*
D03*
X1810929Y122654D02*
D03*
X1756992D02*
D03*
X1897543Y69505D02*
D03*
X1835732D02*
D03*
X1893606Y122654D02*
D03*
X1839669D02*
D03*
X2054866Y69505D02*
D03*
X1993055D02*
D03*
X2050929Y122654D02*
D03*
X1996992D02*
D03*
X2137543Y69505D02*
D03*
X2075732D02*
D03*
X2133606Y122654D02*
D03*
X2079669D02*
D03*
X2294866Y69505D02*
D03*
X2233055D02*
D03*
X2290929Y122654D02*
D03*
X2236992D02*
D03*
X2377543Y69505D02*
D03*
X2315732D02*
D03*
X2373606Y122654D02*
D03*
X2319669D02*
D03*
X134866Y409505D02*
D03*
X73055D02*
D03*
X130929Y462654D02*
D03*
X76992D02*
D03*
X217543Y409505D02*
D03*
X155732D02*
D03*
X213606Y462654D02*
D03*
X159669D02*
D03*
X374866Y409505D02*
D03*
X313055D02*
D03*
X370929Y462654D02*
D03*
X316992D02*
D03*
X457543Y409505D02*
D03*
X395732D02*
D03*
X453606Y462654D02*
D03*
X399669D02*
D03*
X614866Y409505D02*
D03*
X553055D02*
D03*
X610929Y462654D02*
D03*
X556992D02*
D03*
X697543Y409505D02*
D03*
X635732D02*
D03*
X693606Y462654D02*
D03*
X639669D02*
D03*
X854866Y409505D02*
D03*
X793055D02*
D03*
X850929Y462654D02*
D03*
X796992D02*
D03*
X937543Y409505D02*
D03*
X875732D02*
D03*
X933606Y462654D02*
D03*
X879669D02*
D03*
X1094866Y409505D02*
D03*
X1033055D02*
D03*
X1090929Y462654D02*
D03*
X1036992D02*
D03*
X1177543Y409505D02*
D03*
X1115732D02*
D03*
X1173606Y462654D02*
D03*
X1119669D02*
D03*
X1334866Y409505D02*
D03*
X1273055D02*
D03*
X1330929Y462654D02*
D03*
X1276992D02*
D03*
X1417543Y409505D02*
D03*
X1355732D02*
D03*
X1413606Y462654D02*
D03*
X1359669D02*
D03*
X1574866Y409505D02*
D03*
X1513055D02*
D03*
X1570929Y462654D02*
D03*
X1516992D02*
D03*
X1657543Y409505D02*
D03*
X1595732D02*
D03*
X1653606Y462654D02*
D03*
X1599669D02*
D03*
X1814866Y409505D02*
D03*
X1753055D02*
D03*
X1810929Y462654D02*
D03*
X1756992D02*
D03*
X1897543Y409505D02*
D03*
X1835732D02*
D03*
X1893606Y462654D02*
D03*
X1839669D02*
D03*
X2054866Y409505D02*
D03*
X1993055D02*
D03*
X2050929Y462654D02*
D03*
X1996992D02*
D03*
X2137543Y409505D02*
D03*
X2075732D02*
D03*
X2133606Y462654D02*
D03*
X2079669D02*
D03*
X2294866Y409505D02*
D03*
X2233055D02*
D03*
X2290929Y462654D02*
D03*
X2236992D02*
D03*
X2377543Y409505D02*
D03*
X2315732D02*
D03*
X2373606Y462654D02*
D03*
X2319669D02*
D03*
X134866Y749505D02*
D03*
X73055D02*
D03*
X130929Y802654D02*
D03*
X76992D02*
D03*
X217543Y749505D02*
D03*
X155732D02*
D03*
X213606Y802654D02*
D03*
X159669D02*
D03*
X374866Y749505D02*
D03*
X313055D02*
D03*
X370929Y802654D02*
D03*
X316992D02*
D03*
X457543Y749505D02*
D03*
X395732D02*
D03*
X453606Y802654D02*
D03*
X399669D02*
D03*
X614866Y749505D02*
D03*
X553055D02*
D03*
X610929Y802654D02*
D03*
X556992D02*
D03*
X697543Y749505D02*
D03*
X635732D02*
D03*
X693606Y802654D02*
D03*
X639669D02*
D03*
X854866Y749505D02*
D03*
X793055D02*
D03*
X850929Y802654D02*
D03*
X796992D02*
D03*
X937543Y749505D02*
D03*
X875732D02*
D03*
X933606Y802654D02*
D03*
X879669D02*
D03*
X1094866Y749505D02*
D03*
X1033055D02*
D03*
X1090929Y802654D02*
D03*
X1036992D02*
D03*
X1177543Y749505D02*
D03*
X1115732D02*
D03*
X1173606Y802654D02*
D03*
X1119669D02*
D03*
X1334866Y749505D02*
D03*
X1273055D02*
D03*
X1330929Y802654D02*
D03*
X1276992D02*
D03*
X1417543Y749505D02*
D03*
X1355732D02*
D03*
X1413606Y802654D02*
D03*
X1359669D02*
D03*
X1574866Y749505D02*
D03*
X1513055D02*
D03*
X1570929Y802654D02*
D03*
X1516992D02*
D03*
X1657543Y749505D02*
D03*
X1595732D02*
D03*
X1653606Y802654D02*
D03*
X1599669D02*
D03*
X1814866Y749505D02*
D03*
X1753055D02*
D03*
X1810929Y802654D02*
D03*
X1756992D02*
D03*
X1897543Y749505D02*
D03*
X1835732D02*
D03*
X1893606Y802654D02*
D03*
X1839669D02*
D03*
X2054866Y749505D02*
D03*
X1993055D02*
D03*
X2050929Y802654D02*
D03*
X1996992D02*
D03*
X2137543Y749505D02*
D03*
X2075732D02*
D03*
X2133606Y802654D02*
D03*
X2079669D02*
D03*
X2294866Y749505D02*
D03*
X2233055D02*
D03*
X2290929Y802654D02*
D03*
X2236992D02*
D03*
X2377543Y749505D02*
D03*
X2315732D02*
D03*
X2373606Y802654D02*
D03*
X2319669D02*
D03*
X134866Y1089505D02*
D03*
X73055D02*
D03*
X130929Y1142654D02*
D03*
X76992D02*
D03*
X217543Y1089505D02*
D03*
X155732D02*
D03*
X213606Y1142654D02*
D03*
X159669D02*
D03*
X374866Y1089505D02*
D03*
X313055D02*
D03*
X370929Y1142654D02*
D03*
X316992D02*
D03*
X457543Y1089505D02*
D03*
X395732D02*
D03*
X453606Y1142654D02*
D03*
X399669D02*
D03*
X614866Y1089505D02*
D03*
X553055D02*
D03*
X610929Y1142654D02*
D03*
X556992D02*
D03*
X697543Y1089505D02*
D03*
X635732D02*
D03*
X693606Y1142654D02*
D03*
X639669D02*
D03*
X854866Y1089505D02*
D03*
X793055D02*
D03*
X850929Y1142654D02*
D03*
X796992D02*
D03*
X937543Y1089505D02*
D03*
X875732D02*
D03*
X933606Y1142654D02*
D03*
X879669D02*
D03*
X1094866Y1089505D02*
D03*
X1033055D02*
D03*
X1090929Y1142654D02*
D03*
X1036992D02*
D03*
X1177543Y1089505D02*
D03*
X1115732D02*
D03*
X1173606Y1142654D02*
D03*
X1119669D02*
D03*
X1334866Y1089505D02*
D03*
X1273055D02*
D03*
X1330929Y1142654D02*
D03*
X1276992D02*
D03*
X1417543Y1089505D02*
D03*
X1355732D02*
D03*
X1413606Y1142654D02*
D03*
X1359669D02*
D03*
X1574866Y1089505D02*
D03*
X1513055D02*
D03*
X1570929Y1142654D02*
D03*
X1516992D02*
D03*
X1657543Y1089505D02*
D03*
X1595732D02*
D03*
X1653606Y1142654D02*
D03*
X1599669D02*
D03*
X1814866Y1089505D02*
D03*
X1753055D02*
D03*
X1810929Y1142654D02*
D03*
X1756992D02*
D03*
X1897543Y1089505D02*
D03*
X1835732D02*
D03*
X1893606Y1142654D02*
D03*
X1839669D02*
D03*
X2054866Y1089505D02*
D03*
X1993055D02*
D03*
X2050929Y1142654D02*
D03*
X1996992D02*
D03*
X2137543Y1089505D02*
D03*
X2075732D02*
D03*
X2133606Y1142654D02*
D03*
X2079669D02*
D03*
X2294866Y1089505D02*
D03*
X2233055D02*
D03*
X2290929Y1142654D02*
D03*
X2236992D02*
D03*
X2377543Y1089505D02*
D03*
X2315732D02*
D03*
X2373606Y1142654D02*
D03*
X2319669D02*
D03*
X134866Y1429505D02*
D03*
X73055D02*
D03*
X130929Y1482654D02*
D03*
X76992D02*
D03*
X217543Y1429505D02*
D03*
X155732D02*
D03*
X213606Y1482654D02*
D03*
X159669D02*
D03*
X374866Y1429505D02*
D03*
X313055D02*
D03*
X370929Y1482654D02*
D03*
X316992D02*
D03*
X457543Y1429505D02*
D03*
X395732D02*
D03*
X453606Y1482654D02*
D03*
X399669D02*
D03*
X614866Y1429505D02*
D03*
X553055D02*
D03*
X610929Y1482654D02*
D03*
X556992D02*
D03*
X697543Y1429505D02*
D03*
X635732D02*
D03*
X693606Y1482654D02*
D03*
X639669D02*
D03*
X854866Y1429505D02*
D03*
X793055D02*
D03*
X850929Y1482654D02*
D03*
X796992D02*
D03*
X937543Y1429505D02*
D03*
X875732D02*
D03*
X933606Y1482654D02*
D03*
X879669D02*
D03*
X1094866Y1429505D02*
D03*
X1033055D02*
D03*
X1090929Y1482654D02*
D03*
X1036992D02*
D03*
X1177543Y1429505D02*
D03*
X1115732D02*
D03*
X1173606Y1482654D02*
D03*
X1119669D02*
D03*
X1334866Y1429505D02*
D03*
X1273055D02*
D03*
X1330929Y1482654D02*
D03*
X1276992D02*
D03*
X1417543Y1429505D02*
D03*
X1355732D02*
D03*
X1413606Y1482654D02*
D03*
X1359669D02*
D03*
X1574866Y1429505D02*
D03*
X1513055D02*
D03*
X1570929Y1482654D02*
D03*
X1516992D02*
D03*
X1657543Y1429505D02*
D03*
X1595732D02*
D03*
X1653606Y1482654D02*
D03*
X1599669D02*
D03*
X1814866Y1429505D02*
D03*
X1753055D02*
D03*
X1810929Y1482654D02*
D03*
X1756992D02*
D03*
X1897543Y1429505D02*
D03*
X1835732D02*
D03*
X1893606Y1482654D02*
D03*
X1839669D02*
D03*
X2054866Y1429505D02*
D03*
X1993055D02*
D03*
X2050929Y1482654D02*
D03*
X1996992D02*
D03*
X2137543Y1429505D02*
D03*
X2075732D02*
D03*
X2133606Y1482654D02*
D03*
X2079669D02*
D03*
X2294866Y1429505D02*
D03*
X2233055D02*
D03*
X2290929Y1482654D02*
D03*
X2236992D02*
D03*
X2377543Y1429505D02*
D03*
X2315732D02*
D03*
X2373606Y1482654D02*
D03*
X2319669D02*
D03*
D43*
X74000Y335300D02*
D03*
X144000D02*
D03*
X314000D02*
D03*
X384000D02*
D03*
X554000D02*
D03*
X624000D02*
D03*
X794000D02*
D03*
X864000D02*
D03*
X1034000D02*
D03*
X1104000D02*
D03*
X1274000D02*
D03*
X1344000D02*
D03*
X1514000D02*
D03*
X1584000D02*
D03*
X1754000D02*
D03*
X1824000D02*
D03*
X1994000D02*
D03*
X2064000D02*
D03*
X2234000D02*
D03*
X2304000D02*
D03*
X74000Y675300D02*
D03*
X144000D02*
D03*
X314000D02*
D03*
X384000D02*
D03*
X554000D02*
D03*
X624000D02*
D03*
X794000D02*
D03*
X864000D02*
D03*
X1034000D02*
D03*
X1104000D02*
D03*
X1274000D02*
D03*
X1344000D02*
D03*
X1514000D02*
D03*
X1584000D02*
D03*
X1754000D02*
D03*
X1824000D02*
D03*
X1994000D02*
D03*
X2064000D02*
D03*
X2234000D02*
D03*
X2304000D02*
D03*
X74000Y1015300D02*
D03*
X144000D02*
D03*
X314000D02*
D03*
X384000D02*
D03*
X554000D02*
D03*
X624000D02*
D03*
X794000D02*
D03*
X864000D02*
D03*
X1034000D02*
D03*
X1104000D02*
D03*
X1274000D02*
D03*
X1344000D02*
D03*
X1514000D02*
D03*
X1584000D02*
D03*
X1754000D02*
D03*
X1824000D02*
D03*
X1994000D02*
D03*
X2064000D02*
D03*
X2234000D02*
D03*
X2304000D02*
D03*
X74000Y1355300D02*
D03*
X144000D02*
D03*
X314000D02*
D03*
X384000D02*
D03*
X554000D02*
D03*
X624000D02*
D03*
X794000D02*
D03*
X864000D02*
D03*
X1034000D02*
D03*
X1104000D02*
D03*
X1274000D02*
D03*
X1344000D02*
D03*
X1514000D02*
D03*
X1584000D02*
D03*
X1754000D02*
D03*
X1824000D02*
D03*
X1994000D02*
D03*
X2064000D02*
D03*
X2234000D02*
D03*
X2304000D02*
D03*
X74000Y1695300D02*
D03*
X144000D02*
D03*
X314000D02*
D03*
X384000D02*
D03*
X554000D02*
D03*
X624000D02*
D03*
X794000D02*
D03*
X864000D02*
D03*
X1034000D02*
D03*
X1104000D02*
D03*
X1274000D02*
D03*
X1344000D02*
D03*
X1514000D02*
D03*
X1584000D02*
D03*
X1754000D02*
D03*
X1824000D02*
D03*
X1994000D02*
D03*
X2064000D02*
D03*
X2234000D02*
D03*
X2304000D02*
D03*
D44*
X74000Y325300D02*
D03*
Y315300D02*
D03*
Y305300D02*
D03*
Y295300D02*
D03*
Y285300D02*
D03*
Y275300D02*
D03*
Y265300D02*
D03*
Y255300D02*
D03*
Y245300D02*
D03*
Y235300D02*
D03*
Y225300D02*
D03*
X144000Y325300D02*
D03*
Y315300D02*
D03*
Y305300D02*
D03*
Y295300D02*
D03*
Y285300D02*
D03*
Y275300D02*
D03*
Y265300D02*
D03*
Y255300D02*
D03*
Y245300D02*
D03*
Y235300D02*
D03*
Y225300D02*
D03*
X314000Y325300D02*
D03*
Y315300D02*
D03*
Y305300D02*
D03*
Y295300D02*
D03*
Y285300D02*
D03*
Y275300D02*
D03*
Y265300D02*
D03*
Y255300D02*
D03*
Y245300D02*
D03*
Y235300D02*
D03*
Y225300D02*
D03*
X384000Y325300D02*
D03*
Y315300D02*
D03*
Y305300D02*
D03*
Y295300D02*
D03*
Y285300D02*
D03*
Y275300D02*
D03*
Y265300D02*
D03*
Y255300D02*
D03*
Y245300D02*
D03*
Y235300D02*
D03*
Y225300D02*
D03*
X554000Y325300D02*
D03*
Y315300D02*
D03*
Y305300D02*
D03*
Y295300D02*
D03*
Y285300D02*
D03*
Y275300D02*
D03*
Y265300D02*
D03*
Y255300D02*
D03*
Y245300D02*
D03*
Y235300D02*
D03*
Y225300D02*
D03*
X624000Y325300D02*
D03*
Y315300D02*
D03*
Y305300D02*
D03*
Y295300D02*
D03*
Y285300D02*
D03*
Y275300D02*
D03*
Y265300D02*
D03*
Y255300D02*
D03*
Y245300D02*
D03*
Y235300D02*
D03*
Y225300D02*
D03*
X794000Y325300D02*
D03*
Y315300D02*
D03*
Y305300D02*
D03*
Y295300D02*
D03*
Y285300D02*
D03*
Y275300D02*
D03*
Y265300D02*
D03*
Y255300D02*
D03*
Y245300D02*
D03*
Y235300D02*
D03*
Y225300D02*
D03*
X864000Y325300D02*
D03*
Y315300D02*
D03*
Y305300D02*
D03*
Y295300D02*
D03*
Y285300D02*
D03*
Y275300D02*
D03*
Y265300D02*
D03*
Y255300D02*
D03*
Y245300D02*
D03*
Y235300D02*
D03*
Y225300D02*
D03*
X1034000Y325300D02*
D03*
Y315300D02*
D03*
Y305300D02*
D03*
Y295300D02*
D03*
Y285300D02*
D03*
Y275300D02*
D03*
Y265300D02*
D03*
Y255300D02*
D03*
Y245300D02*
D03*
Y235300D02*
D03*
Y225300D02*
D03*
X1104000Y325300D02*
D03*
Y315300D02*
D03*
Y305300D02*
D03*
Y295300D02*
D03*
Y285300D02*
D03*
Y275300D02*
D03*
Y265300D02*
D03*
Y255300D02*
D03*
Y245300D02*
D03*
Y235300D02*
D03*
Y225300D02*
D03*
X1274000Y325300D02*
D03*
Y315300D02*
D03*
Y305300D02*
D03*
Y295300D02*
D03*
Y285300D02*
D03*
Y275300D02*
D03*
Y265300D02*
D03*
Y255300D02*
D03*
Y245300D02*
D03*
Y235300D02*
D03*
Y225300D02*
D03*
X1344000Y325300D02*
D03*
Y315300D02*
D03*
Y305300D02*
D03*
Y295300D02*
D03*
Y285300D02*
D03*
Y275300D02*
D03*
Y265300D02*
D03*
Y255300D02*
D03*
Y245300D02*
D03*
Y235300D02*
D03*
Y225300D02*
D03*
X1514000Y325300D02*
D03*
Y315300D02*
D03*
Y305300D02*
D03*
Y295300D02*
D03*
Y285300D02*
D03*
Y275300D02*
D03*
Y265300D02*
D03*
Y255300D02*
D03*
Y245300D02*
D03*
Y235300D02*
D03*
Y225300D02*
D03*
X1584000Y325300D02*
D03*
Y315300D02*
D03*
Y305300D02*
D03*
Y295300D02*
D03*
Y285300D02*
D03*
Y275300D02*
D03*
Y265300D02*
D03*
Y255300D02*
D03*
Y245300D02*
D03*
Y235300D02*
D03*
Y225300D02*
D03*
X1754000Y325300D02*
D03*
Y315300D02*
D03*
Y305300D02*
D03*
Y295300D02*
D03*
Y285300D02*
D03*
Y275300D02*
D03*
Y265300D02*
D03*
Y255300D02*
D03*
Y245300D02*
D03*
Y235300D02*
D03*
Y225300D02*
D03*
X1824000Y325300D02*
D03*
Y315300D02*
D03*
Y305300D02*
D03*
Y295300D02*
D03*
Y285300D02*
D03*
Y275300D02*
D03*
Y265300D02*
D03*
Y255300D02*
D03*
Y245300D02*
D03*
Y235300D02*
D03*
Y225300D02*
D03*
X1994000Y325300D02*
D03*
Y315300D02*
D03*
Y305300D02*
D03*
Y295300D02*
D03*
Y285300D02*
D03*
Y275300D02*
D03*
Y265300D02*
D03*
Y255300D02*
D03*
Y245300D02*
D03*
Y235300D02*
D03*
Y225300D02*
D03*
X2064000Y325300D02*
D03*
Y315300D02*
D03*
Y305300D02*
D03*
Y295300D02*
D03*
Y285300D02*
D03*
Y275300D02*
D03*
Y265300D02*
D03*
Y255300D02*
D03*
Y245300D02*
D03*
Y235300D02*
D03*
Y225300D02*
D03*
X2234000Y325300D02*
D03*
Y315300D02*
D03*
Y305300D02*
D03*
Y295300D02*
D03*
Y285300D02*
D03*
Y275300D02*
D03*
Y265300D02*
D03*
Y255300D02*
D03*
Y245300D02*
D03*
Y235300D02*
D03*
Y225300D02*
D03*
X2304000Y325300D02*
D03*
Y315300D02*
D03*
Y305300D02*
D03*
Y295300D02*
D03*
Y285300D02*
D03*
Y275300D02*
D03*
Y265300D02*
D03*
Y255300D02*
D03*
Y245300D02*
D03*
Y235300D02*
D03*
Y225300D02*
D03*
X74000Y665300D02*
D03*
Y655300D02*
D03*
Y645300D02*
D03*
Y635300D02*
D03*
Y625300D02*
D03*
Y615300D02*
D03*
Y605300D02*
D03*
Y595300D02*
D03*
Y585300D02*
D03*
Y575300D02*
D03*
Y565300D02*
D03*
X144000Y665300D02*
D03*
Y655300D02*
D03*
Y645300D02*
D03*
Y635300D02*
D03*
Y625300D02*
D03*
Y615300D02*
D03*
Y605300D02*
D03*
Y595300D02*
D03*
Y585300D02*
D03*
Y575300D02*
D03*
Y565300D02*
D03*
X314000Y665300D02*
D03*
Y655300D02*
D03*
Y645300D02*
D03*
Y635300D02*
D03*
Y625300D02*
D03*
Y615300D02*
D03*
Y605300D02*
D03*
Y595300D02*
D03*
Y585300D02*
D03*
Y575300D02*
D03*
Y565300D02*
D03*
X384000Y665300D02*
D03*
Y655300D02*
D03*
Y645300D02*
D03*
Y635300D02*
D03*
Y625300D02*
D03*
Y615300D02*
D03*
Y605300D02*
D03*
Y595300D02*
D03*
Y585300D02*
D03*
Y575300D02*
D03*
Y565300D02*
D03*
X554000Y665300D02*
D03*
Y655300D02*
D03*
Y645300D02*
D03*
Y635300D02*
D03*
Y625300D02*
D03*
Y615300D02*
D03*
Y605300D02*
D03*
Y595300D02*
D03*
Y585300D02*
D03*
Y575300D02*
D03*
Y565300D02*
D03*
X624000Y665300D02*
D03*
Y655300D02*
D03*
Y645300D02*
D03*
Y635300D02*
D03*
Y625300D02*
D03*
Y615300D02*
D03*
Y605300D02*
D03*
Y595300D02*
D03*
Y585300D02*
D03*
Y575300D02*
D03*
Y565300D02*
D03*
X794000Y665300D02*
D03*
Y655300D02*
D03*
Y645300D02*
D03*
Y635300D02*
D03*
Y625300D02*
D03*
Y615300D02*
D03*
Y605300D02*
D03*
Y595300D02*
D03*
Y585300D02*
D03*
Y575300D02*
D03*
Y565300D02*
D03*
X864000Y665300D02*
D03*
Y655300D02*
D03*
Y645300D02*
D03*
Y635300D02*
D03*
Y625300D02*
D03*
Y615300D02*
D03*
Y605300D02*
D03*
Y595300D02*
D03*
Y585300D02*
D03*
Y575300D02*
D03*
Y565300D02*
D03*
X1034000Y665300D02*
D03*
Y655300D02*
D03*
Y645300D02*
D03*
Y635300D02*
D03*
Y625300D02*
D03*
Y615300D02*
D03*
Y605300D02*
D03*
Y595300D02*
D03*
Y585300D02*
D03*
Y575300D02*
D03*
Y565300D02*
D03*
X1104000Y665300D02*
D03*
Y655300D02*
D03*
Y645300D02*
D03*
Y635300D02*
D03*
Y625300D02*
D03*
Y615300D02*
D03*
Y605300D02*
D03*
Y595300D02*
D03*
Y585300D02*
D03*
Y575300D02*
D03*
Y565300D02*
D03*
X1274000Y665300D02*
D03*
Y655300D02*
D03*
Y645300D02*
D03*
Y635300D02*
D03*
Y625300D02*
D03*
Y615300D02*
D03*
Y605300D02*
D03*
Y595300D02*
D03*
Y585300D02*
D03*
Y575300D02*
D03*
Y565300D02*
D03*
X1344000Y665300D02*
D03*
Y655300D02*
D03*
Y645300D02*
D03*
Y635300D02*
D03*
Y625300D02*
D03*
Y615300D02*
D03*
Y605300D02*
D03*
Y595300D02*
D03*
Y585300D02*
D03*
Y575300D02*
D03*
Y565300D02*
D03*
X1514000Y665300D02*
D03*
Y655300D02*
D03*
Y645300D02*
D03*
Y635300D02*
D03*
Y625300D02*
D03*
Y615300D02*
D03*
Y605300D02*
D03*
Y595300D02*
D03*
Y585300D02*
D03*
Y575300D02*
D03*
Y565300D02*
D03*
X1584000Y665300D02*
D03*
Y655300D02*
D03*
Y645300D02*
D03*
Y635300D02*
D03*
Y625300D02*
D03*
Y615300D02*
D03*
Y605300D02*
D03*
Y595300D02*
D03*
Y585300D02*
D03*
Y575300D02*
D03*
Y565300D02*
D03*
X1754000Y665300D02*
D03*
Y655300D02*
D03*
Y645300D02*
D03*
Y635300D02*
D03*
Y625300D02*
D03*
Y615300D02*
D03*
Y605300D02*
D03*
Y595300D02*
D03*
Y585300D02*
D03*
Y575300D02*
D03*
Y565300D02*
D03*
X1824000Y665300D02*
D03*
Y655300D02*
D03*
Y645300D02*
D03*
Y635300D02*
D03*
Y625300D02*
D03*
Y615300D02*
D03*
Y605300D02*
D03*
Y595300D02*
D03*
Y585300D02*
D03*
Y575300D02*
D03*
Y565300D02*
D03*
X1994000Y665300D02*
D03*
Y655300D02*
D03*
Y645300D02*
D03*
Y635300D02*
D03*
Y625300D02*
D03*
Y615300D02*
D03*
Y605300D02*
D03*
Y595300D02*
D03*
Y585300D02*
D03*
Y575300D02*
D03*
Y565300D02*
D03*
X2064000Y665300D02*
D03*
Y655300D02*
D03*
Y645300D02*
D03*
Y635300D02*
D03*
Y625300D02*
D03*
Y615300D02*
D03*
Y605300D02*
D03*
Y595300D02*
D03*
Y585300D02*
D03*
Y575300D02*
D03*
Y565300D02*
D03*
X2234000Y665300D02*
D03*
Y655300D02*
D03*
Y645300D02*
D03*
Y635300D02*
D03*
Y625300D02*
D03*
Y615300D02*
D03*
Y605300D02*
D03*
Y595300D02*
D03*
Y585300D02*
D03*
Y575300D02*
D03*
Y565300D02*
D03*
X2304000Y665300D02*
D03*
Y655300D02*
D03*
Y645300D02*
D03*
Y635300D02*
D03*
Y625300D02*
D03*
Y615300D02*
D03*
Y605300D02*
D03*
Y595300D02*
D03*
Y585300D02*
D03*
Y575300D02*
D03*
Y565300D02*
D03*
X74000Y1005300D02*
D03*
Y995300D02*
D03*
Y985300D02*
D03*
Y975300D02*
D03*
Y965300D02*
D03*
Y955300D02*
D03*
Y945300D02*
D03*
Y935300D02*
D03*
Y925300D02*
D03*
Y915300D02*
D03*
Y905300D02*
D03*
X144000Y1005300D02*
D03*
Y995300D02*
D03*
Y985300D02*
D03*
Y975300D02*
D03*
Y965300D02*
D03*
Y955300D02*
D03*
Y945300D02*
D03*
Y935300D02*
D03*
Y925300D02*
D03*
Y915300D02*
D03*
Y905300D02*
D03*
X314000Y1005300D02*
D03*
Y995300D02*
D03*
Y985300D02*
D03*
Y975300D02*
D03*
Y965300D02*
D03*
Y955300D02*
D03*
Y945300D02*
D03*
Y935300D02*
D03*
Y925300D02*
D03*
Y915300D02*
D03*
Y905300D02*
D03*
X384000Y1005300D02*
D03*
Y995300D02*
D03*
Y985300D02*
D03*
Y975300D02*
D03*
Y965300D02*
D03*
Y955300D02*
D03*
Y945300D02*
D03*
Y935300D02*
D03*
Y925300D02*
D03*
Y915300D02*
D03*
Y905300D02*
D03*
X554000Y1005300D02*
D03*
Y995300D02*
D03*
Y985300D02*
D03*
Y975300D02*
D03*
Y965300D02*
D03*
Y955300D02*
D03*
Y945300D02*
D03*
Y935300D02*
D03*
Y925300D02*
D03*
Y915300D02*
D03*
Y905300D02*
D03*
X624000Y1005300D02*
D03*
Y995300D02*
D03*
Y985300D02*
D03*
Y975300D02*
D03*
Y965300D02*
D03*
Y955300D02*
D03*
Y945300D02*
D03*
Y935300D02*
D03*
Y925300D02*
D03*
Y915300D02*
D03*
Y905300D02*
D03*
X794000Y1005300D02*
D03*
Y995300D02*
D03*
Y985300D02*
D03*
Y975300D02*
D03*
Y965300D02*
D03*
Y955300D02*
D03*
Y945300D02*
D03*
Y935300D02*
D03*
Y925300D02*
D03*
Y915300D02*
D03*
Y905300D02*
D03*
X864000Y1005300D02*
D03*
Y995300D02*
D03*
Y985300D02*
D03*
Y975300D02*
D03*
Y965300D02*
D03*
Y955300D02*
D03*
Y945300D02*
D03*
Y935300D02*
D03*
Y925300D02*
D03*
Y915300D02*
D03*
Y905300D02*
D03*
X1034000Y1005300D02*
D03*
Y995300D02*
D03*
Y985300D02*
D03*
Y975300D02*
D03*
Y965300D02*
D03*
Y955300D02*
D03*
Y945300D02*
D03*
Y935300D02*
D03*
Y925300D02*
D03*
Y915300D02*
D03*
Y905300D02*
D03*
X1104000Y1005300D02*
D03*
Y995300D02*
D03*
Y985300D02*
D03*
Y975300D02*
D03*
Y965300D02*
D03*
Y955300D02*
D03*
Y945300D02*
D03*
Y935300D02*
D03*
Y925300D02*
D03*
Y915300D02*
D03*
Y905300D02*
D03*
X1274000Y1005300D02*
D03*
Y995300D02*
D03*
Y985300D02*
D03*
Y975300D02*
D03*
Y965300D02*
D03*
Y955300D02*
D03*
Y945300D02*
D03*
Y935300D02*
D03*
Y925300D02*
D03*
Y915300D02*
D03*
Y905300D02*
D03*
X1344000Y1005300D02*
D03*
Y995300D02*
D03*
Y985300D02*
D03*
Y975300D02*
D03*
Y965300D02*
D03*
Y955300D02*
D03*
Y945300D02*
D03*
Y935300D02*
D03*
Y925300D02*
D03*
Y915300D02*
D03*
Y905300D02*
D03*
X1514000Y1005300D02*
D03*
Y995300D02*
D03*
Y985300D02*
D03*
Y975300D02*
D03*
Y965300D02*
D03*
Y955300D02*
D03*
Y945300D02*
D03*
Y935300D02*
D03*
Y925300D02*
D03*
Y915300D02*
D03*
Y905300D02*
D03*
X1584000Y1005300D02*
D03*
Y995300D02*
D03*
Y985300D02*
D03*
Y975300D02*
D03*
Y965300D02*
D03*
Y955300D02*
D03*
Y945300D02*
D03*
Y935300D02*
D03*
Y925300D02*
D03*
Y915300D02*
D03*
Y905300D02*
D03*
X1754000Y1005300D02*
D03*
Y995300D02*
D03*
Y985300D02*
D03*
Y975300D02*
D03*
Y965300D02*
D03*
Y955300D02*
D03*
Y945300D02*
D03*
Y935300D02*
D03*
Y925300D02*
D03*
Y915300D02*
D03*
Y905300D02*
D03*
X1824000Y1005300D02*
D03*
Y995300D02*
D03*
Y985300D02*
D03*
Y975300D02*
D03*
Y965300D02*
D03*
Y955300D02*
D03*
Y945300D02*
D03*
Y935300D02*
D03*
Y925300D02*
D03*
Y915300D02*
D03*
Y905300D02*
D03*
X1994000Y1005300D02*
D03*
Y995300D02*
D03*
Y985300D02*
D03*
Y975300D02*
D03*
Y965300D02*
D03*
Y955300D02*
D03*
Y945300D02*
D03*
Y935300D02*
D03*
Y925300D02*
D03*
Y915300D02*
D03*
Y905300D02*
D03*
X2064000Y1005300D02*
D03*
Y995300D02*
D03*
Y985300D02*
D03*
Y975300D02*
D03*
Y965300D02*
D03*
Y955300D02*
D03*
Y945300D02*
D03*
Y935300D02*
D03*
Y925300D02*
D03*
Y915300D02*
D03*
Y905300D02*
D03*
X2234000Y1005300D02*
D03*
Y995300D02*
D03*
Y985300D02*
D03*
Y975300D02*
D03*
Y965300D02*
D03*
Y955300D02*
D03*
Y945300D02*
D03*
Y935300D02*
D03*
Y925300D02*
D03*
Y915300D02*
D03*
Y905300D02*
D03*
X2304000Y1005300D02*
D03*
Y995300D02*
D03*
Y985300D02*
D03*
Y975300D02*
D03*
Y965300D02*
D03*
Y955300D02*
D03*
Y945300D02*
D03*
Y935300D02*
D03*
Y925300D02*
D03*
Y915300D02*
D03*
Y905300D02*
D03*
X74000Y1345300D02*
D03*
Y1335300D02*
D03*
Y1325300D02*
D03*
Y1315300D02*
D03*
Y1305300D02*
D03*
Y1295300D02*
D03*
Y1285300D02*
D03*
Y1275300D02*
D03*
Y1265300D02*
D03*
Y1255300D02*
D03*
Y1245300D02*
D03*
X144000Y1345300D02*
D03*
Y1335300D02*
D03*
Y1325300D02*
D03*
Y1315300D02*
D03*
Y1305300D02*
D03*
Y1295300D02*
D03*
Y1285300D02*
D03*
Y1275300D02*
D03*
Y1265300D02*
D03*
Y1255300D02*
D03*
Y1245300D02*
D03*
X314000Y1345300D02*
D03*
Y1335300D02*
D03*
Y1325300D02*
D03*
Y1315300D02*
D03*
Y1305300D02*
D03*
Y1295300D02*
D03*
Y1285300D02*
D03*
Y1275300D02*
D03*
Y1265300D02*
D03*
Y1255300D02*
D03*
Y1245300D02*
D03*
X384000Y1345300D02*
D03*
Y1335300D02*
D03*
Y1325300D02*
D03*
Y1315300D02*
D03*
Y1305300D02*
D03*
Y1295300D02*
D03*
Y1285300D02*
D03*
Y1275300D02*
D03*
Y1265300D02*
D03*
Y1255300D02*
D03*
Y1245300D02*
D03*
X554000Y1345300D02*
D03*
Y1335300D02*
D03*
Y1325300D02*
D03*
Y1315300D02*
D03*
Y1305300D02*
D03*
Y1295300D02*
D03*
Y1285300D02*
D03*
Y1275300D02*
D03*
Y1265300D02*
D03*
Y1255300D02*
D03*
Y1245300D02*
D03*
X624000Y1345300D02*
D03*
Y1335300D02*
D03*
Y1325300D02*
D03*
Y1315300D02*
D03*
Y1305300D02*
D03*
Y1295300D02*
D03*
Y1285300D02*
D03*
Y1275300D02*
D03*
Y1265300D02*
D03*
Y1255300D02*
D03*
Y1245300D02*
D03*
X794000Y1345300D02*
D03*
Y1335300D02*
D03*
Y1325300D02*
D03*
Y1315300D02*
D03*
Y1305300D02*
D03*
Y1295300D02*
D03*
Y1285300D02*
D03*
Y1275300D02*
D03*
Y1265300D02*
D03*
Y1255300D02*
D03*
Y1245300D02*
D03*
X864000Y1345300D02*
D03*
Y1335300D02*
D03*
Y1325300D02*
D03*
Y1315300D02*
D03*
Y1305300D02*
D03*
Y1295300D02*
D03*
Y1285300D02*
D03*
Y1275300D02*
D03*
Y1265300D02*
D03*
Y1255300D02*
D03*
Y1245300D02*
D03*
X1034000Y1345300D02*
D03*
Y1335300D02*
D03*
Y1325300D02*
D03*
Y1315300D02*
D03*
Y1305300D02*
D03*
Y1295300D02*
D03*
Y1285300D02*
D03*
Y1275300D02*
D03*
Y1265300D02*
D03*
Y1255300D02*
D03*
Y1245300D02*
D03*
X1104000Y1345300D02*
D03*
Y1335300D02*
D03*
Y1325300D02*
D03*
Y1315300D02*
D03*
Y1305300D02*
D03*
Y1295300D02*
D03*
Y1285300D02*
D03*
Y1275300D02*
D03*
Y1265300D02*
D03*
Y1255300D02*
D03*
Y1245300D02*
D03*
X1274000Y1345300D02*
D03*
Y1335300D02*
D03*
Y1325300D02*
D03*
Y1315300D02*
D03*
Y1305300D02*
D03*
Y1295300D02*
D03*
Y1285300D02*
D03*
Y1275300D02*
D03*
Y1265300D02*
D03*
Y1255300D02*
D03*
Y1245300D02*
D03*
X1344000Y1345300D02*
D03*
Y1335300D02*
D03*
Y1325300D02*
D03*
Y1315300D02*
D03*
Y1305300D02*
D03*
Y1295300D02*
D03*
Y1285300D02*
D03*
Y1275300D02*
D03*
Y1265300D02*
D03*
Y1255300D02*
D03*
Y1245300D02*
D03*
X1514000Y1345300D02*
D03*
Y1335300D02*
D03*
Y1325300D02*
D03*
Y1315300D02*
D03*
Y1305300D02*
D03*
Y1295300D02*
D03*
Y1285300D02*
D03*
Y1275300D02*
D03*
Y1265300D02*
D03*
Y1255300D02*
D03*
Y1245300D02*
D03*
X1584000Y1345300D02*
D03*
Y1335300D02*
D03*
Y1325300D02*
D03*
Y1315300D02*
D03*
Y1305300D02*
D03*
Y1295300D02*
D03*
Y1285300D02*
D03*
Y1275300D02*
D03*
Y1265300D02*
D03*
Y1255300D02*
D03*
Y1245300D02*
D03*
X1754000Y1345300D02*
D03*
Y1335300D02*
D03*
Y1325300D02*
D03*
Y1315300D02*
D03*
Y1305300D02*
D03*
Y1295300D02*
D03*
Y1285300D02*
D03*
Y1275300D02*
D03*
Y1265300D02*
D03*
Y1255300D02*
D03*
Y1245300D02*
D03*
X1824000Y1345300D02*
D03*
Y1335300D02*
D03*
Y1325300D02*
D03*
Y1315300D02*
D03*
Y1305300D02*
D03*
Y1295300D02*
D03*
Y1285300D02*
D03*
Y1275300D02*
D03*
Y1265300D02*
D03*
Y1255300D02*
D03*
Y1245300D02*
D03*
X1994000Y1345300D02*
D03*
Y1335300D02*
D03*
Y1325300D02*
D03*
Y1315300D02*
D03*
Y1305300D02*
D03*
Y1295300D02*
D03*
Y1285300D02*
D03*
Y1275300D02*
D03*
Y1265300D02*
D03*
Y1255300D02*
D03*
Y1245300D02*
D03*
X2064000Y1345300D02*
D03*
Y1335300D02*
D03*
Y1325300D02*
D03*
Y1315300D02*
D03*
Y1305300D02*
D03*
Y1295300D02*
D03*
Y1285300D02*
D03*
Y1275300D02*
D03*
Y1265300D02*
D03*
Y1255300D02*
D03*
Y1245300D02*
D03*
X2234000Y1345300D02*
D03*
Y1335300D02*
D03*
Y1325300D02*
D03*
Y1315300D02*
D03*
Y1305300D02*
D03*
Y1295300D02*
D03*
Y1285300D02*
D03*
Y1275300D02*
D03*
Y1265300D02*
D03*
Y1255300D02*
D03*
Y1245300D02*
D03*
X2304000Y1345300D02*
D03*
Y1335300D02*
D03*
Y1325300D02*
D03*
Y1315300D02*
D03*
Y1305300D02*
D03*
Y1295300D02*
D03*
Y1285300D02*
D03*
Y1275300D02*
D03*
Y1265300D02*
D03*
Y1255300D02*
D03*
Y1245300D02*
D03*
X74000Y1685300D02*
D03*
Y1675300D02*
D03*
Y1665300D02*
D03*
Y1655300D02*
D03*
Y1645300D02*
D03*
Y1635300D02*
D03*
Y1625300D02*
D03*
Y1615300D02*
D03*
Y1605300D02*
D03*
Y1595300D02*
D03*
Y1585300D02*
D03*
X144000Y1685300D02*
D03*
Y1675300D02*
D03*
Y1665300D02*
D03*
Y1655300D02*
D03*
Y1645300D02*
D03*
Y1635300D02*
D03*
Y1625300D02*
D03*
Y1615300D02*
D03*
Y1605300D02*
D03*
Y1595300D02*
D03*
Y1585300D02*
D03*
X314000Y1685300D02*
D03*
Y1675300D02*
D03*
Y1665300D02*
D03*
Y1655300D02*
D03*
Y1645300D02*
D03*
Y1635300D02*
D03*
Y1625300D02*
D03*
Y1615300D02*
D03*
Y1605300D02*
D03*
Y1595300D02*
D03*
Y1585300D02*
D03*
X384000Y1685300D02*
D03*
Y1675300D02*
D03*
Y1665300D02*
D03*
Y1655300D02*
D03*
Y1645300D02*
D03*
Y1635300D02*
D03*
Y1625300D02*
D03*
Y1615300D02*
D03*
Y1605300D02*
D03*
Y1595300D02*
D03*
Y1585300D02*
D03*
X554000Y1685300D02*
D03*
Y1675300D02*
D03*
Y1665300D02*
D03*
Y1655300D02*
D03*
Y1645300D02*
D03*
Y1635300D02*
D03*
Y1625300D02*
D03*
Y1615300D02*
D03*
Y1605300D02*
D03*
Y1595300D02*
D03*
Y1585300D02*
D03*
X624000Y1685300D02*
D03*
Y1675300D02*
D03*
Y1665300D02*
D03*
Y1655300D02*
D03*
Y1645300D02*
D03*
Y1635300D02*
D03*
Y1625300D02*
D03*
Y1615300D02*
D03*
Y1605300D02*
D03*
Y1595300D02*
D03*
Y1585300D02*
D03*
X794000Y1685300D02*
D03*
Y1675300D02*
D03*
Y1665300D02*
D03*
Y1655300D02*
D03*
Y1645300D02*
D03*
Y1635300D02*
D03*
Y1625300D02*
D03*
Y1615300D02*
D03*
Y1605300D02*
D03*
Y1595300D02*
D03*
Y1585300D02*
D03*
X864000Y1685300D02*
D03*
Y1675300D02*
D03*
Y1665300D02*
D03*
Y1655300D02*
D03*
Y1645300D02*
D03*
Y1635300D02*
D03*
Y1625300D02*
D03*
Y1615300D02*
D03*
Y1605300D02*
D03*
Y1595300D02*
D03*
Y1585300D02*
D03*
X1034000Y1685300D02*
D03*
Y1675300D02*
D03*
Y1665300D02*
D03*
Y1655300D02*
D03*
Y1645300D02*
D03*
Y1635300D02*
D03*
Y1625300D02*
D03*
Y1615300D02*
D03*
Y1605300D02*
D03*
Y1595300D02*
D03*
Y1585300D02*
D03*
X1104000Y1685300D02*
D03*
Y1675300D02*
D03*
Y1665300D02*
D03*
Y1655300D02*
D03*
Y1645300D02*
D03*
Y1635300D02*
D03*
Y1625300D02*
D03*
Y1615300D02*
D03*
Y1605300D02*
D03*
Y1595300D02*
D03*
Y1585300D02*
D03*
X1274000Y1685300D02*
D03*
Y1675300D02*
D03*
Y1665300D02*
D03*
Y1655300D02*
D03*
Y1645300D02*
D03*
Y1635300D02*
D03*
Y1625300D02*
D03*
Y1615300D02*
D03*
Y1605300D02*
D03*
Y1595300D02*
D03*
Y1585300D02*
D03*
X1344000Y1685300D02*
D03*
Y1675300D02*
D03*
Y1665300D02*
D03*
Y1655300D02*
D03*
Y1645300D02*
D03*
Y1635300D02*
D03*
Y1625300D02*
D03*
Y1615300D02*
D03*
Y1605300D02*
D03*
Y1595300D02*
D03*
Y1585300D02*
D03*
X1514000Y1685300D02*
D03*
Y1675300D02*
D03*
Y1665300D02*
D03*
Y1655300D02*
D03*
Y1645300D02*
D03*
Y1635300D02*
D03*
Y1625300D02*
D03*
Y1615300D02*
D03*
Y1605300D02*
D03*
Y1595300D02*
D03*
Y1585300D02*
D03*
X1584000Y1685300D02*
D03*
Y1675300D02*
D03*
Y1665300D02*
D03*
Y1655300D02*
D03*
Y1645300D02*
D03*
Y1635300D02*
D03*
Y1625300D02*
D03*
Y1615300D02*
D03*
Y1605300D02*
D03*
Y1595300D02*
D03*
Y1585300D02*
D03*
X1754000Y1685300D02*
D03*
Y1675300D02*
D03*
Y1665300D02*
D03*
Y1655300D02*
D03*
Y1645300D02*
D03*
Y1635300D02*
D03*
Y1625300D02*
D03*
Y1615300D02*
D03*
Y1605300D02*
D03*
Y1595300D02*
D03*
Y1585300D02*
D03*
X1824000Y1685300D02*
D03*
Y1675300D02*
D03*
Y1665300D02*
D03*
Y1655300D02*
D03*
Y1645300D02*
D03*
Y1635300D02*
D03*
Y1625300D02*
D03*
Y1615300D02*
D03*
Y1605300D02*
D03*
Y1595300D02*
D03*
Y1585300D02*
D03*
X1994000Y1685300D02*
D03*
Y1675300D02*
D03*
Y1665300D02*
D03*
Y1655300D02*
D03*
Y1645300D02*
D03*
Y1635300D02*
D03*
Y1625300D02*
D03*
Y1615300D02*
D03*
Y1605300D02*
D03*
Y1595300D02*
D03*
Y1585300D02*
D03*
X2064000Y1685300D02*
D03*
Y1675300D02*
D03*
Y1665300D02*
D03*
Y1655300D02*
D03*
Y1645300D02*
D03*
Y1635300D02*
D03*
Y1625300D02*
D03*
Y1615300D02*
D03*
Y1605300D02*
D03*
Y1595300D02*
D03*
Y1585300D02*
D03*
X2234000Y1685300D02*
D03*
Y1675300D02*
D03*
Y1665300D02*
D03*
Y1655300D02*
D03*
Y1645300D02*
D03*
Y1635300D02*
D03*
Y1625300D02*
D03*
Y1615300D02*
D03*
Y1605300D02*
D03*
Y1595300D02*
D03*
Y1585300D02*
D03*
X2304000Y1685300D02*
D03*
Y1675300D02*
D03*
Y1665300D02*
D03*
Y1655300D02*
D03*
Y1645300D02*
D03*
Y1635300D02*
D03*
Y1625300D02*
D03*
Y1615300D02*
D03*
Y1605300D02*
D03*
Y1595300D02*
D03*
Y1585300D02*
D03*
D45*
X21165Y127111D02*
D03*
Y107426D02*
D03*
Y88111D02*
D03*
Y68426D02*
D03*
X261165Y127111D02*
D03*
Y107426D02*
D03*
Y88111D02*
D03*
Y68426D02*
D03*
X501165Y127111D02*
D03*
Y107426D02*
D03*
Y88111D02*
D03*
Y68426D02*
D03*
X741165Y127111D02*
D03*
Y107426D02*
D03*
Y88111D02*
D03*
Y68426D02*
D03*
X981165Y127111D02*
D03*
Y107426D02*
D03*
Y88111D02*
D03*
Y68426D02*
D03*
X1221165Y127111D02*
D03*
Y107426D02*
D03*
Y88111D02*
D03*
Y68426D02*
D03*
X1461165Y127111D02*
D03*
Y107426D02*
D03*
Y88111D02*
D03*
Y68426D02*
D03*
X1701165Y127111D02*
D03*
Y107426D02*
D03*
Y88111D02*
D03*
Y68426D02*
D03*
X1941165Y127111D02*
D03*
Y107426D02*
D03*
Y88111D02*
D03*
Y68426D02*
D03*
X2181165Y127111D02*
D03*
Y107426D02*
D03*
Y88111D02*
D03*
Y68426D02*
D03*
X21165Y467111D02*
D03*
Y447426D02*
D03*
Y428111D02*
D03*
Y408426D02*
D03*
X261165Y467111D02*
D03*
Y447426D02*
D03*
Y428111D02*
D03*
Y408426D02*
D03*
X501165Y467111D02*
D03*
Y447426D02*
D03*
Y428111D02*
D03*
Y408426D02*
D03*
X741165Y467111D02*
D03*
Y447426D02*
D03*
Y428111D02*
D03*
Y408426D02*
D03*
X981165Y467111D02*
D03*
Y447426D02*
D03*
Y428111D02*
D03*
Y408426D02*
D03*
X1221165Y467111D02*
D03*
Y447426D02*
D03*
Y428111D02*
D03*
Y408426D02*
D03*
X1461165Y467111D02*
D03*
Y447426D02*
D03*
Y428111D02*
D03*
Y408426D02*
D03*
X1701165Y467111D02*
D03*
Y447426D02*
D03*
Y428111D02*
D03*
Y408426D02*
D03*
X1941165Y467111D02*
D03*
Y447426D02*
D03*
Y428111D02*
D03*
Y408426D02*
D03*
X2181165Y467111D02*
D03*
Y447426D02*
D03*
Y428111D02*
D03*
Y408426D02*
D03*
X21165Y807111D02*
D03*
Y787426D02*
D03*
Y768111D02*
D03*
Y748426D02*
D03*
X261165Y807111D02*
D03*
Y787426D02*
D03*
Y768111D02*
D03*
Y748426D02*
D03*
X501165Y807111D02*
D03*
Y787426D02*
D03*
Y768111D02*
D03*
Y748426D02*
D03*
X741165Y807111D02*
D03*
Y787426D02*
D03*
Y768111D02*
D03*
Y748426D02*
D03*
X981165Y807111D02*
D03*
Y787426D02*
D03*
Y768111D02*
D03*
Y748426D02*
D03*
X1221165Y807111D02*
D03*
Y787426D02*
D03*
Y768111D02*
D03*
Y748426D02*
D03*
X1461165Y807111D02*
D03*
Y787426D02*
D03*
Y768111D02*
D03*
Y748426D02*
D03*
X1701165Y807111D02*
D03*
Y787426D02*
D03*
Y768111D02*
D03*
Y748426D02*
D03*
X1941165Y807111D02*
D03*
Y787426D02*
D03*
Y768111D02*
D03*
Y748426D02*
D03*
X2181165Y807111D02*
D03*
Y787426D02*
D03*
Y768111D02*
D03*
Y748426D02*
D03*
X21165Y1147111D02*
D03*
Y1127426D02*
D03*
Y1108111D02*
D03*
Y1088426D02*
D03*
X261165Y1147111D02*
D03*
Y1127426D02*
D03*
Y1108111D02*
D03*
Y1088426D02*
D03*
X501165Y1147111D02*
D03*
Y1127426D02*
D03*
Y1108111D02*
D03*
Y1088426D02*
D03*
X741165Y1147111D02*
D03*
Y1127426D02*
D03*
Y1108111D02*
D03*
Y1088426D02*
D03*
X981165Y1147111D02*
D03*
Y1127426D02*
D03*
Y1108111D02*
D03*
Y1088426D02*
D03*
X1221165Y1147111D02*
D03*
Y1127426D02*
D03*
Y1108111D02*
D03*
Y1088426D02*
D03*
X1461165Y1147111D02*
D03*
Y1127426D02*
D03*
Y1108111D02*
D03*
Y1088426D02*
D03*
X1701165Y1147111D02*
D03*
Y1127426D02*
D03*
Y1108111D02*
D03*
Y1088426D02*
D03*
X1941165Y1147111D02*
D03*
Y1127426D02*
D03*
Y1108111D02*
D03*
Y1088426D02*
D03*
X2181165Y1147111D02*
D03*
Y1127426D02*
D03*
Y1108111D02*
D03*
Y1088426D02*
D03*
X21165Y1487111D02*
D03*
Y1467426D02*
D03*
Y1448111D02*
D03*
Y1428426D02*
D03*
X261165Y1487111D02*
D03*
Y1467426D02*
D03*
Y1448111D02*
D03*
Y1428426D02*
D03*
X501165Y1487111D02*
D03*
Y1467426D02*
D03*
Y1448111D02*
D03*
Y1428426D02*
D03*
X741165Y1487111D02*
D03*
Y1467426D02*
D03*
Y1448111D02*
D03*
Y1428426D02*
D03*
X981165Y1487111D02*
D03*
Y1467426D02*
D03*
Y1448111D02*
D03*
Y1428426D02*
D03*
X1221165Y1487111D02*
D03*
Y1467426D02*
D03*
Y1448111D02*
D03*
Y1428426D02*
D03*
X1461165Y1487111D02*
D03*
Y1467426D02*
D03*
Y1448111D02*
D03*
Y1428426D02*
D03*
X1701165Y1487111D02*
D03*
Y1467426D02*
D03*
Y1448111D02*
D03*
Y1428426D02*
D03*
X1941165Y1487111D02*
D03*
Y1467426D02*
D03*
Y1448111D02*
D03*
Y1428426D02*
D03*
X2181165Y1487111D02*
D03*
Y1467426D02*
D03*
Y1448111D02*
D03*
Y1428426D02*
D03*
D46*
X21283Y159284D02*
D03*
Y369284D02*
D03*
X206283Y369111D02*
D03*
X261283Y159284D02*
D03*
Y369284D02*
D03*
X446283Y369111D02*
D03*
X501284Y159284D02*
D03*
Y369284D02*
D03*
X686283Y369111D02*
D03*
X741284Y159284D02*
D03*
Y369284D02*
D03*
X926283Y369111D02*
D03*
X981283Y159284D02*
D03*
Y369284D02*
D03*
X1166283Y369111D02*
D03*
X1221284Y159284D02*
D03*
Y369284D02*
D03*
X1406283Y369111D02*
D03*
X1461283Y159284D02*
D03*
Y369284D02*
D03*
X1646283Y369111D02*
D03*
X1701283Y159284D02*
D03*
Y369284D02*
D03*
X1886283Y369111D02*
D03*
X1941283Y159284D02*
D03*
Y369284D02*
D03*
X2126283Y369111D02*
D03*
X2181284Y159284D02*
D03*
Y369284D02*
D03*
X2366283Y369111D02*
D03*
X21283Y499284D02*
D03*
Y709284D02*
D03*
X206283Y709111D02*
D03*
X261283Y499284D02*
D03*
Y709284D02*
D03*
X446283Y709111D02*
D03*
X501284Y499284D02*
D03*
Y709284D02*
D03*
X686283Y709111D02*
D03*
X741284Y499284D02*
D03*
Y709284D02*
D03*
X926283Y709111D02*
D03*
X981283Y499284D02*
D03*
Y709284D02*
D03*
X1166283Y709111D02*
D03*
X1221284Y499284D02*
D03*
Y709284D02*
D03*
X1406283Y709111D02*
D03*
X1461283Y499284D02*
D03*
Y709284D02*
D03*
X1646283Y709111D02*
D03*
X1701283Y499284D02*
D03*
Y709284D02*
D03*
X1886283Y709111D02*
D03*
X1941283Y499284D02*
D03*
Y709284D02*
D03*
X2126283Y709111D02*
D03*
X2181284Y499284D02*
D03*
Y709284D02*
D03*
X2366283Y709111D02*
D03*
X21283Y839284D02*
D03*
Y1049284D02*
D03*
X206283Y1049111D02*
D03*
X261283Y839284D02*
D03*
Y1049284D02*
D03*
X446283Y1049111D02*
D03*
X501284Y839284D02*
D03*
Y1049284D02*
D03*
X686283Y1049111D02*
D03*
X741284Y839284D02*
D03*
Y1049284D02*
D03*
X926283Y1049111D02*
D03*
X981283Y839284D02*
D03*
Y1049284D02*
D03*
X1166283Y1049111D02*
D03*
X1221284Y839284D02*
D03*
Y1049284D02*
D03*
X1406283Y1049111D02*
D03*
X1461283Y839284D02*
D03*
Y1049284D02*
D03*
X1646283Y1049111D02*
D03*
X1701283Y839284D02*
D03*
Y1049284D02*
D03*
X1886283Y1049111D02*
D03*
X1941283Y839284D02*
D03*
Y1049284D02*
D03*
X2126283Y1049111D02*
D03*
X2181284Y839284D02*
D03*
Y1049284D02*
D03*
X2366283Y1049111D02*
D03*
X21283Y1179284D02*
D03*
Y1389284D02*
D03*
X206283Y1389111D02*
D03*
X261283Y1179284D02*
D03*
Y1389284D02*
D03*
X446283Y1389111D02*
D03*
X501284Y1179284D02*
D03*
Y1389284D02*
D03*
X686283Y1389111D02*
D03*
X741284Y1179284D02*
D03*
Y1389284D02*
D03*
X926283Y1389111D02*
D03*
X981283Y1179284D02*
D03*
Y1389284D02*
D03*
X1166283Y1389111D02*
D03*
X1221284Y1179284D02*
D03*
Y1389284D02*
D03*
X1406283Y1389111D02*
D03*
X1461283Y1179284D02*
D03*
Y1389284D02*
D03*
X1646283Y1389111D02*
D03*
X1701283Y1179284D02*
D03*
Y1389284D02*
D03*
X1886283Y1389111D02*
D03*
X1941283Y1179284D02*
D03*
Y1389284D02*
D03*
X2126283Y1389111D02*
D03*
X2181284Y1179284D02*
D03*
Y1389284D02*
D03*
X2366283Y1389111D02*
D03*
X21283Y1519284D02*
D03*
Y1729284D02*
D03*
X206283Y1729111D02*
D03*
X261283Y1519284D02*
D03*
Y1729284D02*
D03*
X446283Y1729111D02*
D03*
X501284Y1519284D02*
D03*
Y1729284D02*
D03*
X686283Y1729111D02*
D03*
X741284Y1519284D02*
D03*
Y1729284D02*
D03*
X926283Y1729111D02*
D03*
X981283Y1519284D02*
D03*
Y1729284D02*
D03*
X1166283Y1729111D02*
D03*
X1221284Y1519284D02*
D03*
Y1729284D02*
D03*
X1406283Y1729111D02*
D03*
X1461283Y1519284D02*
D03*
Y1729284D02*
D03*
X1646283Y1729111D02*
D03*
X1701283Y1519284D02*
D03*
Y1729284D02*
D03*
X1886283Y1729111D02*
D03*
X1941283Y1519284D02*
D03*
Y1729284D02*
D03*
X2126283Y1729111D02*
D03*
X2181284Y1519284D02*
D03*
Y1729284D02*
D03*
X2366283Y1729111D02*
D03*
D47*
X113700Y215400D02*
D03*
X85400Y205900D02*
D03*
X56300Y138200D02*
D03*
X170500Y179700D02*
D03*
X119400Y168900D02*
D03*
X118700Y141200D02*
D03*
X71700Y157200D02*
D03*
X58700Y176800D02*
D03*
X210900Y168400D02*
D03*
X210000Y141200D02*
D03*
X170800Y157500D02*
D03*
X116400Y301100D02*
D03*
X161000Y194700D02*
D03*
X167300Y166700D02*
D03*
X153100Y147600D02*
D03*
X353700Y215400D02*
D03*
X325400Y205900D02*
D03*
X296300Y138200D02*
D03*
X410500Y179700D02*
D03*
X359400Y168900D02*
D03*
X358700Y141200D02*
D03*
X311700Y157200D02*
D03*
X298700Y176800D02*
D03*
X450900Y168400D02*
D03*
X450000Y141200D02*
D03*
X410800Y157500D02*
D03*
X356400Y301100D02*
D03*
X401000Y194700D02*
D03*
X407300Y166700D02*
D03*
X393100Y147600D02*
D03*
X593700Y215400D02*
D03*
X565400Y205900D02*
D03*
X536300Y138200D02*
D03*
X650500Y179700D02*
D03*
X599400Y168900D02*
D03*
X598700Y141200D02*
D03*
X551700Y157200D02*
D03*
X538700Y176800D02*
D03*
X690900Y168400D02*
D03*
X690000Y141200D02*
D03*
X650800Y157500D02*
D03*
X596400Y301100D02*
D03*
X641000Y194700D02*
D03*
X647300Y166700D02*
D03*
X633100Y147600D02*
D03*
X833700Y215400D02*
D03*
X805400Y205900D02*
D03*
X776300Y138200D02*
D03*
X890500Y179700D02*
D03*
X839400Y168900D02*
D03*
X838700Y141200D02*
D03*
X791700Y157200D02*
D03*
X778700Y176800D02*
D03*
X930900Y168400D02*
D03*
X930000Y141200D02*
D03*
X890800Y157500D02*
D03*
X836400Y301100D02*
D03*
X881000Y194700D02*
D03*
X887300Y166700D02*
D03*
X873100Y147600D02*
D03*
X1073700Y215400D02*
D03*
X1045400Y205900D02*
D03*
X1016300Y138200D02*
D03*
X1130500Y179700D02*
D03*
X1079400Y168900D02*
D03*
X1078700Y141200D02*
D03*
X1031700Y157200D02*
D03*
X1018700Y176800D02*
D03*
X1170900Y168400D02*
D03*
X1170000Y141200D02*
D03*
X1130800Y157500D02*
D03*
X1076400Y301100D02*
D03*
X1121000Y194700D02*
D03*
X1127300Y166700D02*
D03*
X1113100Y147600D02*
D03*
X1313700Y215400D02*
D03*
X1285400Y205900D02*
D03*
X1256300Y138200D02*
D03*
X1370500Y179700D02*
D03*
X1319400Y168900D02*
D03*
X1318700Y141200D02*
D03*
X1271700Y157200D02*
D03*
X1258700Y176800D02*
D03*
X1410900Y168400D02*
D03*
X1410000Y141200D02*
D03*
X1370800Y157500D02*
D03*
X1316400Y301100D02*
D03*
X1361000Y194700D02*
D03*
X1367300Y166700D02*
D03*
X1353100Y147600D02*
D03*
X1553700Y215400D02*
D03*
X1525400Y205900D02*
D03*
X1496300Y138200D02*
D03*
X1610500Y179700D02*
D03*
X1559400Y168900D02*
D03*
X1558700Y141200D02*
D03*
X1511700Y157200D02*
D03*
X1498700Y176800D02*
D03*
X1650900Y168400D02*
D03*
X1650000Y141200D02*
D03*
X1610800Y157500D02*
D03*
X1556400Y301100D02*
D03*
X1601000Y194700D02*
D03*
X1607300Y166700D02*
D03*
X1593100Y147600D02*
D03*
X1793700Y215400D02*
D03*
X1765400Y205900D02*
D03*
X1736300Y138200D02*
D03*
X1850500Y179700D02*
D03*
X1799400Y168900D02*
D03*
X1798700Y141200D02*
D03*
X1751700Y157200D02*
D03*
X1738700Y176800D02*
D03*
X1890900Y168400D02*
D03*
X1890000Y141200D02*
D03*
X1850800Y157500D02*
D03*
X1796400Y301100D02*
D03*
X1841000Y194700D02*
D03*
X1847300Y166700D02*
D03*
X1833100Y147600D02*
D03*
X2033700Y215400D02*
D03*
X2005400Y205900D02*
D03*
X1976300Y138200D02*
D03*
X2090500Y179700D02*
D03*
X2039400Y168900D02*
D03*
X2038700Y141200D02*
D03*
X1991700Y157200D02*
D03*
X1978700Y176800D02*
D03*
X2130900Y168400D02*
D03*
X2130000Y141200D02*
D03*
X2090800Y157500D02*
D03*
X2036400Y301100D02*
D03*
X2081000Y194700D02*
D03*
X2087300Y166700D02*
D03*
X2073100Y147600D02*
D03*
X2273700Y215400D02*
D03*
X2245400Y205900D02*
D03*
X2216300Y138200D02*
D03*
X2330500Y179700D02*
D03*
X2279400Y168900D02*
D03*
X2278700Y141200D02*
D03*
X2231700Y157200D02*
D03*
X2218700Y176800D02*
D03*
X2370900Y168400D02*
D03*
X2370000Y141200D02*
D03*
X2330800Y157500D02*
D03*
X2276400Y301100D02*
D03*
X2321000Y194700D02*
D03*
X2327300Y166700D02*
D03*
X2313100Y147600D02*
D03*
X113700Y555400D02*
D03*
X85400Y545900D02*
D03*
X56300Y478200D02*
D03*
X170500Y519700D02*
D03*
X119400Y508900D02*
D03*
X118700Y481200D02*
D03*
X71700Y497200D02*
D03*
X58700Y516800D02*
D03*
X210900Y508400D02*
D03*
X210000Y481200D02*
D03*
X170800Y497500D02*
D03*
X116400Y641100D02*
D03*
X161000Y534700D02*
D03*
X167300Y506700D02*
D03*
X153100Y487600D02*
D03*
X353700Y555400D02*
D03*
X325400Y545900D02*
D03*
X296300Y478200D02*
D03*
X410500Y519700D02*
D03*
X359400Y508900D02*
D03*
X358700Y481200D02*
D03*
X311700Y497200D02*
D03*
X298700Y516800D02*
D03*
X450900Y508400D02*
D03*
X450000Y481200D02*
D03*
X410800Y497500D02*
D03*
X356400Y641100D02*
D03*
X401000Y534700D02*
D03*
X407300Y506700D02*
D03*
X393100Y487600D02*
D03*
X593700Y555400D02*
D03*
X565400Y545900D02*
D03*
X536300Y478200D02*
D03*
X650500Y519700D02*
D03*
X599400Y508900D02*
D03*
X598700Y481200D02*
D03*
X551700Y497200D02*
D03*
X538700Y516800D02*
D03*
X690900Y508400D02*
D03*
X690000Y481200D02*
D03*
X650800Y497500D02*
D03*
X596400Y641100D02*
D03*
X641000Y534700D02*
D03*
X647300Y506700D02*
D03*
X633100Y487600D02*
D03*
X833700Y555400D02*
D03*
X805400Y545900D02*
D03*
X776300Y478200D02*
D03*
X890500Y519700D02*
D03*
X839400Y508900D02*
D03*
X838700Y481200D02*
D03*
X791700Y497200D02*
D03*
X778700Y516800D02*
D03*
X930900Y508400D02*
D03*
X930000Y481200D02*
D03*
X890800Y497500D02*
D03*
X836400Y641100D02*
D03*
X881000Y534700D02*
D03*
X887300Y506700D02*
D03*
X873100Y487600D02*
D03*
X1073700Y555400D02*
D03*
X1045400Y545900D02*
D03*
X1016300Y478200D02*
D03*
X1130500Y519700D02*
D03*
X1079400Y508900D02*
D03*
X1078700Y481200D02*
D03*
X1031700Y497200D02*
D03*
X1018700Y516800D02*
D03*
X1170900Y508400D02*
D03*
X1170000Y481200D02*
D03*
X1130800Y497500D02*
D03*
X1076400Y641100D02*
D03*
X1121000Y534700D02*
D03*
X1127300Y506700D02*
D03*
X1113100Y487600D02*
D03*
X1313700Y555400D02*
D03*
X1285400Y545900D02*
D03*
X1256300Y478200D02*
D03*
X1370500Y519700D02*
D03*
X1319400Y508900D02*
D03*
X1318700Y481200D02*
D03*
X1271700Y497200D02*
D03*
X1258700Y516800D02*
D03*
X1410900Y508400D02*
D03*
X1410000Y481200D02*
D03*
X1370800Y497500D02*
D03*
X1316400Y641100D02*
D03*
X1361000Y534700D02*
D03*
X1367300Y506700D02*
D03*
X1353100Y487600D02*
D03*
X1553700Y555400D02*
D03*
X1525400Y545900D02*
D03*
X1496300Y478200D02*
D03*
X1610500Y519700D02*
D03*
X1559400Y508900D02*
D03*
X1558700Y481200D02*
D03*
X1511700Y497200D02*
D03*
X1498700Y516800D02*
D03*
X1650900Y508400D02*
D03*
X1650000Y481200D02*
D03*
X1610800Y497500D02*
D03*
X1556400Y641100D02*
D03*
X1601000Y534700D02*
D03*
X1607300Y506700D02*
D03*
X1593100Y487600D02*
D03*
X1793700Y555400D02*
D03*
X1765400Y545900D02*
D03*
X1736300Y478200D02*
D03*
X1850500Y519700D02*
D03*
X1799400Y508900D02*
D03*
X1798700Y481200D02*
D03*
X1751700Y497200D02*
D03*
X1738700Y516800D02*
D03*
X1890900Y508400D02*
D03*
X1890000Y481200D02*
D03*
X1850800Y497500D02*
D03*
X1796400Y641100D02*
D03*
X1841000Y534700D02*
D03*
X1847300Y506700D02*
D03*
X1833100Y487600D02*
D03*
X2033700Y555400D02*
D03*
X2005400Y545900D02*
D03*
X1976300Y478200D02*
D03*
X2090500Y519700D02*
D03*
X2039400Y508900D02*
D03*
X2038700Y481200D02*
D03*
X1991700Y497200D02*
D03*
X1978700Y516800D02*
D03*
X2130900Y508400D02*
D03*
X2130000Y481200D02*
D03*
X2090800Y497500D02*
D03*
X2036400Y641100D02*
D03*
X2081000Y534700D02*
D03*
X2087300Y506700D02*
D03*
X2073100Y487600D02*
D03*
X2273700Y555400D02*
D03*
X2245400Y545900D02*
D03*
X2216300Y478200D02*
D03*
X2330500Y519700D02*
D03*
X2279400Y508900D02*
D03*
X2278700Y481200D02*
D03*
X2231700Y497200D02*
D03*
X2218700Y516800D02*
D03*
X2370900Y508400D02*
D03*
X2370000Y481200D02*
D03*
X2330800Y497500D02*
D03*
X2276400Y641100D02*
D03*
X2321000Y534700D02*
D03*
X2327300Y506700D02*
D03*
X2313100Y487600D02*
D03*
X113700Y895400D02*
D03*
X85400Y885900D02*
D03*
X56300Y818200D02*
D03*
X170500Y859700D02*
D03*
X119400Y848900D02*
D03*
X118700Y821200D02*
D03*
X71700Y837200D02*
D03*
X58700Y856800D02*
D03*
X210900Y848400D02*
D03*
X210000Y821200D02*
D03*
X170800Y837500D02*
D03*
X116400Y981100D02*
D03*
X161000Y874700D02*
D03*
X167300Y846700D02*
D03*
X153100Y827600D02*
D03*
X353700Y895400D02*
D03*
X325400Y885900D02*
D03*
X296300Y818200D02*
D03*
X410500Y859700D02*
D03*
X359400Y848900D02*
D03*
X358700Y821200D02*
D03*
X311700Y837200D02*
D03*
X298700Y856800D02*
D03*
X450900Y848400D02*
D03*
X450000Y821200D02*
D03*
X410800Y837500D02*
D03*
X356400Y981100D02*
D03*
X401000Y874700D02*
D03*
X407300Y846700D02*
D03*
X393100Y827600D02*
D03*
X593700Y895400D02*
D03*
X565400Y885900D02*
D03*
X536300Y818200D02*
D03*
X650500Y859700D02*
D03*
X599400Y848900D02*
D03*
X598700Y821200D02*
D03*
X551700Y837200D02*
D03*
X538700Y856800D02*
D03*
X690900Y848400D02*
D03*
X690000Y821200D02*
D03*
X650800Y837500D02*
D03*
X596400Y981100D02*
D03*
X641000Y874700D02*
D03*
X647300Y846700D02*
D03*
X633100Y827600D02*
D03*
X833700Y895400D02*
D03*
X805400Y885900D02*
D03*
X776300Y818200D02*
D03*
X890500Y859700D02*
D03*
X839400Y848900D02*
D03*
X838700Y821200D02*
D03*
X791700Y837200D02*
D03*
X778700Y856800D02*
D03*
X930900Y848400D02*
D03*
X930000Y821200D02*
D03*
X890800Y837500D02*
D03*
X836400Y981100D02*
D03*
X881000Y874700D02*
D03*
X887300Y846700D02*
D03*
X873100Y827600D02*
D03*
X1073700Y895400D02*
D03*
X1045400Y885900D02*
D03*
X1016300Y818200D02*
D03*
X1130500Y859700D02*
D03*
X1079400Y848900D02*
D03*
X1078700Y821200D02*
D03*
X1031700Y837200D02*
D03*
X1018700Y856800D02*
D03*
X1170900Y848400D02*
D03*
X1170000Y821200D02*
D03*
X1130800Y837500D02*
D03*
X1076400Y981100D02*
D03*
X1121000Y874700D02*
D03*
X1127300Y846700D02*
D03*
X1113100Y827600D02*
D03*
X1313700Y895400D02*
D03*
X1285400Y885900D02*
D03*
X1256300Y818200D02*
D03*
X1370500Y859700D02*
D03*
X1319400Y848900D02*
D03*
X1318700Y821200D02*
D03*
X1271700Y837200D02*
D03*
X1258700Y856800D02*
D03*
X1410900Y848400D02*
D03*
X1410000Y821200D02*
D03*
X1370800Y837500D02*
D03*
X1316400Y981100D02*
D03*
X1361000Y874700D02*
D03*
X1367300Y846700D02*
D03*
X1353100Y827600D02*
D03*
X1553700Y895400D02*
D03*
X1525400Y885900D02*
D03*
X1496300Y818200D02*
D03*
X1610500Y859700D02*
D03*
X1559400Y848900D02*
D03*
X1558700Y821200D02*
D03*
X1511700Y837200D02*
D03*
X1498700Y856800D02*
D03*
X1650900Y848400D02*
D03*
X1650000Y821200D02*
D03*
X1610800Y837500D02*
D03*
X1556400Y981100D02*
D03*
X1601000Y874700D02*
D03*
X1607300Y846700D02*
D03*
X1593100Y827600D02*
D03*
X1793700Y895400D02*
D03*
X1765400Y885900D02*
D03*
X1736300Y818200D02*
D03*
X1850500Y859700D02*
D03*
X1799400Y848900D02*
D03*
X1798700Y821200D02*
D03*
X1751700Y837200D02*
D03*
X1738700Y856800D02*
D03*
X1890900Y848400D02*
D03*
X1890000Y821200D02*
D03*
X1850800Y837500D02*
D03*
X1796400Y981100D02*
D03*
X1841000Y874700D02*
D03*
X1847300Y846700D02*
D03*
X1833100Y827600D02*
D03*
X2033700Y895400D02*
D03*
X2005400Y885900D02*
D03*
X1976300Y818200D02*
D03*
X2090500Y859700D02*
D03*
X2039400Y848900D02*
D03*
X2038700Y821200D02*
D03*
X1991700Y837200D02*
D03*
X1978700Y856800D02*
D03*
X2130900Y848400D02*
D03*
X2130000Y821200D02*
D03*
X2090800Y837500D02*
D03*
X2036400Y981100D02*
D03*
X2081000Y874700D02*
D03*
X2087300Y846700D02*
D03*
X2073100Y827600D02*
D03*
X2273700Y895400D02*
D03*
X2245400Y885900D02*
D03*
X2216300Y818200D02*
D03*
X2330500Y859700D02*
D03*
X2279400Y848900D02*
D03*
X2278700Y821200D02*
D03*
X2231700Y837200D02*
D03*
X2218700Y856800D02*
D03*
X2370900Y848400D02*
D03*
X2370000Y821200D02*
D03*
X2330800Y837500D02*
D03*
X2276400Y981100D02*
D03*
X2321000Y874700D02*
D03*
X2327300Y846700D02*
D03*
X2313100Y827600D02*
D03*
X113700Y1235400D02*
D03*
X85400Y1225900D02*
D03*
X56300Y1158200D02*
D03*
X170500Y1199700D02*
D03*
X119400Y1188900D02*
D03*
X118700Y1161200D02*
D03*
X71700Y1177200D02*
D03*
X58700Y1196800D02*
D03*
X210900Y1188400D02*
D03*
X210000Y1161200D02*
D03*
X170800Y1177500D02*
D03*
X116400Y1321100D02*
D03*
X161000Y1214700D02*
D03*
X167300Y1186700D02*
D03*
X153100Y1167600D02*
D03*
X353700Y1235400D02*
D03*
X325400Y1225900D02*
D03*
X296300Y1158200D02*
D03*
X410500Y1199700D02*
D03*
X359400Y1188900D02*
D03*
X358700Y1161200D02*
D03*
X311700Y1177200D02*
D03*
X298700Y1196800D02*
D03*
X450900Y1188400D02*
D03*
X450000Y1161200D02*
D03*
X410800Y1177500D02*
D03*
X356400Y1321100D02*
D03*
X401000Y1214700D02*
D03*
X407300Y1186700D02*
D03*
X393100Y1167600D02*
D03*
X593700Y1235400D02*
D03*
X565400Y1225900D02*
D03*
X536300Y1158200D02*
D03*
X650500Y1199700D02*
D03*
X599400Y1188900D02*
D03*
X598700Y1161200D02*
D03*
X551700Y1177200D02*
D03*
X538700Y1196800D02*
D03*
X690900Y1188400D02*
D03*
X690000Y1161200D02*
D03*
X650800Y1177500D02*
D03*
X596400Y1321100D02*
D03*
X641000Y1214700D02*
D03*
X647300Y1186700D02*
D03*
X633100Y1167600D02*
D03*
X833700Y1235400D02*
D03*
X805400Y1225900D02*
D03*
X776300Y1158200D02*
D03*
X890500Y1199700D02*
D03*
X839400Y1188900D02*
D03*
X838700Y1161200D02*
D03*
X791700Y1177200D02*
D03*
X778700Y1196800D02*
D03*
X930900Y1188400D02*
D03*
X930000Y1161200D02*
D03*
X890800Y1177500D02*
D03*
X836400Y1321100D02*
D03*
X881000Y1214700D02*
D03*
X887300Y1186700D02*
D03*
X873100Y1167600D02*
D03*
X1073700Y1235400D02*
D03*
X1045400Y1225900D02*
D03*
X1016300Y1158200D02*
D03*
X1130500Y1199700D02*
D03*
X1079400Y1188900D02*
D03*
X1078700Y1161200D02*
D03*
X1031700Y1177200D02*
D03*
X1018700Y1196800D02*
D03*
X1170900Y1188400D02*
D03*
X1170000Y1161200D02*
D03*
X1130800Y1177500D02*
D03*
X1076400Y1321100D02*
D03*
X1121000Y1214700D02*
D03*
X1127300Y1186700D02*
D03*
X1113100Y1167600D02*
D03*
X1313700Y1235400D02*
D03*
X1285400Y1225900D02*
D03*
X1256300Y1158200D02*
D03*
X1370500Y1199700D02*
D03*
X1319400Y1188900D02*
D03*
X1318700Y1161200D02*
D03*
X1271700Y1177200D02*
D03*
X1258700Y1196800D02*
D03*
X1410900Y1188400D02*
D03*
X1410000Y1161200D02*
D03*
X1370800Y1177500D02*
D03*
X1316400Y1321100D02*
D03*
X1361000Y1214700D02*
D03*
X1367300Y1186700D02*
D03*
X1353100Y1167600D02*
D03*
X1553700Y1235400D02*
D03*
X1525400Y1225900D02*
D03*
X1496300Y1158200D02*
D03*
X1610500Y1199700D02*
D03*
X1559400Y1188900D02*
D03*
X1558700Y1161200D02*
D03*
X1511700Y1177200D02*
D03*
X1498700Y1196800D02*
D03*
X1650900Y1188400D02*
D03*
X1650000Y1161200D02*
D03*
X1610800Y1177500D02*
D03*
X1556400Y1321100D02*
D03*
X1601000Y1214700D02*
D03*
X1607300Y1186700D02*
D03*
X1593100Y1167600D02*
D03*
X1793700Y1235400D02*
D03*
X1765400Y1225900D02*
D03*
X1736300Y1158200D02*
D03*
X1850500Y1199700D02*
D03*
X1799400Y1188900D02*
D03*
X1798700Y1161200D02*
D03*
X1751700Y1177200D02*
D03*
X1738700Y1196800D02*
D03*
X1890900Y1188400D02*
D03*
X1890000Y1161200D02*
D03*
X1850800Y1177500D02*
D03*
X1796400Y1321100D02*
D03*
X1841000Y1214700D02*
D03*
X1847300Y1186700D02*
D03*
X1833100Y1167600D02*
D03*
X2033700Y1235400D02*
D03*
X2005400Y1225900D02*
D03*
X1976300Y1158200D02*
D03*
X2090500Y1199700D02*
D03*
X2039400Y1188900D02*
D03*
X2038700Y1161200D02*
D03*
X1991700Y1177200D02*
D03*
X1978700Y1196800D02*
D03*
X2130900Y1188400D02*
D03*
X2130000Y1161200D02*
D03*
X2090800Y1177500D02*
D03*
X2036400Y1321100D02*
D03*
X2081000Y1214700D02*
D03*
X2087300Y1186700D02*
D03*
X2073100Y1167600D02*
D03*
X2273700Y1235400D02*
D03*
X2245400Y1225900D02*
D03*
X2216300Y1158200D02*
D03*
X2330500Y1199700D02*
D03*
X2279400Y1188900D02*
D03*
X2278700Y1161200D02*
D03*
X2231700Y1177200D02*
D03*
X2218700Y1196800D02*
D03*
X2370900Y1188400D02*
D03*
X2370000Y1161200D02*
D03*
X2330800Y1177500D02*
D03*
X2276400Y1321100D02*
D03*
X2321000Y1214700D02*
D03*
X2327300Y1186700D02*
D03*
X2313100Y1167600D02*
D03*
X113700Y1575400D02*
D03*
X85400Y1565900D02*
D03*
X56300Y1498200D02*
D03*
X170500Y1539700D02*
D03*
X119400Y1528900D02*
D03*
X118700Y1501200D02*
D03*
X71700Y1517200D02*
D03*
X58700Y1536800D02*
D03*
X210900Y1528400D02*
D03*
X210000Y1501200D02*
D03*
X170800Y1517500D02*
D03*
X116400Y1661100D02*
D03*
X161000Y1554700D02*
D03*
X167300Y1526700D02*
D03*
X153100Y1507600D02*
D03*
X353700Y1575400D02*
D03*
X325400Y1565900D02*
D03*
X296300Y1498200D02*
D03*
X410500Y1539700D02*
D03*
X359400Y1528900D02*
D03*
X358700Y1501200D02*
D03*
X311700Y1517200D02*
D03*
X298700Y1536800D02*
D03*
X450900Y1528400D02*
D03*
X450000Y1501200D02*
D03*
X410800Y1517500D02*
D03*
X356400Y1661100D02*
D03*
X401000Y1554700D02*
D03*
X407300Y1526700D02*
D03*
X393100Y1507600D02*
D03*
X593700Y1575400D02*
D03*
X565400Y1565900D02*
D03*
X536300Y1498200D02*
D03*
X650500Y1539700D02*
D03*
X599400Y1528900D02*
D03*
X598700Y1501200D02*
D03*
X551700Y1517200D02*
D03*
X538700Y1536800D02*
D03*
X690900Y1528400D02*
D03*
X690000Y1501200D02*
D03*
X650800Y1517500D02*
D03*
X596400Y1661100D02*
D03*
X641000Y1554700D02*
D03*
X647300Y1526700D02*
D03*
X633100Y1507600D02*
D03*
X833700Y1575400D02*
D03*
X805400Y1565900D02*
D03*
X776300Y1498200D02*
D03*
X890500Y1539700D02*
D03*
X839400Y1528900D02*
D03*
X838700Y1501200D02*
D03*
X791700Y1517200D02*
D03*
X778700Y1536800D02*
D03*
X930900Y1528400D02*
D03*
X930000Y1501200D02*
D03*
X890800Y1517500D02*
D03*
X836400Y1661100D02*
D03*
X881000Y1554700D02*
D03*
X887300Y1526700D02*
D03*
X873100Y1507600D02*
D03*
X1073700Y1575400D02*
D03*
X1045400Y1565900D02*
D03*
X1016300Y1498200D02*
D03*
X1130500Y1539700D02*
D03*
X1079400Y1528900D02*
D03*
X1078700Y1501200D02*
D03*
X1031700Y1517200D02*
D03*
X1018700Y1536800D02*
D03*
X1170900Y1528400D02*
D03*
X1170000Y1501200D02*
D03*
X1130800Y1517500D02*
D03*
X1076400Y1661100D02*
D03*
X1121000Y1554700D02*
D03*
X1127300Y1526700D02*
D03*
X1113100Y1507600D02*
D03*
X1313700Y1575400D02*
D03*
X1285400Y1565900D02*
D03*
X1256300Y1498200D02*
D03*
X1370500Y1539700D02*
D03*
X1319400Y1528900D02*
D03*
X1318700Y1501200D02*
D03*
X1271700Y1517200D02*
D03*
X1258700Y1536800D02*
D03*
X1410900Y1528400D02*
D03*
X1410000Y1501200D02*
D03*
X1370800Y1517500D02*
D03*
X1316400Y1661100D02*
D03*
X1361000Y1554700D02*
D03*
X1367300Y1526700D02*
D03*
X1353100Y1507600D02*
D03*
X1553700Y1575400D02*
D03*
X1525400Y1565900D02*
D03*
X1496300Y1498200D02*
D03*
X1610500Y1539700D02*
D03*
X1559400Y1528900D02*
D03*
X1558700Y1501200D02*
D03*
X1511700Y1517200D02*
D03*
X1498700Y1536800D02*
D03*
X1650900Y1528400D02*
D03*
X1650000Y1501200D02*
D03*
X1610800Y1517500D02*
D03*
X1556400Y1661100D02*
D03*
X1601000Y1554700D02*
D03*
X1607300Y1526700D02*
D03*
X1593100Y1507600D02*
D03*
X1793700Y1575400D02*
D03*
X1765400Y1565900D02*
D03*
X1736300Y1498200D02*
D03*
X1850500Y1539700D02*
D03*
X1799400Y1528900D02*
D03*
X1798700Y1501200D02*
D03*
X1751700Y1517200D02*
D03*
X1738700Y1536800D02*
D03*
X1890900Y1528400D02*
D03*
X1890000Y1501200D02*
D03*
X1850800Y1517500D02*
D03*
X1796400Y1661100D02*
D03*
X1841000Y1554700D02*
D03*
X1847300Y1526700D02*
D03*
X1833100Y1507600D02*
D03*
X2033700Y1575400D02*
D03*
X2005400Y1565900D02*
D03*
X1976300Y1498200D02*
D03*
X2090500Y1539700D02*
D03*
X2039400Y1528900D02*
D03*
X2038700Y1501200D02*
D03*
X1991700Y1517200D02*
D03*
X1978700Y1536800D02*
D03*
X2130900Y1528400D02*
D03*
X2130000Y1501200D02*
D03*
X2090800Y1517500D02*
D03*
X2036400Y1661100D02*
D03*
X2081000Y1554700D02*
D03*
X2087300Y1526700D02*
D03*
X2073100Y1507600D02*
D03*
X2273700Y1575400D02*
D03*
X2245400Y1565900D02*
D03*
X2216300Y1498200D02*
D03*
X2330500Y1539700D02*
D03*
X2279400Y1528900D02*
D03*
X2278700Y1501200D02*
D03*
X2231700Y1517200D02*
D03*
X2218700Y1536800D02*
D03*
X2370900Y1528400D02*
D03*
X2370000Y1501200D02*
D03*
X2330800Y1517500D02*
D03*
X2276400Y1661100D02*
D03*
X2321000Y1554700D02*
D03*
X2327300Y1526700D02*
D03*
X2313100Y1507600D02*
D03*
M02*
