%FSLAX25Y25*%
%MOIN*%
G70*
G01*
G75*
G04 Layer_Color=8421504*
%ADD10C,0.01200*%
G04:AMPARAMS|DCode=11|XSize=37.4mil|YSize=25.59mil|CornerRadius=6.4mil|HoleSize=0mil|Usage=FLASHONLY|Rotation=270.000|XOffset=0mil|YOffset=0mil|HoleType=Round|Shape=RoundedRectangle|*
%AMROUNDEDRECTD11*
21,1,0.03740,0.01280,0,0,270.0*
21,1,0.02461,0.02559,0,0,270.0*
1,1,0.01280,-0.00640,-0.01230*
1,1,0.01280,-0.00640,0.01230*
1,1,0.01280,0.00640,0.01230*
1,1,0.01280,0.00640,-0.01230*
%
%ADD11ROUNDEDRECTD11*%
%ADD12R,0.02559X0.03740*%
%ADD13O,0.02362X0.07480*%
%ADD14R,0.03900X0.04300*%
%ADD15C,0.04000*%
%ADD16R,0.04300X0.03900*%
%ADD17C,0.01500*%
%ADD18C,0.01000*%
%ADD19C,0.02000*%
%ADD20C,0.00394*%
%ADD21R,0.07087X0.07087*%
%ADD22C,0.07087*%
%ADD23C,0.09449*%
%ADD24R,0.07500X0.07500*%
%ADD25C,0.07500*%
%ADD26C,0.08661*%
%ADD27C,0.31496*%
%ADD28C,0.02500*%
%ADD29C,0.00787*%
%ADD30C,0.01575*%
%ADD31C,0.00984*%
%ADD32C,0.00700*%
%ADD33C,0.00800*%
D10*
X14600Y2155398D02*
X18599D01*
X16599D01*
Y2149400D01*
X21598D02*
X23597D01*
X24597Y2150400D01*
Y2152399D01*
X23597Y2153399D01*
X21598D01*
X20598Y2152399D01*
Y2150400D01*
X21598Y2149400D01*
X26596Y2147401D02*
Y2153399D01*
X29595D01*
X30595Y2152399D01*
Y2150400D01*
X29595Y2149400D01*
X26596D01*
X38592D02*
Y2155398D01*
X41591D01*
X42591Y2154398D01*
Y2152399D01*
X41591Y2151399D01*
X38592D01*
X45590Y2153399D02*
X47589D01*
X48589Y2152399D01*
Y2149400D01*
X45590D01*
X44590Y2150400D01*
X45590Y2151399D01*
X48589D01*
X50588Y2149400D02*
X53587D01*
X54587Y2150400D01*
X53587Y2151399D01*
X51588D01*
X50588Y2152399D01*
X51588Y2153399D01*
X54587D01*
X57586Y2154398D02*
Y2153399D01*
X56586D01*
X58586D01*
X57586D01*
Y2150400D01*
X58586Y2149400D01*
X64584D02*
X62585D01*
X61585Y2150400D01*
Y2152399D01*
X62585Y2153399D01*
X64584D01*
X65583Y2152399D01*
Y2151399D01*
X61585D01*
X17199Y2078300D02*
X15200D01*
Y2084298D01*
X17199D01*
X20198Y2078300D02*
Y2084298D01*
X22198Y2082299D01*
X24197Y2084298D01*
Y2078300D01*
X26196D02*
X28196D01*
X27196D01*
Y2084298D01*
X26196Y2083298D01*
X31195Y2078300D02*
X33194D01*
Y2084298D01*
X31195D01*
X42191D02*
Y2078300D01*
X45190D01*
X46190Y2079300D01*
Y2080299D01*
X45190Y2081299D01*
X42191D01*
X45190D01*
X46190Y2082299D01*
Y2083298D01*
X45190Y2084298D01*
X42191D01*
X49189Y2078300D02*
X51188D01*
X52188Y2079300D01*
Y2081299D01*
X51188Y2082299D01*
X49189D01*
X48189Y2081299D01*
Y2079300D01*
X49189Y2078300D01*
X55187Y2082299D02*
X57186D01*
X58186Y2081299D01*
Y2078300D01*
X55187D01*
X54187Y2079300D01*
X55187Y2080299D01*
X58186D01*
X60185Y2082299D02*
Y2078300D01*
Y2080299D01*
X61185Y2081299D01*
X62185Y2082299D01*
X63184D01*
X70182Y2084298D02*
Y2078300D01*
X67183D01*
X66184Y2079300D01*
Y2081299D01*
X67183Y2082299D01*
X70182D01*
X81179Y2084298D02*
X79179D01*
X78180Y2083298D01*
Y2079300D01*
X79179Y2078300D01*
X81179D01*
X82178Y2079300D01*
Y2083298D01*
X81179Y2084298D01*
X84178Y2082299D02*
Y2079300D01*
X85177Y2078300D01*
X88176D01*
Y2082299D01*
X91175Y2083298D02*
Y2082299D01*
X90176D01*
X92175D01*
X91175D01*
Y2079300D01*
X92175Y2078300D01*
X95174D02*
X97174D01*
X96174D01*
Y2084298D01*
X95174D01*
X100172Y2078300D02*
X102172D01*
X101172D01*
Y2082299D01*
X100172D01*
X105171Y2078300D02*
Y2082299D01*
X108170D01*
X109170Y2081299D01*
Y2078300D01*
X114168D02*
X112169D01*
X111169Y2079300D01*
Y2081299D01*
X112169Y2082299D01*
X114168D01*
X115168Y2081299D01*
Y2080299D01*
X111169D01*
X14600Y2172878D02*
Y2168879D01*
X16599Y2166879D01*
X18599Y2168879D01*
Y2172878D01*
X20598Y2166879D02*
X22597D01*
X21598D01*
Y2170878D01*
X20598D01*
X25596Y2166879D02*
X28596D01*
X29595Y2167879D01*
X28596Y2168879D01*
X26596D01*
X25596Y2169879D01*
X26596Y2170878D01*
X29595D01*
X31594Y2166879D02*
X33594D01*
X32594D01*
Y2170878D01*
X31594D01*
X36593Y2172878D02*
Y2166879D01*
X39592D01*
X40592Y2167879D01*
Y2168879D01*
Y2169879D01*
X39592Y2170878D01*
X36593D01*
X42591Y2166879D02*
X44590D01*
X43591D01*
Y2172878D01*
X42591D01*
X50588Y2166879D02*
X48589D01*
X47589Y2167879D01*
Y2169879D01*
X48589Y2170878D01*
X50588D01*
X51588Y2169879D01*
Y2168879D01*
X47589D01*
X59585Y2172878D02*
Y2166879D01*
X63584D01*
X66583Y2170878D02*
X68582D01*
X69582Y2169879D01*
Y2166879D01*
X66583D01*
X65583Y2167879D01*
X66583Y2168879D01*
X69582D01*
X71582Y2170878D02*
Y2167879D01*
X72581Y2166879D01*
X75580D01*
Y2165880D01*
X74581Y2164880D01*
X73581D01*
X75580Y2166879D02*
Y2170878D01*
X80579Y2166879D02*
X78579D01*
X77580Y2167879D01*
Y2169879D01*
X78579Y2170878D01*
X80579D01*
X81578Y2169879D01*
Y2168879D01*
X77580D01*
X83578Y2170878D02*
Y2166879D01*
Y2168879D01*
X84577Y2169879D01*
X85577Y2170878D01*
X86577D01*
X91575Y2166879D02*
X89576Y2168879D01*
Y2170878D01*
X91575Y2172878D01*
X94574Y2166879D02*
X97573D01*
X98573Y2167879D01*
X97573Y2168879D01*
X95574D01*
X94574Y2169879D01*
X95574Y2170878D01*
X98573D01*
X100572Y2166879D02*
X102571Y2168879D01*
Y2170878D01*
X100572Y2172878D01*
X21364Y2235431D02*
Y2242428D01*
X24863D01*
X26029Y2241262D01*
Y2238930D01*
X24863Y2237763D01*
X21364D01*
X28362Y2240096D02*
Y2235431D01*
Y2237763D01*
X29528Y2238930D01*
X30694Y2240096D01*
X31861D01*
X36526Y2235431D02*
X38858D01*
X40025Y2236597D01*
Y2238930D01*
X38858Y2240096D01*
X36526D01*
X35359Y2238930D01*
Y2236597D01*
X36526Y2235431D01*
X42357Y2233098D02*
X43523D01*
X44690Y2234264D01*
Y2240096D01*
X52854Y2235431D02*
X50521D01*
X49355Y2236597D01*
Y2238930D01*
X50521Y2240096D01*
X52854D01*
X54020Y2238930D01*
Y2237763D01*
X49355D01*
X61018Y2240096D02*
X57519D01*
X56353Y2238930D01*
Y2236597D01*
X57519Y2235431D01*
X61018D01*
X64517Y2241262D02*
Y2240096D01*
X63350D01*
X65683D01*
X64517D01*
Y2236597D01*
X65683Y2235431D01*
X69182Y2240096D02*
X70348D01*
Y2238930D01*
X69182D01*
Y2240096D01*
Y2236597D02*
X70348D01*
Y2235431D01*
X69182D01*
Y2236597D01*
X15532Y2223620D02*
Y2230617D01*
X19031D01*
X20198Y2229451D01*
Y2227118D01*
X19031Y2225952D01*
X15532D01*
X17865D02*
X20198Y2223620D01*
X26029D02*
X23697D01*
X22530Y2224786D01*
Y2227118D01*
X23697Y2228285D01*
X26029D01*
X27195Y2227118D01*
Y2225952D01*
X22530D01*
X29528Y2228285D02*
X31861Y2223620D01*
X34193Y2228285D01*
X36526Y2223620D02*
X38858D01*
X37692D01*
Y2228285D01*
X36526D01*
X42357Y2223620D02*
X45856D01*
X47022Y2224786D01*
X45856Y2225952D01*
X43523D01*
X42357Y2227118D01*
X43523Y2228285D01*
X47022D01*
X49355Y2223620D02*
X51688D01*
X50521D01*
Y2228285D01*
X49355D01*
X56353Y2223620D02*
X58685D01*
X59851Y2224786D01*
Y2227118D01*
X58685Y2228285D01*
X56353D01*
X55186Y2227118D01*
Y2224786D01*
X56353Y2223620D01*
X62184D02*
Y2228285D01*
X65683D01*
X66849Y2227118D01*
Y2223620D01*
X69182Y2228285D02*
X70348D01*
Y2227118D01*
X69182D01*
Y2228285D01*
Y2224786D02*
X70348D01*
Y2223620D01*
X69182D01*
Y2224786D01*
X13200Y2218806D02*
Y2211809D01*
X16699D01*
X17865Y2212975D01*
Y2217640D01*
X16699Y2218806D01*
X13200D01*
X20198Y2216474D02*
Y2211809D01*
Y2214141D01*
X21364Y2215307D01*
X22530Y2216474D01*
X23697D01*
X28362D02*
X30694D01*
X31861Y2215307D01*
Y2211809D01*
X28362D01*
X27195Y2212975D01*
X28362Y2214141D01*
X31861D01*
X34193Y2216474D02*
Y2212975D01*
X35359Y2211809D01*
X36526Y2212975D01*
X37692Y2211809D01*
X38858Y2212975D01*
Y2216474D01*
X41191Y2211809D02*
Y2216474D01*
X44690D01*
X45856Y2215307D01*
Y2211809D01*
X55186Y2218806D02*
Y2211809D01*
X58685D01*
X59851Y2212975D01*
Y2214141D01*
X58685Y2215307D01*
X55186D01*
X58685D01*
X59851Y2216474D01*
Y2217640D01*
X58685Y2218806D01*
X55186D01*
X62184Y2216474D02*
Y2212975D01*
X63350Y2211809D01*
X66849D01*
Y2210642D01*
X65683Y2209476D01*
X64517D01*
X66849Y2211809D02*
Y2216474D01*
X69182D02*
X70348D01*
Y2215307D01*
X69182D01*
Y2216474D01*
Y2212975D02*
X70348D01*
Y2211809D01*
X69182D01*
Y2212975D01*
X42357Y2206995D02*
Y2199998D01*
X45856D01*
X47022Y2201164D01*
Y2205829D01*
X45856Y2206995D01*
X42357D01*
X50521Y2204663D02*
X52854D01*
X54020Y2203497D01*
Y2199998D01*
X50521D01*
X49355Y2201164D01*
X50521Y2202330D01*
X54020D01*
X57519Y2205829D02*
Y2204663D01*
X56353D01*
X58685D01*
X57519D01*
Y2201164D01*
X58685Y2199998D01*
X65683D02*
X63350D01*
X62184Y2201164D01*
Y2203497D01*
X63350Y2204663D01*
X65683D01*
X66849Y2203497D01*
Y2202330D01*
X62184D01*
X69182Y2204663D02*
X70348D01*
Y2203497D01*
X69182D01*
Y2204663D01*
Y2201164D02*
X70348D01*
Y2199998D01*
X69182D01*
Y2201164D01*
X42357Y2195184D02*
X47022D01*
X44690D01*
Y2188187D01*
X49355D02*
X51688D01*
X50521D01*
Y2192852D01*
X49355D01*
X55186Y2188187D02*
Y2192852D01*
X56353D01*
X57519Y2191685D01*
Y2188187D01*
Y2191685D01*
X58685Y2192852D01*
X59851Y2191685D01*
Y2188187D01*
X65683D02*
X63350D01*
X62184Y2189353D01*
Y2191685D01*
X63350Y2192852D01*
X65683D01*
X66849Y2191685D01*
Y2190519D01*
X62184D01*
X69182Y2192852D02*
X70348D01*
Y2191685D01*
X69182D01*
Y2192852D01*
Y2189353D02*
X70348D01*
Y2188187D01*
X69182D01*
Y2189353D01*
X84794Y2241262D02*
X83628Y2242428D01*
X81295D01*
X80129Y2241262D01*
Y2240096D01*
X81295Y2238930D01*
X83628D01*
X84794Y2237763D01*
Y2236597D01*
X83628Y2235431D01*
X81295D01*
X80129Y2236597D01*
X87127Y2233098D02*
Y2240096D01*
X90626D01*
X91792Y2238930D01*
Y2236597D01*
X90626Y2235431D01*
X87127D01*
X95291Y2240096D02*
X97623D01*
X98790Y2238930D01*
Y2235431D01*
X95291D01*
X94125Y2236597D01*
X95291Y2237763D01*
X98790D01*
X101122Y2240096D02*
Y2235431D01*
Y2237763D01*
X102289Y2238930D01*
X103455Y2240096D01*
X104621D01*
X108120Y2235431D02*
Y2242428D01*
Y2237763D02*
X111619Y2240096D01*
X108120Y2237763D02*
X111619Y2235431D01*
X115118Y2242428D02*
X117450D01*
X116284D01*
Y2235431D01*
X115118D01*
X117450D01*
X124448Y2242428D02*
X122116D01*
X120949Y2241262D01*
Y2236597D01*
X122116Y2235431D01*
X124448D01*
X125614Y2236597D01*
Y2241262D01*
X124448Y2242428D01*
X134945D02*
X139610D01*
X137277D01*
Y2235431D01*
X141943Y2242428D02*
Y2235431D01*
Y2238930D01*
X143109Y2240096D01*
X145441D01*
X146608Y2238930D01*
Y2235431D01*
X152439D02*
X150107D01*
X148940Y2236597D01*
Y2238930D01*
X150107Y2240096D01*
X152439D01*
X153605Y2238930D01*
Y2237763D01*
X148940D01*
X155938Y2240096D02*
Y2235431D01*
Y2237763D01*
X157104Y2238930D01*
X158271Y2240096D01*
X159437D01*
X162936Y2235431D02*
Y2240096D01*
X164102D01*
X165268Y2238930D01*
Y2235431D01*
Y2238930D01*
X166435Y2240096D01*
X167601Y2238930D01*
Y2235431D01*
X171100Y2240096D02*
X173432D01*
X174599Y2238930D01*
Y2235431D01*
X171100D01*
X169933Y2236597D01*
X171100Y2237763D01*
X174599D01*
X176931Y2235431D02*
X179264D01*
X178097D01*
Y2242428D01*
X176931D01*
X194425Y2241262D02*
X193259Y2242428D01*
X190927D01*
X189760Y2241262D01*
Y2240096D01*
X190927Y2238930D01*
X193259D01*
X194425Y2237763D01*
Y2236597D01*
X193259Y2235431D01*
X190927D01*
X189760Y2236597D01*
X196758Y2242428D02*
Y2235431D01*
Y2238930D01*
X197924Y2240096D01*
X200257D01*
X201423Y2238930D01*
Y2235431D01*
X203756D02*
X206088D01*
X204922D01*
Y2240096D01*
X203756D01*
X213086Y2235431D02*
X210754D01*
X209587Y2236597D01*
Y2238930D01*
X210754Y2240096D01*
X213086D01*
X214252Y2238930D01*
Y2237763D01*
X209587D01*
X216585Y2235431D02*
X218918D01*
X217751D01*
Y2242428D01*
X216585D01*
X227082D02*
Y2235431D01*
X223583D01*
X222416Y2236597D01*
Y2238930D01*
X223583Y2240096D01*
X227082D01*
X80129Y2223620D02*
Y2228285D01*
X82462Y2230617D01*
X84794Y2228285D01*
Y2223620D01*
Y2227118D01*
X80129D01*
X84794Y2218806D02*
X82462D01*
X83628D01*
Y2212975D01*
X82462Y2211809D01*
X81295D01*
X80129Y2212975D01*
X87127Y2211809D02*
X89459D01*
X88293D01*
Y2216474D01*
X87127D01*
X92958Y2211809D02*
Y2216474D01*
X94125D01*
X95291Y2215307D01*
Y2211809D01*
Y2215307D01*
X96457Y2216474D01*
X97623Y2215307D01*
Y2211809D01*
X111619Y2217640D02*
X110453Y2218806D01*
X108120D01*
X106954Y2217640D01*
Y2212975D01*
X108120Y2211809D01*
X110453D01*
X111619Y2212975D01*
Y2215307D01*
X109286D01*
X113952Y2216474D02*
Y2211809D01*
Y2214141D01*
X115118Y2215307D01*
X116284Y2216474D01*
X117450D01*
X120949Y2211809D02*
X123282D01*
X122116D01*
Y2216474D01*
X120949D01*
X126781Y2211809D02*
X130280D01*
X131446Y2212975D01*
X130280Y2214141D01*
X127947D01*
X126781Y2215307D01*
X127947Y2216474D01*
X131446D01*
X133778D02*
X138444D01*
X133778Y2211809D01*
X138444D01*
X140776Y2218806D02*
Y2211809D01*
X144275D01*
X145441Y2212975D01*
Y2214141D01*
Y2215307D01*
X144275Y2216474D01*
X140776D01*
X148940D02*
X151273D01*
X152439Y2215307D01*
Y2211809D01*
X148940D01*
X147774Y2212975D01*
X148940Y2214141D01*
X152439D01*
X159437Y2216474D02*
X155938D01*
X154772Y2215307D01*
Y2212975D01*
X155938Y2211809D01*
X159437D01*
X161769Y2218806D02*
Y2211809D01*
Y2215307D01*
X162936Y2216474D01*
X165268D01*
X166435Y2215307D01*
Y2211809D01*
X172266D02*
X169933D01*
X168767Y2212975D01*
Y2215307D01*
X169933Y2216474D01*
X172266D01*
X173432Y2215307D01*
Y2214141D01*
X168767D01*
X175765Y2216474D02*
Y2211809D01*
Y2214141D01*
X176931Y2215307D01*
X178097Y2216474D01*
X179264D01*
X84794Y2195184D02*
X82462Y2194018D01*
X80129Y2191685D01*
Y2189353D01*
X81295Y2188187D01*
X83628D01*
X84794Y2189353D01*
Y2190519D01*
X83628Y2191685D01*
X80129D01*
X87127Y2192852D02*
X88293D01*
Y2191685D01*
X87127D01*
Y2192852D01*
Y2189353D02*
X88293D01*
Y2188187D01*
X87127D01*
Y2189353D01*
X97623Y2188187D02*
X92958D01*
X97623Y2192852D01*
Y2194018D01*
X96457Y2195184D01*
X94125D01*
X92958Y2194018D01*
X104621Y2195184D02*
X99956D01*
Y2191685D01*
X102289Y2192852D01*
X103455D01*
X104621Y2191685D01*
Y2189353D01*
X103455Y2188187D01*
X101122D01*
X99956Y2189353D01*
X106954Y2192852D02*
X108120D01*
Y2191685D01*
X106954D01*
Y2192852D01*
Y2189353D02*
X108120D01*
Y2188187D01*
X106954D01*
Y2189353D01*
X112785Y2194018D02*
X113952Y2195184D01*
X116284D01*
X117450Y2194018D01*
Y2192852D01*
X116284Y2191685D01*
X115118D01*
X116284D01*
X117450Y2190519D01*
Y2189353D01*
X116284Y2188187D01*
X113952D01*
X112785Y2189353D01*
X124448Y2195184D02*
X119783D01*
Y2191685D01*
X122116Y2192852D01*
X123282D01*
X124448Y2191685D01*
Y2189353D01*
X123282Y2188187D01*
X120949D01*
X119783Y2189353D01*
X133778Y2188187D02*
Y2195184D01*
X137277D01*
X138444Y2194018D01*
Y2191685D01*
X137277Y2190519D01*
X133778D01*
X140776Y2188187D02*
Y2195184D01*
X143109Y2192852D01*
X145441Y2195184D01*
Y2188187D01*
X80129Y2205829D02*
X81295Y2206995D01*
X83628D01*
X84794Y2205829D01*
Y2204663D01*
X83628Y2203497D01*
X84794Y2202330D01*
Y2201164D01*
X83628Y2199998D01*
X81295D01*
X80129Y2201164D01*
Y2202330D01*
X81295Y2203497D01*
X80129Y2204663D01*
Y2205829D01*
X81295Y2203497D02*
X83628D01*
X87127Y2199998D02*
X91792Y2204663D01*
X94125Y2205829D02*
X95291Y2206995D01*
X97623D01*
X98790Y2205829D01*
Y2204663D01*
X97623Y2203497D01*
X96457D01*
X97623D01*
X98790Y2202330D01*
Y2201164D01*
X97623Y2199998D01*
X95291D01*
X94125Y2201164D01*
X101122Y2199998D02*
X105788Y2204663D01*
X112785Y2199998D02*
X108120D01*
X112785Y2204663D01*
Y2205829D01*
X111619Y2206995D01*
X109286D01*
X108120Y2205829D01*
X115118D02*
X116284Y2206995D01*
X118617D01*
X119783Y2205829D01*
Y2201164D01*
X118617Y2199998D01*
X116284D01*
X115118Y2201164D01*
Y2205829D01*
X122116Y2199998D02*
X124448D01*
X123282D01*
Y2206995D01*
X122116Y2205829D01*
X131446Y2199998D02*
Y2206995D01*
X127947Y2203497D01*
X132612D01*
D11*
X143000Y150969D02*
D03*
X139260Y159631D02*
D03*
X383000Y150969D02*
D03*
X379260Y159631D02*
D03*
X623000Y150969D02*
D03*
X619260Y159631D02*
D03*
X863000Y150969D02*
D03*
X859260Y159631D02*
D03*
X1103000Y150969D02*
D03*
X1099260Y159631D02*
D03*
X1343000Y150969D02*
D03*
X1339260Y159631D02*
D03*
X1583000Y150969D02*
D03*
X1579260Y159631D02*
D03*
X1823000Y150969D02*
D03*
X1819260Y159631D02*
D03*
X2063000Y150969D02*
D03*
X2059260Y159631D02*
D03*
X2303000Y150969D02*
D03*
X2299260Y159631D02*
D03*
X143000Y490969D02*
D03*
X139260Y499631D02*
D03*
X383000Y490969D02*
D03*
X379260Y499631D02*
D03*
X623000Y490969D02*
D03*
X619260Y499631D02*
D03*
X863000Y490969D02*
D03*
X859260Y499631D02*
D03*
X1103000Y490969D02*
D03*
X1099260Y499631D02*
D03*
X1343000Y490969D02*
D03*
X1339260Y499631D02*
D03*
X1583000Y490969D02*
D03*
X1579260Y499631D02*
D03*
X1823000Y490969D02*
D03*
X1819260Y499631D02*
D03*
X2063000Y490969D02*
D03*
X2059260Y499631D02*
D03*
X2303000Y490969D02*
D03*
X2299260Y499631D02*
D03*
X143000Y830969D02*
D03*
X139260Y839631D02*
D03*
X383000Y830969D02*
D03*
X379260Y839631D02*
D03*
X623000Y830969D02*
D03*
X619260Y839631D02*
D03*
X863000Y830969D02*
D03*
X859260Y839631D02*
D03*
X1103000Y830969D02*
D03*
X1099260Y839631D02*
D03*
X1343000Y830969D02*
D03*
X1339260Y839631D02*
D03*
X1583000Y830969D02*
D03*
X1579260Y839631D02*
D03*
X1823000Y830969D02*
D03*
X1819260Y839631D02*
D03*
X2063000Y830969D02*
D03*
X2059260Y839631D02*
D03*
X2303000Y830969D02*
D03*
X2299260Y839631D02*
D03*
X143000Y1170969D02*
D03*
X139260Y1179631D02*
D03*
X383000Y1170969D02*
D03*
X379260Y1179631D02*
D03*
X623000Y1170969D02*
D03*
X619260Y1179631D02*
D03*
X863000Y1170969D02*
D03*
X859260Y1179631D02*
D03*
X1103000Y1170969D02*
D03*
X1099260Y1179631D02*
D03*
X1343000Y1170969D02*
D03*
X1339260Y1179631D02*
D03*
X1583000Y1170969D02*
D03*
X1579260Y1179631D02*
D03*
X1823000Y1170969D02*
D03*
X1819260Y1179631D02*
D03*
X2063000Y1170969D02*
D03*
X2059260Y1179631D02*
D03*
X2303000Y1170969D02*
D03*
X2299260Y1179631D02*
D03*
X143000Y1510969D02*
D03*
X139260Y1519631D02*
D03*
X383000Y1510969D02*
D03*
X379260Y1519631D02*
D03*
X623000Y1510969D02*
D03*
X619260Y1519631D02*
D03*
X863000Y1510969D02*
D03*
X859260Y1519631D02*
D03*
X1103000Y1510969D02*
D03*
X1099260Y1519631D02*
D03*
X1343000Y1510969D02*
D03*
X1339260Y1519631D02*
D03*
X1583000Y1510969D02*
D03*
X1579260Y1519631D02*
D03*
X1823000Y1510969D02*
D03*
X1819260Y1519631D02*
D03*
X2063000Y1510969D02*
D03*
X2059260Y1519631D02*
D03*
X2303000Y1510969D02*
D03*
X2299260Y1519631D02*
D03*
D12*
X146740Y159631D02*
D03*
X386740D02*
D03*
X626740D02*
D03*
X866740D02*
D03*
X1106740D02*
D03*
X1346740D02*
D03*
X1586740D02*
D03*
X1826740D02*
D03*
X2066740D02*
D03*
X2306740D02*
D03*
X146740Y499631D02*
D03*
X386740D02*
D03*
X626740D02*
D03*
X866740D02*
D03*
X1106740D02*
D03*
X1346740D02*
D03*
X1586740D02*
D03*
X1826740D02*
D03*
X2066740D02*
D03*
X2306740D02*
D03*
X146740Y839631D02*
D03*
X386740D02*
D03*
X626740D02*
D03*
X866740D02*
D03*
X1106740D02*
D03*
X1346740D02*
D03*
X1586740D02*
D03*
X1826740D02*
D03*
X2066740D02*
D03*
X2306740D02*
D03*
X146740Y1179631D02*
D03*
X386740D02*
D03*
X626740D02*
D03*
X866740D02*
D03*
X1106740D02*
D03*
X1346740D02*
D03*
X1586740D02*
D03*
X1826740D02*
D03*
X2066740D02*
D03*
X2306740D02*
D03*
X146740Y1519631D02*
D03*
X386740D02*
D03*
X626740D02*
D03*
X866740D02*
D03*
X1106740D02*
D03*
X1346740D02*
D03*
X1586740D02*
D03*
X1826740D02*
D03*
X2066740D02*
D03*
X2306740D02*
D03*
D13*
X106279Y164253D02*
D03*
X101279D02*
D03*
X96279D02*
D03*
X91279D02*
D03*
X106279Y145749D02*
D03*
X101279D02*
D03*
X96279D02*
D03*
X91279D02*
D03*
X198500Y164253D02*
D03*
X193500D02*
D03*
X188500D02*
D03*
X183500D02*
D03*
X198500Y145749D02*
D03*
X193500D02*
D03*
X188500D02*
D03*
X183500D02*
D03*
X346279Y164253D02*
D03*
X341279D02*
D03*
X336279D02*
D03*
X331279D02*
D03*
X346279Y145749D02*
D03*
X341279D02*
D03*
X336279D02*
D03*
X331279D02*
D03*
X438500Y164253D02*
D03*
X433500D02*
D03*
X428500D02*
D03*
X423500D02*
D03*
X438500Y145749D02*
D03*
X433500D02*
D03*
X428500D02*
D03*
X423500D02*
D03*
X586279Y164253D02*
D03*
X581279D02*
D03*
X576279D02*
D03*
X571279D02*
D03*
X586279Y145749D02*
D03*
X581279D02*
D03*
X576279D02*
D03*
X571279D02*
D03*
X678500Y164253D02*
D03*
X673500D02*
D03*
X668500D02*
D03*
X663500D02*
D03*
X678500Y145749D02*
D03*
X673500D02*
D03*
X668500D02*
D03*
X663500D02*
D03*
X826279Y164253D02*
D03*
X821279D02*
D03*
X816279D02*
D03*
X811279D02*
D03*
X826279Y145749D02*
D03*
X821279D02*
D03*
X816279D02*
D03*
X811279D02*
D03*
X918500Y164253D02*
D03*
X913500D02*
D03*
X908500D02*
D03*
X903500D02*
D03*
X918500Y145749D02*
D03*
X913500D02*
D03*
X908500D02*
D03*
X903500D02*
D03*
X1066279Y164253D02*
D03*
X1061279D02*
D03*
X1056279D02*
D03*
X1051279D02*
D03*
X1066279Y145749D02*
D03*
X1061279D02*
D03*
X1056279D02*
D03*
X1051279D02*
D03*
X1158500Y164253D02*
D03*
X1153500D02*
D03*
X1148500D02*
D03*
X1143500D02*
D03*
X1158500Y145749D02*
D03*
X1153500D02*
D03*
X1148500D02*
D03*
X1143500D02*
D03*
X1306279Y164253D02*
D03*
X1301279D02*
D03*
X1296279D02*
D03*
X1291279D02*
D03*
X1306279Y145749D02*
D03*
X1301279D02*
D03*
X1296279D02*
D03*
X1291279D02*
D03*
X1398500Y164253D02*
D03*
X1393500D02*
D03*
X1388500D02*
D03*
X1383500D02*
D03*
X1398500Y145749D02*
D03*
X1393500D02*
D03*
X1388500D02*
D03*
X1383500D02*
D03*
X1546279Y164253D02*
D03*
X1541279D02*
D03*
X1536279D02*
D03*
X1531279D02*
D03*
X1546279Y145749D02*
D03*
X1541279D02*
D03*
X1536279D02*
D03*
X1531279D02*
D03*
X1638500Y164253D02*
D03*
X1633500D02*
D03*
X1628500D02*
D03*
X1623500D02*
D03*
X1638500Y145749D02*
D03*
X1633500D02*
D03*
X1628500D02*
D03*
X1623500D02*
D03*
X1786279Y164253D02*
D03*
X1781279D02*
D03*
X1776279D02*
D03*
X1771279D02*
D03*
X1786279Y145749D02*
D03*
X1781279D02*
D03*
X1776279D02*
D03*
X1771279D02*
D03*
X1878500Y164253D02*
D03*
X1873500D02*
D03*
X1868500D02*
D03*
X1863500D02*
D03*
X1878500Y145749D02*
D03*
X1873500D02*
D03*
X1868500D02*
D03*
X1863500D02*
D03*
X2026279Y164253D02*
D03*
X2021279D02*
D03*
X2016279D02*
D03*
X2011279D02*
D03*
X2026279Y145749D02*
D03*
X2021279D02*
D03*
X2016279D02*
D03*
X2011279D02*
D03*
X2118500Y164253D02*
D03*
X2113500D02*
D03*
X2108500D02*
D03*
X2103500D02*
D03*
X2118500Y145749D02*
D03*
X2113500D02*
D03*
X2108500D02*
D03*
X2103500D02*
D03*
X2266279Y164253D02*
D03*
X2261279D02*
D03*
X2256279D02*
D03*
X2251279D02*
D03*
X2266279Y145749D02*
D03*
X2261279D02*
D03*
X2256279D02*
D03*
X2251279D02*
D03*
X2358500Y164253D02*
D03*
X2353500D02*
D03*
X2348500D02*
D03*
X2343500D02*
D03*
X2358500Y145749D02*
D03*
X2353500D02*
D03*
X2348500D02*
D03*
X2343500D02*
D03*
X106279Y504253D02*
D03*
X101279D02*
D03*
X96279D02*
D03*
X91279D02*
D03*
X106279Y485749D02*
D03*
X101279D02*
D03*
X96279D02*
D03*
X91279D02*
D03*
X198500Y504253D02*
D03*
X193500D02*
D03*
X188500D02*
D03*
X183500D02*
D03*
X198500Y485749D02*
D03*
X193500D02*
D03*
X188500D02*
D03*
X183500D02*
D03*
X346279Y504253D02*
D03*
X341279D02*
D03*
X336279D02*
D03*
X331279D02*
D03*
X346279Y485749D02*
D03*
X341279D02*
D03*
X336279D02*
D03*
X331279D02*
D03*
X438500Y504253D02*
D03*
X433500D02*
D03*
X428500D02*
D03*
X423500D02*
D03*
X438500Y485749D02*
D03*
X433500D02*
D03*
X428500D02*
D03*
X423500D02*
D03*
X586279Y504253D02*
D03*
X581279D02*
D03*
X576279D02*
D03*
X571279D02*
D03*
X586279Y485749D02*
D03*
X581279D02*
D03*
X576279D02*
D03*
X571279D02*
D03*
X678500Y504253D02*
D03*
X673500D02*
D03*
X668500D02*
D03*
X663500D02*
D03*
X678500Y485749D02*
D03*
X673500D02*
D03*
X668500D02*
D03*
X663500D02*
D03*
X826279Y504253D02*
D03*
X821279D02*
D03*
X816279D02*
D03*
X811279D02*
D03*
X826279Y485749D02*
D03*
X821279D02*
D03*
X816279D02*
D03*
X811279D02*
D03*
X918500Y504253D02*
D03*
X913500D02*
D03*
X908500D02*
D03*
X903500D02*
D03*
X918500Y485749D02*
D03*
X913500D02*
D03*
X908500D02*
D03*
X903500D02*
D03*
X1066279Y504253D02*
D03*
X1061279D02*
D03*
X1056279D02*
D03*
X1051279D02*
D03*
X1066279Y485749D02*
D03*
X1061279D02*
D03*
X1056279D02*
D03*
X1051279D02*
D03*
X1158500Y504253D02*
D03*
X1153500D02*
D03*
X1148500D02*
D03*
X1143500D02*
D03*
X1158500Y485749D02*
D03*
X1153500D02*
D03*
X1148500D02*
D03*
X1143500D02*
D03*
X1306279Y504253D02*
D03*
X1301279D02*
D03*
X1296279D02*
D03*
X1291279D02*
D03*
X1306279Y485749D02*
D03*
X1301279D02*
D03*
X1296279D02*
D03*
X1291279D02*
D03*
X1398500Y504253D02*
D03*
X1393500D02*
D03*
X1388500D02*
D03*
X1383500D02*
D03*
X1398500Y485749D02*
D03*
X1393500D02*
D03*
X1388500D02*
D03*
X1383500D02*
D03*
X1546279Y504253D02*
D03*
X1541279D02*
D03*
X1536279D02*
D03*
X1531279D02*
D03*
X1546279Y485749D02*
D03*
X1541279D02*
D03*
X1536279D02*
D03*
X1531279D02*
D03*
X1638500Y504253D02*
D03*
X1633500D02*
D03*
X1628500D02*
D03*
X1623500D02*
D03*
X1638500Y485749D02*
D03*
X1633500D02*
D03*
X1628500D02*
D03*
X1623500D02*
D03*
X1786279Y504253D02*
D03*
X1781279D02*
D03*
X1776279D02*
D03*
X1771279D02*
D03*
X1786279Y485749D02*
D03*
X1781279D02*
D03*
X1776279D02*
D03*
X1771279D02*
D03*
X1878500Y504253D02*
D03*
X1873500D02*
D03*
X1868500D02*
D03*
X1863500D02*
D03*
X1878500Y485749D02*
D03*
X1873500D02*
D03*
X1868500D02*
D03*
X1863500D02*
D03*
X2026279Y504253D02*
D03*
X2021279D02*
D03*
X2016279D02*
D03*
X2011279D02*
D03*
X2026279Y485749D02*
D03*
X2021279D02*
D03*
X2016279D02*
D03*
X2011279D02*
D03*
X2118500Y504253D02*
D03*
X2113500D02*
D03*
X2108500D02*
D03*
X2103500D02*
D03*
X2118500Y485749D02*
D03*
X2113500D02*
D03*
X2108500D02*
D03*
X2103500D02*
D03*
X2266279Y504253D02*
D03*
X2261279D02*
D03*
X2256279D02*
D03*
X2251279D02*
D03*
X2266279Y485749D02*
D03*
X2261279D02*
D03*
X2256279D02*
D03*
X2251279D02*
D03*
X2358500Y504253D02*
D03*
X2353500D02*
D03*
X2348500D02*
D03*
X2343500D02*
D03*
X2358500Y485749D02*
D03*
X2353500D02*
D03*
X2348500D02*
D03*
X2343500D02*
D03*
X106279Y844253D02*
D03*
X101279D02*
D03*
X96279D02*
D03*
X91279D02*
D03*
X106279Y825749D02*
D03*
X101279D02*
D03*
X96279D02*
D03*
X91279D02*
D03*
X198500Y844253D02*
D03*
X193500D02*
D03*
X188500D02*
D03*
X183500D02*
D03*
X198500Y825749D02*
D03*
X193500D02*
D03*
X188500D02*
D03*
X183500D02*
D03*
X346279Y844253D02*
D03*
X341279D02*
D03*
X336279D02*
D03*
X331279D02*
D03*
X346279Y825749D02*
D03*
X341279D02*
D03*
X336279D02*
D03*
X331279D02*
D03*
X438500Y844253D02*
D03*
X433500D02*
D03*
X428500D02*
D03*
X423500D02*
D03*
X438500Y825749D02*
D03*
X433500D02*
D03*
X428500D02*
D03*
X423500D02*
D03*
X586279Y844253D02*
D03*
X581279D02*
D03*
X576279D02*
D03*
X571279D02*
D03*
X586279Y825749D02*
D03*
X581279D02*
D03*
X576279D02*
D03*
X571279D02*
D03*
X678500Y844253D02*
D03*
X673500D02*
D03*
X668500D02*
D03*
X663500D02*
D03*
X678500Y825749D02*
D03*
X673500D02*
D03*
X668500D02*
D03*
X663500D02*
D03*
X826279Y844253D02*
D03*
X821279D02*
D03*
X816279D02*
D03*
X811279D02*
D03*
X826279Y825749D02*
D03*
X821279D02*
D03*
X816279D02*
D03*
X811279D02*
D03*
X918500Y844253D02*
D03*
X913500D02*
D03*
X908500D02*
D03*
X903500D02*
D03*
X918500Y825749D02*
D03*
X913500D02*
D03*
X908500D02*
D03*
X903500D02*
D03*
X1066279Y844253D02*
D03*
X1061279D02*
D03*
X1056279D02*
D03*
X1051279D02*
D03*
X1066279Y825749D02*
D03*
X1061279D02*
D03*
X1056279D02*
D03*
X1051279D02*
D03*
X1158500Y844253D02*
D03*
X1153500D02*
D03*
X1148500D02*
D03*
X1143500D02*
D03*
X1158500Y825749D02*
D03*
X1153500D02*
D03*
X1148500D02*
D03*
X1143500D02*
D03*
X1306279Y844253D02*
D03*
X1301279D02*
D03*
X1296279D02*
D03*
X1291279D02*
D03*
X1306279Y825749D02*
D03*
X1301279D02*
D03*
X1296279D02*
D03*
X1291279D02*
D03*
X1398500Y844253D02*
D03*
X1393500D02*
D03*
X1388500D02*
D03*
X1383500D02*
D03*
X1398500Y825749D02*
D03*
X1393500D02*
D03*
X1388500D02*
D03*
X1383500D02*
D03*
X1546279Y844253D02*
D03*
X1541279D02*
D03*
X1536279D02*
D03*
X1531279D02*
D03*
X1546279Y825749D02*
D03*
X1541279D02*
D03*
X1536279D02*
D03*
X1531279D02*
D03*
X1638500Y844253D02*
D03*
X1633500D02*
D03*
X1628500D02*
D03*
X1623500D02*
D03*
X1638500Y825749D02*
D03*
X1633500D02*
D03*
X1628500D02*
D03*
X1623500D02*
D03*
X1786279Y844253D02*
D03*
X1781279D02*
D03*
X1776279D02*
D03*
X1771279D02*
D03*
X1786279Y825749D02*
D03*
X1781279D02*
D03*
X1776279D02*
D03*
X1771279D02*
D03*
X1878500Y844253D02*
D03*
X1873500D02*
D03*
X1868500D02*
D03*
X1863500D02*
D03*
X1878500Y825749D02*
D03*
X1873500D02*
D03*
X1868500D02*
D03*
X1863500D02*
D03*
X2026279Y844253D02*
D03*
X2021279D02*
D03*
X2016279D02*
D03*
X2011279D02*
D03*
X2026279Y825749D02*
D03*
X2021279D02*
D03*
X2016279D02*
D03*
X2011279D02*
D03*
X2118500Y844253D02*
D03*
X2113500D02*
D03*
X2108500D02*
D03*
X2103500D02*
D03*
X2118500Y825749D02*
D03*
X2113500D02*
D03*
X2108500D02*
D03*
X2103500D02*
D03*
X2266279Y844253D02*
D03*
X2261279D02*
D03*
X2256279D02*
D03*
X2251279D02*
D03*
X2266279Y825749D02*
D03*
X2261279D02*
D03*
X2256279D02*
D03*
X2251279D02*
D03*
X2358500Y844253D02*
D03*
X2353500D02*
D03*
X2348500D02*
D03*
X2343500D02*
D03*
X2358500Y825749D02*
D03*
X2353500D02*
D03*
X2348500D02*
D03*
X2343500D02*
D03*
X106279Y1184253D02*
D03*
X101279D02*
D03*
X96279D02*
D03*
X91279D02*
D03*
X106279Y1165749D02*
D03*
X101279D02*
D03*
X96279D02*
D03*
X91279D02*
D03*
X198500Y1184253D02*
D03*
X193500D02*
D03*
X188500D02*
D03*
X183500D02*
D03*
X198500Y1165749D02*
D03*
X193500D02*
D03*
X188500D02*
D03*
X183500D02*
D03*
X346279Y1184253D02*
D03*
X341279D02*
D03*
X336279D02*
D03*
X331279D02*
D03*
X346279Y1165749D02*
D03*
X341279D02*
D03*
X336279D02*
D03*
X331279D02*
D03*
X438500Y1184253D02*
D03*
X433500D02*
D03*
X428500D02*
D03*
X423500D02*
D03*
X438500Y1165749D02*
D03*
X433500D02*
D03*
X428500D02*
D03*
X423500D02*
D03*
X586279Y1184253D02*
D03*
X581279D02*
D03*
X576279D02*
D03*
X571279D02*
D03*
X586279Y1165749D02*
D03*
X581279D02*
D03*
X576279D02*
D03*
X571279D02*
D03*
X678500Y1184253D02*
D03*
X673500D02*
D03*
X668500D02*
D03*
X663500D02*
D03*
X678500Y1165749D02*
D03*
X673500D02*
D03*
X668500D02*
D03*
X663500D02*
D03*
X826279Y1184253D02*
D03*
X821279D02*
D03*
X816279D02*
D03*
X811279D02*
D03*
X826279Y1165749D02*
D03*
X821279D02*
D03*
X816279D02*
D03*
X811279D02*
D03*
X918500Y1184253D02*
D03*
X913500D02*
D03*
X908500D02*
D03*
X903500D02*
D03*
X918500Y1165749D02*
D03*
X913500D02*
D03*
X908500D02*
D03*
X903500D02*
D03*
X1066279Y1184253D02*
D03*
X1061279D02*
D03*
X1056279D02*
D03*
X1051279D02*
D03*
X1066279Y1165749D02*
D03*
X1061279D02*
D03*
X1056279D02*
D03*
X1051279D02*
D03*
X1158500Y1184253D02*
D03*
X1153500D02*
D03*
X1148500D02*
D03*
X1143500D02*
D03*
X1158500Y1165749D02*
D03*
X1153500D02*
D03*
X1148500D02*
D03*
X1143500D02*
D03*
X1306279Y1184253D02*
D03*
X1301279D02*
D03*
X1296279D02*
D03*
X1291279D02*
D03*
X1306279Y1165749D02*
D03*
X1301279D02*
D03*
X1296279D02*
D03*
X1291279D02*
D03*
X1398500Y1184253D02*
D03*
X1393500D02*
D03*
X1388500D02*
D03*
X1383500D02*
D03*
X1398500Y1165749D02*
D03*
X1393500D02*
D03*
X1388500D02*
D03*
X1383500D02*
D03*
X1546279Y1184253D02*
D03*
X1541279D02*
D03*
X1536279D02*
D03*
X1531279D02*
D03*
X1546279Y1165749D02*
D03*
X1541279D02*
D03*
X1536279D02*
D03*
X1531279D02*
D03*
X1638500Y1184253D02*
D03*
X1633500D02*
D03*
X1628500D02*
D03*
X1623500D02*
D03*
X1638500Y1165749D02*
D03*
X1633500D02*
D03*
X1628500D02*
D03*
X1623500D02*
D03*
X1786279Y1184253D02*
D03*
X1781279D02*
D03*
X1776279D02*
D03*
X1771279D02*
D03*
X1786279Y1165749D02*
D03*
X1781279D02*
D03*
X1776279D02*
D03*
X1771279D02*
D03*
X1878500Y1184253D02*
D03*
X1873500D02*
D03*
X1868500D02*
D03*
X1863500D02*
D03*
X1878500Y1165749D02*
D03*
X1873500D02*
D03*
X1868500D02*
D03*
X1863500D02*
D03*
X2026279Y1184253D02*
D03*
X2021279D02*
D03*
X2016279D02*
D03*
X2011279D02*
D03*
X2026279Y1165749D02*
D03*
X2021279D02*
D03*
X2016279D02*
D03*
X2011279D02*
D03*
X2118500Y1184253D02*
D03*
X2113500D02*
D03*
X2108500D02*
D03*
X2103500D02*
D03*
X2118500Y1165749D02*
D03*
X2113500D02*
D03*
X2108500D02*
D03*
X2103500D02*
D03*
X2266279Y1184253D02*
D03*
X2261279D02*
D03*
X2256279D02*
D03*
X2251279D02*
D03*
X2266279Y1165749D02*
D03*
X2261279D02*
D03*
X2256279D02*
D03*
X2251279D02*
D03*
X2358500Y1184253D02*
D03*
X2353500D02*
D03*
X2348500D02*
D03*
X2343500D02*
D03*
X2358500Y1165749D02*
D03*
X2353500D02*
D03*
X2348500D02*
D03*
X2343500D02*
D03*
X106279Y1524253D02*
D03*
X101279D02*
D03*
X96279D02*
D03*
X91279D02*
D03*
X106279Y1505749D02*
D03*
X101279D02*
D03*
X96279D02*
D03*
X91279D02*
D03*
X198500Y1524253D02*
D03*
X193500D02*
D03*
X188500D02*
D03*
X183500D02*
D03*
X198500Y1505749D02*
D03*
X193500D02*
D03*
X188500D02*
D03*
X183500D02*
D03*
X346279Y1524253D02*
D03*
X341279D02*
D03*
X336279D02*
D03*
X331279D02*
D03*
X346279Y1505749D02*
D03*
X341279D02*
D03*
X336279D02*
D03*
X331279D02*
D03*
X438500Y1524253D02*
D03*
X433500D02*
D03*
X428500D02*
D03*
X423500D02*
D03*
X438500Y1505749D02*
D03*
X433500D02*
D03*
X428500D02*
D03*
X423500D02*
D03*
X586279Y1524253D02*
D03*
X581279D02*
D03*
X576279D02*
D03*
X571279D02*
D03*
X586279Y1505749D02*
D03*
X581279D02*
D03*
X576279D02*
D03*
X571279D02*
D03*
X678500Y1524253D02*
D03*
X673500D02*
D03*
X668500D02*
D03*
X663500D02*
D03*
X678500Y1505749D02*
D03*
X673500D02*
D03*
X668500D02*
D03*
X663500D02*
D03*
X826279Y1524253D02*
D03*
X821279D02*
D03*
X816279D02*
D03*
X811279D02*
D03*
X826279Y1505749D02*
D03*
X821279D02*
D03*
X816279D02*
D03*
X811279D02*
D03*
X918500Y1524253D02*
D03*
X913500D02*
D03*
X908500D02*
D03*
X903500D02*
D03*
X918500Y1505749D02*
D03*
X913500D02*
D03*
X908500D02*
D03*
X903500D02*
D03*
X1066279Y1524253D02*
D03*
X1061279D02*
D03*
X1056279D02*
D03*
X1051279D02*
D03*
X1066279Y1505749D02*
D03*
X1061279D02*
D03*
X1056279D02*
D03*
X1051279D02*
D03*
X1158500Y1524253D02*
D03*
X1153500D02*
D03*
X1148500D02*
D03*
X1143500D02*
D03*
X1158500Y1505749D02*
D03*
X1153500D02*
D03*
X1148500D02*
D03*
X1143500D02*
D03*
X1306279Y1524253D02*
D03*
X1301279D02*
D03*
X1296279D02*
D03*
X1291279D02*
D03*
X1306279Y1505749D02*
D03*
X1301279D02*
D03*
X1296279D02*
D03*
X1291279D02*
D03*
X1398500Y1524253D02*
D03*
X1393500D02*
D03*
X1388500D02*
D03*
X1383500D02*
D03*
X1398500Y1505749D02*
D03*
X1393500D02*
D03*
X1388500D02*
D03*
X1383500D02*
D03*
X1546279Y1524253D02*
D03*
X1541279D02*
D03*
X1536279D02*
D03*
X1531279D02*
D03*
X1546279Y1505749D02*
D03*
X1541279D02*
D03*
X1536279D02*
D03*
X1531279D02*
D03*
X1638500Y1524253D02*
D03*
X1633500D02*
D03*
X1628500D02*
D03*
X1623500D02*
D03*
X1638500Y1505749D02*
D03*
X1633500D02*
D03*
X1628500D02*
D03*
X1623500D02*
D03*
X1786279Y1524253D02*
D03*
X1781279D02*
D03*
X1776279D02*
D03*
X1771279D02*
D03*
X1786279Y1505749D02*
D03*
X1781279D02*
D03*
X1776279D02*
D03*
X1771279D02*
D03*
X1878500Y1524253D02*
D03*
X1873500D02*
D03*
X1868500D02*
D03*
X1863500D02*
D03*
X1878500Y1505749D02*
D03*
X1873500D02*
D03*
X1868500D02*
D03*
X1863500D02*
D03*
X2026279Y1524253D02*
D03*
X2021279D02*
D03*
X2016279D02*
D03*
X2011279D02*
D03*
X2026279Y1505749D02*
D03*
X2021279D02*
D03*
X2016279D02*
D03*
X2011279D02*
D03*
X2118500Y1524253D02*
D03*
X2113500D02*
D03*
X2108500D02*
D03*
X2103500D02*
D03*
X2118500Y1505749D02*
D03*
X2113500D02*
D03*
X2108500D02*
D03*
X2103500D02*
D03*
X2266279Y1524253D02*
D03*
X2261279D02*
D03*
X2256279D02*
D03*
X2251279D02*
D03*
X2266279Y1505749D02*
D03*
X2261279D02*
D03*
X2256279D02*
D03*
X2251279D02*
D03*
X2358500Y1524253D02*
D03*
X2353500D02*
D03*
X2348500D02*
D03*
X2343500D02*
D03*
X2358500Y1505749D02*
D03*
X2353500D02*
D03*
X2348500D02*
D03*
X2343500D02*
D03*
D14*
X154000Y197600D02*
D03*
Y191000D02*
D03*
X75425Y150600D02*
D03*
Y144000D02*
D03*
X154000Y212600D02*
D03*
Y206000D02*
D03*
X217000Y150600D02*
D03*
Y144000D02*
D03*
X175000Y150600D02*
D03*
Y144000D02*
D03*
X159000Y150600D02*
D03*
Y144000D02*
D03*
X217000Y160000D02*
D03*
Y166600D02*
D03*
X125425Y150600D02*
D03*
Y144000D02*
D03*
X83425Y150600D02*
D03*
Y144000D02*
D03*
X67425Y150600D02*
D03*
Y144000D02*
D03*
X125425Y160000D02*
D03*
Y166600D02*
D03*
X101500Y313600D02*
D03*
Y307000D02*
D03*
X121500Y313600D02*
D03*
Y307000D02*
D03*
X131500Y313600D02*
D03*
Y307000D02*
D03*
X111500Y313600D02*
D03*
Y307000D02*
D03*
X205000Y166600D02*
D03*
Y160000D02*
D03*
Y150600D02*
D03*
Y144000D02*
D03*
X167000Y150600D02*
D03*
Y144000D02*
D03*
X113425Y166600D02*
D03*
Y160000D02*
D03*
Y150600D02*
D03*
Y144000D02*
D03*
X394000Y197600D02*
D03*
Y191000D02*
D03*
X315425Y150600D02*
D03*
Y144000D02*
D03*
X394000Y212600D02*
D03*
Y206000D02*
D03*
X457000Y150600D02*
D03*
Y144000D02*
D03*
X415000Y150600D02*
D03*
Y144000D02*
D03*
X399000Y150600D02*
D03*
Y144000D02*
D03*
X457000Y160000D02*
D03*
Y166600D02*
D03*
X365425Y150600D02*
D03*
Y144000D02*
D03*
X323425Y150600D02*
D03*
Y144000D02*
D03*
X307425Y150600D02*
D03*
Y144000D02*
D03*
X365425Y160000D02*
D03*
Y166600D02*
D03*
X341500Y313600D02*
D03*
Y307000D02*
D03*
X361500Y313600D02*
D03*
Y307000D02*
D03*
X371500Y313600D02*
D03*
Y307000D02*
D03*
X351500Y313600D02*
D03*
Y307000D02*
D03*
X445000Y166600D02*
D03*
Y160000D02*
D03*
Y150600D02*
D03*
Y144000D02*
D03*
X407000Y150600D02*
D03*
Y144000D02*
D03*
X353425Y166600D02*
D03*
Y160000D02*
D03*
Y150600D02*
D03*
Y144000D02*
D03*
X634000Y197600D02*
D03*
Y191000D02*
D03*
X555425Y150600D02*
D03*
Y144000D02*
D03*
X634000Y212600D02*
D03*
Y206000D02*
D03*
X697000Y150600D02*
D03*
Y144000D02*
D03*
X655000Y150600D02*
D03*
Y144000D02*
D03*
X639000Y150600D02*
D03*
Y144000D02*
D03*
X697000Y160000D02*
D03*
Y166600D02*
D03*
X605425Y150600D02*
D03*
Y144000D02*
D03*
X563425Y150600D02*
D03*
Y144000D02*
D03*
X547425Y150600D02*
D03*
Y144000D02*
D03*
X605425Y160000D02*
D03*
Y166600D02*
D03*
X581500Y313600D02*
D03*
Y307000D02*
D03*
X601500Y313600D02*
D03*
Y307000D02*
D03*
X611500Y313600D02*
D03*
Y307000D02*
D03*
X591500Y313600D02*
D03*
Y307000D02*
D03*
X685000Y166600D02*
D03*
Y160000D02*
D03*
Y150600D02*
D03*
Y144000D02*
D03*
X647000Y150600D02*
D03*
Y144000D02*
D03*
X593425Y166600D02*
D03*
Y160000D02*
D03*
Y150600D02*
D03*
Y144000D02*
D03*
X874000Y197600D02*
D03*
Y191000D02*
D03*
X795425Y150600D02*
D03*
Y144000D02*
D03*
X874000Y212600D02*
D03*
Y206000D02*
D03*
X937000Y150600D02*
D03*
Y144000D02*
D03*
X895000Y150600D02*
D03*
Y144000D02*
D03*
X879000Y150600D02*
D03*
Y144000D02*
D03*
X937000Y160000D02*
D03*
Y166600D02*
D03*
X845425Y150600D02*
D03*
Y144000D02*
D03*
X803425Y150600D02*
D03*
Y144000D02*
D03*
X787425Y150600D02*
D03*
Y144000D02*
D03*
X845425Y160000D02*
D03*
Y166600D02*
D03*
X821500Y313600D02*
D03*
Y307000D02*
D03*
X841500Y313600D02*
D03*
Y307000D02*
D03*
X851500Y313600D02*
D03*
Y307000D02*
D03*
X831500Y313600D02*
D03*
Y307000D02*
D03*
X925000Y166600D02*
D03*
Y160000D02*
D03*
Y150600D02*
D03*
Y144000D02*
D03*
X887000Y150600D02*
D03*
Y144000D02*
D03*
X833425Y166600D02*
D03*
Y160000D02*
D03*
Y150600D02*
D03*
Y144000D02*
D03*
X1114000Y197600D02*
D03*
Y191000D02*
D03*
X1035425Y150600D02*
D03*
Y144000D02*
D03*
X1114000Y212600D02*
D03*
Y206000D02*
D03*
X1177000Y150600D02*
D03*
Y144000D02*
D03*
X1135000Y150600D02*
D03*
Y144000D02*
D03*
X1119000Y150600D02*
D03*
Y144000D02*
D03*
X1177000Y160000D02*
D03*
Y166600D02*
D03*
X1085425Y150600D02*
D03*
Y144000D02*
D03*
X1043425Y150600D02*
D03*
Y144000D02*
D03*
X1027425Y150600D02*
D03*
Y144000D02*
D03*
X1085425Y160000D02*
D03*
Y166600D02*
D03*
X1061500Y313600D02*
D03*
Y307000D02*
D03*
X1081500Y313600D02*
D03*
Y307000D02*
D03*
X1091500Y313600D02*
D03*
Y307000D02*
D03*
X1071500Y313600D02*
D03*
Y307000D02*
D03*
X1165000Y166600D02*
D03*
Y160000D02*
D03*
Y150600D02*
D03*
Y144000D02*
D03*
X1127000Y150600D02*
D03*
Y144000D02*
D03*
X1073425Y166600D02*
D03*
Y160000D02*
D03*
Y150600D02*
D03*
Y144000D02*
D03*
X1354000Y197600D02*
D03*
Y191000D02*
D03*
X1275425Y150600D02*
D03*
Y144000D02*
D03*
X1354000Y212600D02*
D03*
Y206000D02*
D03*
X1417000Y150600D02*
D03*
Y144000D02*
D03*
X1375000Y150600D02*
D03*
Y144000D02*
D03*
X1359000Y150600D02*
D03*
Y144000D02*
D03*
X1417000Y160000D02*
D03*
Y166600D02*
D03*
X1325425Y150600D02*
D03*
Y144000D02*
D03*
X1283425Y150600D02*
D03*
Y144000D02*
D03*
X1267425Y150600D02*
D03*
Y144000D02*
D03*
X1325425Y160000D02*
D03*
Y166600D02*
D03*
X1301500Y313600D02*
D03*
Y307000D02*
D03*
X1321500Y313600D02*
D03*
Y307000D02*
D03*
X1331500Y313600D02*
D03*
Y307000D02*
D03*
X1311500Y313600D02*
D03*
Y307000D02*
D03*
X1405000Y166600D02*
D03*
Y160000D02*
D03*
Y150600D02*
D03*
Y144000D02*
D03*
X1367000Y150600D02*
D03*
Y144000D02*
D03*
X1313425Y166600D02*
D03*
Y160000D02*
D03*
Y150600D02*
D03*
Y144000D02*
D03*
X1594000Y197600D02*
D03*
Y191000D02*
D03*
X1515425Y150600D02*
D03*
Y144000D02*
D03*
X1594000Y212600D02*
D03*
Y206000D02*
D03*
X1657000Y150600D02*
D03*
Y144000D02*
D03*
X1615000Y150600D02*
D03*
Y144000D02*
D03*
X1599000Y150600D02*
D03*
Y144000D02*
D03*
X1657000Y160000D02*
D03*
Y166600D02*
D03*
X1565425Y150600D02*
D03*
Y144000D02*
D03*
X1523425Y150600D02*
D03*
Y144000D02*
D03*
X1507425Y150600D02*
D03*
Y144000D02*
D03*
X1565425Y160000D02*
D03*
Y166600D02*
D03*
X1541500Y313600D02*
D03*
Y307000D02*
D03*
X1561500Y313600D02*
D03*
Y307000D02*
D03*
X1571500Y313600D02*
D03*
Y307000D02*
D03*
X1551500Y313600D02*
D03*
Y307000D02*
D03*
X1645000Y166600D02*
D03*
Y160000D02*
D03*
Y150600D02*
D03*
Y144000D02*
D03*
X1607000Y150600D02*
D03*
Y144000D02*
D03*
X1553425Y166600D02*
D03*
Y160000D02*
D03*
Y150600D02*
D03*
Y144000D02*
D03*
X1834000Y197600D02*
D03*
Y191000D02*
D03*
X1755425Y150600D02*
D03*
Y144000D02*
D03*
X1834000Y212600D02*
D03*
Y206000D02*
D03*
X1897000Y150600D02*
D03*
Y144000D02*
D03*
X1855000Y150600D02*
D03*
Y144000D02*
D03*
X1839000Y150600D02*
D03*
Y144000D02*
D03*
X1897000Y160000D02*
D03*
Y166600D02*
D03*
X1805425Y150600D02*
D03*
Y144000D02*
D03*
X1763425Y150600D02*
D03*
Y144000D02*
D03*
X1747425Y150600D02*
D03*
Y144000D02*
D03*
X1805425Y160000D02*
D03*
Y166600D02*
D03*
X1781500Y313600D02*
D03*
Y307000D02*
D03*
X1801500Y313600D02*
D03*
Y307000D02*
D03*
X1811500Y313600D02*
D03*
Y307000D02*
D03*
X1791500Y313600D02*
D03*
Y307000D02*
D03*
X1885000Y166600D02*
D03*
Y160000D02*
D03*
Y150600D02*
D03*
Y144000D02*
D03*
X1847000Y150600D02*
D03*
Y144000D02*
D03*
X1793425Y166600D02*
D03*
Y160000D02*
D03*
Y150600D02*
D03*
Y144000D02*
D03*
X2074000Y197600D02*
D03*
Y191000D02*
D03*
X1995425Y150600D02*
D03*
Y144000D02*
D03*
X2074000Y212600D02*
D03*
Y206000D02*
D03*
X2137000Y150600D02*
D03*
Y144000D02*
D03*
X2095000Y150600D02*
D03*
Y144000D02*
D03*
X2079000Y150600D02*
D03*
Y144000D02*
D03*
X2137000Y160000D02*
D03*
Y166600D02*
D03*
X2045425Y150600D02*
D03*
Y144000D02*
D03*
X2003425Y150600D02*
D03*
Y144000D02*
D03*
X1987425Y150600D02*
D03*
Y144000D02*
D03*
X2045425Y160000D02*
D03*
Y166600D02*
D03*
X2021500Y313600D02*
D03*
Y307000D02*
D03*
X2041500Y313600D02*
D03*
Y307000D02*
D03*
X2051500Y313600D02*
D03*
Y307000D02*
D03*
X2031500Y313600D02*
D03*
Y307000D02*
D03*
X2125000Y166600D02*
D03*
Y160000D02*
D03*
Y150600D02*
D03*
Y144000D02*
D03*
X2087000Y150600D02*
D03*
Y144000D02*
D03*
X2033425Y166600D02*
D03*
Y160000D02*
D03*
Y150600D02*
D03*
Y144000D02*
D03*
X2314000Y197600D02*
D03*
Y191000D02*
D03*
X2235425Y150600D02*
D03*
Y144000D02*
D03*
X2314000Y212600D02*
D03*
Y206000D02*
D03*
X2377000Y150600D02*
D03*
Y144000D02*
D03*
X2335000Y150600D02*
D03*
Y144000D02*
D03*
X2319000Y150600D02*
D03*
Y144000D02*
D03*
X2377000Y160000D02*
D03*
Y166600D02*
D03*
X2285425Y150600D02*
D03*
Y144000D02*
D03*
X2243425Y150600D02*
D03*
Y144000D02*
D03*
X2227425Y150600D02*
D03*
Y144000D02*
D03*
X2285425Y160000D02*
D03*
Y166600D02*
D03*
X2261500Y313600D02*
D03*
Y307000D02*
D03*
X2281500Y313600D02*
D03*
Y307000D02*
D03*
X2291500Y313600D02*
D03*
Y307000D02*
D03*
X2271500Y313600D02*
D03*
Y307000D02*
D03*
X2365000Y166600D02*
D03*
Y160000D02*
D03*
Y150600D02*
D03*
Y144000D02*
D03*
X2327000Y150600D02*
D03*
Y144000D02*
D03*
X2273425Y166600D02*
D03*
Y160000D02*
D03*
Y150600D02*
D03*
Y144000D02*
D03*
X154000Y537600D02*
D03*
Y531000D02*
D03*
X75425Y490600D02*
D03*
Y484000D02*
D03*
X154000Y552600D02*
D03*
Y546000D02*
D03*
X217000Y490600D02*
D03*
Y484000D02*
D03*
X175000Y490600D02*
D03*
Y484000D02*
D03*
X159000Y490600D02*
D03*
Y484000D02*
D03*
X217000Y500000D02*
D03*
Y506600D02*
D03*
X125425Y490600D02*
D03*
Y484000D02*
D03*
X83425Y490600D02*
D03*
Y484000D02*
D03*
X67425Y490600D02*
D03*
Y484000D02*
D03*
X125425Y500000D02*
D03*
Y506600D02*
D03*
X101500Y653600D02*
D03*
Y647000D02*
D03*
X121500Y653600D02*
D03*
Y647000D02*
D03*
X131500Y653600D02*
D03*
Y647000D02*
D03*
X111500Y653600D02*
D03*
Y647000D02*
D03*
X205000Y506600D02*
D03*
Y500000D02*
D03*
Y490600D02*
D03*
Y484000D02*
D03*
X167000Y490600D02*
D03*
Y484000D02*
D03*
X113425Y506600D02*
D03*
Y500000D02*
D03*
Y490600D02*
D03*
Y484000D02*
D03*
X394000Y537600D02*
D03*
Y531000D02*
D03*
X315425Y490600D02*
D03*
Y484000D02*
D03*
X394000Y552600D02*
D03*
Y546000D02*
D03*
X457000Y490600D02*
D03*
Y484000D02*
D03*
X415000Y490600D02*
D03*
Y484000D02*
D03*
X399000Y490600D02*
D03*
Y484000D02*
D03*
X457000Y500000D02*
D03*
Y506600D02*
D03*
X365425Y490600D02*
D03*
Y484000D02*
D03*
X323425Y490600D02*
D03*
Y484000D02*
D03*
X307425Y490600D02*
D03*
Y484000D02*
D03*
X365425Y500000D02*
D03*
Y506600D02*
D03*
X341500Y653600D02*
D03*
Y647000D02*
D03*
X361500Y653600D02*
D03*
Y647000D02*
D03*
X371500Y653600D02*
D03*
Y647000D02*
D03*
X351500Y653600D02*
D03*
Y647000D02*
D03*
X445000Y506600D02*
D03*
Y500000D02*
D03*
Y490600D02*
D03*
Y484000D02*
D03*
X407000Y490600D02*
D03*
Y484000D02*
D03*
X353425Y506600D02*
D03*
Y500000D02*
D03*
Y490600D02*
D03*
Y484000D02*
D03*
X634000Y537600D02*
D03*
Y531000D02*
D03*
X555425Y490600D02*
D03*
Y484000D02*
D03*
X634000Y552600D02*
D03*
Y546000D02*
D03*
X697000Y490600D02*
D03*
Y484000D02*
D03*
X655000Y490600D02*
D03*
Y484000D02*
D03*
X639000Y490600D02*
D03*
Y484000D02*
D03*
X697000Y500000D02*
D03*
Y506600D02*
D03*
X605425Y490600D02*
D03*
Y484000D02*
D03*
X563425Y490600D02*
D03*
Y484000D02*
D03*
X547425Y490600D02*
D03*
Y484000D02*
D03*
X605425Y500000D02*
D03*
Y506600D02*
D03*
X581500Y653600D02*
D03*
Y647000D02*
D03*
X601500Y653600D02*
D03*
Y647000D02*
D03*
X611500Y653600D02*
D03*
Y647000D02*
D03*
X591500Y653600D02*
D03*
Y647000D02*
D03*
X685000Y506600D02*
D03*
Y500000D02*
D03*
Y490600D02*
D03*
Y484000D02*
D03*
X647000Y490600D02*
D03*
Y484000D02*
D03*
X593425Y506600D02*
D03*
Y500000D02*
D03*
Y490600D02*
D03*
Y484000D02*
D03*
X874000Y537600D02*
D03*
Y531000D02*
D03*
X795425Y490600D02*
D03*
Y484000D02*
D03*
X874000Y552600D02*
D03*
Y546000D02*
D03*
X937000Y490600D02*
D03*
Y484000D02*
D03*
X895000Y490600D02*
D03*
Y484000D02*
D03*
X879000Y490600D02*
D03*
Y484000D02*
D03*
X937000Y500000D02*
D03*
Y506600D02*
D03*
X845425Y490600D02*
D03*
Y484000D02*
D03*
X803425Y490600D02*
D03*
Y484000D02*
D03*
X787425Y490600D02*
D03*
Y484000D02*
D03*
X845425Y500000D02*
D03*
Y506600D02*
D03*
X821500Y653600D02*
D03*
Y647000D02*
D03*
X841500Y653600D02*
D03*
Y647000D02*
D03*
X851500Y653600D02*
D03*
Y647000D02*
D03*
X831500Y653600D02*
D03*
Y647000D02*
D03*
X925000Y506600D02*
D03*
Y500000D02*
D03*
Y490600D02*
D03*
Y484000D02*
D03*
X887000Y490600D02*
D03*
Y484000D02*
D03*
X833425Y506600D02*
D03*
Y500000D02*
D03*
Y490600D02*
D03*
Y484000D02*
D03*
X1114000Y537600D02*
D03*
Y531000D02*
D03*
X1035425Y490600D02*
D03*
Y484000D02*
D03*
X1114000Y552600D02*
D03*
Y546000D02*
D03*
X1177000Y490600D02*
D03*
Y484000D02*
D03*
X1135000Y490600D02*
D03*
Y484000D02*
D03*
X1119000Y490600D02*
D03*
Y484000D02*
D03*
X1177000Y500000D02*
D03*
Y506600D02*
D03*
X1085425Y490600D02*
D03*
Y484000D02*
D03*
X1043425Y490600D02*
D03*
Y484000D02*
D03*
X1027425Y490600D02*
D03*
Y484000D02*
D03*
X1085425Y500000D02*
D03*
Y506600D02*
D03*
X1061500Y653600D02*
D03*
Y647000D02*
D03*
X1081500Y653600D02*
D03*
Y647000D02*
D03*
X1091500Y653600D02*
D03*
Y647000D02*
D03*
X1071500Y653600D02*
D03*
Y647000D02*
D03*
X1165000Y506600D02*
D03*
Y500000D02*
D03*
Y490600D02*
D03*
Y484000D02*
D03*
X1127000Y490600D02*
D03*
Y484000D02*
D03*
X1073425Y506600D02*
D03*
Y500000D02*
D03*
Y490600D02*
D03*
Y484000D02*
D03*
X1354000Y537600D02*
D03*
Y531000D02*
D03*
X1275425Y490600D02*
D03*
Y484000D02*
D03*
X1354000Y552600D02*
D03*
Y546000D02*
D03*
X1417000Y490600D02*
D03*
Y484000D02*
D03*
X1375000Y490600D02*
D03*
Y484000D02*
D03*
X1359000Y490600D02*
D03*
Y484000D02*
D03*
X1417000Y500000D02*
D03*
Y506600D02*
D03*
X1325425Y490600D02*
D03*
Y484000D02*
D03*
X1283425Y490600D02*
D03*
Y484000D02*
D03*
X1267425Y490600D02*
D03*
Y484000D02*
D03*
X1325425Y500000D02*
D03*
Y506600D02*
D03*
X1301500Y653600D02*
D03*
Y647000D02*
D03*
X1321500Y653600D02*
D03*
Y647000D02*
D03*
X1331500Y653600D02*
D03*
Y647000D02*
D03*
X1311500Y653600D02*
D03*
Y647000D02*
D03*
X1405000Y506600D02*
D03*
Y500000D02*
D03*
Y490600D02*
D03*
Y484000D02*
D03*
X1367000Y490600D02*
D03*
Y484000D02*
D03*
X1313425Y506600D02*
D03*
Y500000D02*
D03*
Y490600D02*
D03*
Y484000D02*
D03*
X1594000Y537600D02*
D03*
Y531000D02*
D03*
X1515425Y490600D02*
D03*
Y484000D02*
D03*
X1594000Y552600D02*
D03*
Y546000D02*
D03*
X1657000Y490600D02*
D03*
Y484000D02*
D03*
X1615000Y490600D02*
D03*
Y484000D02*
D03*
X1599000Y490600D02*
D03*
Y484000D02*
D03*
X1657000Y500000D02*
D03*
Y506600D02*
D03*
X1565425Y490600D02*
D03*
Y484000D02*
D03*
X1523425Y490600D02*
D03*
Y484000D02*
D03*
X1507425Y490600D02*
D03*
Y484000D02*
D03*
X1565425Y500000D02*
D03*
Y506600D02*
D03*
X1541500Y653600D02*
D03*
Y647000D02*
D03*
X1561500Y653600D02*
D03*
Y647000D02*
D03*
X1571500Y653600D02*
D03*
Y647000D02*
D03*
X1551500Y653600D02*
D03*
Y647000D02*
D03*
X1645000Y506600D02*
D03*
Y500000D02*
D03*
Y490600D02*
D03*
Y484000D02*
D03*
X1607000Y490600D02*
D03*
Y484000D02*
D03*
X1553425Y506600D02*
D03*
Y500000D02*
D03*
Y490600D02*
D03*
Y484000D02*
D03*
X1834000Y537600D02*
D03*
Y531000D02*
D03*
X1755425Y490600D02*
D03*
Y484000D02*
D03*
X1834000Y552600D02*
D03*
Y546000D02*
D03*
X1897000Y490600D02*
D03*
Y484000D02*
D03*
X1855000Y490600D02*
D03*
Y484000D02*
D03*
X1839000Y490600D02*
D03*
Y484000D02*
D03*
X1897000Y500000D02*
D03*
Y506600D02*
D03*
X1805425Y490600D02*
D03*
Y484000D02*
D03*
X1763425Y490600D02*
D03*
Y484000D02*
D03*
X1747425Y490600D02*
D03*
Y484000D02*
D03*
X1805425Y500000D02*
D03*
Y506600D02*
D03*
X1781500Y653600D02*
D03*
Y647000D02*
D03*
X1801500Y653600D02*
D03*
Y647000D02*
D03*
X1811500Y653600D02*
D03*
Y647000D02*
D03*
X1791500Y653600D02*
D03*
Y647000D02*
D03*
X1885000Y506600D02*
D03*
Y500000D02*
D03*
Y490600D02*
D03*
Y484000D02*
D03*
X1847000Y490600D02*
D03*
Y484000D02*
D03*
X1793425Y506600D02*
D03*
Y500000D02*
D03*
Y490600D02*
D03*
Y484000D02*
D03*
X2074000Y537600D02*
D03*
Y531000D02*
D03*
X1995425Y490600D02*
D03*
Y484000D02*
D03*
X2074000Y552600D02*
D03*
Y546000D02*
D03*
X2137000Y490600D02*
D03*
Y484000D02*
D03*
X2095000Y490600D02*
D03*
Y484000D02*
D03*
X2079000Y490600D02*
D03*
Y484000D02*
D03*
X2137000Y500000D02*
D03*
Y506600D02*
D03*
X2045425Y490600D02*
D03*
Y484000D02*
D03*
X2003425Y490600D02*
D03*
Y484000D02*
D03*
X1987425Y490600D02*
D03*
Y484000D02*
D03*
X2045425Y500000D02*
D03*
Y506600D02*
D03*
X2021500Y653600D02*
D03*
Y647000D02*
D03*
X2041500Y653600D02*
D03*
Y647000D02*
D03*
X2051500Y653600D02*
D03*
Y647000D02*
D03*
X2031500Y653600D02*
D03*
Y647000D02*
D03*
X2125000Y506600D02*
D03*
Y500000D02*
D03*
Y490600D02*
D03*
Y484000D02*
D03*
X2087000Y490600D02*
D03*
Y484000D02*
D03*
X2033425Y506600D02*
D03*
Y500000D02*
D03*
Y490600D02*
D03*
Y484000D02*
D03*
X2314000Y537600D02*
D03*
Y531000D02*
D03*
X2235425Y490600D02*
D03*
Y484000D02*
D03*
X2314000Y552600D02*
D03*
Y546000D02*
D03*
X2377000Y490600D02*
D03*
Y484000D02*
D03*
X2335000Y490600D02*
D03*
Y484000D02*
D03*
X2319000Y490600D02*
D03*
Y484000D02*
D03*
X2377000Y500000D02*
D03*
Y506600D02*
D03*
X2285425Y490600D02*
D03*
Y484000D02*
D03*
X2243425Y490600D02*
D03*
Y484000D02*
D03*
X2227425Y490600D02*
D03*
Y484000D02*
D03*
X2285425Y500000D02*
D03*
Y506600D02*
D03*
X2261500Y653600D02*
D03*
Y647000D02*
D03*
X2281500Y653600D02*
D03*
Y647000D02*
D03*
X2291500Y653600D02*
D03*
Y647000D02*
D03*
X2271500Y653600D02*
D03*
Y647000D02*
D03*
X2365000Y506600D02*
D03*
Y500000D02*
D03*
Y490600D02*
D03*
Y484000D02*
D03*
X2327000Y490600D02*
D03*
Y484000D02*
D03*
X2273425Y506600D02*
D03*
Y500000D02*
D03*
Y490600D02*
D03*
Y484000D02*
D03*
X154000Y877600D02*
D03*
Y871000D02*
D03*
X75425Y830600D02*
D03*
Y824000D02*
D03*
X154000Y892600D02*
D03*
Y886000D02*
D03*
X217000Y830600D02*
D03*
Y824000D02*
D03*
X175000Y830600D02*
D03*
Y824000D02*
D03*
X159000Y830600D02*
D03*
Y824000D02*
D03*
X217000Y840000D02*
D03*
Y846600D02*
D03*
X125425Y830600D02*
D03*
Y824000D02*
D03*
X83425Y830600D02*
D03*
Y824000D02*
D03*
X67425Y830600D02*
D03*
Y824000D02*
D03*
X125425Y840000D02*
D03*
Y846600D02*
D03*
X101500Y993600D02*
D03*
Y987000D02*
D03*
X121500Y993600D02*
D03*
Y987000D02*
D03*
X131500Y993600D02*
D03*
Y987000D02*
D03*
X111500Y993600D02*
D03*
Y987000D02*
D03*
X205000Y846600D02*
D03*
Y840000D02*
D03*
Y830600D02*
D03*
Y824000D02*
D03*
X167000Y830600D02*
D03*
Y824000D02*
D03*
X113425Y846600D02*
D03*
Y840000D02*
D03*
Y830600D02*
D03*
Y824000D02*
D03*
X394000Y877600D02*
D03*
Y871000D02*
D03*
X315425Y830600D02*
D03*
Y824000D02*
D03*
X394000Y892600D02*
D03*
Y886000D02*
D03*
X457000Y830600D02*
D03*
Y824000D02*
D03*
X415000Y830600D02*
D03*
Y824000D02*
D03*
X399000Y830600D02*
D03*
Y824000D02*
D03*
X457000Y840000D02*
D03*
Y846600D02*
D03*
X365425Y830600D02*
D03*
Y824000D02*
D03*
X323425Y830600D02*
D03*
Y824000D02*
D03*
X307425Y830600D02*
D03*
Y824000D02*
D03*
X365425Y840000D02*
D03*
Y846600D02*
D03*
X341500Y993600D02*
D03*
Y987000D02*
D03*
X361500Y993600D02*
D03*
Y987000D02*
D03*
X371500Y993600D02*
D03*
Y987000D02*
D03*
X351500Y993600D02*
D03*
Y987000D02*
D03*
X445000Y846600D02*
D03*
Y840000D02*
D03*
Y830600D02*
D03*
Y824000D02*
D03*
X407000Y830600D02*
D03*
Y824000D02*
D03*
X353425Y846600D02*
D03*
Y840000D02*
D03*
Y830600D02*
D03*
Y824000D02*
D03*
X634000Y877600D02*
D03*
Y871000D02*
D03*
X555425Y830600D02*
D03*
Y824000D02*
D03*
X634000Y892600D02*
D03*
Y886000D02*
D03*
X697000Y830600D02*
D03*
Y824000D02*
D03*
X655000Y830600D02*
D03*
Y824000D02*
D03*
X639000Y830600D02*
D03*
Y824000D02*
D03*
X697000Y840000D02*
D03*
Y846600D02*
D03*
X605425Y830600D02*
D03*
Y824000D02*
D03*
X563425Y830600D02*
D03*
Y824000D02*
D03*
X547425Y830600D02*
D03*
Y824000D02*
D03*
X605425Y840000D02*
D03*
Y846600D02*
D03*
X581500Y993600D02*
D03*
Y987000D02*
D03*
X601500Y993600D02*
D03*
Y987000D02*
D03*
X611500Y993600D02*
D03*
Y987000D02*
D03*
X591500Y993600D02*
D03*
Y987000D02*
D03*
X685000Y846600D02*
D03*
Y840000D02*
D03*
Y830600D02*
D03*
Y824000D02*
D03*
X647000Y830600D02*
D03*
Y824000D02*
D03*
X593425Y846600D02*
D03*
Y840000D02*
D03*
Y830600D02*
D03*
Y824000D02*
D03*
X874000Y877600D02*
D03*
Y871000D02*
D03*
X795425Y830600D02*
D03*
Y824000D02*
D03*
X874000Y892600D02*
D03*
Y886000D02*
D03*
X937000Y830600D02*
D03*
Y824000D02*
D03*
X895000Y830600D02*
D03*
Y824000D02*
D03*
X879000Y830600D02*
D03*
Y824000D02*
D03*
X937000Y840000D02*
D03*
Y846600D02*
D03*
X845425Y830600D02*
D03*
Y824000D02*
D03*
X803425Y830600D02*
D03*
Y824000D02*
D03*
X787425Y830600D02*
D03*
Y824000D02*
D03*
X845425Y840000D02*
D03*
Y846600D02*
D03*
X821500Y993600D02*
D03*
Y987000D02*
D03*
X841500Y993600D02*
D03*
Y987000D02*
D03*
X851500Y993600D02*
D03*
Y987000D02*
D03*
X831500Y993600D02*
D03*
Y987000D02*
D03*
X925000Y846600D02*
D03*
Y840000D02*
D03*
Y830600D02*
D03*
Y824000D02*
D03*
X887000Y830600D02*
D03*
Y824000D02*
D03*
X833425Y846600D02*
D03*
Y840000D02*
D03*
Y830600D02*
D03*
Y824000D02*
D03*
X1114000Y877600D02*
D03*
Y871000D02*
D03*
X1035425Y830600D02*
D03*
Y824000D02*
D03*
X1114000Y892600D02*
D03*
Y886000D02*
D03*
X1177000Y830600D02*
D03*
Y824000D02*
D03*
X1135000Y830600D02*
D03*
Y824000D02*
D03*
X1119000Y830600D02*
D03*
Y824000D02*
D03*
X1177000Y840000D02*
D03*
Y846600D02*
D03*
X1085425Y830600D02*
D03*
Y824000D02*
D03*
X1043425Y830600D02*
D03*
Y824000D02*
D03*
X1027425Y830600D02*
D03*
Y824000D02*
D03*
X1085425Y840000D02*
D03*
Y846600D02*
D03*
X1061500Y993600D02*
D03*
Y987000D02*
D03*
X1081500Y993600D02*
D03*
Y987000D02*
D03*
X1091500Y993600D02*
D03*
Y987000D02*
D03*
X1071500Y993600D02*
D03*
Y987000D02*
D03*
X1165000Y846600D02*
D03*
Y840000D02*
D03*
Y830600D02*
D03*
Y824000D02*
D03*
X1127000Y830600D02*
D03*
Y824000D02*
D03*
X1073425Y846600D02*
D03*
Y840000D02*
D03*
Y830600D02*
D03*
Y824000D02*
D03*
X1354000Y877600D02*
D03*
Y871000D02*
D03*
X1275425Y830600D02*
D03*
Y824000D02*
D03*
X1354000Y892600D02*
D03*
Y886000D02*
D03*
X1417000Y830600D02*
D03*
Y824000D02*
D03*
X1375000Y830600D02*
D03*
Y824000D02*
D03*
X1359000Y830600D02*
D03*
Y824000D02*
D03*
X1417000Y840000D02*
D03*
Y846600D02*
D03*
X1325425Y830600D02*
D03*
Y824000D02*
D03*
X1283425Y830600D02*
D03*
Y824000D02*
D03*
X1267425Y830600D02*
D03*
Y824000D02*
D03*
X1325425Y840000D02*
D03*
Y846600D02*
D03*
X1301500Y993600D02*
D03*
Y987000D02*
D03*
X1321500Y993600D02*
D03*
Y987000D02*
D03*
X1331500Y993600D02*
D03*
Y987000D02*
D03*
X1311500Y993600D02*
D03*
Y987000D02*
D03*
X1405000Y846600D02*
D03*
Y840000D02*
D03*
Y830600D02*
D03*
Y824000D02*
D03*
X1367000Y830600D02*
D03*
Y824000D02*
D03*
X1313425Y846600D02*
D03*
Y840000D02*
D03*
Y830600D02*
D03*
Y824000D02*
D03*
X1594000Y877600D02*
D03*
Y871000D02*
D03*
X1515425Y830600D02*
D03*
Y824000D02*
D03*
X1594000Y892600D02*
D03*
Y886000D02*
D03*
X1657000Y830600D02*
D03*
Y824000D02*
D03*
X1615000Y830600D02*
D03*
Y824000D02*
D03*
X1599000Y830600D02*
D03*
Y824000D02*
D03*
X1657000Y840000D02*
D03*
Y846600D02*
D03*
X1565425Y830600D02*
D03*
Y824000D02*
D03*
X1523425Y830600D02*
D03*
Y824000D02*
D03*
X1507425Y830600D02*
D03*
Y824000D02*
D03*
X1565425Y840000D02*
D03*
Y846600D02*
D03*
X1541500Y993600D02*
D03*
Y987000D02*
D03*
X1561500Y993600D02*
D03*
Y987000D02*
D03*
X1571500Y993600D02*
D03*
Y987000D02*
D03*
X1551500Y993600D02*
D03*
Y987000D02*
D03*
X1645000Y846600D02*
D03*
Y840000D02*
D03*
Y830600D02*
D03*
Y824000D02*
D03*
X1607000Y830600D02*
D03*
Y824000D02*
D03*
X1553425Y846600D02*
D03*
Y840000D02*
D03*
Y830600D02*
D03*
Y824000D02*
D03*
X1834000Y877600D02*
D03*
Y871000D02*
D03*
X1755425Y830600D02*
D03*
Y824000D02*
D03*
X1834000Y892600D02*
D03*
Y886000D02*
D03*
X1897000Y830600D02*
D03*
Y824000D02*
D03*
X1855000Y830600D02*
D03*
Y824000D02*
D03*
X1839000Y830600D02*
D03*
Y824000D02*
D03*
X1897000Y840000D02*
D03*
Y846600D02*
D03*
X1805425Y830600D02*
D03*
Y824000D02*
D03*
X1763425Y830600D02*
D03*
Y824000D02*
D03*
X1747425Y830600D02*
D03*
Y824000D02*
D03*
X1805425Y840000D02*
D03*
Y846600D02*
D03*
X1781500Y993600D02*
D03*
Y987000D02*
D03*
X1801500Y993600D02*
D03*
Y987000D02*
D03*
X1811500Y993600D02*
D03*
Y987000D02*
D03*
X1791500Y993600D02*
D03*
Y987000D02*
D03*
X1885000Y846600D02*
D03*
Y840000D02*
D03*
Y830600D02*
D03*
Y824000D02*
D03*
X1847000Y830600D02*
D03*
Y824000D02*
D03*
X1793425Y846600D02*
D03*
Y840000D02*
D03*
Y830600D02*
D03*
Y824000D02*
D03*
X2074000Y877600D02*
D03*
Y871000D02*
D03*
X1995425Y830600D02*
D03*
Y824000D02*
D03*
X2074000Y892600D02*
D03*
Y886000D02*
D03*
X2137000Y830600D02*
D03*
Y824000D02*
D03*
X2095000Y830600D02*
D03*
Y824000D02*
D03*
X2079000Y830600D02*
D03*
Y824000D02*
D03*
X2137000Y840000D02*
D03*
Y846600D02*
D03*
X2045425Y830600D02*
D03*
Y824000D02*
D03*
X2003425Y830600D02*
D03*
Y824000D02*
D03*
X1987425Y830600D02*
D03*
Y824000D02*
D03*
X2045425Y840000D02*
D03*
Y846600D02*
D03*
X2021500Y993600D02*
D03*
Y987000D02*
D03*
X2041500Y993600D02*
D03*
Y987000D02*
D03*
X2051500Y993600D02*
D03*
Y987000D02*
D03*
X2031500Y993600D02*
D03*
Y987000D02*
D03*
X2125000Y846600D02*
D03*
Y840000D02*
D03*
Y830600D02*
D03*
Y824000D02*
D03*
X2087000Y830600D02*
D03*
Y824000D02*
D03*
X2033425Y846600D02*
D03*
Y840000D02*
D03*
Y830600D02*
D03*
Y824000D02*
D03*
X2314000Y877600D02*
D03*
Y871000D02*
D03*
X2235425Y830600D02*
D03*
Y824000D02*
D03*
X2314000Y892600D02*
D03*
Y886000D02*
D03*
X2377000Y830600D02*
D03*
Y824000D02*
D03*
X2335000Y830600D02*
D03*
Y824000D02*
D03*
X2319000Y830600D02*
D03*
Y824000D02*
D03*
X2377000Y840000D02*
D03*
Y846600D02*
D03*
X2285425Y830600D02*
D03*
Y824000D02*
D03*
X2243425Y830600D02*
D03*
Y824000D02*
D03*
X2227425Y830600D02*
D03*
Y824000D02*
D03*
X2285425Y840000D02*
D03*
Y846600D02*
D03*
X2261500Y993600D02*
D03*
Y987000D02*
D03*
X2281500Y993600D02*
D03*
Y987000D02*
D03*
X2291500Y993600D02*
D03*
Y987000D02*
D03*
X2271500Y993600D02*
D03*
Y987000D02*
D03*
X2365000Y846600D02*
D03*
Y840000D02*
D03*
Y830600D02*
D03*
Y824000D02*
D03*
X2327000Y830600D02*
D03*
Y824000D02*
D03*
X2273425Y846600D02*
D03*
Y840000D02*
D03*
Y830600D02*
D03*
Y824000D02*
D03*
X154000Y1217600D02*
D03*
Y1211000D02*
D03*
X75425Y1170600D02*
D03*
Y1164000D02*
D03*
X154000Y1232600D02*
D03*
Y1226000D02*
D03*
X217000Y1170600D02*
D03*
Y1164000D02*
D03*
X175000Y1170600D02*
D03*
Y1164000D02*
D03*
X159000Y1170600D02*
D03*
Y1164000D02*
D03*
X217000Y1180000D02*
D03*
Y1186600D02*
D03*
X125425Y1170600D02*
D03*
Y1164000D02*
D03*
X83425Y1170600D02*
D03*
Y1164000D02*
D03*
X67425Y1170600D02*
D03*
Y1164000D02*
D03*
X125425Y1180000D02*
D03*
Y1186600D02*
D03*
X101500Y1333600D02*
D03*
Y1327000D02*
D03*
X121500Y1333600D02*
D03*
Y1327000D02*
D03*
X131500Y1333600D02*
D03*
Y1327000D02*
D03*
X111500Y1333600D02*
D03*
Y1327000D02*
D03*
X205000Y1186600D02*
D03*
Y1180000D02*
D03*
Y1170600D02*
D03*
Y1164000D02*
D03*
X167000Y1170600D02*
D03*
Y1164000D02*
D03*
X113425Y1186600D02*
D03*
Y1180000D02*
D03*
Y1170600D02*
D03*
Y1164000D02*
D03*
X394000Y1217600D02*
D03*
Y1211000D02*
D03*
X315425Y1170600D02*
D03*
Y1164000D02*
D03*
X394000Y1232600D02*
D03*
Y1226000D02*
D03*
X457000Y1170600D02*
D03*
Y1164000D02*
D03*
X415000Y1170600D02*
D03*
Y1164000D02*
D03*
X399000Y1170600D02*
D03*
Y1164000D02*
D03*
X457000Y1180000D02*
D03*
Y1186600D02*
D03*
X365425Y1170600D02*
D03*
Y1164000D02*
D03*
X323425Y1170600D02*
D03*
Y1164000D02*
D03*
X307425Y1170600D02*
D03*
Y1164000D02*
D03*
X365425Y1180000D02*
D03*
Y1186600D02*
D03*
X341500Y1333600D02*
D03*
Y1327000D02*
D03*
X361500Y1333600D02*
D03*
Y1327000D02*
D03*
X371500Y1333600D02*
D03*
Y1327000D02*
D03*
X351500Y1333600D02*
D03*
Y1327000D02*
D03*
X445000Y1186600D02*
D03*
Y1180000D02*
D03*
Y1170600D02*
D03*
Y1164000D02*
D03*
X407000Y1170600D02*
D03*
Y1164000D02*
D03*
X353425Y1186600D02*
D03*
Y1180000D02*
D03*
Y1170600D02*
D03*
Y1164000D02*
D03*
X634000Y1217600D02*
D03*
Y1211000D02*
D03*
X555425Y1170600D02*
D03*
Y1164000D02*
D03*
X634000Y1232600D02*
D03*
Y1226000D02*
D03*
X697000Y1170600D02*
D03*
Y1164000D02*
D03*
X655000Y1170600D02*
D03*
Y1164000D02*
D03*
X639000Y1170600D02*
D03*
Y1164000D02*
D03*
X697000Y1180000D02*
D03*
Y1186600D02*
D03*
X605425Y1170600D02*
D03*
Y1164000D02*
D03*
X563425Y1170600D02*
D03*
Y1164000D02*
D03*
X547425Y1170600D02*
D03*
Y1164000D02*
D03*
X605425Y1180000D02*
D03*
Y1186600D02*
D03*
X581500Y1333600D02*
D03*
Y1327000D02*
D03*
X601500Y1333600D02*
D03*
Y1327000D02*
D03*
X611500Y1333600D02*
D03*
Y1327000D02*
D03*
X591500Y1333600D02*
D03*
Y1327000D02*
D03*
X685000Y1186600D02*
D03*
Y1180000D02*
D03*
Y1170600D02*
D03*
Y1164000D02*
D03*
X647000Y1170600D02*
D03*
Y1164000D02*
D03*
X593425Y1186600D02*
D03*
Y1180000D02*
D03*
Y1170600D02*
D03*
Y1164000D02*
D03*
X874000Y1217600D02*
D03*
Y1211000D02*
D03*
X795425Y1170600D02*
D03*
Y1164000D02*
D03*
X874000Y1232600D02*
D03*
Y1226000D02*
D03*
X937000Y1170600D02*
D03*
Y1164000D02*
D03*
X895000Y1170600D02*
D03*
Y1164000D02*
D03*
X879000Y1170600D02*
D03*
Y1164000D02*
D03*
X937000Y1180000D02*
D03*
Y1186600D02*
D03*
X845425Y1170600D02*
D03*
Y1164000D02*
D03*
X803425Y1170600D02*
D03*
Y1164000D02*
D03*
X787425Y1170600D02*
D03*
Y1164000D02*
D03*
X845425Y1180000D02*
D03*
Y1186600D02*
D03*
X821500Y1333600D02*
D03*
Y1327000D02*
D03*
X841500Y1333600D02*
D03*
Y1327000D02*
D03*
X851500Y1333600D02*
D03*
Y1327000D02*
D03*
X831500Y1333600D02*
D03*
Y1327000D02*
D03*
X925000Y1186600D02*
D03*
Y1180000D02*
D03*
Y1170600D02*
D03*
Y1164000D02*
D03*
X887000Y1170600D02*
D03*
Y1164000D02*
D03*
X833425Y1186600D02*
D03*
Y1180000D02*
D03*
Y1170600D02*
D03*
Y1164000D02*
D03*
X1114000Y1217600D02*
D03*
Y1211000D02*
D03*
X1035425Y1170600D02*
D03*
Y1164000D02*
D03*
X1114000Y1232600D02*
D03*
Y1226000D02*
D03*
X1177000Y1170600D02*
D03*
Y1164000D02*
D03*
X1135000Y1170600D02*
D03*
Y1164000D02*
D03*
X1119000Y1170600D02*
D03*
Y1164000D02*
D03*
X1177000Y1180000D02*
D03*
Y1186600D02*
D03*
X1085425Y1170600D02*
D03*
Y1164000D02*
D03*
X1043425Y1170600D02*
D03*
Y1164000D02*
D03*
X1027425Y1170600D02*
D03*
Y1164000D02*
D03*
X1085425Y1180000D02*
D03*
Y1186600D02*
D03*
X1061500Y1333600D02*
D03*
Y1327000D02*
D03*
X1081500Y1333600D02*
D03*
Y1327000D02*
D03*
X1091500Y1333600D02*
D03*
Y1327000D02*
D03*
X1071500Y1333600D02*
D03*
Y1327000D02*
D03*
X1165000Y1186600D02*
D03*
Y1180000D02*
D03*
Y1170600D02*
D03*
Y1164000D02*
D03*
X1127000Y1170600D02*
D03*
Y1164000D02*
D03*
X1073425Y1186600D02*
D03*
Y1180000D02*
D03*
Y1170600D02*
D03*
Y1164000D02*
D03*
X1354000Y1217600D02*
D03*
Y1211000D02*
D03*
X1275425Y1170600D02*
D03*
Y1164000D02*
D03*
X1354000Y1232600D02*
D03*
Y1226000D02*
D03*
X1417000Y1170600D02*
D03*
Y1164000D02*
D03*
X1375000Y1170600D02*
D03*
Y1164000D02*
D03*
X1359000Y1170600D02*
D03*
Y1164000D02*
D03*
X1417000Y1180000D02*
D03*
Y1186600D02*
D03*
X1325425Y1170600D02*
D03*
Y1164000D02*
D03*
X1283425Y1170600D02*
D03*
Y1164000D02*
D03*
X1267425Y1170600D02*
D03*
Y1164000D02*
D03*
X1325425Y1180000D02*
D03*
Y1186600D02*
D03*
X1301500Y1333600D02*
D03*
Y1327000D02*
D03*
X1321500Y1333600D02*
D03*
Y1327000D02*
D03*
X1331500Y1333600D02*
D03*
Y1327000D02*
D03*
X1311500Y1333600D02*
D03*
Y1327000D02*
D03*
X1405000Y1186600D02*
D03*
Y1180000D02*
D03*
Y1170600D02*
D03*
Y1164000D02*
D03*
X1367000Y1170600D02*
D03*
Y1164000D02*
D03*
X1313425Y1186600D02*
D03*
Y1180000D02*
D03*
Y1170600D02*
D03*
Y1164000D02*
D03*
X1594000Y1217600D02*
D03*
Y1211000D02*
D03*
X1515425Y1170600D02*
D03*
Y1164000D02*
D03*
X1594000Y1232600D02*
D03*
Y1226000D02*
D03*
X1657000Y1170600D02*
D03*
Y1164000D02*
D03*
X1615000Y1170600D02*
D03*
Y1164000D02*
D03*
X1599000Y1170600D02*
D03*
Y1164000D02*
D03*
X1657000Y1180000D02*
D03*
Y1186600D02*
D03*
X1565425Y1170600D02*
D03*
Y1164000D02*
D03*
X1523425Y1170600D02*
D03*
Y1164000D02*
D03*
X1507425Y1170600D02*
D03*
Y1164000D02*
D03*
X1565425Y1180000D02*
D03*
Y1186600D02*
D03*
X1541500Y1333600D02*
D03*
Y1327000D02*
D03*
X1561500Y1333600D02*
D03*
Y1327000D02*
D03*
X1571500Y1333600D02*
D03*
Y1327000D02*
D03*
X1551500Y1333600D02*
D03*
Y1327000D02*
D03*
X1645000Y1186600D02*
D03*
Y1180000D02*
D03*
Y1170600D02*
D03*
Y1164000D02*
D03*
X1607000Y1170600D02*
D03*
Y1164000D02*
D03*
X1553425Y1186600D02*
D03*
Y1180000D02*
D03*
Y1170600D02*
D03*
Y1164000D02*
D03*
X1834000Y1217600D02*
D03*
Y1211000D02*
D03*
X1755425Y1170600D02*
D03*
Y1164000D02*
D03*
X1834000Y1232600D02*
D03*
Y1226000D02*
D03*
X1897000Y1170600D02*
D03*
Y1164000D02*
D03*
X1855000Y1170600D02*
D03*
Y1164000D02*
D03*
X1839000Y1170600D02*
D03*
Y1164000D02*
D03*
X1897000Y1180000D02*
D03*
Y1186600D02*
D03*
X1805425Y1170600D02*
D03*
Y1164000D02*
D03*
X1763425Y1170600D02*
D03*
Y1164000D02*
D03*
X1747425Y1170600D02*
D03*
Y1164000D02*
D03*
X1805425Y1180000D02*
D03*
Y1186600D02*
D03*
X1781500Y1333600D02*
D03*
Y1327000D02*
D03*
X1801500Y1333600D02*
D03*
Y1327000D02*
D03*
X1811500Y1333600D02*
D03*
Y1327000D02*
D03*
X1791500Y1333600D02*
D03*
Y1327000D02*
D03*
X1885000Y1186600D02*
D03*
Y1180000D02*
D03*
Y1170600D02*
D03*
Y1164000D02*
D03*
X1847000Y1170600D02*
D03*
Y1164000D02*
D03*
X1793425Y1186600D02*
D03*
Y1180000D02*
D03*
Y1170600D02*
D03*
Y1164000D02*
D03*
X2074000Y1217600D02*
D03*
Y1211000D02*
D03*
X1995425Y1170600D02*
D03*
Y1164000D02*
D03*
X2074000Y1232600D02*
D03*
Y1226000D02*
D03*
X2137000Y1170600D02*
D03*
Y1164000D02*
D03*
X2095000Y1170600D02*
D03*
Y1164000D02*
D03*
X2079000Y1170600D02*
D03*
Y1164000D02*
D03*
X2137000Y1180000D02*
D03*
Y1186600D02*
D03*
X2045425Y1170600D02*
D03*
Y1164000D02*
D03*
X2003425Y1170600D02*
D03*
Y1164000D02*
D03*
X1987425Y1170600D02*
D03*
Y1164000D02*
D03*
X2045425Y1180000D02*
D03*
Y1186600D02*
D03*
X2021500Y1333600D02*
D03*
Y1327000D02*
D03*
X2041500Y1333600D02*
D03*
Y1327000D02*
D03*
X2051500Y1333600D02*
D03*
Y1327000D02*
D03*
X2031500Y1333600D02*
D03*
Y1327000D02*
D03*
X2125000Y1186600D02*
D03*
Y1180000D02*
D03*
Y1170600D02*
D03*
Y1164000D02*
D03*
X2087000Y1170600D02*
D03*
Y1164000D02*
D03*
X2033425Y1186600D02*
D03*
Y1180000D02*
D03*
Y1170600D02*
D03*
Y1164000D02*
D03*
X2314000Y1217600D02*
D03*
Y1211000D02*
D03*
X2235425Y1170600D02*
D03*
Y1164000D02*
D03*
X2314000Y1232600D02*
D03*
Y1226000D02*
D03*
X2377000Y1170600D02*
D03*
Y1164000D02*
D03*
X2335000Y1170600D02*
D03*
Y1164000D02*
D03*
X2319000Y1170600D02*
D03*
Y1164000D02*
D03*
X2377000Y1180000D02*
D03*
Y1186600D02*
D03*
X2285425Y1170600D02*
D03*
Y1164000D02*
D03*
X2243425Y1170600D02*
D03*
Y1164000D02*
D03*
X2227425Y1170600D02*
D03*
Y1164000D02*
D03*
X2285425Y1180000D02*
D03*
Y1186600D02*
D03*
X2261500Y1333600D02*
D03*
Y1327000D02*
D03*
X2281500Y1333600D02*
D03*
Y1327000D02*
D03*
X2291500Y1333600D02*
D03*
Y1327000D02*
D03*
X2271500Y1333600D02*
D03*
Y1327000D02*
D03*
X2365000Y1186600D02*
D03*
Y1180000D02*
D03*
Y1170600D02*
D03*
Y1164000D02*
D03*
X2327000Y1170600D02*
D03*
Y1164000D02*
D03*
X2273425Y1186600D02*
D03*
Y1180000D02*
D03*
Y1170600D02*
D03*
Y1164000D02*
D03*
X154000Y1557600D02*
D03*
Y1551000D02*
D03*
X75425Y1510600D02*
D03*
Y1504000D02*
D03*
X154000Y1572600D02*
D03*
Y1566000D02*
D03*
X217000Y1510600D02*
D03*
Y1504000D02*
D03*
X175000Y1510600D02*
D03*
Y1504000D02*
D03*
X159000Y1510600D02*
D03*
Y1504000D02*
D03*
X217000Y1520000D02*
D03*
Y1526600D02*
D03*
X125425Y1510600D02*
D03*
Y1504000D02*
D03*
X83425Y1510600D02*
D03*
Y1504000D02*
D03*
X67425Y1510600D02*
D03*
Y1504000D02*
D03*
X125425Y1520000D02*
D03*
Y1526600D02*
D03*
X101500Y1673600D02*
D03*
Y1667000D02*
D03*
X121500Y1673600D02*
D03*
Y1667000D02*
D03*
X131500Y1673600D02*
D03*
Y1667000D02*
D03*
X111500Y1673600D02*
D03*
Y1667000D02*
D03*
X205000Y1526600D02*
D03*
Y1520000D02*
D03*
Y1510600D02*
D03*
Y1504000D02*
D03*
X167000Y1510600D02*
D03*
Y1504000D02*
D03*
X113425Y1526600D02*
D03*
Y1520000D02*
D03*
Y1510600D02*
D03*
Y1504000D02*
D03*
X394000Y1557600D02*
D03*
Y1551000D02*
D03*
X315425Y1510600D02*
D03*
Y1504000D02*
D03*
X394000Y1572600D02*
D03*
Y1566000D02*
D03*
X457000Y1510600D02*
D03*
Y1504000D02*
D03*
X415000Y1510600D02*
D03*
Y1504000D02*
D03*
X399000Y1510600D02*
D03*
Y1504000D02*
D03*
X457000Y1520000D02*
D03*
Y1526600D02*
D03*
X365425Y1510600D02*
D03*
Y1504000D02*
D03*
X323425Y1510600D02*
D03*
Y1504000D02*
D03*
X307425Y1510600D02*
D03*
Y1504000D02*
D03*
X365425Y1520000D02*
D03*
Y1526600D02*
D03*
X341500Y1673600D02*
D03*
Y1667000D02*
D03*
X361500Y1673600D02*
D03*
Y1667000D02*
D03*
X371500Y1673600D02*
D03*
Y1667000D02*
D03*
X351500Y1673600D02*
D03*
Y1667000D02*
D03*
X445000Y1526600D02*
D03*
Y1520000D02*
D03*
Y1510600D02*
D03*
Y1504000D02*
D03*
X407000Y1510600D02*
D03*
Y1504000D02*
D03*
X353425Y1526600D02*
D03*
Y1520000D02*
D03*
Y1510600D02*
D03*
Y1504000D02*
D03*
X634000Y1557600D02*
D03*
Y1551000D02*
D03*
X555425Y1510600D02*
D03*
Y1504000D02*
D03*
X634000Y1572600D02*
D03*
Y1566000D02*
D03*
X697000Y1510600D02*
D03*
Y1504000D02*
D03*
X655000Y1510600D02*
D03*
Y1504000D02*
D03*
X639000Y1510600D02*
D03*
Y1504000D02*
D03*
X697000Y1520000D02*
D03*
Y1526600D02*
D03*
X605425Y1510600D02*
D03*
Y1504000D02*
D03*
X563425Y1510600D02*
D03*
Y1504000D02*
D03*
X547425Y1510600D02*
D03*
Y1504000D02*
D03*
X605425Y1520000D02*
D03*
Y1526600D02*
D03*
X581500Y1673600D02*
D03*
Y1667000D02*
D03*
X601500Y1673600D02*
D03*
Y1667000D02*
D03*
X611500Y1673600D02*
D03*
Y1667000D02*
D03*
X591500Y1673600D02*
D03*
Y1667000D02*
D03*
X685000Y1526600D02*
D03*
Y1520000D02*
D03*
Y1510600D02*
D03*
Y1504000D02*
D03*
X647000Y1510600D02*
D03*
Y1504000D02*
D03*
X593425Y1526600D02*
D03*
Y1520000D02*
D03*
Y1510600D02*
D03*
Y1504000D02*
D03*
X874000Y1557600D02*
D03*
Y1551000D02*
D03*
X795425Y1510600D02*
D03*
Y1504000D02*
D03*
X874000Y1572600D02*
D03*
Y1566000D02*
D03*
X937000Y1510600D02*
D03*
Y1504000D02*
D03*
X895000Y1510600D02*
D03*
Y1504000D02*
D03*
X879000Y1510600D02*
D03*
Y1504000D02*
D03*
X937000Y1520000D02*
D03*
Y1526600D02*
D03*
X845425Y1510600D02*
D03*
Y1504000D02*
D03*
X803425Y1510600D02*
D03*
Y1504000D02*
D03*
X787425Y1510600D02*
D03*
Y1504000D02*
D03*
X845425Y1520000D02*
D03*
Y1526600D02*
D03*
X821500Y1673600D02*
D03*
Y1667000D02*
D03*
X841500Y1673600D02*
D03*
Y1667000D02*
D03*
X851500Y1673600D02*
D03*
Y1667000D02*
D03*
X831500Y1673600D02*
D03*
Y1667000D02*
D03*
X925000Y1526600D02*
D03*
Y1520000D02*
D03*
Y1510600D02*
D03*
Y1504000D02*
D03*
X887000Y1510600D02*
D03*
Y1504000D02*
D03*
X833425Y1526600D02*
D03*
Y1520000D02*
D03*
Y1510600D02*
D03*
Y1504000D02*
D03*
X1114000Y1557600D02*
D03*
Y1551000D02*
D03*
X1035425Y1510600D02*
D03*
Y1504000D02*
D03*
X1114000Y1572600D02*
D03*
Y1566000D02*
D03*
X1177000Y1510600D02*
D03*
Y1504000D02*
D03*
X1135000Y1510600D02*
D03*
Y1504000D02*
D03*
X1119000Y1510600D02*
D03*
Y1504000D02*
D03*
X1177000Y1520000D02*
D03*
Y1526600D02*
D03*
X1085425Y1510600D02*
D03*
Y1504000D02*
D03*
X1043425Y1510600D02*
D03*
Y1504000D02*
D03*
X1027425Y1510600D02*
D03*
Y1504000D02*
D03*
X1085425Y1520000D02*
D03*
Y1526600D02*
D03*
X1061500Y1673600D02*
D03*
Y1667000D02*
D03*
X1081500Y1673600D02*
D03*
Y1667000D02*
D03*
X1091500Y1673600D02*
D03*
Y1667000D02*
D03*
X1071500Y1673600D02*
D03*
Y1667000D02*
D03*
X1165000Y1526600D02*
D03*
Y1520000D02*
D03*
Y1510600D02*
D03*
Y1504000D02*
D03*
X1127000Y1510600D02*
D03*
Y1504000D02*
D03*
X1073425Y1526600D02*
D03*
Y1520000D02*
D03*
Y1510600D02*
D03*
Y1504000D02*
D03*
X1354000Y1557600D02*
D03*
Y1551000D02*
D03*
X1275425Y1510600D02*
D03*
Y1504000D02*
D03*
X1354000Y1572600D02*
D03*
Y1566000D02*
D03*
X1417000Y1510600D02*
D03*
Y1504000D02*
D03*
X1375000Y1510600D02*
D03*
Y1504000D02*
D03*
X1359000Y1510600D02*
D03*
Y1504000D02*
D03*
X1417000Y1520000D02*
D03*
Y1526600D02*
D03*
X1325425Y1510600D02*
D03*
Y1504000D02*
D03*
X1283425Y1510600D02*
D03*
Y1504000D02*
D03*
X1267425Y1510600D02*
D03*
Y1504000D02*
D03*
X1325425Y1520000D02*
D03*
Y1526600D02*
D03*
X1301500Y1673600D02*
D03*
Y1667000D02*
D03*
X1321500Y1673600D02*
D03*
Y1667000D02*
D03*
X1331500Y1673600D02*
D03*
Y1667000D02*
D03*
X1311500Y1673600D02*
D03*
Y1667000D02*
D03*
X1405000Y1526600D02*
D03*
Y1520000D02*
D03*
Y1510600D02*
D03*
Y1504000D02*
D03*
X1367000Y1510600D02*
D03*
Y1504000D02*
D03*
X1313425Y1526600D02*
D03*
Y1520000D02*
D03*
Y1510600D02*
D03*
Y1504000D02*
D03*
X1594000Y1557600D02*
D03*
Y1551000D02*
D03*
X1515425Y1510600D02*
D03*
Y1504000D02*
D03*
X1594000Y1572600D02*
D03*
Y1566000D02*
D03*
X1657000Y1510600D02*
D03*
Y1504000D02*
D03*
X1615000Y1510600D02*
D03*
Y1504000D02*
D03*
X1599000Y1510600D02*
D03*
Y1504000D02*
D03*
X1657000Y1520000D02*
D03*
Y1526600D02*
D03*
X1565425Y1510600D02*
D03*
Y1504000D02*
D03*
X1523425Y1510600D02*
D03*
Y1504000D02*
D03*
X1507425Y1510600D02*
D03*
Y1504000D02*
D03*
X1565425Y1520000D02*
D03*
Y1526600D02*
D03*
X1541500Y1673600D02*
D03*
Y1667000D02*
D03*
X1561500Y1673600D02*
D03*
Y1667000D02*
D03*
X1571500Y1673600D02*
D03*
Y1667000D02*
D03*
X1551500Y1673600D02*
D03*
Y1667000D02*
D03*
X1645000Y1526600D02*
D03*
Y1520000D02*
D03*
Y1510600D02*
D03*
Y1504000D02*
D03*
X1607000Y1510600D02*
D03*
Y1504000D02*
D03*
X1553425Y1526600D02*
D03*
Y1520000D02*
D03*
Y1510600D02*
D03*
Y1504000D02*
D03*
X1834000Y1557600D02*
D03*
Y1551000D02*
D03*
X1755425Y1510600D02*
D03*
Y1504000D02*
D03*
X1834000Y1572600D02*
D03*
Y1566000D02*
D03*
X1897000Y1510600D02*
D03*
Y1504000D02*
D03*
X1855000Y1510600D02*
D03*
Y1504000D02*
D03*
X1839000Y1510600D02*
D03*
Y1504000D02*
D03*
X1897000Y1520000D02*
D03*
Y1526600D02*
D03*
X1805425Y1510600D02*
D03*
Y1504000D02*
D03*
X1763425Y1510600D02*
D03*
Y1504000D02*
D03*
X1747425Y1510600D02*
D03*
Y1504000D02*
D03*
X1805425Y1520000D02*
D03*
Y1526600D02*
D03*
X1781500Y1673600D02*
D03*
Y1667000D02*
D03*
X1801500Y1673600D02*
D03*
Y1667000D02*
D03*
X1811500Y1673600D02*
D03*
Y1667000D02*
D03*
X1791500Y1673600D02*
D03*
Y1667000D02*
D03*
X1885000Y1526600D02*
D03*
Y1520000D02*
D03*
Y1510600D02*
D03*
Y1504000D02*
D03*
X1847000Y1510600D02*
D03*
Y1504000D02*
D03*
X1793425Y1526600D02*
D03*
Y1520000D02*
D03*
Y1510600D02*
D03*
Y1504000D02*
D03*
X2074000Y1557600D02*
D03*
Y1551000D02*
D03*
X1995425Y1510600D02*
D03*
Y1504000D02*
D03*
X2074000Y1572600D02*
D03*
Y1566000D02*
D03*
X2137000Y1510600D02*
D03*
Y1504000D02*
D03*
X2095000Y1510600D02*
D03*
Y1504000D02*
D03*
X2079000Y1510600D02*
D03*
Y1504000D02*
D03*
X2137000Y1520000D02*
D03*
Y1526600D02*
D03*
X2045425Y1510600D02*
D03*
Y1504000D02*
D03*
X2003425Y1510600D02*
D03*
Y1504000D02*
D03*
X1987425Y1510600D02*
D03*
Y1504000D02*
D03*
X2045425Y1520000D02*
D03*
Y1526600D02*
D03*
X2021500Y1673600D02*
D03*
Y1667000D02*
D03*
X2041500Y1673600D02*
D03*
Y1667000D02*
D03*
X2051500Y1673600D02*
D03*
Y1667000D02*
D03*
X2031500Y1673600D02*
D03*
Y1667000D02*
D03*
X2125000Y1526600D02*
D03*
Y1520000D02*
D03*
Y1510600D02*
D03*
Y1504000D02*
D03*
X2087000Y1510600D02*
D03*
Y1504000D02*
D03*
X2033425Y1526600D02*
D03*
Y1520000D02*
D03*
Y1510600D02*
D03*
Y1504000D02*
D03*
X2314000Y1557600D02*
D03*
Y1551000D02*
D03*
X2235425Y1510600D02*
D03*
Y1504000D02*
D03*
X2314000Y1572600D02*
D03*
Y1566000D02*
D03*
X2377000Y1510600D02*
D03*
Y1504000D02*
D03*
X2335000Y1510600D02*
D03*
Y1504000D02*
D03*
X2319000Y1510600D02*
D03*
Y1504000D02*
D03*
X2377000Y1520000D02*
D03*
Y1526600D02*
D03*
X2285425Y1510600D02*
D03*
Y1504000D02*
D03*
X2243425Y1510600D02*
D03*
Y1504000D02*
D03*
X2227425Y1510600D02*
D03*
Y1504000D02*
D03*
X2285425Y1520000D02*
D03*
Y1526600D02*
D03*
X2261500Y1673600D02*
D03*
Y1667000D02*
D03*
X2281500Y1673600D02*
D03*
Y1667000D02*
D03*
X2291500Y1673600D02*
D03*
Y1667000D02*
D03*
X2271500Y1673600D02*
D03*
Y1667000D02*
D03*
X2365000Y1526600D02*
D03*
Y1520000D02*
D03*
Y1510600D02*
D03*
Y1504000D02*
D03*
X2327000Y1510600D02*
D03*
Y1504000D02*
D03*
X2273425Y1526600D02*
D03*
Y1520000D02*
D03*
Y1510600D02*
D03*
Y1504000D02*
D03*
D15*
X54000Y359300D02*
D03*
X71600Y182200D02*
D03*
X169000Y359300D02*
D03*
X294000D02*
D03*
X311600Y182200D02*
D03*
X409000Y359300D02*
D03*
X534000D02*
D03*
X551600Y182200D02*
D03*
X649000Y359300D02*
D03*
X774000D02*
D03*
X791600Y182200D02*
D03*
X889000Y359300D02*
D03*
X1014000D02*
D03*
X1031600Y182200D02*
D03*
X1129000Y359300D02*
D03*
X1254000D02*
D03*
X1271600Y182200D02*
D03*
X1369000Y359300D02*
D03*
X1494000D02*
D03*
X1511600Y182200D02*
D03*
X1609000Y359300D02*
D03*
X1734000D02*
D03*
X1751600Y182200D02*
D03*
X1849000Y359300D02*
D03*
X1974000D02*
D03*
X1991600Y182200D02*
D03*
X2089000Y359300D02*
D03*
X2214000D02*
D03*
X2231600Y182200D02*
D03*
X2329000Y359300D02*
D03*
X54000Y699300D02*
D03*
X71600Y522200D02*
D03*
X169000Y699300D02*
D03*
X294000D02*
D03*
X311600Y522200D02*
D03*
X409000Y699300D02*
D03*
X534000D02*
D03*
X551600Y522200D02*
D03*
X649000Y699300D02*
D03*
X774000D02*
D03*
X791600Y522200D02*
D03*
X889000Y699300D02*
D03*
X1014000D02*
D03*
X1031600Y522200D02*
D03*
X1129000Y699300D02*
D03*
X1254000D02*
D03*
X1271600Y522200D02*
D03*
X1369000Y699300D02*
D03*
X1494000D02*
D03*
X1511600Y522200D02*
D03*
X1609000Y699300D02*
D03*
X1734000D02*
D03*
X1751600Y522200D02*
D03*
X1849000Y699300D02*
D03*
X1974000D02*
D03*
X1991600Y522200D02*
D03*
X2089000Y699300D02*
D03*
X2214000D02*
D03*
X2231600Y522200D02*
D03*
X2329000Y699300D02*
D03*
X54000Y1039300D02*
D03*
X71600Y862200D02*
D03*
X169000Y1039300D02*
D03*
X294000D02*
D03*
X311600Y862200D02*
D03*
X409000Y1039300D02*
D03*
X534000D02*
D03*
X551600Y862200D02*
D03*
X649000Y1039300D02*
D03*
X774000D02*
D03*
X791600Y862200D02*
D03*
X889000Y1039300D02*
D03*
X1014000D02*
D03*
X1031600Y862200D02*
D03*
X1129000Y1039300D02*
D03*
X1254000D02*
D03*
X1271600Y862200D02*
D03*
X1369000Y1039300D02*
D03*
X1494000D02*
D03*
X1511600Y862200D02*
D03*
X1609000Y1039300D02*
D03*
X1734000D02*
D03*
X1751600Y862200D02*
D03*
X1849000Y1039300D02*
D03*
X1974000D02*
D03*
X1991600Y862200D02*
D03*
X2089000Y1039300D02*
D03*
X2214000D02*
D03*
X2231600Y862200D02*
D03*
X2329000Y1039300D02*
D03*
X54000Y1379300D02*
D03*
X71600Y1202200D02*
D03*
X169000Y1379300D02*
D03*
X294000D02*
D03*
X311600Y1202200D02*
D03*
X409000Y1379300D02*
D03*
X534000D02*
D03*
X551600Y1202200D02*
D03*
X649000Y1379300D02*
D03*
X774000D02*
D03*
X791600Y1202200D02*
D03*
X889000Y1379300D02*
D03*
X1014000D02*
D03*
X1031600Y1202200D02*
D03*
X1129000Y1379300D02*
D03*
X1254000D02*
D03*
X1271600Y1202200D02*
D03*
X1369000Y1379300D02*
D03*
X1494000D02*
D03*
X1511600Y1202200D02*
D03*
X1609000Y1379300D02*
D03*
X1734000D02*
D03*
X1751600Y1202200D02*
D03*
X1849000Y1379300D02*
D03*
X1974000D02*
D03*
X1991600Y1202200D02*
D03*
X2089000Y1379300D02*
D03*
X2214000D02*
D03*
X2231600Y1202200D02*
D03*
X2329000Y1379300D02*
D03*
X54000Y1719300D02*
D03*
X71600Y1542200D02*
D03*
X169000Y1719300D02*
D03*
X294000D02*
D03*
X311600Y1542200D02*
D03*
X409000Y1719300D02*
D03*
X534000D02*
D03*
X551600Y1542200D02*
D03*
X649000Y1719300D02*
D03*
X774000D02*
D03*
X791600Y1542200D02*
D03*
X889000Y1719300D02*
D03*
X1014000D02*
D03*
X1031600Y1542200D02*
D03*
X1129000Y1719300D02*
D03*
X1254000D02*
D03*
X1271600Y1542200D02*
D03*
X1369000Y1719300D02*
D03*
X1494000D02*
D03*
X1511600Y1542200D02*
D03*
X1609000Y1719300D02*
D03*
X1734000D02*
D03*
X1751600Y1542200D02*
D03*
X1849000Y1719300D02*
D03*
X1974000D02*
D03*
X1991600Y1542200D02*
D03*
X2089000Y1719300D02*
D03*
X2214000D02*
D03*
X2231600Y1542200D02*
D03*
X2329000Y1719300D02*
D03*
D16*
X202300Y137300D02*
D03*
X195700D02*
D03*
X52393Y143678D02*
D03*
X58993D02*
D03*
X52393Y162968D02*
D03*
X58993D02*
D03*
X202300Y173300D02*
D03*
X195700D02*
D03*
X181700D02*
D03*
X188300D02*
D03*
X181700Y137300D02*
D03*
X188300D02*
D03*
X110725Y137300D02*
D03*
X104125D02*
D03*
X110725Y173300D02*
D03*
X104125D02*
D03*
X90125D02*
D03*
X96725D02*
D03*
X90125Y137300D02*
D03*
X96725D02*
D03*
X52393Y151678D02*
D03*
X58993D02*
D03*
X52393Y170967D02*
D03*
X58993D02*
D03*
X139700Y143300D02*
D03*
X146300D02*
D03*
X442300Y137300D02*
D03*
X435700D02*
D03*
X292393Y143678D02*
D03*
X298993D02*
D03*
X292393Y162968D02*
D03*
X298993D02*
D03*
X442300Y173300D02*
D03*
X435700D02*
D03*
X421700D02*
D03*
X428300D02*
D03*
X421700Y137300D02*
D03*
X428300D02*
D03*
X350725Y137300D02*
D03*
X344125D02*
D03*
X350725Y173300D02*
D03*
X344125D02*
D03*
X330125D02*
D03*
X336725D02*
D03*
X330125Y137300D02*
D03*
X336725D02*
D03*
X292393Y151678D02*
D03*
X298993D02*
D03*
X292393Y170967D02*
D03*
X298993D02*
D03*
X379700Y143300D02*
D03*
X386300D02*
D03*
X682300Y137300D02*
D03*
X675700D02*
D03*
X532393Y143678D02*
D03*
X538993D02*
D03*
X532393Y162968D02*
D03*
X538993D02*
D03*
X682300Y173300D02*
D03*
X675700D02*
D03*
X661700D02*
D03*
X668300D02*
D03*
X661700Y137300D02*
D03*
X668300D02*
D03*
X590725Y137300D02*
D03*
X584125D02*
D03*
X590725Y173300D02*
D03*
X584125D02*
D03*
X570125D02*
D03*
X576725D02*
D03*
X570125Y137300D02*
D03*
X576725D02*
D03*
X532393Y151678D02*
D03*
X538993D02*
D03*
X532393Y170967D02*
D03*
X538993D02*
D03*
X619700Y143300D02*
D03*
X626300D02*
D03*
X922300Y137300D02*
D03*
X915700D02*
D03*
X772393Y143678D02*
D03*
X778993D02*
D03*
X772393Y162968D02*
D03*
X778993D02*
D03*
X922300Y173300D02*
D03*
X915700D02*
D03*
X901700D02*
D03*
X908300D02*
D03*
X901700Y137300D02*
D03*
X908300D02*
D03*
X830725Y137300D02*
D03*
X824125D02*
D03*
X830725Y173300D02*
D03*
X824125D02*
D03*
X810125D02*
D03*
X816725D02*
D03*
X810125Y137300D02*
D03*
X816725D02*
D03*
X772393Y151678D02*
D03*
X778993D02*
D03*
X772393Y170967D02*
D03*
X778993D02*
D03*
X859700Y143300D02*
D03*
X866300D02*
D03*
X1162300Y137300D02*
D03*
X1155700D02*
D03*
X1012393Y143678D02*
D03*
X1018993D02*
D03*
X1012393Y162968D02*
D03*
X1018993D02*
D03*
X1162300Y173300D02*
D03*
X1155700D02*
D03*
X1141700D02*
D03*
X1148300D02*
D03*
X1141700Y137300D02*
D03*
X1148300D02*
D03*
X1070725Y137300D02*
D03*
X1064125D02*
D03*
X1070725Y173300D02*
D03*
X1064125D02*
D03*
X1050125D02*
D03*
X1056725D02*
D03*
X1050125Y137300D02*
D03*
X1056725D02*
D03*
X1012393Y151678D02*
D03*
X1018993D02*
D03*
X1012393Y170967D02*
D03*
X1018993D02*
D03*
X1099700Y143300D02*
D03*
X1106300D02*
D03*
X1402300Y137300D02*
D03*
X1395700D02*
D03*
X1252393Y143678D02*
D03*
X1258993D02*
D03*
X1252393Y162968D02*
D03*
X1258993D02*
D03*
X1402300Y173300D02*
D03*
X1395700D02*
D03*
X1381700D02*
D03*
X1388300D02*
D03*
X1381700Y137300D02*
D03*
X1388300D02*
D03*
X1310725Y137300D02*
D03*
X1304125D02*
D03*
X1310725Y173300D02*
D03*
X1304125D02*
D03*
X1290125D02*
D03*
X1296725D02*
D03*
X1290125Y137300D02*
D03*
X1296725D02*
D03*
X1252393Y151678D02*
D03*
X1258993D02*
D03*
X1252393Y170967D02*
D03*
X1258993D02*
D03*
X1339700Y143300D02*
D03*
X1346300D02*
D03*
X1642300Y137300D02*
D03*
X1635700D02*
D03*
X1492393Y143678D02*
D03*
X1498993D02*
D03*
X1492393Y162968D02*
D03*
X1498993D02*
D03*
X1642300Y173300D02*
D03*
X1635700D02*
D03*
X1621700D02*
D03*
X1628300D02*
D03*
X1621700Y137300D02*
D03*
X1628300D02*
D03*
X1550725Y137300D02*
D03*
X1544125D02*
D03*
X1550725Y173300D02*
D03*
X1544125D02*
D03*
X1530125D02*
D03*
X1536725D02*
D03*
X1530125Y137300D02*
D03*
X1536725D02*
D03*
X1492393Y151678D02*
D03*
X1498993D02*
D03*
X1492393Y170967D02*
D03*
X1498993D02*
D03*
X1579700Y143300D02*
D03*
X1586300D02*
D03*
X1882300Y137300D02*
D03*
X1875700D02*
D03*
X1732393Y143678D02*
D03*
X1738993D02*
D03*
X1732393Y162968D02*
D03*
X1738993D02*
D03*
X1882300Y173300D02*
D03*
X1875700D02*
D03*
X1861700D02*
D03*
X1868300D02*
D03*
X1861700Y137300D02*
D03*
X1868300D02*
D03*
X1790725Y137300D02*
D03*
X1784125D02*
D03*
X1790725Y173300D02*
D03*
X1784125D02*
D03*
X1770125D02*
D03*
X1776725D02*
D03*
X1770125Y137300D02*
D03*
X1776725D02*
D03*
X1732393Y151678D02*
D03*
X1738993D02*
D03*
X1732393Y170967D02*
D03*
X1738993D02*
D03*
X1819700Y143300D02*
D03*
X1826300D02*
D03*
X2122300Y137300D02*
D03*
X2115700D02*
D03*
X1972393Y143678D02*
D03*
X1978993D02*
D03*
X1972393Y162968D02*
D03*
X1978993D02*
D03*
X2122300Y173300D02*
D03*
X2115700D02*
D03*
X2101700D02*
D03*
X2108300D02*
D03*
X2101700Y137300D02*
D03*
X2108300D02*
D03*
X2030725Y137300D02*
D03*
X2024125D02*
D03*
X2030725Y173300D02*
D03*
X2024125D02*
D03*
X2010125D02*
D03*
X2016725D02*
D03*
X2010125Y137300D02*
D03*
X2016725D02*
D03*
X1972393Y151678D02*
D03*
X1978993D02*
D03*
X1972393Y170967D02*
D03*
X1978993D02*
D03*
X2059700Y143300D02*
D03*
X2066300D02*
D03*
X2362300Y137300D02*
D03*
X2355700D02*
D03*
X2212393Y143678D02*
D03*
X2218993D02*
D03*
X2212393Y162968D02*
D03*
X2218993D02*
D03*
X2362300Y173300D02*
D03*
X2355700D02*
D03*
X2341700D02*
D03*
X2348300D02*
D03*
X2341700Y137300D02*
D03*
X2348300D02*
D03*
X2270725Y137300D02*
D03*
X2264125D02*
D03*
X2270725Y173300D02*
D03*
X2264125D02*
D03*
X2250125D02*
D03*
X2256725D02*
D03*
X2250125Y137300D02*
D03*
X2256725D02*
D03*
X2212393Y151678D02*
D03*
X2218993D02*
D03*
X2212393Y170967D02*
D03*
X2218993D02*
D03*
X2299700Y143300D02*
D03*
X2306300D02*
D03*
X202300Y477300D02*
D03*
X195700D02*
D03*
X52393Y483678D02*
D03*
X58993D02*
D03*
X52393Y502968D02*
D03*
X58993D02*
D03*
X202300Y513300D02*
D03*
X195700D02*
D03*
X181700D02*
D03*
X188300D02*
D03*
X181700Y477300D02*
D03*
X188300D02*
D03*
X110725Y477300D02*
D03*
X104125D02*
D03*
X110725Y513300D02*
D03*
X104125D02*
D03*
X90125D02*
D03*
X96725D02*
D03*
X90125Y477300D02*
D03*
X96725D02*
D03*
X52393Y491678D02*
D03*
X58993D02*
D03*
X52393Y510967D02*
D03*
X58993D02*
D03*
X139700Y483300D02*
D03*
X146300D02*
D03*
X442300Y477300D02*
D03*
X435700D02*
D03*
X292393Y483678D02*
D03*
X298993D02*
D03*
X292393Y502968D02*
D03*
X298993D02*
D03*
X442300Y513300D02*
D03*
X435700D02*
D03*
X421700D02*
D03*
X428300D02*
D03*
X421700Y477300D02*
D03*
X428300D02*
D03*
X350725Y477300D02*
D03*
X344125D02*
D03*
X350725Y513300D02*
D03*
X344125D02*
D03*
X330125D02*
D03*
X336725D02*
D03*
X330125Y477300D02*
D03*
X336725D02*
D03*
X292393Y491678D02*
D03*
X298993D02*
D03*
X292393Y510967D02*
D03*
X298993D02*
D03*
X379700Y483300D02*
D03*
X386300D02*
D03*
X682300Y477300D02*
D03*
X675700D02*
D03*
X532393Y483678D02*
D03*
X538993D02*
D03*
X532393Y502968D02*
D03*
X538993D02*
D03*
X682300Y513300D02*
D03*
X675700D02*
D03*
X661700D02*
D03*
X668300D02*
D03*
X661700Y477300D02*
D03*
X668300D02*
D03*
X590725Y477300D02*
D03*
X584125D02*
D03*
X590725Y513300D02*
D03*
X584125D02*
D03*
X570125D02*
D03*
X576725D02*
D03*
X570125Y477300D02*
D03*
X576725D02*
D03*
X532393Y491678D02*
D03*
X538993D02*
D03*
X532393Y510967D02*
D03*
X538993D02*
D03*
X619700Y483300D02*
D03*
X626300D02*
D03*
X922300Y477300D02*
D03*
X915700D02*
D03*
X772393Y483678D02*
D03*
X778993D02*
D03*
X772393Y502968D02*
D03*
X778993D02*
D03*
X922300Y513300D02*
D03*
X915700D02*
D03*
X901700D02*
D03*
X908300D02*
D03*
X901700Y477300D02*
D03*
X908300D02*
D03*
X830725Y477300D02*
D03*
X824125D02*
D03*
X830725Y513300D02*
D03*
X824125D02*
D03*
X810125D02*
D03*
X816725D02*
D03*
X810125Y477300D02*
D03*
X816725D02*
D03*
X772393Y491678D02*
D03*
X778993D02*
D03*
X772393Y510967D02*
D03*
X778993D02*
D03*
X859700Y483300D02*
D03*
X866300D02*
D03*
X1162300Y477300D02*
D03*
X1155700D02*
D03*
X1012393Y483678D02*
D03*
X1018993D02*
D03*
X1012393Y502968D02*
D03*
X1018993D02*
D03*
X1162300Y513300D02*
D03*
X1155700D02*
D03*
X1141700D02*
D03*
X1148300D02*
D03*
X1141700Y477300D02*
D03*
X1148300D02*
D03*
X1070725Y477300D02*
D03*
X1064125D02*
D03*
X1070725Y513300D02*
D03*
X1064125D02*
D03*
X1050125D02*
D03*
X1056725D02*
D03*
X1050125Y477300D02*
D03*
X1056725D02*
D03*
X1012393Y491678D02*
D03*
X1018993D02*
D03*
X1012393Y510967D02*
D03*
X1018993D02*
D03*
X1099700Y483300D02*
D03*
X1106300D02*
D03*
X1402300Y477300D02*
D03*
X1395700D02*
D03*
X1252393Y483678D02*
D03*
X1258993D02*
D03*
X1252393Y502968D02*
D03*
X1258993D02*
D03*
X1402300Y513300D02*
D03*
X1395700D02*
D03*
X1381700D02*
D03*
X1388300D02*
D03*
X1381700Y477300D02*
D03*
X1388300D02*
D03*
X1310725Y477300D02*
D03*
X1304125D02*
D03*
X1310725Y513300D02*
D03*
X1304125D02*
D03*
X1290125D02*
D03*
X1296725D02*
D03*
X1290125Y477300D02*
D03*
X1296725D02*
D03*
X1252393Y491678D02*
D03*
X1258993D02*
D03*
X1252393Y510967D02*
D03*
X1258993D02*
D03*
X1339700Y483300D02*
D03*
X1346300D02*
D03*
X1642300Y477300D02*
D03*
X1635700D02*
D03*
X1492393Y483678D02*
D03*
X1498993D02*
D03*
X1492393Y502968D02*
D03*
X1498993D02*
D03*
X1642300Y513300D02*
D03*
X1635700D02*
D03*
X1621700D02*
D03*
X1628300D02*
D03*
X1621700Y477300D02*
D03*
X1628300D02*
D03*
X1550725Y477300D02*
D03*
X1544125D02*
D03*
X1550725Y513300D02*
D03*
X1544125D02*
D03*
X1530125D02*
D03*
X1536725D02*
D03*
X1530125Y477300D02*
D03*
X1536725D02*
D03*
X1492393Y491678D02*
D03*
X1498993D02*
D03*
X1492393Y510967D02*
D03*
X1498993D02*
D03*
X1579700Y483300D02*
D03*
X1586300D02*
D03*
X1882300Y477300D02*
D03*
X1875700D02*
D03*
X1732393Y483678D02*
D03*
X1738993D02*
D03*
X1732393Y502968D02*
D03*
X1738993D02*
D03*
X1882300Y513300D02*
D03*
X1875700D02*
D03*
X1861700D02*
D03*
X1868300D02*
D03*
X1861700Y477300D02*
D03*
X1868300D02*
D03*
X1790725Y477300D02*
D03*
X1784125D02*
D03*
X1790725Y513300D02*
D03*
X1784125D02*
D03*
X1770125D02*
D03*
X1776725D02*
D03*
X1770125Y477300D02*
D03*
X1776725D02*
D03*
X1732393Y491678D02*
D03*
X1738993D02*
D03*
X1732393Y510967D02*
D03*
X1738993D02*
D03*
X1819700Y483300D02*
D03*
X1826300D02*
D03*
X2122300Y477300D02*
D03*
X2115700D02*
D03*
X1972393Y483678D02*
D03*
X1978993D02*
D03*
X1972393Y502968D02*
D03*
X1978993D02*
D03*
X2122300Y513300D02*
D03*
X2115700D02*
D03*
X2101700D02*
D03*
X2108300D02*
D03*
X2101700Y477300D02*
D03*
X2108300D02*
D03*
X2030725Y477300D02*
D03*
X2024125D02*
D03*
X2030725Y513300D02*
D03*
X2024125D02*
D03*
X2010125D02*
D03*
X2016725D02*
D03*
X2010125Y477300D02*
D03*
X2016725D02*
D03*
X1972393Y491678D02*
D03*
X1978993D02*
D03*
X1972393Y510967D02*
D03*
X1978993D02*
D03*
X2059700Y483300D02*
D03*
X2066300D02*
D03*
X2362300Y477300D02*
D03*
X2355700D02*
D03*
X2212393Y483678D02*
D03*
X2218993D02*
D03*
X2212393Y502968D02*
D03*
X2218993D02*
D03*
X2362300Y513300D02*
D03*
X2355700D02*
D03*
X2341700D02*
D03*
X2348300D02*
D03*
X2341700Y477300D02*
D03*
X2348300D02*
D03*
X2270725Y477300D02*
D03*
X2264125D02*
D03*
X2270725Y513300D02*
D03*
X2264125D02*
D03*
X2250125D02*
D03*
X2256725D02*
D03*
X2250125Y477300D02*
D03*
X2256725D02*
D03*
X2212393Y491678D02*
D03*
X2218993D02*
D03*
X2212393Y510967D02*
D03*
X2218993D02*
D03*
X2299700Y483300D02*
D03*
X2306300D02*
D03*
X202300Y817300D02*
D03*
X195700D02*
D03*
X52393Y823678D02*
D03*
X58993D02*
D03*
X52393Y842968D02*
D03*
X58993D02*
D03*
X202300Y853300D02*
D03*
X195700D02*
D03*
X181700D02*
D03*
X188300D02*
D03*
X181700Y817300D02*
D03*
X188300D02*
D03*
X110725Y817300D02*
D03*
X104125D02*
D03*
X110725Y853300D02*
D03*
X104125D02*
D03*
X90125D02*
D03*
X96725D02*
D03*
X90125Y817300D02*
D03*
X96725D02*
D03*
X52393Y831678D02*
D03*
X58993D02*
D03*
X52393Y850968D02*
D03*
X58993D02*
D03*
X139700Y823300D02*
D03*
X146300D02*
D03*
X442300Y817300D02*
D03*
X435700D02*
D03*
X292393Y823678D02*
D03*
X298993D02*
D03*
X292393Y842968D02*
D03*
X298993D02*
D03*
X442300Y853300D02*
D03*
X435700D02*
D03*
X421700D02*
D03*
X428300D02*
D03*
X421700Y817300D02*
D03*
X428300D02*
D03*
X350725Y817300D02*
D03*
X344125D02*
D03*
X350725Y853300D02*
D03*
X344125D02*
D03*
X330125D02*
D03*
X336725D02*
D03*
X330125Y817300D02*
D03*
X336725D02*
D03*
X292393Y831678D02*
D03*
X298993D02*
D03*
X292393Y850968D02*
D03*
X298993D02*
D03*
X379700Y823300D02*
D03*
X386300D02*
D03*
X682300Y817300D02*
D03*
X675700D02*
D03*
X532393Y823678D02*
D03*
X538993D02*
D03*
X532393Y842968D02*
D03*
X538993D02*
D03*
X682300Y853300D02*
D03*
X675700D02*
D03*
X661700D02*
D03*
X668300D02*
D03*
X661700Y817300D02*
D03*
X668300D02*
D03*
X590725Y817300D02*
D03*
X584125D02*
D03*
X590725Y853300D02*
D03*
X584125D02*
D03*
X570125D02*
D03*
X576725D02*
D03*
X570125Y817300D02*
D03*
X576725D02*
D03*
X532393Y831678D02*
D03*
X538993D02*
D03*
X532393Y850968D02*
D03*
X538993D02*
D03*
X619700Y823300D02*
D03*
X626300D02*
D03*
X922300Y817300D02*
D03*
X915700D02*
D03*
X772393Y823678D02*
D03*
X778993D02*
D03*
X772393Y842968D02*
D03*
X778993D02*
D03*
X922300Y853300D02*
D03*
X915700D02*
D03*
X901700D02*
D03*
X908300D02*
D03*
X901700Y817300D02*
D03*
X908300D02*
D03*
X830725Y817300D02*
D03*
X824125D02*
D03*
X830725Y853300D02*
D03*
X824125D02*
D03*
X810125D02*
D03*
X816725D02*
D03*
X810125Y817300D02*
D03*
X816725D02*
D03*
X772393Y831678D02*
D03*
X778993D02*
D03*
X772393Y850968D02*
D03*
X778993D02*
D03*
X859700Y823300D02*
D03*
X866300D02*
D03*
X1162300Y817300D02*
D03*
X1155700D02*
D03*
X1012393Y823678D02*
D03*
X1018993D02*
D03*
X1012393Y842968D02*
D03*
X1018993D02*
D03*
X1162300Y853300D02*
D03*
X1155700D02*
D03*
X1141700D02*
D03*
X1148300D02*
D03*
X1141700Y817300D02*
D03*
X1148300D02*
D03*
X1070725Y817300D02*
D03*
X1064125D02*
D03*
X1070725Y853300D02*
D03*
X1064125D02*
D03*
X1050125D02*
D03*
X1056725D02*
D03*
X1050125Y817300D02*
D03*
X1056725D02*
D03*
X1012393Y831678D02*
D03*
X1018993D02*
D03*
X1012393Y850968D02*
D03*
X1018993D02*
D03*
X1099700Y823300D02*
D03*
X1106300D02*
D03*
X1402300Y817300D02*
D03*
X1395700D02*
D03*
X1252393Y823678D02*
D03*
X1258993D02*
D03*
X1252393Y842968D02*
D03*
X1258993D02*
D03*
X1402300Y853300D02*
D03*
X1395700D02*
D03*
X1381700D02*
D03*
X1388300D02*
D03*
X1381700Y817300D02*
D03*
X1388300D02*
D03*
X1310725Y817300D02*
D03*
X1304125D02*
D03*
X1310725Y853300D02*
D03*
X1304125D02*
D03*
X1290125D02*
D03*
X1296725D02*
D03*
X1290125Y817300D02*
D03*
X1296725D02*
D03*
X1252393Y831678D02*
D03*
X1258993D02*
D03*
X1252393Y850968D02*
D03*
X1258993D02*
D03*
X1339700Y823300D02*
D03*
X1346300D02*
D03*
X1642300Y817300D02*
D03*
X1635700D02*
D03*
X1492393Y823678D02*
D03*
X1498993D02*
D03*
X1492393Y842968D02*
D03*
X1498993D02*
D03*
X1642300Y853300D02*
D03*
X1635700D02*
D03*
X1621700D02*
D03*
X1628300D02*
D03*
X1621700Y817300D02*
D03*
X1628300D02*
D03*
X1550725Y817300D02*
D03*
X1544125D02*
D03*
X1550725Y853300D02*
D03*
X1544125D02*
D03*
X1530125D02*
D03*
X1536725D02*
D03*
X1530125Y817300D02*
D03*
X1536725D02*
D03*
X1492393Y831678D02*
D03*
X1498993D02*
D03*
X1492393Y850968D02*
D03*
X1498993D02*
D03*
X1579700Y823300D02*
D03*
X1586300D02*
D03*
X1882300Y817300D02*
D03*
X1875700D02*
D03*
X1732393Y823678D02*
D03*
X1738993D02*
D03*
X1732393Y842968D02*
D03*
X1738993D02*
D03*
X1882300Y853300D02*
D03*
X1875700D02*
D03*
X1861700D02*
D03*
X1868300D02*
D03*
X1861700Y817300D02*
D03*
X1868300D02*
D03*
X1790725Y817300D02*
D03*
X1784125D02*
D03*
X1790725Y853300D02*
D03*
X1784125D02*
D03*
X1770125D02*
D03*
X1776725D02*
D03*
X1770125Y817300D02*
D03*
X1776725D02*
D03*
X1732393Y831678D02*
D03*
X1738993D02*
D03*
X1732393Y850968D02*
D03*
X1738993D02*
D03*
X1819700Y823300D02*
D03*
X1826300D02*
D03*
X2122300Y817300D02*
D03*
X2115700D02*
D03*
X1972393Y823678D02*
D03*
X1978993D02*
D03*
X1972393Y842968D02*
D03*
X1978993D02*
D03*
X2122300Y853300D02*
D03*
X2115700D02*
D03*
X2101700D02*
D03*
X2108300D02*
D03*
X2101700Y817300D02*
D03*
X2108300D02*
D03*
X2030725Y817300D02*
D03*
X2024125D02*
D03*
X2030725Y853300D02*
D03*
X2024125D02*
D03*
X2010125D02*
D03*
X2016725D02*
D03*
X2010125Y817300D02*
D03*
X2016725D02*
D03*
X1972393Y831678D02*
D03*
X1978993D02*
D03*
X1972393Y850968D02*
D03*
X1978993D02*
D03*
X2059700Y823300D02*
D03*
X2066300D02*
D03*
X2362300Y817300D02*
D03*
X2355700D02*
D03*
X2212393Y823678D02*
D03*
X2218993D02*
D03*
X2212393Y842968D02*
D03*
X2218993D02*
D03*
X2362300Y853300D02*
D03*
X2355700D02*
D03*
X2341700D02*
D03*
X2348300D02*
D03*
X2341700Y817300D02*
D03*
X2348300D02*
D03*
X2270725Y817300D02*
D03*
X2264125D02*
D03*
X2270725Y853300D02*
D03*
X2264125D02*
D03*
X2250125D02*
D03*
X2256725D02*
D03*
X2250125Y817300D02*
D03*
X2256725D02*
D03*
X2212393Y831678D02*
D03*
X2218993D02*
D03*
X2212393Y850968D02*
D03*
X2218993D02*
D03*
X2299700Y823300D02*
D03*
X2306300D02*
D03*
X202300Y1157300D02*
D03*
X195700D02*
D03*
X52393Y1163678D02*
D03*
X58993D02*
D03*
X52393Y1182967D02*
D03*
X58993D02*
D03*
X202300Y1193300D02*
D03*
X195700D02*
D03*
X181700D02*
D03*
X188300D02*
D03*
X181700Y1157300D02*
D03*
X188300D02*
D03*
X110725Y1157300D02*
D03*
X104125D02*
D03*
X110725Y1193300D02*
D03*
X104125D02*
D03*
X90125D02*
D03*
X96725D02*
D03*
X90125Y1157300D02*
D03*
X96725D02*
D03*
X52393Y1171678D02*
D03*
X58993D02*
D03*
X52393Y1190967D02*
D03*
X58993D02*
D03*
X139700Y1163300D02*
D03*
X146300D02*
D03*
X442300Y1157300D02*
D03*
X435700D02*
D03*
X292393Y1163678D02*
D03*
X298993D02*
D03*
X292393Y1182967D02*
D03*
X298993D02*
D03*
X442300Y1193300D02*
D03*
X435700D02*
D03*
X421700D02*
D03*
X428300D02*
D03*
X421700Y1157300D02*
D03*
X428300D02*
D03*
X350725Y1157300D02*
D03*
X344125D02*
D03*
X350725Y1193300D02*
D03*
X344125D02*
D03*
X330125D02*
D03*
X336725D02*
D03*
X330125Y1157300D02*
D03*
X336725D02*
D03*
X292393Y1171678D02*
D03*
X298993D02*
D03*
X292393Y1190967D02*
D03*
X298993D02*
D03*
X379700Y1163300D02*
D03*
X386300D02*
D03*
X682300Y1157300D02*
D03*
X675700D02*
D03*
X532393Y1163678D02*
D03*
X538993D02*
D03*
X532393Y1182967D02*
D03*
X538993D02*
D03*
X682300Y1193300D02*
D03*
X675700D02*
D03*
X661700D02*
D03*
X668300D02*
D03*
X661700Y1157300D02*
D03*
X668300D02*
D03*
X590725Y1157300D02*
D03*
X584125D02*
D03*
X590725Y1193300D02*
D03*
X584125D02*
D03*
X570125D02*
D03*
X576725D02*
D03*
X570125Y1157300D02*
D03*
X576725D02*
D03*
X532393Y1171678D02*
D03*
X538993D02*
D03*
X532393Y1190967D02*
D03*
X538993D02*
D03*
X619700Y1163300D02*
D03*
X626300D02*
D03*
X922300Y1157300D02*
D03*
X915700D02*
D03*
X772393Y1163678D02*
D03*
X778993D02*
D03*
X772393Y1182967D02*
D03*
X778993D02*
D03*
X922300Y1193300D02*
D03*
X915700D02*
D03*
X901700D02*
D03*
X908300D02*
D03*
X901700Y1157300D02*
D03*
X908300D02*
D03*
X830725Y1157300D02*
D03*
X824125D02*
D03*
X830725Y1193300D02*
D03*
X824125D02*
D03*
X810125D02*
D03*
X816725D02*
D03*
X810125Y1157300D02*
D03*
X816725D02*
D03*
X772393Y1171678D02*
D03*
X778993D02*
D03*
X772393Y1190967D02*
D03*
X778993D02*
D03*
X859700Y1163300D02*
D03*
X866300D02*
D03*
X1162300Y1157300D02*
D03*
X1155700D02*
D03*
X1012393Y1163678D02*
D03*
X1018993D02*
D03*
X1012393Y1182967D02*
D03*
X1018993D02*
D03*
X1162300Y1193300D02*
D03*
X1155700D02*
D03*
X1141700D02*
D03*
X1148300D02*
D03*
X1141700Y1157300D02*
D03*
X1148300D02*
D03*
X1070725Y1157300D02*
D03*
X1064125D02*
D03*
X1070725Y1193300D02*
D03*
X1064125D02*
D03*
X1050125D02*
D03*
X1056725D02*
D03*
X1050125Y1157300D02*
D03*
X1056725D02*
D03*
X1012393Y1171678D02*
D03*
X1018993D02*
D03*
X1012393Y1190967D02*
D03*
X1018993D02*
D03*
X1099700Y1163300D02*
D03*
X1106300D02*
D03*
X1402300Y1157300D02*
D03*
X1395700D02*
D03*
X1252393Y1163678D02*
D03*
X1258993D02*
D03*
X1252393Y1182967D02*
D03*
X1258993D02*
D03*
X1402300Y1193300D02*
D03*
X1395700D02*
D03*
X1381700D02*
D03*
X1388300D02*
D03*
X1381700Y1157300D02*
D03*
X1388300D02*
D03*
X1310725Y1157300D02*
D03*
X1304125D02*
D03*
X1310725Y1193300D02*
D03*
X1304125D02*
D03*
X1290125D02*
D03*
X1296725D02*
D03*
X1290125Y1157300D02*
D03*
X1296725D02*
D03*
X1252393Y1171678D02*
D03*
X1258993D02*
D03*
X1252393Y1190967D02*
D03*
X1258993D02*
D03*
X1339700Y1163300D02*
D03*
X1346300D02*
D03*
X1642300Y1157300D02*
D03*
X1635700D02*
D03*
X1492393Y1163678D02*
D03*
X1498993D02*
D03*
X1492393Y1182967D02*
D03*
X1498993D02*
D03*
X1642300Y1193300D02*
D03*
X1635700D02*
D03*
X1621700D02*
D03*
X1628300D02*
D03*
X1621700Y1157300D02*
D03*
X1628300D02*
D03*
X1550725Y1157300D02*
D03*
X1544125D02*
D03*
X1550725Y1193300D02*
D03*
X1544125D02*
D03*
X1530125D02*
D03*
X1536725D02*
D03*
X1530125Y1157300D02*
D03*
X1536725D02*
D03*
X1492393Y1171678D02*
D03*
X1498993D02*
D03*
X1492393Y1190967D02*
D03*
X1498993D02*
D03*
X1579700Y1163300D02*
D03*
X1586300D02*
D03*
X1882300Y1157300D02*
D03*
X1875700D02*
D03*
X1732393Y1163678D02*
D03*
X1738993D02*
D03*
X1732393Y1182967D02*
D03*
X1738993D02*
D03*
X1882300Y1193300D02*
D03*
X1875700D02*
D03*
X1861700D02*
D03*
X1868300D02*
D03*
X1861700Y1157300D02*
D03*
X1868300D02*
D03*
X1790725Y1157300D02*
D03*
X1784125D02*
D03*
X1790725Y1193300D02*
D03*
X1784125D02*
D03*
X1770125D02*
D03*
X1776725D02*
D03*
X1770125Y1157300D02*
D03*
X1776725D02*
D03*
X1732393Y1171678D02*
D03*
X1738993D02*
D03*
X1732393Y1190967D02*
D03*
X1738993D02*
D03*
X1819700Y1163300D02*
D03*
X1826300D02*
D03*
X2122300Y1157300D02*
D03*
X2115700D02*
D03*
X1972393Y1163678D02*
D03*
X1978993D02*
D03*
X1972393Y1182967D02*
D03*
X1978993D02*
D03*
X2122300Y1193300D02*
D03*
X2115700D02*
D03*
X2101700D02*
D03*
X2108300D02*
D03*
X2101700Y1157300D02*
D03*
X2108300D02*
D03*
X2030725Y1157300D02*
D03*
X2024125D02*
D03*
X2030725Y1193300D02*
D03*
X2024125D02*
D03*
X2010125D02*
D03*
X2016725D02*
D03*
X2010125Y1157300D02*
D03*
X2016725D02*
D03*
X1972393Y1171678D02*
D03*
X1978993D02*
D03*
X1972393Y1190967D02*
D03*
X1978993D02*
D03*
X2059700Y1163300D02*
D03*
X2066300D02*
D03*
X2362300Y1157300D02*
D03*
X2355700D02*
D03*
X2212393Y1163678D02*
D03*
X2218993D02*
D03*
X2212393Y1182967D02*
D03*
X2218993D02*
D03*
X2362300Y1193300D02*
D03*
X2355700D02*
D03*
X2341700D02*
D03*
X2348300D02*
D03*
X2341700Y1157300D02*
D03*
X2348300D02*
D03*
X2270725Y1157300D02*
D03*
X2264125D02*
D03*
X2270725Y1193300D02*
D03*
X2264125D02*
D03*
X2250125D02*
D03*
X2256725D02*
D03*
X2250125Y1157300D02*
D03*
X2256725D02*
D03*
X2212393Y1171678D02*
D03*
X2218993D02*
D03*
X2212393Y1190967D02*
D03*
X2218993D02*
D03*
X2299700Y1163300D02*
D03*
X2306300D02*
D03*
X202300Y1497300D02*
D03*
X195700D02*
D03*
X52393Y1503678D02*
D03*
X58993D02*
D03*
X52393Y1522968D02*
D03*
X58993D02*
D03*
X202300Y1533300D02*
D03*
X195700D02*
D03*
X181700D02*
D03*
X188300D02*
D03*
X181700Y1497300D02*
D03*
X188300D02*
D03*
X110725Y1497300D02*
D03*
X104125D02*
D03*
X110725Y1533300D02*
D03*
X104125D02*
D03*
X90125D02*
D03*
X96725D02*
D03*
X90125Y1497300D02*
D03*
X96725D02*
D03*
X52393Y1511678D02*
D03*
X58993D02*
D03*
X52393Y1530968D02*
D03*
X58993D02*
D03*
X139700Y1503300D02*
D03*
X146300D02*
D03*
X442300Y1497300D02*
D03*
X435700D02*
D03*
X292393Y1503678D02*
D03*
X298993D02*
D03*
X292393Y1522968D02*
D03*
X298993D02*
D03*
X442300Y1533300D02*
D03*
X435700D02*
D03*
X421700D02*
D03*
X428300D02*
D03*
X421700Y1497300D02*
D03*
X428300D02*
D03*
X350725Y1497300D02*
D03*
X344125D02*
D03*
X350725Y1533300D02*
D03*
X344125D02*
D03*
X330125D02*
D03*
X336725D02*
D03*
X330125Y1497300D02*
D03*
X336725D02*
D03*
X292393Y1511678D02*
D03*
X298993D02*
D03*
X292393Y1530968D02*
D03*
X298993D02*
D03*
X379700Y1503300D02*
D03*
X386300D02*
D03*
X682300Y1497300D02*
D03*
X675700D02*
D03*
X532393Y1503678D02*
D03*
X538993D02*
D03*
X532393Y1522968D02*
D03*
X538993D02*
D03*
X682300Y1533300D02*
D03*
X675700D02*
D03*
X661700D02*
D03*
X668300D02*
D03*
X661700Y1497300D02*
D03*
X668300D02*
D03*
X590725Y1497300D02*
D03*
X584125D02*
D03*
X590725Y1533300D02*
D03*
X584125D02*
D03*
X570125D02*
D03*
X576725D02*
D03*
X570125Y1497300D02*
D03*
X576725D02*
D03*
X532393Y1511678D02*
D03*
X538993D02*
D03*
X532393Y1530968D02*
D03*
X538993D02*
D03*
X619700Y1503300D02*
D03*
X626300D02*
D03*
X922300Y1497300D02*
D03*
X915700D02*
D03*
X772393Y1503678D02*
D03*
X778993D02*
D03*
X772393Y1522968D02*
D03*
X778993D02*
D03*
X922300Y1533300D02*
D03*
X915700D02*
D03*
X901700D02*
D03*
X908300D02*
D03*
X901700Y1497300D02*
D03*
X908300D02*
D03*
X830725Y1497300D02*
D03*
X824125D02*
D03*
X830725Y1533300D02*
D03*
X824125D02*
D03*
X810125D02*
D03*
X816725D02*
D03*
X810125Y1497300D02*
D03*
X816725D02*
D03*
X772393Y1511678D02*
D03*
X778993D02*
D03*
X772393Y1530968D02*
D03*
X778993D02*
D03*
X859700Y1503300D02*
D03*
X866300D02*
D03*
X1162300Y1497300D02*
D03*
X1155700D02*
D03*
X1012393Y1503678D02*
D03*
X1018993D02*
D03*
X1012393Y1522968D02*
D03*
X1018993D02*
D03*
X1162300Y1533300D02*
D03*
X1155700D02*
D03*
X1141700D02*
D03*
X1148300D02*
D03*
X1141700Y1497300D02*
D03*
X1148300D02*
D03*
X1070725Y1497300D02*
D03*
X1064125D02*
D03*
X1070725Y1533300D02*
D03*
X1064125D02*
D03*
X1050125D02*
D03*
X1056725D02*
D03*
X1050125Y1497300D02*
D03*
X1056725D02*
D03*
X1012393Y1511678D02*
D03*
X1018993D02*
D03*
X1012393Y1530968D02*
D03*
X1018993D02*
D03*
X1099700Y1503300D02*
D03*
X1106300D02*
D03*
X1402300Y1497300D02*
D03*
X1395700D02*
D03*
X1252393Y1503678D02*
D03*
X1258993D02*
D03*
X1252393Y1522968D02*
D03*
X1258993D02*
D03*
X1402300Y1533300D02*
D03*
X1395700D02*
D03*
X1381700D02*
D03*
X1388300D02*
D03*
X1381700Y1497300D02*
D03*
X1388300D02*
D03*
X1310725Y1497300D02*
D03*
X1304125D02*
D03*
X1310725Y1533300D02*
D03*
X1304125D02*
D03*
X1290125D02*
D03*
X1296725D02*
D03*
X1290125Y1497300D02*
D03*
X1296725D02*
D03*
X1252393Y1511678D02*
D03*
X1258993D02*
D03*
X1252393Y1530968D02*
D03*
X1258993D02*
D03*
X1339700Y1503300D02*
D03*
X1346300D02*
D03*
X1642300Y1497300D02*
D03*
X1635700D02*
D03*
X1492393Y1503678D02*
D03*
X1498993D02*
D03*
X1492393Y1522968D02*
D03*
X1498993D02*
D03*
X1642300Y1533300D02*
D03*
X1635700D02*
D03*
X1621700D02*
D03*
X1628300D02*
D03*
X1621700Y1497300D02*
D03*
X1628300D02*
D03*
X1550725Y1497300D02*
D03*
X1544125D02*
D03*
X1550725Y1533300D02*
D03*
X1544125D02*
D03*
X1530125D02*
D03*
X1536725D02*
D03*
X1530125Y1497300D02*
D03*
X1536725D02*
D03*
X1492393Y1511678D02*
D03*
X1498993D02*
D03*
X1492393Y1530968D02*
D03*
X1498993D02*
D03*
X1579700Y1503300D02*
D03*
X1586300D02*
D03*
X1882300Y1497300D02*
D03*
X1875700D02*
D03*
X1732393Y1503678D02*
D03*
X1738993D02*
D03*
X1732393Y1522968D02*
D03*
X1738993D02*
D03*
X1882300Y1533300D02*
D03*
X1875700D02*
D03*
X1861700D02*
D03*
X1868300D02*
D03*
X1861700Y1497300D02*
D03*
X1868300D02*
D03*
X1790725Y1497300D02*
D03*
X1784125D02*
D03*
X1790725Y1533300D02*
D03*
X1784125D02*
D03*
X1770125D02*
D03*
X1776725D02*
D03*
X1770125Y1497300D02*
D03*
X1776725D02*
D03*
X1732393Y1511678D02*
D03*
X1738993D02*
D03*
X1732393Y1530968D02*
D03*
X1738993D02*
D03*
X1819700Y1503300D02*
D03*
X1826300D02*
D03*
X2122300Y1497300D02*
D03*
X2115700D02*
D03*
X1972393Y1503678D02*
D03*
X1978993D02*
D03*
X1972393Y1522968D02*
D03*
X1978993D02*
D03*
X2122300Y1533300D02*
D03*
X2115700D02*
D03*
X2101700D02*
D03*
X2108300D02*
D03*
X2101700Y1497300D02*
D03*
X2108300D02*
D03*
X2030725Y1497300D02*
D03*
X2024125D02*
D03*
X2030725Y1533300D02*
D03*
X2024125D02*
D03*
X2010125D02*
D03*
X2016725D02*
D03*
X2010125Y1497300D02*
D03*
X2016725D02*
D03*
X1972393Y1511678D02*
D03*
X1978993D02*
D03*
X1972393Y1530968D02*
D03*
X1978993D02*
D03*
X2059700Y1503300D02*
D03*
X2066300D02*
D03*
X2362300Y1497300D02*
D03*
X2355700D02*
D03*
X2212393Y1503678D02*
D03*
X2218993D02*
D03*
X2212393Y1522968D02*
D03*
X2218993D02*
D03*
X2362300Y1533300D02*
D03*
X2355700D02*
D03*
X2341700D02*
D03*
X2348300D02*
D03*
X2341700Y1497300D02*
D03*
X2348300D02*
D03*
X2270725Y1497300D02*
D03*
X2264125D02*
D03*
X2270725Y1533300D02*
D03*
X2264125D02*
D03*
X2250125D02*
D03*
X2256725D02*
D03*
X2250125Y1497300D02*
D03*
X2256725D02*
D03*
X2212393Y1511678D02*
D03*
X2218993D02*
D03*
X2212393Y1530968D02*
D03*
X2218993D02*
D03*
X2299700Y1503300D02*
D03*
X2306300D02*
D03*
D18*
X0Y0D02*
Y1800000D01*
Y0D02*
X2400000D01*
X0Y1800000D02*
X2400000D01*
Y0D02*
Y1800000D01*
X0Y50000D02*
X230000D01*
Y50500D02*
Y390000D01*
X0D02*
X230000D01*
X0Y50000D02*
Y390000D01*
X240000Y50000D02*
X470000D01*
Y50500D02*
Y390000D01*
X240000D02*
X470000D01*
X240000Y50000D02*
Y390000D01*
X480000Y50000D02*
X710000D01*
Y50500D02*
Y390000D01*
X480000D02*
X710000D01*
X480000Y50000D02*
Y390000D01*
X720000Y50000D02*
X950000D01*
Y50500D02*
Y390000D01*
X720000D02*
X950000D01*
X720000Y50000D02*
Y390000D01*
X960000Y50000D02*
X1190000D01*
Y50500D02*
Y390000D01*
X960000D02*
X1190000D01*
X960000Y50000D02*
Y390000D01*
X1200000Y50000D02*
X1430000D01*
Y50500D02*
Y390000D01*
X1200000D02*
X1430000D01*
X1200000Y50000D02*
Y390000D01*
X1440000Y50000D02*
X1670000D01*
Y50500D02*
Y390000D01*
X1440000D02*
X1670000D01*
X1440000Y50000D02*
Y390000D01*
X1680000Y50000D02*
X1910000D01*
Y50500D02*
Y390000D01*
X1680000D02*
X1910000D01*
X1680000Y50000D02*
Y390000D01*
X1920000Y50000D02*
X2150000D01*
Y50500D02*
Y390000D01*
X1920000D02*
X2150000D01*
X1920000Y50000D02*
Y390000D01*
X2160000Y50000D02*
X2390000D01*
Y50500D02*
Y390000D01*
X2160000D02*
X2390000D01*
X2160000Y50000D02*
Y390000D01*
X0D02*
X230000D01*
Y390500D02*
Y730000D01*
X0D02*
X230000D01*
X0Y390000D02*
Y730000D01*
X240000Y390000D02*
X470000D01*
Y390500D02*
Y730000D01*
X240000D02*
X470000D01*
X240000Y390000D02*
Y730000D01*
X480000Y390000D02*
X710000D01*
Y390500D02*
Y730000D01*
X480000D02*
X710000D01*
X480000Y390000D02*
Y730000D01*
X720000Y390000D02*
X950000D01*
Y390500D02*
Y730000D01*
X720000D02*
X950000D01*
X720000Y390000D02*
Y730000D01*
X960000Y390000D02*
X1190000D01*
Y390500D02*
Y730000D01*
X960000D02*
X1190000D01*
X960000Y390000D02*
Y730000D01*
X1200000Y390000D02*
X1430000D01*
Y390500D02*
Y730000D01*
X1200000D02*
X1430000D01*
X1200000Y390000D02*
Y730000D01*
X1440000Y390000D02*
X1670000D01*
Y390500D02*
Y730000D01*
X1440000D02*
X1670000D01*
X1440000Y390000D02*
Y730000D01*
X1680000Y390000D02*
X1910000D01*
Y390500D02*
Y730000D01*
X1680000D02*
X1910000D01*
X1680000Y390000D02*
Y730000D01*
X1920000Y390000D02*
X2150000D01*
Y390500D02*
Y730000D01*
X1920000D02*
X2150000D01*
X1920000Y390000D02*
Y730000D01*
X2160000Y390000D02*
X2390000D01*
Y390500D02*
Y730000D01*
X2160000D02*
X2390000D01*
X2160000Y390000D02*
Y730000D01*
X0D02*
X230000D01*
Y730500D02*
Y1070000D01*
X0D02*
X230000D01*
X0Y730000D02*
Y1070000D01*
X240000Y730000D02*
X470000D01*
Y730500D02*
Y1070000D01*
X240000D02*
X470000D01*
X240000Y730000D02*
Y1070000D01*
X480000Y730000D02*
X710000D01*
Y730500D02*
Y1070000D01*
X480000D02*
X710000D01*
X480000Y730000D02*
Y1070000D01*
X720000Y730000D02*
X950000D01*
Y730500D02*
Y1070000D01*
X720000D02*
X950000D01*
X720000Y730000D02*
Y1070000D01*
X960000Y730000D02*
X1190000D01*
Y730500D02*
Y1070000D01*
X960000D02*
X1190000D01*
X960000Y730000D02*
Y1070000D01*
X1200000Y730000D02*
X1430000D01*
Y730500D02*
Y1070000D01*
X1200000D02*
X1430000D01*
X1200000Y730000D02*
Y1070000D01*
X1440000Y730000D02*
X1670000D01*
Y730500D02*
Y1070000D01*
X1440000D02*
X1670000D01*
X1440000Y730000D02*
Y1070000D01*
X1680000Y730000D02*
X1910000D01*
Y730500D02*
Y1070000D01*
X1680000D02*
X1910000D01*
X1680000Y730000D02*
Y1070000D01*
X1920000Y730000D02*
X2150000D01*
Y730500D02*
Y1070000D01*
X1920000D02*
X2150000D01*
X1920000Y730000D02*
Y1070000D01*
X2160000Y730000D02*
X2390000D01*
Y730500D02*
Y1070000D01*
X2160000D02*
X2390000D01*
X2160000Y730000D02*
Y1070000D01*
X0D02*
X230000D01*
Y1070500D02*
Y1410000D01*
X0D02*
X230000D01*
X0Y1070000D02*
Y1410000D01*
X240000Y1070000D02*
X470000D01*
Y1070500D02*
Y1410000D01*
X240000D02*
X470000D01*
X240000Y1070000D02*
Y1410000D01*
X480000Y1070000D02*
X710000D01*
Y1070500D02*
Y1410000D01*
X480000D02*
X710000D01*
X480000Y1070000D02*
Y1410000D01*
X720000Y1070000D02*
X950000D01*
Y1070500D02*
Y1410000D01*
X720000D02*
X950000D01*
X720000Y1070000D02*
Y1410000D01*
X960000Y1070000D02*
X1190000D01*
Y1070500D02*
Y1410000D01*
X960000D02*
X1190000D01*
X960000Y1070000D02*
Y1410000D01*
X1200000Y1070000D02*
X1430000D01*
Y1070500D02*
Y1410000D01*
X1200000D02*
X1430000D01*
X1200000Y1070000D02*
Y1410000D01*
X1440000Y1070000D02*
X1670000D01*
Y1070500D02*
Y1410000D01*
X1440000D02*
X1670000D01*
X1440000Y1070000D02*
Y1410000D01*
X1680000Y1070000D02*
X1910000D01*
Y1070500D02*
Y1410000D01*
X1680000D02*
X1910000D01*
X1680000Y1070000D02*
Y1410000D01*
X1920000Y1070000D02*
X2150000D01*
Y1070500D02*
Y1410000D01*
X1920000D02*
X2150000D01*
X1920000Y1070000D02*
Y1410000D01*
X2160000Y1070000D02*
X2390000D01*
Y1070500D02*
Y1410000D01*
X2160000D02*
X2390000D01*
X2160000Y1070000D02*
Y1410000D01*
X0D02*
X230000D01*
Y1410500D02*
Y1750000D01*
X0D02*
X230000D01*
X0Y1410000D02*
Y1750000D01*
X240000Y1410000D02*
X470000D01*
Y1410500D02*
Y1750000D01*
X240000D02*
X470000D01*
X240000Y1410000D02*
Y1750000D01*
X480000Y1410000D02*
X710000D01*
Y1410500D02*
Y1750000D01*
X480000D02*
X710000D01*
X480000Y1410000D02*
Y1750000D01*
X720000Y1410000D02*
X950000D01*
Y1410500D02*
Y1750000D01*
X720000D02*
X950000D01*
X720000Y1410000D02*
Y1750000D01*
X960000Y1410000D02*
X1190000D01*
Y1410500D02*
Y1750000D01*
X960000D02*
X1190000D01*
X960000Y1410000D02*
Y1750000D01*
X1200000Y1410000D02*
X1430000D01*
Y1410500D02*
Y1750000D01*
X1200000D02*
X1430000D01*
X1200000Y1410000D02*
Y1750000D01*
X1440000Y1410000D02*
X1670000D01*
Y1410500D02*
Y1750000D01*
X1440000D02*
X1670000D01*
X1440000Y1410000D02*
Y1750000D01*
X1680000Y1410000D02*
X1910000D01*
Y1410500D02*
Y1750000D01*
X1680000D02*
X1910000D01*
X1680000Y1410000D02*
Y1750000D01*
X1920000Y1410000D02*
X2150000D01*
Y1410500D02*
Y1750000D01*
X1920000D02*
X2150000D01*
X1920000Y1410000D02*
Y1750000D01*
X2160000Y1410000D02*
X2390000D01*
Y1410500D02*
Y1750000D01*
X2160000D02*
X2390000D01*
X2160000Y1410000D02*
Y1750000D01*
D20*
X9063Y2052377D02*
X11032D01*
X13000D02*
X14968D01*
X16937D02*
X18905D01*
X20874D02*
X22842D01*
X24811D02*
X26779D01*
X28748D02*
X30716D01*
X32685D02*
X34653D01*
X36622D02*
X38591D01*
X40559D02*
X42528D01*
X44496D02*
X46465D01*
X48433D02*
X50402D01*
X52370D02*
X54339D01*
X56307D02*
X58276D01*
X60244D02*
X62213D01*
X64181D02*
X66150D01*
X68118D02*
X70087D01*
X72055D02*
X74024D01*
X75992D02*
X77961D01*
X79929D02*
X81898D01*
X83866D02*
X85835D01*
X87803D02*
X89772D01*
X91740D02*
X93709D01*
X95677D02*
X97646D01*
X99614D02*
X101583D01*
X103551D02*
X105520D01*
X107488D02*
X109457D01*
X111425D02*
X113394D01*
X115362D02*
X117331D01*
X119299D02*
X121268D01*
X123236D02*
X125205D01*
X127173D02*
X129142D01*
X131110D02*
X133079D01*
X135047D02*
X137016D01*
X138984D02*
X140953D01*
X142921D02*
X144890D01*
X146858D02*
X148827D01*
X150795D02*
X152764D01*
X154732D02*
X156701D01*
X158669D02*
X160638D01*
X162606D02*
X164575D01*
X166543D02*
X168512D01*
X170480D02*
X172449D01*
X174417D02*
X176386D01*
X178354D02*
X180323D01*
X9363Y2089817D02*
X11332D01*
X13300D02*
X15269D01*
X17237D02*
X19206D01*
X21174D02*
X23143D01*
X25111D02*
X27079D01*
X29048D02*
X31016D01*
X32985D02*
X34953D01*
X36922D02*
X38891D01*
X40859D02*
X42828D01*
X44796D02*
X46765D01*
X48733D02*
X50702D01*
X52670D02*
X54639D01*
X56607D02*
X58576D01*
X60544D02*
X62513D01*
X64481D02*
X66450D01*
X68418D02*
X70387D01*
X72355D02*
X74324D01*
X76292D02*
X78261D01*
X80229D02*
X82198D01*
X84166D02*
X86135D01*
X88103D02*
X90072D01*
X92040D02*
X94009D01*
X95977D02*
X97946D01*
X99914D02*
X101883D01*
X103851D02*
X105820D01*
X107788D02*
X109757D01*
X111725D02*
X113694D01*
X115662D02*
X117631D01*
X119599D02*
X121568D01*
X123536D02*
X125505D01*
X127473D02*
X129442D01*
X131410D02*
X133379D01*
X135347D02*
X137316D01*
X139284D02*
X141253D01*
X143221D02*
X145190D01*
X147158D02*
X149127D01*
X151095D02*
X153064D01*
X155032D02*
X157001D01*
X158969D02*
X160938D01*
X162906D02*
X164875D01*
X166843D02*
X168812D01*
X170780D02*
X172749D01*
X174717D02*
X176686D01*
X178654D02*
X180623D01*
X178054Y2163927D02*
X180023D01*
X174117D02*
X176086D01*
X170180D02*
X172149D01*
X166243D02*
X168212D01*
X162306D02*
X164275D01*
X158369D02*
X160338D01*
X154432D02*
X156401D01*
X150495D02*
X152464D01*
X146558D02*
X148527D01*
X142621D02*
X144590D01*
X138684D02*
X140653D01*
X134747D02*
X136716D01*
X130810D02*
X132779D01*
X126873D02*
X128842D01*
X122936D02*
X124905D01*
X118999D02*
X120968D01*
X115062D02*
X117031D01*
X111125D02*
X113094D01*
X107188D02*
X109157D01*
X103251D02*
X105220D01*
X99314D02*
X101283D01*
X95377D02*
X97346D01*
X91440D02*
X93409D01*
X87503D02*
X89472D01*
X83566D02*
X85535D01*
X79629D02*
X81598D01*
X75692D02*
X77661D01*
X71755D02*
X73724D01*
X67818D02*
X69787D01*
X63881D02*
X65850D01*
X59944D02*
X61913D01*
X56007D02*
X57976D01*
X52070D02*
X54039D01*
X48133D02*
X50102D01*
X44196D02*
X46165D01*
X40259D02*
X42228D01*
X36322D02*
X38291D01*
X32385D02*
X34354D01*
X28448D02*
X30417D01*
X24511D02*
X26480D01*
X20574D02*
X22543D01*
X16637D02*
X18606D01*
X12700D02*
X14669D01*
X8763D02*
X10731D01*
X181991Y2030500D02*
Y2162943D01*
X8763Y2030500D02*
X181991D01*
X8763D02*
Y2162943D01*
Y2174754D01*
X181991D01*
Y2162943D02*
Y2174754D01*
X9263Y2184249D02*
Y2250200D01*
Y2184249D02*
X235400D01*
Y2250200D01*
X9263D02*
X235400D01*
M02*
