M48
;Layer_Color=9474304
;FILE_FORMAT=2:5
INCH,LZ
;TYPE=PLATED
T1F00S00C0.01500
T2F00S00C0.04724
T3F00S00C0.05000
T4F00S00C0.06968
T5F00S00C0.19685
%
T01
X237Y01412
X23709Y01684
X23273Y01667
X23308Y01575
X23305Y01797
X2321Y01947
X23131Y01476
X22787Y01412
X22794Y01689
X22737Y02154
X22454Y02059
X22187Y01768
X22317Y01572
X22163Y01382
X213Y01412
X21309Y01684
X20873Y01667
X20908Y01575
X20905Y01797
X2081Y01947
X20731Y01476
X20387Y01412
X20394Y01689
X20337Y02154
X20054Y02059
X19787Y01768
X19917Y01572
X19763Y01382
X189Y01412
X18909Y01684
X18473Y01667
X18508Y01575
X18505Y01797
X1841Y01947
X18331Y01476
X17987Y01412
X17994Y01689
X17937Y02154
X17654Y02059
X17387Y01768
X17517Y01572
X17363Y01382
X165Y01412
X16509Y01684
X16073Y01667
X16108Y01575
X16105Y01797
X1601Y01947
X15931Y01476
X15587Y01412
X15594Y01689
X15537Y02154
X15254Y02059
X15117Y01572
X14987Y01768
X14963Y01382
X141Y01412
X14109Y01684
X13673Y01667
X13708Y01575
X13705Y01797
X1361Y01947
X13531Y01476
X13187Y01412
X13194Y01689
X13137Y02154
X12854Y02059
X12587Y01768
X12717Y01572
X12563Y01382
X117Y01412
X11709Y01684
X11273Y01667
X11308Y01575
X11305Y01797
X1121Y01947
X11131Y01476
X10787Y01412
X10794Y01689
X10737Y02154
X10454Y02059
X10187Y01768
X10317Y01572
X10163Y01382
X093Y01412
X09309Y01684
X08873Y01667
X08908Y01575
X08905Y01797
X0881Y01947
X08731Y01476
X08387Y01412
X08394Y01689
X08337Y02154
X08054Y02059
X07787Y01768
X07917Y01572
X07763Y01382
X069Y01412
X06909Y01684
X06473Y01667
X06508Y01575
X06505Y01797
X0641Y01947
X06331Y01476
X05987Y01412
X05994Y01689
X05937Y02154
X05654Y02059
X05387Y01768
X05517Y01572
X05363Y01382
X045Y01412
X04509Y01684
X04073Y01667
X04108Y01575
X04105Y01797
X0401Y01947
X03931Y01476
X03587Y01412
X03594Y01689
X03537Y02154
X03254Y02059
X02987Y01768
X03117Y01572
X02963Y01382
X021Y01412
X02109Y01684
X01673Y01667
X01708Y01575
X01705Y01797
X0161Y01947
X01531Y01476
X01187Y01412
X01194Y01689
X01137Y02154
X00854Y02059
X00587Y01768
X00717Y01572
X00563Y01382
X01164Y03011
X03564
X05964
X08364
X10764
X13164
X15564
X17964
X20364
X22764
X23131Y04876
X23308Y04975
X23273Y05067
X23305Y05197
X23709Y05084
X237Y04812
X22787
X22794Y05089
X22317Y04972
X22187Y05168
X22163Y04782
X213Y04812
X21309Y05084
X20873Y05067
X20908Y04975
X20905Y05197
X20731Y04876
X20387Y04812
X20394Y05089
X19917Y04972
X19787Y05168
X19763Y04782
X189Y04812
X18909Y05084
X18473Y05067
X18508Y04975
X18505Y05197
X18331Y04876
X17987Y04812
X17994Y05089
X17517Y04972
X17387Y05168
X17363Y04782
X165Y04812
X16509Y05084
X16073Y05067
X16108Y04975
X16105Y05197
X15931Y04876
X15587Y04812
X15594Y05089
X15117Y04972
X14987Y05168
X14963Y04782
X141Y04812
X14109Y05084
X13673Y05067
X13708Y04975
X13705Y05197
X13531Y04876
X13187Y04812
X13194Y05089
X12717Y04972
X12587Y05168
X12563Y04782
X117Y04812
X11709Y05084
X11273Y05067
X11308Y04975
X11305Y05197
X11131Y04876
X10787Y04812
X10794Y05089
X10317Y04972
X10187Y05168
X10163Y04782
X093Y04812
X09309Y05084
X08873Y05067
X08908Y04975
X08905Y05197
X08731Y04876
X08387Y04812
X08394Y05089
X07917Y04972
X07787Y05168
X07763Y04782
X069Y04812
X06909Y05084
X06473Y05067
X06508Y04975
X06505Y05197
X06331Y04876
X05987Y04812
X05994Y05089
X05517Y04972
X05387Y05168
X05363Y04782
X045Y04812
X04509Y05084
X04073Y05067
X04108Y04975
X04105Y05197
X03931Y04876
X03587Y04812
X03594Y05089
X03117Y04972
X02987Y05168
X02963Y04782
X021Y04812
X02109Y05084
X01673Y05067
X01708Y04975
X01705Y05197
X01531Y04876
X01187Y04812
X01194Y05089
X00717Y04972
X00587Y05168
X00563Y04782
X00854Y05459
X01137Y05554
X0161Y05347
X01164Y06411
X03564
X03537Y05554
X03254Y05459
X0401Y05347
X05654Y05459
X05937Y05554
X0641Y05347
X05964Y06411
X08364
X08337Y05554
X08054Y05459
X0881Y05347
X10454Y05459
X10737Y05554
X1121Y05347
X10764Y06411
X13164
X13137Y05554
X12854Y05459
X1361Y05347
X15254Y05459
X15537Y05554
X1601Y05347
X15564Y06411
X17964
X17937Y05554
X17654Y05459
X1841Y05347
X20054Y05459
X20337Y05554
X2081Y05347
X20364Y06411
X22764
X22737Y05554
X22454Y05459
X2321Y05347
X23131Y08276
X23308Y08375
X237Y08212
X22787
X22317Y08372
X22163Y08182
X213Y08212
X20908Y08375
X20731Y08276
X20387Y08212
X19917Y08372
X19763Y08182
X189Y08212
X18508Y08375
X18331Y08276
X17987Y08212
X17517Y08372
X17363Y08182
X165Y08212
X16108Y08375
X15931Y08276
X15587Y08212
X15117Y08372
X14963Y08182
X141Y08212
X13708Y08375
X13531Y08276
X13187Y08212
X12717Y08372
X12563Y08182
X117Y08212
X11308Y08375
X11131Y08276
X10787Y08212
X10317Y08372
X10163Y08182
X093Y08212
X08908Y08375
X08731Y08276
X08387Y08212
X07917Y08372
X07763Y08182
X069Y08212
X06508Y08375
X06331Y08276
X05987Y08212
X05517Y08372
X05363Y08182
X045Y08212
X04108Y08375
X03931Y08276
X03587Y08212
X03117Y08372
X02963Y08182
X021Y08212
X01708Y08375
X01531Y08276
X01187Y08212
X00717Y08372
X00563Y08182
X00587Y08568
X00854Y08859
X01137Y08954
X01194Y08489
X01673Y08467
X01705Y08597
X0161Y08747
X02109Y08484
X01164Y09811
X03564
X03537Y08954
X03254Y08859
X02987Y08568
X03594Y08489
X04073Y08467
X04105Y08597
X0401Y08747
X04509Y08484
X05387Y08568
X05654Y08859
X05937Y08954
X05994Y08489
X06473Y08467
X06505Y08597
X0641Y08747
X06909Y08484
X05964Y09811
X08364
X08337Y08954
X08054Y08859
X07787Y08568
X08394Y08489
X0881Y08747
X08905Y08597
X08873Y08467
X09309Y08484
X10187Y08568
X10454Y08859
X10737Y08954
X10794Y08489
X11273Y08467
X11305Y08597
X1121Y08747
X11709Y08484
X10764Y09811
X13164
X13137Y08954
X12854Y08859
X12587Y08568
X13194Y08489
X13673Y08467
X13705Y08597
X1361Y08747
X14109Y08484
X14987Y08568
X15254Y08859
X15537Y08954
X15594Y08489
X16073Y08467
X16105Y08597
X1601Y08747
X16509Y08484
X15564Y09811
X17964
X17937Y08954
X17654Y08859
X17387Y08568
X17994Y08489
X18473Y08467
X18505Y08597
X1841Y08747
X18909Y08484
X19787Y08568
X20054Y08859
X20337Y08954
X20394Y08489
X20873Y08467
X20905Y08597
X2081Y08747
X21309Y08484
X20364Y09811
X22764
X22737Y08954
X22454Y08859
X22187Y08568
X22794Y08489
X23273Y08467
X23305Y08597
X2321Y08747
X23709Y08484
X00563Y11582
X00717Y11772
X00587Y11968
X00854Y12259
X01137Y12354
X01194Y11889
X01187Y11612
X01531Y11676
X01708Y11775
X01673Y11867
X01705Y11997
X0161Y12147
X02109Y11884
X021Y11612
X02963Y11582
X03117Y11772
X02987Y11968
X03254Y12259
X03537Y12354
X03594Y11889
X03587Y11612
X03931Y11676
X04108Y11775
X04073Y11867
X04105Y11997
X0401Y12147
X04509Y11884
X045Y11612
X05363Y11582
X05517Y11772
X05387Y11968
X05654Y12259
X05937Y12354
X05994Y11889
X05987Y11612
X06331Y11676
X06508Y11775
X06473Y11867
X06505Y11997
X0641Y12147
X06909Y11884
X069Y11612
X07763Y11582
X07917Y11772
X07787Y11968
X08054Y12259
X08337Y12354
X08394Y11889
X08387Y11612
X08731Y11676
X0881Y12147
X08905Y11997
X08873Y11867
X08908Y11775
X09309Y11884
X093Y11612
X10163Y11582
X10317Y11772
X10187Y11968
X10454Y12259
X10737Y12354
X10794Y11889
X10787Y11612
X11131Y11676
X11308Y11775
X11273Y11867
X11305Y11997
X1121Y12147
X11709Y11884
X117Y11612
X12563Y11582
X12717Y11772
X12587Y11968
X12854Y12259
X13137Y12354
X13194Y11889
X13187Y11612
X13531Y11676
X13708Y11775
X13673Y11867
X13705Y11997
X1361Y12147
X14109Y11884
X141Y11612
X14963Y11582
X14987Y11968
X15117Y11772
X15594Y11889
X15587Y11612
X15931Y11676
X16108Y11775
X16073Y11867
X16105Y11997
X1601Y12147
X15537Y12354
X15254Y12259
X16509Y11884
X165Y11612
X17363Y11582
X17517Y11772
X17387Y11968
X17654Y12259
X17937Y12354
X17994Y11889
X17987Y11612
X18331Y11676
X18508Y11775
X18473Y11867
X18505Y11997
X1841Y12147
X18909Y11884
X189Y11612
X19763Y11582
X19917Y11772
X19787Y11968
X20054Y12259
X20337Y12354
X20394Y11889
X20387Y11612
X20731Y11676
X20908Y11775
X20873Y11867
X20905Y11997
X2081Y12147
X21309Y11884
X213Y11612
X22163Y11582
X22317Y11772
X22187Y11968
X22454Y12259
X22737Y12354
X22794Y11889
X22787Y11612
X23131Y11676
X23308Y11775
X23273Y11867
X23305Y11997
X2321Y12147
X23709Y11884
X237Y11612
X22764Y13211
X20364
X17964
X15564
X13164
X10764
X08364
X05964
X03564
X01164
X00563Y14982
X00717Y15172
X00587Y15368
X00854Y15659
X01137Y15754
X01194Y15289
X01187Y15012
X01531Y15076
X01708Y15175
X01673Y15267
X01705Y15397
X0161Y15547
X02109Y15284
X021Y15012
X02963Y14982
X03117Y15172
X02987Y15368
X03254Y15659
X03537Y15754
X03594Y15289
X03587Y15012
X03931Y15076
X04108Y15175
X04073Y15267
X04105Y15397
X0401Y15547
X04509Y15284
X045Y15012
X05363Y14982
X05517Y15172
X05387Y15368
X05654Y15659
X05937Y15754
X05994Y15289
X05987Y15012
X06331Y15076
X06508Y15175
X06473Y15267
X06505Y15397
X0641Y15547
X06909Y15284
X069Y15012
X07763Y14982
X07917Y15172
X07787Y15368
X08054Y15659
X08337Y15754
X08394Y15289
X08387Y15012
X08731Y15076
X0881Y15547
X08905Y15397
X08873Y15267
X08908Y15175
X09309Y15284
X093Y15012
X10163Y14982
X10317Y15172
X10187Y15368
X10454Y15659
X10737Y15754
X10794Y15289
X10787Y15012
X11131Y15076
X11308Y15175
X11273Y15267
X11305Y15397
X1121Y15547
X11709Y15284
X117Y15012
X12563Y14982
X12717Y15172
X12587Y15368
X12854Y15659
X13137Y15754
X13194Y15289
X13187Y15012
X13531Y15076
X13708Y15175
X13673Y15267
X13705Y15397
X1361Y15547
X14109Y15284
X141Y15012
X14963Y14982
X14987Y15368
X15117Y15172
X15594Y15289
X15587Y15012
X15931Y15076
X16108Y15175
X16073Y15267
X16105Y15397
X1601Y15547
X15537Y15754
X15254Y15659
X16509Y15284
X165Y15012
X17363Y14982
X17517Y15172
X17387Y15368
X17654Y15659
X17937Y15754
X17994Y15289
X17987Y15012
X18331Y15076
X18508Y15175
X18473Y15267
X18505Y15397
X1841Y15547
X18909Y15284
X189Y15012
X19763Y14982
X19917Y15172
X19787Y15368
X20054Y15659
X20337Y15754
X20394Y15289
X20387Y15012
X20731Y15076
X20908Y15175
X20873Y15267
X20905Y15397
X2081Y15547
X21309Y15284
X213Y15012
X22163Y14982
X22317Y15172
X22187Y15368
X22454Y15659
X22737Y15754
X22794Y15289
X22787Y15012
X23131Y15076
X23308Y15175
X23273Y15267
X23305Y15397
X2321Y15547
X23709Y15284
X237Y15012
X22764Y16611
X20364
X17964
X15564
X13164
X10764
X08364
X05964
X03564
X01164
T02
X237Y019093
Y0204709
Y0218489
X2177Y0215654
Y0201875
Y0188095
X2202819Y0131442
X2204Y01153
X2194945Y0105457
X2202819Y0092442
X2204Y00763
X2194945Y0066457
X213Y019093
Y0204709
Y0218489
X1937Y0215654
Y0201875
Y0188095
X189Y019093
Y0204709
Y0218489
X1962819Y0131442
X1964Y01153
X1954945Y0105457
X1962819Y0092442
X1964Y00763
X1954945Y0066457
X1714945
X1724Y00763
X1722819Y0092442
X1714945Y0105457
X1724Y01153
X1722819Y0131442
X1697Y0188095
Y0201875
Y0215654
X165Y0218489
Y0204709
Y019093
X1457Y0188095
Y0201875
Y0215654
X141Y0218489
Y0204709
Y019093
X1482819Y0131442
X1484Y01153
X1474945Y0105457
X1482819Y0092442
X1484Y00763
X1474945Y0066457
X1234945
X1244Y00763
X1242819Y0092442
X1234945Y0105457
X1244Y01153
X1242819Y0131442
X1217Y0188095
Y0201875
Y0215654
X117Y0218489
Y0204709
Y019093
X0977Y0188095
Y0201875
Y0215654
X093Y0218489
Y0204709
Y019093
X1002819Y0131442
X1004Y01153
X0994945Y0105457
X1002819Y0092442
X1004Y00763
X0994945Y0066457
X0754945
X0764Y00763
X0762819Y0092442
X0754945Y0105457
X0764Y01153
X0762819Y0131442
X0737Y0188095
Y0201875
Y0215654
X069Y0218489
Y0204709
Y019093
X0497Y0188095
Y0201875
Y0215654
X045Y0218489
Y0204709
Y019093
X0522819Y0131442
X0524Y01153
X0514945Y0105457
X0522819Y0092442
X0524Y00763
X0514945Y0066457
X0274945
X0284Y00763
X0282819Y0092442
X0274945Y0105457
X0284Y01153
X0282819Y0131442
X0257Y0188095
Y0201875
Y0215654
X021Y0218489
Y0204709
Y019093
X0017Y0188095
Y0201875
Y0215654
X0042819Y0131442
X0044Y01153
X0034945Y0105457
X0042819Y0092442
X0044Y00763
X0034945Y0066457
X0017Y0229434
Y0243213
Y0256993
Y0270772
Y0284552
Y0298331
Y0312111
Y032589
Y033967
X021Y0342505
Y0328725
Y0314946
Y0301166
Y0287387
Y0273607
Y0259828
Y0246048
Y0232269
X0257Y0229434
Y0243213
Y0256993
Y0270772
Y0284552
Y0298331
Y0312111
Y032589
Y033967
X045Y0342505
Y0328725
Y0314946
Y0301166
Y0287387
Y0273607
Y0259828
Y0246048
Y0232269
X0497Y0229434
Y0243213
Y0256993
Y0270772
Y0284552
Y0298331
Y0312111
Y032589
Y033967
X069Y0342505
Y0328725
Y0314946
Y0301166
Y0287387
Y0273607
Y0259828
Y0246048
Y0232269
X0737Y0229434
Y0243213
Y0256993
Y0270772
Y0284552
Y0298331
Y0312111
Y032589
Y033967
X093Y0342505
Y0328725
Y0314946
Y0301166
Y0287387
Y0273607
Y0259828
Y0246048
Y0232269
X0977Y0229434
Y0243213
Y0256993
Y0270772
Y0284552
Y0298331
Y0312111
Y032589
Y033967
X117Y0342505
Y0328725
Y0314946
Y0301166
Y0287387
Y0273607
Y0259828
Y0246048
Y0232269
X1217Y0229434
Y0243213
Y0256993
Y0270772
Y0284552
Y0298331
Y0312111
Y032589
Y033967
X141Y0342505
Y0328725
Y0314946
Y0301166
Y0287387
Y0273607
Y0259828
Y0246048
Y0232269
X1457Y0229434
Y0243213
Y0256993
Y0270772
Y0284552
Y0298331
Y0312111
Y032589
Y033967
X165Y0342505
Y0328725
Y0314946
Y0301166
Y0287387
Y0273607
Y0259828
Y0246048
Y0232269
X1697Y0229434
Y0243213
Y0256993
Y0270772
Y0284552
Y0298331
Y0312111
Y032589
Y033967
X189Y0342505
Y0328725
Y0314946
Y0301166
Y0287387
Y0273607
Y0259828
Y0246048
Y0232269
X1937Y0229434
Y0243213
Y0256993
Y0270772
Y0284552
Y0298331
Y0312111
Y032589
Y033967
X213Y0342505
Y0328725
Y0314946
Y0301166
Y0287387
Y0273607
Y0259828
Y0246048
Y0232269
X2177Y0229434
Y0243213
Y0256993
Y0270772
Y0284552
Y0298331
Y0312111
Y032589
Y033967
X237Y0342505
Y0328725
Y0314946
Y0301166
Y0287387
Y0273607
Y0259828
Y0246048
Y0232269
Y053093
X2177Y0528095
X2202819Y0471442
X2204Y04553
X2194945Y0445458
X2202819Y0432442
X2204Y04163
X2194945Y0406458
X213Y053093
X1937Y0528095
X189Y053093
X1962819Y0471442
X1964Y04553
X1954945Y0445458
X1962819Y0432442
X1964Y04163
X1954945Y0406458
X1714945
X1724Y04163
X1722819Y0432442
X1714945Y0445458
X1724Y04553
X1722819Y0471442
X1697Y0528095
X165Y053093
X1457Y0528095
X141Y053093
X1482819Y0471442
X1484Y04553
X1474945Y0445458
X1482819Y0432442
X1484Y04163
X1474945Y0406458
X1234945
X1244Y04163
X1242819Y0432442
X1234945Y0445458
X1244Y04553
X1242819Y0471442
X1217Y0528095
X117Y053093
X0977Y0528095
X093Y053093
X1002819Y0471442
X1004Y04553
X0994945Y0445458
X1002819Y0432442
X1004Y04163
X0994945Y0406458
X0754945
X0764Y04163
X0762819Y0432442
X0754945Y0445458
X0764Y04553
X0762819Y0471442
X0737Y0528095
X069Y053093
X0497Y0528095
X045Y053093
X0522819Y0471442
X0524Y04553
X0514945Y0445458
X0522819Y0432442
X0524Y04163
X0514945Y0406458
X0274945
X0284Y04163
X0282819Y0432442
X0274945Y0445458
X0284Y04553
X0282819Y0471442
X0257Y0528095
X021Y053093
X0017Y0528095
X0042819Y0471442
X0044Y04553
X0034945Y0445458
X0042819Y0432442
X0044Y04163
X0034945Y0406458
X0017Y0541875
Y0555654
Y0569434
Y0583213
Y0596993
Y0610772
Y0624552
Y0638332
Y0652111
Y0665891
Y067967
X021Y0682505
Y0668725
Y0654946
Y0641166
Y0627387
Y0613607
Y0599828
Y0586048
Y0572268
Y0558489
Y0544709
X0257Y0541875
Y0555654
Y0569434
Y0583213
Y0596993
Y0610772
Y0624552
Y0638332
Y0652111
Y0665891
Y067967
X045Y0682505
Y0668725
Y0654946
Y0641166
Y0627387
Y0613607
Y0599828
Y0586048
Y0572268
Y0558489
Y0544709
X0497Y0541875
Y0555654
Y0569434
Y0583213
Y0596993
Y0610772
Y0624552
Y0638332
Y0652111
Y0665891
Y067967
X069Y0682505
Y0668725
Y0654946
Y0641166
Y0627387
Y0613607
Y0599828
Y0586048
Y0572268
Y0558489
Y0544709
X0737Y0541875
Y0555654
Y0569434
Y0583213
Y0596993
Y0610772
Y0624552
Y0638332
Y0652111
Y0665891
Y067967
X093Y0682505
Y0668725
Y0654946
Y0641166
Y0627387
Y0613607
Y0599828
Y0586048
Y0572268
Y0558489
Y0544709
X0977Y0541875
Y0555654
Y0569434
Y0583213
Y0596993
Y0610772
Y0624552
Y0638332
Y0652111
Y0665891
Y067967
X117Y0682505
Y0668725
Y0654946
Y0641166
Y0627387
Y0613607
Y0599828
Y0586048
Y0572268
Y0558489
Y0544709
X1217Y0541875
Y0555654
Y0569434
Y0583213
Y0596993
Y0610772
Y0624552
Y0638332
Y0652111
Y0665891
Y067967
X141Y0682505
Y0668725
Y0654946
Y0641166
Y0627387
Y0613607
Y0599828
Y0586048
Y0572268
Y0558489
Y0544709
X1457Y0541875
Y0555654
Y0569434
Y0583213
Y0596993
Y0610772
Y0624552
Y0638332
Y0652111
Y0665891
Y067967
X165Y0682505
Y0668725
Y0654946
Y0641166
Y0627387
Y0613607
Y0599828
Y0586048
Y0572268
Y0558489
Y0544709
X1697Y0541875
Y0555654
Y0569434
Y0583213
Y0596993
Y0610772
Y0624552
Y0638332
Y0652111
Y0665891
Y067967
X189Y0682505
Y0668725
Y0654946
Y0641166
Y0627387
Y0613607
Y0599828
Y0586048
Y0572268
Y0558489
Y0544709
X1937Y0541875
Y0555654
Y0569434
Y0583213
Y0596993
Y0610772
Y0624552
Y0638332
Y0652111
Y0665891
Y067967
X213Y0682505
Y0668725
Y0654946
Y0641166
Y0627387
Y0613607
Y0599828
Y0586048
Y0572268
Y0558489
Y0544709
X2177Y0541875
Y0555654
Y0569434
Y0583213
Y0596993
Y0610772
Y0624552
Y0638332
Y0652111
Y0665891
Y067967
X237Y0682505
Y0668725
Y0654946
Y0641166
Y0627387
Y0613607
Y0599828
Y0586048
Y0572268
Y0558489
Y0544709
X2194945Y0746457
X2204Y07563
X2202819Y0772442
X2194945Y0785458
X2204Y07953
X2202819Y0811442
X1962819
X1964Y07953
X1954945Y0785458
X1962819Y0772442
X1964Y07563
X1954945Y0746457
X1714945
X1724Y07563
X1722819Y0772442
X1714945Y0785458
X1724Y07953
X1722819Y0811442
X1482819
X1484Y07953
X1474945Y0785458
X1482819Y0772442
X1484Y07563
X1474945Y0746457
X1234945
X1244Y07563
X1242819Y0772442
X1234945Y0785458
X1244Y07953
X1242819Y0811442
X1002819
X1004Y07953
X0994945Y0785458
X1002819Y0772442
X1004Y07563
X0994945Y0746457
X0754945
X0764Y07563
X0762819Y0772442
X0754945Y0785458
X0764Y07953
X0762819Y0811442
X0522819
X0524Y07953
X0514945Y0785458
X0522819Y0772442
X0524Y07563
X0514945Y0746457
X0274945
X0284Y07563
X0282819Y0772442
X0274945Y0785458
X0284Y07953
X0282819Y0811442
X0042819
X0044Y07953
X0034945Y0785458
X0042819Y0772442
X0044Y07563
X0034945Y0746457
X0017Y0868095
Y0881875
Y0895654
Y0909434
Y0923213
Y0936993
Y0950772
Y0964552
Y0978331
Y0992111
X021Y0994946
Y0981166
Y0967387
Y0953607
Y0939828
Y0926048
Y0912269
Y0898489
Y0884709
Y087093
X0257Y0868095
Y0881875
Y0895654
Y0909434
Y0923213
Y0936993
Y0950772
Y0964552
Y0978331
Y0992111
X045Y0994946
Y0981166
Y0967387
Y0953607
Y0939828
Y0926048
Y0912269
Y0898489
Y0884709
Y087093
X0497Y0868095
Y0881875
Y0895654
Y0909434
Y0923213
Y0936993
Y0950772
Y0964552
Y0978331
Y0992111
X069Y0994946
Y0981166
Y0967387
Y0953607
Y0939828
Y0926048
Y0912269
Y0898489
Y0884709
Y087093
X0737Y0868095
Y0881875
Y0895654
Y0909434
Y0923213
Y0936993
Y0950772
Y0964552
Y0978331
Y0992111
X093Y0994946
Y0981166
Y0967387
Y0953607
Y0939828
Y0926048
Y0912269
Y0898489
Y0884709
Y087093
X0977Y0868095
Y0881875
Y0895654
Y0909434
Y0923213
Y0936993
Y0950772
Y0964552
Y0978331
Y0992111
X117Y0994946
Y0981166
Y0967387
Y0953607
Y0939828
Y0926048
Y0912269
Y0898489
Y0884709
Y087093
X1217Y0868095
Y0881875
Y0895654
Y0909434
Y0923213
Y0936993
Y0950772
Y0964552
Y0978331
Y0992111
X141Y0994946
Y0981166
Y0967387
Y0953607
Y0939828
Y0926048
Y0912269
Y0898489
Y0884709
Y087093
X1457Y0868095
Y0881875
Y0895654
Y0909434
Y0923213
Y0936993
Y0950772
Y0964552
Y0978331
Y0992111
X165Y0994946
Y0981166
Y0967387
Y0953607
Y0939828
Y0926048
Y0912269
Y0898489
Y0884709
Y087093
X1697Y0868095
Y0881875
Y0895654
Y0909434
Y0923213
Y0936993
Y0950772
Y0964552
Y0978331
Y0992111
X189Y0994946
Y0981166
Y0967387
Y0953607
Y0939828
Y0926048
Y0912269
Y0898489
Y0884709
Y087093
X1937Y0868095
Y0881875
Y0895654
Y0909434
Y0923213
Y0936993
Y0950772
Y0964552
Y0978331
Y0992111
X213Y0994946
Y0981166
Y0967387
Y0953607
Y0939828
Y0926048
Y0912269
Y0898489
Y0884709
Y087093
X2177Y0868095
Y0881875
Y0895654
Y0909434
Y0923213
Y0936993
Y0950772
Y0964552
Y0978331
Y0992111
X237Y0994946
Y0981166
Y0967387
Y0953607
Y0939828
Y0926048
Y0912269
Y0898489
Y0884709
Y087093
Y1008725
Y1022505
X2177Y101967
Y1005891
X2194945Y1086458
X2204Y10963
X2202819Y1112442
X2194945Y1125457
X2204Y11353
X2202819Y1151442
X213Y1022505
Y1008725
X1937Y1005891
Y101967
X189Y1022505
Y1008725
X1954945Y1086458
X1964Y10963
X1962819Y1112442
X1954945Y1125457
X1964Y11353
X1962819Y1151442
X1722819
X1724Y11353
X1714945Y1125457
X1722819Y1112442
X1724Y10963
X1714945Y1086458
X1697Y101967
Y1005891
X165Y1008725
Y1022505
X1457Y101967
Y1005891
X141Y1008725
Y1022505
X1474945Y1086458
X1484Y10963
X1482819Y1112442
X1474945Y1125457
X1484Y11353
X1482819Y1151442
X1242819
X1244Y11353
X1234945Y1125457
X1242819Y1112442
X1244Y10963
X1234945Y1086458
X1217Y101967
Y1005891
X117Y1008725
Y1022505
X0977Y101967
Y1005891
X093Y1008725
Y1022505
X0994945Y1086458
X1004Y10963
X1002819Y1112442
X0994945Y1125457
X1004Y11353
X1002819Y1151442
X0762819
X0764Y11353
X0754945Y1125457
X0762819Y1112442
X0764Y10963
X0754945Y1086458
X0737Y101967
Y1005891
X069Y1008725
Y1022505
X0497Y101967
Y1005891
X045Y1008725
Y1022505
X0514945Y1086458
X0524Y10963
X0522819Y1112442
X0514945Y1125457
X0524Y11353
X0522819Y1151442
X0282819
X0284Y11353
X0274945Y1125457
X0282819Y1112442
X0284Y10963
X0274945Y1086458
X0257Y101967
Y1005891
X021Y1008725
Y1022505
X0017Y101967
Y1005891
X0034945Y1086458
X0044Y10963
X0042819Y1112442
X0034945Y1125457
X0044Y11353
X0042819Y1151442
X0017Y1208095
Y1221875
Y1235654
Y1249434
Y1263213
Y1276993
Y1290772
Y1304552
X021Y1307387
Y1293607
Y1279828
Y1266048
Y1252269
Y1238489
Y1224709
Y121093
X0257Y1208095
Y1221875
Y1235654
Y1249434
Y1263213
Y1276993
Y1290772
Y1304552
X045Y1307387
Y1293607
Y1279828
Y1266048
Y1252269
Y1238489
Y1224709
Y121093
X0497Y1208095
Y1221875
Y1235654
Y1249434
Y1263213
Y1276993
Y1290772
Y1304552
X069Y1307387
Y1293607
Y1279828
Y1266048
Y1252269
Y1238489
Y1224709
Y121093
X0737Y1208095
Y1221875
Y1235654
Y1249434
Y1263213
Y1276993
Y1290772
Y1304552
X093Y1307387
Y1293607
Y1279828
Y1266048
Y1252269
Y1238489
Y1224709
Y121093
X0977Y1208095
Y1221875
Y1235654
Y1249434
Y1263213
Y1276993
Y1290772
Y1304552
X117Y1307387
Y1293607
Y1279828
Y1266048
Y1252269
Y1238489
Y1224709
Y121093
X1217Y1208095
Y1221875
Y1235654
Y1249434
Y1263213
Y1276993
Y1290772
Y1304552
X141Y1307387
Y1293607
Y1279828
Y1266048
Y1252269
Y1238489
Y1224709
Y121093
X1457Y1208095
Y1221875
Y1235654
Y1249434
Y1263213
Y1276993
Y1290772
Y1304552
X165Y1307387
Y1293607
Y1279828
Y1266048
Y1252269
Y1238489
Y1224709
Y121093
X1697Y1208095
Y1221875
Y1235654
Y1249434
Y1263213
Y1276993
Y1290772
Y1304552
X189Y1307387
Y1293607
Y1279828
Y1266048
Y1252269
Y1238489
Y1224709
Y121093
X1937Y1208095
Y1221875
Y1235654
Y1249434
Y1263213
Y1276993
Y1290772
Y1304552
X213Y1307387
Y1293607
Y1279828
Y1266048
Y1252269
Y1238489
Y1224709
Y121093
X2177Y1208095
Y1221875
Y1235654
Y1249434
Y1263213
Y1276993
Y1290772
Y1304552
X237Y1307387
Y1293607
Y1279828
Y1266048
Y1252269
Y1238489
Y1224709
Y121093
Y1321166
Y1334946
Y1348725
Y1362505
X2177Y135967
Y1345891
Y1332111
Y1318332
X2194945Y1426458
X2204Y14363
X2202819Y1452442
X2194945Y1465458
X213Y1362505
Y1348725
Y1334946
Y1321166
X1937Y1318332
Y1332111
Y1345891
Y135967
X189Y1362505
Y1348725
Y1334946
Y1321166
X1954945Y1426458
X1964Y14363
X1962819Y1452442
X1954945Y1465458
X1714945
X1722819Y1452442
X1724Y14363
X1714945Y1426458
X1697Y135967
Y1345891
Y1332111
Y1318332
X165Y1321166
Y1334946
Y1348725
Y1362505
X1457Y135967
Y1345891
Y1332111
Y1318332
X141Y1321166
Y1334946
Y1348725
Y1362505
X1474945Y1426458
X1484Y14363
X1482819Y1452442
X1474945Y1465458
X1234945
X1242819Y1452442
X1244Y14363
X1234945Y1426458
X1217Y135967
Y1345891
Y1332111
Y1318332
X117Y1321166
Y1334946
Y1348725
Y1362505
X0977Y135967
Y1345891
Y1332111
Y1318332
X093Y1321166
Y1334946
Y1348725
Y1362505
X0994945Y1426458
X1004Y14363
X1002819Y1452442
X0994945Y1465458
X0754945
X0762819Y1452442
X0764Y14363
X0754945Y1426458
X0737Y135967
Y1345891
Y1332111
Y1318332
X069Y1321166
Y1334946
Y1348725
Y1362505
X0497Y135967
Y1345891
Y1332111
Y1318332
X045Y1321166
Y1334946
Y1348725
Y1362505
X0514945Y1426458
X0524Y14363
X0522819Y1452442
X0514945Y1465458
X0274945
X0282819Y1452442
X0284Y14363
X0274945Y1426458
X0257Y135967
Y1345891
Y1332111
Y1318332
X021Y1321166
Y1334946
Y1348725
Y1362505
X0017Y135967
Y1345891
Y1332111
Y1318332
X0034945Y1426458
X0044Y14363
X0042819Y1452442
X0034945Y1465458
X0044Y14753
X0042819Y1491442
X0017Y1548095
Y1561875
Y1575654
Y1589434
Y1603213
Y1616993
X021Y1619828
Y1606048
Y1592268
Y1578489
Y1564709
Y155093
X0257Y1548095
Y1561875
Y1575654
Y1589434
Y1603213
Y1616993
X0282819Y1491442
X0284Y14753
X0524
X0522819Y1491442
X0497Y1548095
Y1561875
Y1575654
Y1589434
Y1603213
Y1616993
X045Y1619828
Y1606048
Y1592268
Y1578489
Y1564709
Y155093
X069
Y1564709
Y1578489
Y1592268
Y1606048
Y1619828
X0737Y1616993
Y1603213
Y1589434
Y1575654
Y1561875
Y1548095
X0762819Y1491442
X0764Y14753
X1004
X1002819Y1491442
X0977Y1548095
Y1561875
Y1575654
Y1589434
Y1603213
Y1616993
X093Y1619828
Y1606048
Y1592268
Y1578489
Y1564709
Y155093
X117
Y1564709
Y1578489
Y1592268
Y1606048
Y1619828
X1217Y1616993
Y1603213
Y1589434
Y1575654
Y1561875
Y1548095
X1242819Y1491442
X1244Y14753
X1484
X1482819Y1491442
X1457Y1548095
Y1561875
Y1575654
Y1589434
Y1603213
Y1616993
X141Y1619828
Y1606048
Y1592268
Y1578489
Y1564709
Y155093
X165
Y1564709
Y1578489
Y1592268
Y1606048
Y1619828
X1697Y1616993
Y1603213
Y1589434
Y1575654
Y1561875
Y1548095
X1722819Y1491442
X1724Y14753
X1964
X1962819Y1491442
X1937Y1548095
Y1561875
Y1575654
Y1589434
Y1603213
Y1616993
X189Y1619828
Y1606048
Y1592268
Y1578489
Y1564709
Y155093
X213
Y1564709
Y1578489
Y1592268
Y1606048
Y1619828
X2177Y1616993
Y1603213
Y1589434
Y1575654
Y1561875
Y1548095
X2202819Y1491442
X2204Y14753
X237Y155093
Y1564709
Y1578489
Y1592268
Y1606048
Y1619828
Y1633607
Y1647387
Y1661166
Y1674946
Y1688725
Y1702505
X2177Y169967
Y1685891
Y1672111
Y1658331
Y1644552
Y1630772
X213Y1633607
Y1647387
Y1661166
Y1674946
Y1688725
Y1702505
X1937Y169967
Y1685891
Y1672111
Y1658331
Y1644552
Y1630772
X189Y1633607
Y1647387
Y1661166
Y1674946
Y1688725
Y1702505
X1697Y169967
Y1685891
Y1672111
Y1658331
Y1644552
Y1630772
X165Y1633607
Y1647387
Y1661166
Y1674946
Y1688725
Y1702505
X1457Y169967
Y1685891
Y1672111
Y1658331
Y1644552
Y1630772
X141Y1633607
Y1647387
Y1661166
Y1674946
Y1688725
Y1702505
X1217Y169967
Y1685891
Y1672111
Y1658331
Y1644552
Y1630772
X117Y1633607
Y1647387
Y1661166
Y1674946
Y1688725
Y1702505
X0977Y169967
Y1685891
Y1672111
Y1658331
Y1644552
Y1630772
X093Y1633607
Y1647387
Y1661166
Y1674946
Y1688725
Y1702505
X0737Y169967
Y1685891
Y1672111
Y1658331
Y1644552
Y1630772
X069Y1633607
Y1647387
Y1661166
Y1674946
Y1688725
Y1702505
X0497Y169967
Y1685891
Y1672111
Y1658331
Y1644552
Y1630772
X045Y1633607
Y1647387
Y1661166
Y1674946
Y1688725
Y1702505
X0257Y169967
Y1685891
Y1672111
Y1658331
Y1644552
Y1630772
X021Y1633607
Y1647387
Y1661166
Y1674946
Y1688725
Y1702505
X0017Y169967
Y1685891
Y1672111
Y1658331
Y1644552
Y1630772
T03
X0074Y02253
Y02353
Y02453
Y02553
Y02653
Y02753
Y02853
Y02953
Y03053
Y03153
Y03253
Y03353
X0144
Y03253
Y03153
Y03053
Y02953
Y02853
Y02753
Y02653
Y02553
Y02453
Y02353
Y02253
X0314
Y02353
Y02453
Y02553
Y02653
Y02753
Y02853
Y02953
Y03053
Y03153
Y03253
Y03353
X0384
Y03253
Y03153
Y03053
Y02953
Y02853
Y02753
Y02653
Y02553
Y02453
Y02353
Y02253
X0554
Y02353
Y02453
Y02553
Y02653
Y02753
Y02853
Y02953
Y03053
Y03153
Y03253
Y03353
X0624
Y03253
Y03153
Y03053
Y02953
Y02853
Y02753
Y02653
Y02553
Y02453
Y02353
Y02253
X0794
Y02353
Y02453
Y02553
Y02653
Y02753
Y02853
Y02953
Y03053
Y03153
Y03253
Y03353
X0864
Y03253
Y03153
Y03053
Y02953
Y02853
Y02753
Y02653
Y02553
Y02453
Y02353
Y02253
X1034
Y02353
Y02453
Y02553
Y02653
Y02753
Y02853
Y02953
Y03053
Y03153
Y03253
Y03353
X1104
Y03253
Y03153
Y03053
Y02953
Y02853
Y02753
Y02653
Y02553
Y02453
Y02353
Y02253
X1274
Y02353
Y02453
Y02553
Y02653
Y02753
Y02853
Y02953
Y03053
Y03153
Y03253
Y03353
X1344
Y03253
Y03153
Y03053
Y02953
Y02853
Y02753
Y02653
Y02553
Y02453
Y02353
Y02253
X1514
Y02353
Y02453
Y02553
Y02653
Y02753
Y02853
Y02953
Y03053
Y03153
Y03253
Y03353
X1584
Y03253
Y03153
Y03053
Y02953
Y02853
Y02753
Y02653
Y02553
Y02453
Y02353
Y02253
X1754
Y02353
Y02453
Y02553
Y02653
Y02753
Y02853
Y02953
Y03053
Y03153
Y03253
Y03353
X1824
Y03253
Y03153
Y03053
Y02953
Y02853
Y02753
Y02653
Y02553
Y02453
Y02353
Y02253
X1994
Y02353
Y02453
Y02553
Y02653
Y02753
Y02853
Y02953
Y03053
Y03153
Y03253
Y03353
X2064
Y03253
Y03153
Y03053
Y02953
Y02853
Y02753
Y02653
Y02553
Y02453
Y02353
Y02253
X2234
Y02353
Y02453
Y02553
Y02653
Y02753
Y02853
Y02953
Y03053
Y03153
Y03253
Y03353
X2304
Y03253
Y03153
Y03053
Y02953
Y02853
Y02753
Y02653
Y02553
Y02453
Y02353
Y02253
X0074Y05653
Y05753
Y05853
Y05953
Y06053
Y06153
Y06253
Y06353
Y06453
Y06553
Y06653
Y06753
X0144
Y06653
Y06553
Y06453
Y06353
Y06253
Y06153
Y06053
Y05953
Y05853
Y05753
Y05653
X0314
Y05753
Y05853
Y05953
Y06053
Y06153
Y06253
Y06353
Y06453
Y06553
Y06653
Y06753
X0384
Y06653
Y06553
Y06453
Y06353
Y06253
Y06153
Y06053
Y05953
Y05853
Y05753
Y05653
X0554
Y05753
Y05853
Y05953
Y06053
Y06153
Y06253
Y06353
Y06453
Y06553
Y06653
Y06753
X0624
Y06653
Y06553
Y06453
Y06353
Y06253
Y06153
Y06053
Y05953
Y05853
Y05753
Y05653
X0794
Y05753
Y05853
Y05953
Y06053
Y06153
Y06253
Y06353
Y06453
Y06553
Y06653
Y06753
X0864
Y06653
Y06553
Y06453
Y06353
Y06253
Y06153
Y06053
Y05953
Y05853
Y05753
Y05653
X1034
Y05753
Y05853
Y05953
Y06053
Y06153
Y06253
Y06353
Y06453
Y06553
Y06653
Y06753
X1104
Y06653
Y06553
Y06453
Y06353
Y06253
Y06153
Y06053
Y05953
Y05853
Y05753
Y05653
X1274
Y05753
Y05853
Y05953
Y06053
Y06153
Y06253
Y06353
Y06453
Y06553
Y06653
Y06753
X1344
Y06653
Y06553
Y06453
Y06353
Y06253
Y06153
Y06053
Y05953
Y05853
Y05753
Y05653
X1514
Y05753
Y05853
Y05953
Y06053
Y06153
Y06253
Y06353
Y06453
Y06553
Y06653
Y06753
X1584
Y06653
Y06553
Y06453
Y06353
Y06253
Y06153
Y06053
Y05953
Y05853
Y05753
Y05653
X1754
Y05753
Y05853
Y05953
Y06053
Y06153
Y06253
Y06353
Y06453
Y06553
Y06653
Y06753
X1824
Y06653
Y06553
Y06453
Y06353
Y06253
Y06153
Y06053
Y05953
Y05853
Y05753
Y05653
X1994
Y05753
Y05853
Y05953
Y06053
Y06153
Y06253
Y06353
Y06453
Y06553
Y06653
Y06753
X2064
Y06653
Y06553
Y06453
Y06353
Y06253
Y06153
Y06053
Y05953
Y05853
Y05753
Y05653
X2234
Y05753
Y05853
Y05953
Y06053
Y06153
Y06253
Y06353
Y06453
Y06553
Y06653
Y06753
X2304
Y06653
Y06553
Y06453
Y06353
Y06253
Y06153
Y06053
Y05953
Y05853
Y05753
Y05653
X0074Y09053
Y09153
Y09253
Y09353
Y09453
Y09553
Y09653
Y09753
Y09853
Y09953
X0144
Y09853
Y09753
Y09653
Y09553
Y09453
Y09353
Y09253
Y09153
Y09053
X0314
Y09153
Y09253
Y09353
Y09453
Y09553
Y09653
Y09753
Y09853
Y09953
X0384
Y09853
Y09753
Y09653
Y09553
Y09453
Y09353
Y09253
Y09153
Y09053
X0554
Y09153
Y09253
Y09353
Y09453
Y09553
Y09653
Y09753
Y09853
Y09953
X0624
Y09853
Y09753
Y09653
Y09553
Y09453
Y09353
Y09253
Y09153
Y09053
X0794
Y09153
Y09253
Y09353
Y09453
Y09553
Y09653
Y09753
Y09853
Y09953
X0864
Y09853
Y09753
Y09653
Y09553
Y09453
Y09353
Y09253
Y09153
Y09053
X1034
Y09153
Y09253
Y09353
Y09453
Y09553
Y09653
Y09753
Y09853
Y09953
X1104
Y09853
Y09753
Y09653
Y09553
Y09453
Y09353
Y09253
Y09153
Y09053
X1274
Y09153
Y09253
Y09353
Y09453
Y09553
Y09653
Y09753
Y09853
Y09953
X1344
Y09853
Y09753
Y09653
Y09553
Y09453
Y09353
Y09253
Y09153
Y09053
X1514
Y09153
Y09253
Y09353
Y09453
Y09553
Y09653
Y09753
Y09853
Y09953
X1584
Y09853
Y09753
Y09653
Y09553
Y09453
Y09353
Y09253
Y09153
Y09053
X1754
Y09153
Y09253
Y09353
Y09453
Y09553
Y09653
Y09753
Y09853
Y09953
X1824
Y09853
Y09753
Y09653
Y09553
Y09453
Y09353
Y09253
Y09153
Y09053
X1994
Y09153
Y09253
Y09353
Y09453
Y09553
Y09653
Y09753
Y09853
Y09953
X2064
Y09853
Y09753
Y09653
Y09553
Y09453
Y09353
Y09253
Y09153
Y09053
X2234
Y09153
Y09253
Y09353
Y09453
Y09553
Y09653
Y09753
Y09853
Y09953
X2304
Y09853
Y09753
Y09653
Y09553
Y09453
Y09353
Y09253
Y09153
Y09053
Y10053
Y10153
X2234
Y10053
X2064
Y10153
X1994
Y10053
X1824
Y10153
X1754
Y10053
X1584
Y10153
X1514
Y10053
X1344
Y10153
X1274
Y10053
X1104
Y10153
X1034
Y10053
X0864
Y10153
X0794
Y10053
X0624
Y10153
X0554
Y10053
X0384
Y10153
X0314
Y10053
X0144
Y10153
X0074
Y10053
Y12453
Y12553
Y12653
Y12753
Y12853
Y12953
Y13053
X0144
Y12953
Y12853
Y12753
Y12653
Y12553
Y12453
X0314
Y12553
Y12653
Y12753
Y12853
Y12953
Y13053
X0384
Y12953
Y12853
Y12753
Y12653
Y12553
Y12453
X0554
Y12553
Y12653
Y12753
Y12853
Y12953
Y13053
X0624
Y12953
Y12853
Y12753
Y12653
Y12553
Y12453
X0794
Y12553
Y12653
Y12753
Y12853
Y12953
Y13053
X0864
Y12953
Y12853
Y12753
Y12653
Y12553
Y12453
X1034
Y12553
Y12653
Y12753
Y12853
Y12953
Y13053
X1104
Y12953
Y12853
Y12753
Y12653
Y12553
Y12453
X1274
Y12553
Y12653
Y12753
Y12853
Y12953
Y13053
X1344
Y12953
Y12853
Y12753
Y12653
Y12553
Y12453
X1514
Y12553
Y12653
Y12753
Y12853
Y12953
Y13053
X1584
Y12953
Y12853
Y12753
Y12653
Y12553
Y12453
X1754
Y12553
Y12653
Y12753
Y12853
Y12953
Y13053
X1824
Y12953
Y12853
Y12753
Y12653
Y12553
Y12453
X1994
Y12553
Y12653
Y12753
Y12853
Y12953
Y13053
X2064
Y12953
Y12853
Y12753
Y12653
Y12553
Y12453
X2234
Y12553
Y12653
Y12753
Y12853
Y12953
Y13053
X2304
Y12953
Y12853
Y12753
Y12653
Y12553
Y12453
Y13153
Y13253
Y13353
Y13453
Y13553
X2234
Y13453
Y13353
Y13253
Y13153
X2064
Y13253
Y13353
Y13453
Y13553
X1994
Y13453
Y13353
Y13253
Y13153
X1824
Y13253
Y13353
Y13453
Y13553
X1754
Y13453
Y13353
Y13253
Y13153
X1584
Y13253
Y13353
Y13453
Y13553
X1514
Y13453
Y13353
Y13253
Y13153
X1344
Y13253
Y13353
Y13453
Y13553
X1274
Y13453
Y13353
Y13253
Y13153
X1104
Y13253
Y13353
Y13453
Y13553
X1034
Y13453
Y13353
Y13253
Y13153
X0864
Y13253
Y13353
Y13453
Y13553
X0794
Y13453
Y13353
Y13253
Y13153
X0624
Y13253
Y13353
Y13453
Y13553
X0554
Y13453
Y13353
Y13253
Y13153
X0384
Y13253
Y13353
Y13453
Y13553
X0314
Y13453
Y13353
Y13253
Y13153
X0144
Y13253
Y13353
Y13453
Y13553
X0074
Y13453
Y13353
Y13253
Y13153
Y15853
Y15953
Y16053
Y16153
Y16253
X0144
Y16153
Y16053
Y15953
Y15853
X0314
Y15953
Y16053
Y16153
Y16253
X0384
Y16153
Y16053
Y15953
Y15853
X0554
Y15953
Y16053
Y16153
Y16253
X0624
Y16153
Y16053
Y15953
Y15853
X0794
Y15953
Y16053
Y16153
Y16253
X0864
Y16153
Y16053
Y15953
Y15853
X1034
Y15953
Y16053
Y16153
Y16253
X1104
Y16153
Y16053
Y15953
Y15853
X1274
Y15953
Y16053
Y16153
Y16253
X1344
Y16153
Y16053
Y15953
Y15853
X1514
Y15953
Y16053
Y16153
Y16253
X1584
Y16153
Y16053
Y15953
Y15853
X1754
Y15953
Y16053
Y16153
Y16253
X1824
Y16153
Y16053
Y15953
Y15853
X1994
Y15953
Y16053
Y16153
Y16253
X2064
Y16153
Y16053
Y15953
Y15853
X2234
Y15953
Y16053
Y16153
Y16253
X2304
Y16153
Y16053
Y15953
Y15853
Y16353
Y16453
Y16553
Y16653
Y16753
Y16853
Y16953
X2234
Y16853
Y16753
Y16653
Y16553
Y16453
Y16353
X2064
Y16453
Y16553
Y16653
Y16753
Y16853
Y16953
X1994
Y16853
Y16753
Y16653
Y16553
Y16453
Y16353
X1824
Y16453
Y16553
Y16653
Y16753
Y16853
Y16953
X1754
Y16853
Y16753
Y16653
Y16553
Y16453
Y16353
X1584
Y16453
Y16553
Y16653
Y16753
Y16853
Y16953
X1514
Y16853
Y16753
Y16653
Y16553
Y16453
Y16353
X1344
Y16453
Y16553
Y16653
Y16753
Y16853
Y16953
X1274
Y16853
Y16753
Y16653
Y16553
Y16453
Y16353
X1104
Y16453
Y16553
Y16653
Y16753
Y16853
Y16953
X1034
Y16853
Y16753
Y16653
Y16553
Y16453
Y16353
X0864
Y16453
Y16553
Y16653
Y16753
Y16853
Y16953
X0794
Y16853
Y16753
Y16653
Y16553
Y16453
Y16353
X0624
Y16453
Y16553
Y16653
Y16753
Y16853
Y16953
X0554
Y16853
Y16753
Y16653
Y16553
Y16453
Y16353
X0384
Y16453
Y16553
Y16653
Y16753
Y16853
Y16953
X0314
Y16853
Y16753
Y16653
Y16553
Y16453
Y16353
X0144
Y16453
Y16553
Y16653
Y16753
Y16853
Y16953
X0074
Y16853
Y16753
Y16653
Y16553
Y16453
Y16353
T04
X2377543Y0069505
X2373606Y0122654
X2319669
X2290929
X2294866Y0069505
X2315732
X2233055
X2181165Y0068426
Y0088111
Y0107426
Y0127111
X2133606Y0122654
X2137543Y0069505
X2236992Y0122654
X2079669
X2050929
X1996992
X1993055Y0069505
X2054866
X2075732
X1941165Y0068426
Y0088111
Y0107426
Y0127111
X1893606Y0122654
X1839669
X1835732Y0069505
X1897543
X1814866
X1810929Y0122654
X1756992
X1753055Y0069505
X1701165Y0068426
Y0088111
Y0107426
Y0127111
X1653606Y0122654
X1599669
X1570929
X1516992
X1513055Y0069505
X1574866
X1595732
X1657543
X1461165Y0068426
Y0088111
Y0107426
Y0127111
X1413606Y0122654
X1359669
X1355732Y0069505
X1417543
X1334866
X1330929Y0122654
X1276992
X1273055Y0069505
X1221165Y0068426
Y0088111
Y0107426
Y0127111
X1173606Y0122654
X1119669
X1090929
X1094866Y0069505
X1115732
X1177543
X1033055
X0981165Y0068426
Y0088111
Y0107426
Y0127111
X0933606Y0122654
X0937543Y0069505
X1036992Y0122654
X0879669
X0850929
X0796992
X0793055Y0069505
X0741165Y0068426
Y0088111
Y0107426
Y0127111
X0854866Y0069505
X0875732
X0697543
X0693606Y0122654
X0639669
X0610929
X0614866Y0069505
X0635732
X0553055
X0501165Y0068426
Y0088111
Y0107426
Y0127111
X0453606Y0122654
X0457543Y0069505
X0556992Y0122654
X0399669
X0370929
X0316992
X0313055Y0069505
X0261165Y0068426
Y0088111
Y0107426
Y0127111
X0374866Y0069505
X0395732
X0217543
X0213606Y0122654
X0159669
X0130929
X0134866Y0069505
X0155732
X0073055
X0021165Y0068426
Y0088111
Y0107426
Y0127111
X0076992Y0122654
X2294866Y0409505
X2315732
X2319669Y0462654
X2290929
X2373606
X2377543Y0409505
X2233055
X2181165Y0408426
Y0428111
Y0447426
Y0467111
X2133606Y0462654
X2137543Y0409505
X2236992Y0462654
X2079669
X2050929
X1996992
X1993055Y0409505
X2054866
X2075732
X1941165Y0408426
Y0428111
Y0447426
Y0467111
X1893606Y0462654
X1839669
X1835732Y0409505
X1897543
X1814866
X1810929Y0462654
X1756992
X1753055Y0409505
X1701165Y0408426
Y0428111
Y0447426
Y0467111
X1653606Y0462654
X1599669
X1570929
X1516992
X1513055Y0409505
X1574866
X1595732
X1657543
X1461165Y0408426
Y0428111
Y0447426
Y0467111
X1413606Y0462654
X1359669
X1355732Y0409505
X1417543
X1334866
X1330929Y0462654
X1276992
X1273055Y0409505
X1221165Y0408426
Y0428111
Y0447426
Y0467111
X1173606Y0462654
X1119669
X1090929
X1094866Y0409505
X1115732
X1177543
X1033055
X0981165Y0408426
Y0428111
Y0447426
Y0467111
X0933606Y0462654
X0937543Y0409505
X1036992Y0462654
X0879669
X0850929
X0796992
X0793055Y0409505
X0741165Y0408426
Y0428111
Y0447426
Y0467111
X0854866Y0409505
X0875732
X0697543
X0693606Y0462654
X0639669
X0610929
X0614866Y0409505
X0635732
X0553055
X0501165Y0408426
Y0428111
Y0447426
Y0467111
X0453606Y0462654
X0457543Y0409505
X0556992Y0462654
X0399669
X0370929
X0316992
X0313055Y0409505
X0261165Y0408426
Y0428111
Y0447426
Y0467111
X0374866Y0409505
X0395732
X0217543
X0213606Y0462654
X0159669
X0130929
X0134866Y0409505
X0155732
X0073055
X0021165Y0408426
Y0428111
Y0447426
Y0467111
X0076992Y0462654
X2294866Y0749505
X2315732
X2319669Y0802654
X2290929
X2373606
X2377543Y0749505
X2233055
X2181165Y0748426
Y0768111
Y0787426
Y0807111
X2133606Y0802654
X2137543Y0749505
X2236992Y0802654
X2079669
X2050929
X1996992
X1993055Y0749505
X2054866
X2075732
X1941165Y0748426
Y0768111
Y0787426
Y0807111
X1893606Y0802654
X1839669
X1835732Y0749505
X1897543
X1814866
X1810929Y0802654
X1756992
X1753055Y0749505
X1701165Y0748426
Y0768111
Y0787426
Y0807111
X1653606Y0802654
X1599669
X1570929
X1516992
X1513055Y0749505
X1574866
X1595732
X1657543
X1461165Y0748426
Y0768111
Y0787426
Y0807111
X1413606Y0802654
X1359669
X1355732Y0749505
X1417543
X1334866
X1330929Y0802654
X1276992
X1273055Y0749505
X1221165Y0748426
Y0768111
Y0787426
Y0807111
X1173606Y0802654
X1119669
X1090929
X1094866Y0749505
X1115732
X1177543
X1033055
X0981165Y0748426
Y0768111
Y0787426
Y0807111
X0933606Y0802654
X0937543Y0749505
X1036992Y0802654
X0879669
X0850929
X0796992
X0793055Y0749505
X0741165Y0748426
Y0768111
Y0787426
Y0807111
X0854866Y0749505
X0875732
X0697543
X0693606Y0802654
X0639669
X0610929
X0614866Y0749505
X0635732
X0553055
X0501165Y0748426
Y0768111
Y0787426
Y0807111
X0453606Y0802654
X0457543Y0749505
X0556992Y0802654
X0399669
X0370929
X0316992
X0313055Y0749505
X0261165Y0748426
Y0768111
Y0787426
Y0807111
X0374866Y0749505
X0395732
X0217543
X0213606Y0802654
X0159669
X0130929
X0134866Y0749505
X0155732
X0073055
X0021165Y0748426
Y0768111
Y0787426
Y0807111
X0076992Y0802654
X2294866Y1089505
X2315732
X2319669Y1142654
X2290929
X2373606
X2377543Y1089505
X2233055
X2181165Y1088426
Y1108111
Y1127426
Y1147111
X2133606Y1142654
X2137543Y1089505
X2236992Y1142654
X2079669
X2050929
X1996992
X1993055Y1089505
X2054866
X2075732
X1941165Y1088426
Y1108111
Y1127426
Y1147111
X1893606Y1142654
X1839669
X1835732Y1089505
X1897543
X1814866
X1810929Y1142654
X1756992
X1753055Y1089505
X1701165Y1088426
Y1108111
Y1127426
Y1147111
X1653606Y1142654
X1599669
X1570929
X1516992
X1513055Y1089505
X1574866
X1595732
X1657543
X1461165Y1088426
Y1108111
Y1127426
Y1147111
X1413606Y1142654
X1359669
X1355732Y1089505
X1417543
X1334866
X1330929Y1142654
X1276992
X1273055Y1089505
X1221165Y1088426
Y1108111
Y1127426
Y1147111
X1173606Y1142654
X1119669
X1090929
X1094866Y1089505
X1115732
X1177543
X1033055
X0981165Y1088426
Y1108111
Y1127426
Y1147111
X0933606Y1142654
X0937543Y1089505
X1036992Y1142654
X0879669
X0850929
X0796992
X0793055Y1089505
X0741165Y1088426
Y1108111
Y1127426
Y1147111
X0854866Y1089505
X0875732
X0697543
X0693606Y1142654
X0639669
X0610929
X0614866Y1089505
X0635732
X0553055
X0501165Y1088426
Y1108111
Y1127426
Y1147111
X0453606Y1142654
X0457543Y1089505
X0556992Y1142654
X0399669
X0370929
X0316992
X0313055Y1089505
X0261165Y1088426
Y1108111
Y1127426
Y1147111
X0374866Y1089505
X0395732
X0217543
X0213606Y1142654
X0159669
X0130929
X0134866Y1089505
X0155732
X0073055
X0021165Y1088426
Y1108111
Y1127426
Y1147111
X0076992Y1142654
X2294866Y1429505
X2315732
X2377543
X2233055
X2181165Y1428426
Y1448111
Y1467426
X2137543Y1429505
X2075732
X2054866
X1993055
X1941165Y1428426
Y1448111
Y1467426
X1897543Y1429505
X1835732
X1814866
X1753055
X1701165Y1428426
Y1448111
Y1467426
X1657543Y1429505
X1595732
X1574866
X1513055
X1461165Y1428426
Y1448111
Y1467426
X1417543Y1429505
X1355732
X1334866
X1273055
X1221165Y1428426
Y1448111
Y1467426
X1177543Y1429505
X1115732
X1094866
X1033055
X0981165Y1428426
Y1448111
Y1467426
X0937543Y1429505
X0875732
X0854866
X0793055
X0741165Y1428426
Y1448111
Y1467426
X0697543Y1429505
X0635732
X0614866
X0553055
X0501165Y1428426
Y1448111
Y1467426
X0457543Y1429505
X0395732
X0374866
X0313055
X0261165Y1428426
Y1448111
Y1467426
X0217543Y1429505
X0155732
X0134866
X0073055
X0021165Y1428426
Y1448111
Y1467426
Y1487111
X0076992Y1482654
X0130929
X0159669
X0213606
X0261165Y1487111
X0316992Y1482654
X0370929
X0399669
X0453606
X0501165Y1487111
X0556992Y1482654
X0610929
X0639669
X0693606
X0741165Y1487111
X0796992Y1482654
X0850929
X0879669
X0933606
X0981165Y1487111
X1036992Y1482654
X1090929
X1119669
X1173606
X1221165Y1487111
X1276992Y1482654
X1330929
X1359669
X1413606
X1461165Y1487111
X1516992Y1482654
X1570929
X1599669
X1653606
X1701165Y1487111
X1756992Y1482654
X1810929
X1839669
X1893606
X1941165Y1487111
X1996992Y1482654
X2050929
X2079669
X2133606
X2181165Y1487111
X2236992Y1482654
X2290929
X2319669
X2373606
T05
X2181284Y0159284
X1941283
X1701283
X1461283
X1221284
X0981283
X0741284
X0501284
X0261283
X0021283
Y0369284
X0206283Y0369111
X0261283Y0369284
X0446283Y0369111
X0501284Y0369284
X0686283Y0369111
X0741284Y0369284
X0926283Y0369111
X0981283Y0369284
X1166283Y0369111
X1221284Y0369284
X1406283Y0369111
X1461283Y0369284
X1646283Y0369111
X1701283Y0369284
X1886283Y0369111
X1941283Y0369284
X2126283Y0369111
X2181284Y0369284
X2366283Y0369111
X2181284Y0499284
X1941283
X1701283
X1461283
X1221284
X0981283
X0741284
X0501284
X0261283
X0021283
X2366283Y0709111
X2181284Y0709284
Y0839284
X2126283Y0709111
X1941283Y0709284
X1886283Y0709111
X1941283Y0839284
X1701283
Y0709284
X1646283Y0709111
X1461283Y0709284
X1406283Y0709111
X1461283Y0839284
X1221284
Y0709284
X1166283Y0709111
X0981283Y0709284
X0926283Y0709111
X0981283Y0839284
X0741284
Y0709284
X0686283Y0709111
X0501284Y0709284
X0446283Y0709111
X0501284Y0839284
X0261283
Y0709284
X0206283Y0709111
X0021283Y0709284
Y0839284
X2366283Y1049111
X2181284Y1049284
X2126283Y1049111
X1941283Y1049284
X1886283Y1049111
X1701283Y1049284
X1646283Y1049111
X1461283Y1049284
X1406283Y1049111
X1221284Y1049284
X1166283Y1049111
X0981283Y1049284
X0926283Y1049111
X0741284Y1049284
X0686283Y1049111
X0501284Y1049284
X0446283Y1049111
X0261283Y1049284
X0206283Y1049111
X0021283Y1049284
Y1179284
X0261283
X0501284
X0741284
X0981283
X1221284
X1461283
X1701283
X1941283
X2181284
X2366283Y1389111
X2181284Y1389284
X2126283Y1389111
X1941283Y1389284
X1886283Y1389111
X1701283Y1389284
X1646283Y1389111
X1461283Y1389284
X1406283Y1389111
X1221284Y1389284
X1166283Y1389111
X0981283Y1389284
X0926283Y1389111
X0741284Y1389284
X0686283Y1389111
X0501284Y1389284
X0446283Y1389111
X0261283Y1389284
X0206283Y1389111
X0021283Y1389284
Y1519284
X0261283
X0501284
X0741284
X0981283
X1221284
X1461283
X1701283
X1941283
X2181284
X2366283Y1729111
X2181284Y1729284
X2126283Y1729111
X1941283Y1729284
X1886283Y1729111
X1701283Y1729284
X1646283Y1729111
X1461283Y1729284
X1406283Y1729111
X1221284Y1729284
X1166283Y1729111
X0981283Y1729284
X0926283Y1729111
X0741284Y1729284
X0686283Y1729111
X0501284Y1729284
X0446283Y1729111
X0261283Y1729284
X0206283Y1729111
X0021283Y1729284
M30
