M48
;Layer_Color=9474304
;FILE_FORMAT=2:5
INCH,LZ
;TYPE=PLATED
T1F00S00C0.01000
T2F00S00C0.03543
T3F00S00C0.04724
T4F00S00C0.06968
T5F00S00C0.19685
%
T01
X03297Y01839
X03304Y02116
X03247Y02581
X03701Y0234
X03815Y02224
X03814Y02094
X03818Y02002
X03623Y01903
X0421Y01839
X04219Y02111
X02824Y02011
X02697Y02195
X02673Y01815
X02964Y02486
X03275Y03497
T02
X0355Y0268
Y0278
Y0288
Y0298
Y0308
X0285
Y0298
Y0288
Y0278
Y0268
Y0318
Y0328
Y0338
Y0348
Y0358
Y0368
Y0378
X0355
Y0368
Y0358
Y0348
Y0338
Y0328
Y0318
T03
X0245945Y0109158
X0255Y0119
X0253819Y0135142
X0245945Y0148158
X0421Y023363
Y024741
Y0261189
Y0274969
Y0288748
Y0302528
X0228Y0299693
Y0285913
Y0272134
Y0258354
Y0244575
Y0230795
X0253819Y0174142
X0255Y0158
X0228Y0313472
Y0327252
Y0341032
Y0354811
Y036859
Y038237
X0421Y0385205
Y0371425
Y0357646
Y0343866
Y0330087
Y0316307
T04
X0232165Y0111126
Y0130811
Y0150126
X0284055Y0112205
X0345866
X0366732
X0428543
X0424606Y0165354
X0370669
X0341929
X0287992
X0232165Y0169811
T05
X0232283Y0201984
Y0411984
X0417283Y0411811
M30
