%FSLAX25Y25*%
%MOIN*%
G70*
G01*
G75*
G04:AMPARAMS|DCode=10|XSize=37.4mil|YSize=25.59mil|CornerRadius=6.4mil|HoleSize=0mil|Usage=FLASHONLY|Rotation=270.000|XOffset=0mil|YOffset=0mil|HoleType=Round|Shape=RoundedRectangle|*
%AMROUNDEDRECTD10*
21,1,0.03740,0.01280,0,0,270.0*
21,1,0.02461,0.02559,0,0,270.0*
1,1,0.01280,-0.00640,-0.01230*
1,1,0.01280,-0.00640,0.01230*
1,1,0.01280,0.00640,0.01230*
1,1,0.01280,0.00640,-0.01230*
%
%ADD10ROUNDEDRECTD10*%
%ADD11R,0.02559X0.03740*%
%ADD12O,0.02362X0.07480*%
%ADD13R,0.03900X0.04300*%
%ADD14C,0.04000*%
%ADD15R,0.04300X0.03900*%
%ADD16C,0.01500*%
%ADD17C,0.01000*%
%ADD18C,0.02000*%
%ADD19C,0.01200*%
%ADD20C,0.00394*%
%ADD21R,0.07087X0.07087*%
%ADD22C,0.07087*%
%ADD23C,0.09449*%
%ADD24R,0.07500X0.07500*%
%ADD25C,0.07500*%
%ADD26C,0.08661*%
%ADD27C,0.31496*%
%ADD28C,0.02500*%
%ADD29C,0.00787*%
%ADD30C,0.01575*%
%ADD31C,0.00984*%
%ADD32C,0.00700*%
%ADD33C,0.00800*%
D17*
X214614Y393000D02*
X241386D01*
Y223315D02*
Y393000D01*
X214614Y223315D02*
Y393000D01*
Y223315D02*
X241386D01*
X354331Y104354D02*
Y175197D01*
X275590Y104354D02*
X354331D01*
X275590D02*
Y175197D01*
X354331D01*
X214646Y179654D02*
X260906D01*
X214646Y143100D02*
Y179654D01*
Y143100D02*
X260906D01*
Y179654D01*
X437008Y104354D02*
Y175197D01*
X358268Y104354D02*
X437008D01*
X358268D02*
Y175197D01*
X437008D01*
X214646Y140654D02*
X260906D01*
X214646Y104100D02*
Y140654D01*
Y104100D02*
X260906D01*
Y140654D01*
X407614Y223000D02*
X434386D01*
X407614D02*
Y392685D01*
X434386Y223000D02*
Y392685D01*
X407614D02*
X434386D01*
X280000Y393000D02*
X360000D01*
X280000Y263000D02*
Y393000D01*
Y263000D02*
X290000Y253000D01*
X350000D01*
X360000Y263000D01*
Y393000D01*
X361900Y229700D02*
X368100D01*
X318898Y166385D02*
X322896D01*
X320897Y168384D02*
Y164385D01*
X307087Y166385D02*
X311085D01*
X401575D02*
X405574D01*
X403574Y168384D02*
Y164385D01*
X389764Y166385D02*
X393762D01*
X246000Y379000D02*
X247999D01*
X247000D01*
Y384998D01*
X246000Y383998D01*
X250998Y379000D02*
Y380000D01*
X251998D01*
Y379000D01*
X250998D01*
X255997D02*
Y384998D01*
X258996D01*
X259996Y383998D01*
Y381999D01*
X258996Y380999D01*
X255997D01*
X257996D02*
X259996Y379000D01*
X261995D02*
Y382999D01*
X263994Y384998D01*
X265993Y382999D01*
Y379000D01*
Y381999D01*
X261995D01*
X267993Y384998D02*
Y379000D01*
X269992Y380999D01*
X271992Y379000D01*
Y384998D01*
X248999Y365000D02*
X245000D01*
X248999Y368999D01*
Y369998D01*
X247999Y370998D01*
X246000D01*
X245000Y369998D01*
X250998Y365000D02*
Y366000D01*
X251998D01*
Y365000D01*
X250998D01*
X259995Y369998D02*
X258996Y370998D01*
X256996D01*
X255996Y369998D01*
Y366000D01*
X256996Y365000D01*
X258996D01*
X259995Y366000D01*
Y367999D01*
X257996D01*
X261995Y365000D02*
Y370998D01*
X265993Y365000D01*
Y370998D01*
X267993D02*
Y365000D01*
X270992D01*
X271991Y366000D01*
Y369998D01*
X270992Y370998D01*
X267993D01*
X250000Y356998D02*
X251000Y357998D01*
X252999D01*
X253999Y356998D01*
Y355999D01*
X252999Y354999D01*
X251999D01*
X252999D01*
X253999Y353999D01*
Y353000D01*
X252999Y352000D01*
X251000D01*
X250000Y353000D01*
X255998Y352000D02*
Y353000D01*
X256998D01*
Y352000D01*
X255998D01*
X260996Y357998D02*
X264995D01*
X262996D01*
Y352000D01*
X266995Y357998D02*
X270993Y352000D01*
Y357998D02*
X266995Y352000D01*
X252999Y339000D02*
Y344998D01*
X250000Y341999D01*
X253999D01*
X255998Y339000D02*
Y340000D01*
X256998D01*
Y339000D01*
X255998D01*
X260996D02*
Y344998D01*
X263996D01*
X264995Y343998D01*
Y341999D01*
X263996Y340999D01*
X260996D01*
X262996D02*
X264995Y339000D01*
X266995Y344998D02*
X270993Y339000D01*
Y344998D02*
X266995Y339000D01*
X253999Y329998D02*
X250000D01*
Y326999D01*
X251999Y327999D01*
X252999D01*
X253999Y326999D01*
Y325000D01*
X252999Y324000D01*
X251000D01*
X250000Y325000D01*
X255998Y324000D02*
Y325000D01*
X256998D01*
Y324000D01*
X255998D01*
X260996D02*
Y327999D01*
X262996Y329998D01*
X264995Y327999D01*
Y324000D01*
Y326999D01*
X260996D01*
X266995Y329998D02*
X270993D01*
Y328998D01*
X266995Y325000D01*
Y324000D01*
X253999Y316998D02*
X251999Y315998D01*
X250000Y313999D01*
Y312000D01*
X251000Y311000D01*
X252999D01*
X253999Y312000D01*
Y312999D01*
X252999Y313999D01*
X250000D01*
X255998Y311000D02*
Y312000D01*
X256998D01*
Y311000D01*
X255998D01*
X260996D02*
Y314999D01*
X262996Y316998D01*
X264995Y314999D01*
Y311000D01*
Y313999D01*
X260996D01*
X270993Y316998D02*
X268994Y315998D01*
X266995Y313999D01*
Y312000D01*
X267994Y311000D01*
X269993D01*
X270993Y312000D01*
Y312999D01*
X269993Y313999D01*
X266995D01*
X250000Y301998D02*
X253999D01*
Y300998D01*
X250000Y297000D01*
Y296000D01*
X255998D02*
Y297000D01*
X256998D01*
Y296000D01*
X255998D01*
X260996D02*
Y299999D01*
X262996Y301998D01*
X264995Y299999D01*
Y296000D01*
Y298999D01*
X260996D01*
X270993Y301998D02*
X266995D01*
Y298999D01*
X268994Y299999D01*
X269993D01*
X270993Y298999D01*
Y297000D01*
X269993Y296000D01*
X267994D01*
X266995Y297000D01*
X250000Y287998D02*
X251000Y288998D01*
X252999D01*
X253999Y287998D01*
Y286999D01*
X252999Y285999D01*
X253999Y284999D01*
Y284000D01*
X252999Y283000D01*
X251000D01*
X250000Y284000D01*
Y284999D01*
X251000Y285999D01*
X250000Y286999D01*
Y287998D01*
X251000Y285999D02*
X252999D01*
X255998Y283000D02*
Y284000D01*
X256998D01*
Y283000D01*
X255998D01*
X260996D02*
Y286999D01*
X262996Y288998D01*
X264995Y286999D01*
Y283000D01*
Y285999D01*
X260996D01*
X269993Y283000D02*
Y288998D01*
X266995Y285999D01*
X270993D01*
X250000Y270000D02*
X251000Y269000D01*
X252999D01*
X253999Y270000D01*
Y273998D01*
X252999Y274998D01*
X251000D01*
X250000Y273998D01*
Y272999D01*
X251000Y271999D01*
X253999D01*
X255998Y269000D02*
Y270000D01*
X256998D01*
Y269000D01*
X255998D01*
X260996D02*
Y272999D01*
X262996Y274998D01*
X264995Y272999D01*
Y269000D01*
Y271999D01*
X260996D01*
X266995Y273998D02*
X267994Y274998D01*
X269993D01*
X270993Y273998D01*
Y272999D01*
X269993Y271999D01*
X268994D01*
X269993D01*
X270993Y270999D01*
Y270000D01*
X269993Y269000D01*
X267994D01*
X266995Y270000D01*
X246000Y256000D02*
X247999D01*
X247000D01*
Y261998D01*
X246000Y260998D01*
X250998D02*
X251998Y261998D01*
X253997D01*
X254997Y260998D01*
Y257000D01*
X253997Y256000D01*
X251998D01*
X250998Y257000D01*
Y260998D01*
X256996Y256000D02*
Y257000D01*
X257996D01*
Y256000D01*
X256996D01*
X261995D02*
Y259999D01*
X263994Y261998D01*
X265993Y259999D01*
Y256000D01*
Y258999D01*
X261995D01*
X271992Y256000D02*
X267993D01*
X271992Y259999D01*
Y260998D01*
X270992Y261998D01*
X268993D01*
X267993Y260998D01*
X248000Y242000D02*
X249999D01*
X249000D01*
Y247998D01*
X248000Y246998D01*
X252998Y242000D02*
X254998D01*
X253998D01*
Y247998D01*
X252998Y246998D01*
X257997Y242000D02*
Y243000D01*
X258996D01*
Y242000D01*
X257997D01*
X262995D02*
Y245999D01*
X264995Y247998D01*
X266994Y245999D01*
Y242000D01*
Y244999D01*
X262995D01*
X268993Y242000D02*
X270992D01*
X269993D01*
Y247998D01*
X268993Y246998D01*
X245000Y227000D02*
X246999D01*
X246000D01*
Y232998D01*
X245000Y231998D01*
X253997Y227000D02*
X249998D01*
X253997Y230999D01*
Y231998D01*
X252997Y232998D01*
X250998D01*
X249998Y231998D01*
X255996Y227000D02*
Y228000D01*
X256996D01*
Y227000D01*
X255996D01*
X260995D02*
Y230999D01*
X262994Y232998D01*
X264994Y230999D01*
Y227000D01*
Y229999D01*
X260995D01*
X266993Y231998D02*
X267993Y232998D01*
X269992D01*
X270992Y231998D01*
Y228000D01*
X269992Y227000D01*
X267993D01*
X266993Y228000D01*
Y231998D01*
X374999Y382000D02*
X371000D01*
X374999Y385999D01*
Y386998D01*
X373999Y387998D01*
X372000D01*
X371000Y386998D01*
X379997Y382000D02*
Y387998D01*
X376998Y384999D01*
X380997D01*
X382996Y382000D02*
Y383000D01*
X383996D01*
Y382000D01*
X382996D01*
X387995Y386998D02*
X388994Y387998D01*
X390993D01*
X391993Y386998D01*
Y385999D01*
X390993Y384999D01*
X389994D01*
X390993D01*
X391993Y383999D01*
Y383000D01*
X390993Y382000D01*
X388994D01*
X387995Y383000D01*
X393993Y387998D02*
Y383999D01*
X395992Y382000D01*
X397991Y383999D01*
Y387998D01*
X399991Y386998D02*
X400990Y387998D01*
X402990D01*
X403989Y386998D01*
Y385999D01*
X402990Y384999D01*
X401990D01*
X402990D01*
X403989Y383999D01*
Y383000D01*
X402990Y382000D01*
X400990D01*
X399991Y383000D01*
X374999Y369000D02*
X371000D01*
X374999Y372999D01*
Y373998D01*
X373999Y374998D01*
X372000D01*
X371000Y373998D01*
X376998D02*
X377998Y374998D01*
X379997D01*
X380997Y373998D01*
Y372999D01*
X379997Y371999D01*
X378997D01*
X379997D01*
X380997Y370999D01*
Y370000D01*
X379997Y369000D01*
X377998D01*
X376998Y370000D01*
X382996Y369000D02*
Y370000D01*
X383996D01*
Y369000D01*
X382996D01*
X387995D02*
Y374998D01*
X390993D01*
X391993Y373998D01*
Y371999D01*
X390993Y370999D01*
X387995D01*
X389994D02*
X391993Y369000D01*
X397991Y373998D02*
X396992Y374998D01*
X394992D01*
X393993Y373998D01*
Y372999D01*
X394992Y371999D01*
X396992D01*
X397991Y370999D01*
Y370000D01*
X396992Y369000D01*
X394992D01*
X393993Y370000D01*
X399991Y374998D02*
X403989D01*
X401990D01*
Y369000D01*
X367999Y355000D02*
X364000D01*
X367999Y358999D01*
Y359998D01*
X366999Y360998D01*
X365000D01*
X364000Y359998D01*
X373997Y355000D02*
X369998D01*
X373997Y358999D01*
Y359998D01*
X372997Y360998D01*
X370998D01*
X369998Y359998D01*
X375996Y355000D02*
Y356000D01*
X376996D01*
Y355000D01*
X375996D01*
X380995Y360998D02*
Y356999D01*
X382994Y355000D01*
X384993Y356999D01*
Y360998D01*
X386993D02*
Y355000D01*
X389992D01*
X390991Y356000D01*
Y359998D01*
X389992Y360998D01*
X386993D01*
X392991D02*
Y355000D01*
X395990D01*
X396989Y356000D01*
Y359998D01*
X395990Y360998D01*
X392991D01*
X398989Y355000D02*
Y358999D01*
X400988Y360998D01*
X402987Y358999D01*
Y355000D01*
Y357999D01*
X398989D01*
X374999Y341000D02*
X371000D01*
X374999Y344999D01*
Y345998D01*
X373999Y346998D01*
X372000D01*
X371000Y345998D01*
X376998Y341000D02*
X378997D01*
X377998D01*
Y346998D01*
X376998Y345998D01*
X381996Y341000D02*
Y342000D01*
X382996D01*
Y341000D01*
X381996D01*
X390993Y345998D02*
X389994Y346998D01*
X387995D01*
X386995Y345998D01*
Y342000D01*
X387995Y341000D01*
X389994D01*
X390993Y342000D01*
Y343999D01*
X388994D01*
X392993Y341000D02*
Y346998D01*
X396992Y341000D01*
Y346998D01*
X398991D02*
Y341000D01*
X401990D01*
X402990Y342000D01*
Y345998D01*
X401990Y346998D01*
X398991D01*
X379999Y327000D02*
X376000D01*
X379999Y330999D01*
Y331998D01*
X378999Y332998D01*
X377000D01*
X376000Y331998D01*
X381998D02*
X382998Y332998D01*
X384997D01*
X385997Y331998D01*
Y328000D01*
X384997Y327000D01*
X382998D01*
X381998Y328000D01*
Y331998D01*
X387996Y327000D02*
Y328000D01*
X388996D01*
Y327000D01*
X387996D01*
X392994Y332998D02*
Y327000D01*
X395993D01*
X396993Y328000D01*
Y331998D01*
X395993Y332998D01*
X392994D01*
X398993D02*
X402991D01*
Y331998D01*
X398993Y328000D01*
Y327000D01*
X376000Y313000D02*
X377999D01*
X377000D01*
Y318998D01*
X376000Y317998D01*
X380998Y314000D02*
X381998Y313000D01*
X383997D01*
X384997Y314000D01*
Y317998D01*
X383997Y318998D01*
X381998D01*
X380998Y317998D01*
Y316999D01*
X381998Y315999D01*
X384997D01*
X386996Y313000D02*
Y314000D01*
X387996D01*
Y313000D01*
X386996D01*
X391995Y318998D02*
Y313000D01*
X394994D01*
X395993Y314000D01*
Y317998D01*
X394994Y318998D01*
X391995D01*
X401992D02*
X399992Y317998D01*
X397993Y315999D01*
Y314000D01*
X398993Y313000D01*
X400992D01*
X401992Y314000D01*
Y314999D01*
X400992Y315999D01*
X397993D01*
X376000Y300000D02*
X377999D01*
X377000D01*
Y305998D01*
X376000Y304998D01*
X380998D02*
X381998Y305998D01*
X383997D01*
X384997Y304998D01*
Y303999D01*
X383997Y302999D01*
X384997Y301999D01*
Y301000D01*
X383997Y300000D01*
X381998D01*
X380998Y301000D01*
Y301999D01*
X381998Y302999D01*
X380998Y303999D01*
Y304998D01*
X381998Y302999D02*
X383997D01*
X386996Y300000D02*
Y301000D01*
X387996D01*
Y300000D01*
X386996D01*
X391995Y305998D02*
Y300000D01*
X394994D01*
X395993Y301000D01*
Y304998D01*
X394994Y305998D01*
X391995D01*
X401992D02*
X397993D01*
Y302999D01*
X399992Y303999D01*
X400992D01*
X401992Y302999D01*
Y301000D01*
X400992Y300000D01*
X398993D01*
X397993Y301000D01*
X376000Y286000D02*
X377999D01*
X377000D01*
Y291998D01*
X376000Y290998D01*
X380998Y291998D02*
X384997D01*
Y290998D01*
X380998Y287000D01*
Y286000D01*
X386996D02*
Y287000D01*
X387996D01*
Y286000D01*
X386996D01*
X391995Y291998D02*
Y286000D01*
X394994D01*
X395993Y287000D01*
Y290998D01*
X394994Y291998D01*
X391995D01*
X400992Y286000D02*
Y291998D01*
X397993Y288999D01*
X401992D01*
X376000Y272000D02*
X377999D01*
X377000D01*
Y277998D01*
X376000Y276998D01*
X384997Y277998D02*
X382998Y276998D01*
X380998Y274999D01*
Y273000D01*
X381998Y272000D01*
X383997D01*
X384997Y273000D01*
Y273999D01*
X383997Y274999D01*
X380998D01*
X386996Y272000D02*
Y273000D01*
X387996D01*
Y272000D01*
X386996D01*
X391995Y277998D02*
Y272000D01*
X394994D01*
X395993Y273000D01*
Y276998D01*
X394994Y277998D01*
X391995D01*
X397993Y276998D02*
X398993Y277998D01*
X400992D01*
X401992Y276998D01*
Y275999D01*
X400992Y274999D01*
X399992D01*
X400992D01*
X401992Y273999D01*
Y273000D01*
X400992Y272000D01*
X398993D01*
X397993Y273000D01*
X376000Y258000D02*
X377999D01*
X377000D01*
Y263998D01*
X376000Y262998D01*
X384997Y263998D02*
X380998D01*
Y260999D01*
X382998Y261999D01*
X383997D01*
X384997Y260999D01*
Y259000D01*
X383997Y258000D01*
X381998D01*
X380998Y259000D01*
X386996Y258000D02*
Y259000D01*
X387996D01*
Y258000D01*
X386996D01*
X391995Y263998D02*
Y258000D01*
X394994D01*
X395993Y259000D01*
Y262998D01*
X394994Y263998D01*
X391995D01*
X401992Y258000D02*
X397993D01*
X401992Y261999D01*
Y262998D01*
X400992Y263998D01*
X398993D01*
X397993Y262998D01*
X378000Y244000D02*
X379999D01*
X379000D01*
Y249998D01*
X378000Y248998D01*
X385997Y244000D02*
Y249998D01*
X382998Y246999D01*
X386997D01*
X388996Y244000D02*
Y245000D01*
X389996D01*
Y244000D01*
X388996D01*
X393995Y249998D02*
Y244000D01*
X396994D01*
X397993Y245000D01*
Y248998D01*
X396994Y249998D01*
X393995D01*
X399993Y244000D02*
X401992D01*
X400993D01*
Y249998D01*
X399993Y248998D01*
X376000Y230000D02*
X377999D01*
X377000D01*
Y235998D01*
X376000Y234998D01*
X380998D02*
X381998Y235998D01*
X383997D01*
X384997Y234998D01*
Y233999D01*
X383997Y232999D01*
X382998D01*
X383997D01*
X384997Y231999D01*
Y231000D01*
X383997Y230000D01*
X381998D01*
X380998Y231000D01*
X386996Y230000D02*
Y231000D01*
X387996D01*
Y230000D01*
X386996D01*
X391995Y235998D02*
Y230000D01*
X394994D01*
X395993Y231000D01*
Y234998D01*
X394994Y235998D01*
X391995D01*
X397993Y234998D02*
X398993Y235998D01*
X400992D01*
X401992Y234998D01*
Y231000D01*
X400992Y230000D01*
X398993D01*
X397993Y231000D01*
Y234998D01*
X211000Y92700D02*
X441000D01*
Y93200D02*
Y432700D01*
X211000D02*
X441000D01*
X211000Y92700D02*
Y432700D01*
D19*
X490800Y489498D02*
X494799D01*
X492799D01*
Y483500D01*
X497798D02*
X499797D01*
X500797Y484500D01*
Y486499D01*
X499797Y487499D01*
X497798D01*
X496798Y486499D01*
Y484500D01*
X497798Y483500D01*
X502796Y481501D02*
Y487499D01*
X505795D01*
X506795Y486499D01*
Y484500D01*
X505795Y483500D01*
X502796D01*
X517791Y489498D02*
X515792D01*
X514792Y488498D01*
Y484500D01*
X515792Y483500D01*
X517791D01*
X518791Y484500D01*
Y488498D01*
X517791Y489498D01*
X520790Y487499D02*
X522790Y483500D01*
X524789Y487499D01*
X529787Y483500D02*
X527788D01*
X526788Y484500D01*
Y486499D01*
X527788Y487499D01*
X529787D01*
X530787Y486499D01*
Y485499D01*
X526788D01*
X532786Y487499D02*
Y483500D01*
Y485499D01*
X533786Y486499D01*
X534786Y487499D01*
X535785D01*
X538785Y483500D02*
X540784D01*
X539784D01*
Y489498D01*
X538785D01*
X544782Y487499D02*
X546782D01*
X547782Y486499D01*
Y483500D01*
X544782D01*
X543783Y484500D01*
X544782Y485499D01*
X547782D01*
X549781Y487499D02*
Y484500D01*
X550781Y483500D01*
X553780D01*
Y482500D01*
X552780Y481501D01*
X551780D01*
X553780Y483500D02*
Y487499D01*
X493399Y422800D02*
X491400D01*
Y428798D01*
X493399D01*
X496398Y422800D02*
Y428798D01*
X498398Y426799D01*
X500397Y428798D01*
Y422800D01*
X502396D02*
X504396D01*
X503396D01*
Y428798D01*
X502396Y427798D01*
X507395Y422800D02*
X509394D01*
Y428798D01*
X507395D01*
X518391D02*
Y422800D01*
X521390D01*
X522390Y423800D01*
Y424799D01*
X521390Y425799D01*
X518391D01*
X521390D01*
X522390Y426799D01*
Y427798D01*
X521390Y428798D01*
X518391D01*
X525389Y422800D02*
X527388D01*
X528388Y423800D01*
Y425799D01*
X527388Y426799D01*
X525389D01*
X524389Y425799D01*
Y423800D01*
X525389Y422800D01*
X531387Y426799D02*
X533386D01*
X534386Y425799D01*
Y422800D01*
X531387D01*
X530387Y423800D01*
X531387Y424799D01*
X534386D01*
X536385Y426799D02*
Y422800D01*
Y424799D01*
X537385Y425799D01*
X538385Y426799D01*
X539385D01*
X546382Y428798D02*
Y422800D01*
X543383D01*
X542383Y423800D01*
Y425799D01*
X543383Y426799D01*
X546382D01*
X557379Y428798D02*
X555379D01*
X554380Y427798D01*
Y423800D01*
X555379Y422800D01*
X557379D01*
X558378Y423800D01*
Y427798D01*
X557379Y428798D01*
X560378Y426799D02*
Y423800D01*
X561377Y422800D01*
X564376D01*
Y426799D01*
X567375Y427798D02*
Y426799D01*
X566376D01*
X568375D01*
X567375D01*
Y423800D01*
X568375Y422800D01*
X571374D02*
X573374D01*
X572374D01*
Y428798D01*
X571374D01*
X576372Y422800D02*
X578372D01*
X577372D01*
Y426799D01*
X576372D01*
X581371Y422800D02*
Y426799D01*
X584370D01*
X585370Y425799D01*
Y422800D01*
X590368D02*
X588369D01*
X587369Y423800D01*
Y425799D01*
X588369Y426799D01*
X590368D01*
X591368Y425799D01*
Y424799D01*
X587369D01*
X490800Y517378D02*
Y513379D01*
X492799Y511379D01*
X494799Y513379D01*
Y517378D01*
X496798Y511379D02*
X498797D01*
X497798D01*
Y515378D01*
X496798D01*
X501796Y511379D02*
X504796D01*
X505795Y512379D01*
X504796Y513379D01*
X502796D01*
X501796Y514378D01*
X502796Y515378D01*
X505795D01*
X507795Y511379D02*
X509794D01*
X508794D01*
Y515378D01*
X507795D01*
X512793Y517378D02*
Y511379D01*
X515792D01*
X516792Y512379D01*
Y513379D01*
Y514378D01*
X515792Y515378D01*
X512793D01*
X518791Y511379D02*
X520790D01*
X519791D01*
Y517378D01*
X518791D01*
X526788Y511379D02*
X524789D01*
X523789Y512379D01*
Y514378D01*
X524789Y515378D01*
X526788D01*
X527788Y514378D01*
Y513379D01*
X523789D01*
X535785Y517378D02*
Y511379D01*
X539784D01*
X542783Y515378D02*
X544782D01*
X545782Y514378D01*
Y511379D01*
X542783D01*
X541784Y512379D01*
X542783Y513379D01*
X545782D01*
X547782Y515378D02*
Y512379D01*
X548781Y511379D01*
X551780D01*
Y510380D01*
X550781Y509380D01*
X549781D01*
X551780Y511379D02*
Y515378D01*
X556779Y511379D02*
X554779D01*
X553780Y512379D01*
Y514378D01*
X554779Y515378D01*
X556779D01*
X557778Y514378D01*
Y513379D01*
X553780D01*
X559778Y515378D02*
Y511379D01*
Y513379D01*
X560777Y514378D01*
X561777Y515378D01*
X562777D01*
X567775Y511379D02*
X565776Y513379D01*
Y515378D01*
X567775Y517378D01*
X570774Y511379D02*
X573773D01*
X574773Y512379D01*
X573773Y513379D01*
X571774D01*
X570774Y514378D01*
X571774Y515378D01*
X574773D01*
X576772Y511379D02*
X578771Y513379D01*
Y515378D01*
X576772Y517378D01*
X497564Y579931D02*
Y586928D01*
X501063D01*
X502229Y585762D01*
Y583430D01*
X501063Y582263D01*
X497564D01*
X504562Y584596D02*
Y579931D01*
Y582263D01*
X505728Y583430D01*
X506894Y584596D01*
X508061D01*
X512726Y579931D02*
X515058D01*
X516225Y581097D01*
Y583430D01*
X515058Y584596D01*
X512726D01*
X511559Y583430D01*
Y581097D01*
X512726Y579931D01*
X518557Y577598D02*
X519724D01*
X520890Y578764D01*
Y584596D01*
X529054Y579931D02*
X526721D01*
X525555Y581097D01*
Y583430D01*
X526721Y584596D01*
X529054D01*
X530220Y583430D01*
Y582263D01*
X525555D01*
X537218Y584596D02*
X533719D01*
X532553Y583430D01*
Y581097D01*
X533719Y579931D01*
X537218D01*
X540717Y585762D02*
Y584596D01*
X539550D01*
X541883D01*
X540717D01*
Y581097D01*
X541883Y579931D01*
X545382Y584596D02*
X546548D01*
Y583430D01*
X545382D01*
Y584596D01*
Y581097D02*
X546548D01*
Y579931D01*
X545382D01*
Y581097D01*
X491733Y568120D02*
Y575117D01*
X495231D01*
X496398Y573951D01*
Y571619D01*
X495231Y570452D01*
X491733D01*
X494065D02*
X496398Y568120D01*
X502229D02*
X499897D01*
X498730Y569286D01*
Y571619D01*
X499897Y572785D01*
X502229D01*
X503395Y571619D01*
Y570452D01*
X498730D01*
X505728Y572785D02*
X508061Y568120D01*
X510393Y572785D01*
X512726Y568120D02*
X515058D01*
X513892D01*
Y572785D01*
X512726D01*
X518557Y568120D02*
X522056D01*
X523222Y569286D01*
X522056Y570452D01*
X519724D01*
X518557Y571619D01*
X519724Y572785D01*
X523222D01*
X525555Y568120D02*
X527887D01*
X526721D01*
Y572785D01*
X525555D01*
X532553Y568120D02*
X534885D01*
X536052Y569286D01*
Y571619D01*
X534885Y572785D01*
X532553D01*
X531386Y571619D01*
Y569286D01*
X532553Y568120D01*
X538384D02*
Y572785D01*
X541883D01*
X543049Y571619D01*
Y568120D01*
X545382Y572785D02*
X546548D01*
Y571619D01*
X545382D01*
Y572785D01*
Y569286D02*
X546548D01*
Y568120D01*
X545382D01*
Y569286D01*
X489400Y563306D02*
Y556309D01*
X492899D01*
X494065Y557475D01*
Y562140D01*
X492899Y563306D01*
X489400D01*
X496398Y560974D02*
Y556309D01*
Y558641D01*
X497564Y559807D01*
X498730Y560974D01*
X499897D01*
X504562D02*
X506894D01*
X508061Y559807D01*
Y556309D01*
X504562D01*
X503395Y557475D01*
X504562Y558641D01*
X508061D01*
X510393Y560974D02*
Y557475D01*
X511559Y556309D01*
X512726Y557475D01*
X513892Y556309D01*
X515058Y557475D01*
Y560974D01*
X517391Y556309D02*
Y560974D01*
X520890D01*
X522056Y559807D01*
Y556309D01*
X531386Y563306D02*
Y556309D01*
X534885D01*
X536052Y557475D01*
Y558641D01*
X534885Y559807D01*
X531386D01*
X534885D01*
X536052Y560974D01*
Y562140D01*
X534885Y563306D01*
X531386D01*
X538384Y560974D02*
Y557475D01*
X539550Y556309D01*
X543049D01*
Y555142D01*
X541883Y553976D01*
X540717D01*
X543049Y556309D02*
Y560974D01*
X545382D02*
X546548D01*
Y559807D01*
X545382D01*
Y560974D01*
Y557475D02*
X546548D01*
Y556309D01*
X545382D01*
Y557475D01*
X518557Y551495D02*
Y544498D01*
X522056D01*
X523222Y545664D01*
Y550329D01*
X522056Y551495D01*
X518557D01*
X526721Y549163D02*
X529054D01*
X530220Y547997D01*
Y544498D01*
X526721D01*
X525555Y545664D01*
X526721Y546830D01*
X530220D01*
X533719Y550329D02*
Y549163D01*
X532553D01*
X534885D01*
X533719D01*
Y545664D01*
X534885Y544498D01*
X541883D02*
X539550D01*
X538384Y545664D01*
Y547997D01*
X539550Y549163D01*
X541883D01*
X543049Y547997D01*
Y546830D01*
X538384D01*
X545382Y549163D02*
X546548D01*
Y547997D01*
X545382D01*
Y549163D01*
Y545664D02*
X546548D01*
Y544498D01*
X545382D01*
Y545664D01*
X518557Y539684D02*
X523222D01*
X520890D01*
Y532687D01*
X525555D02*
X527887D01*
X526721D01*
Y537352D01*
X525555D01*
X531386Y532687D02*
Y537352D01*
X532553D01*
X533719Y536186D01*
Y532687D01*
Y536186D01*
X534885Y537352D01*
X536052Y536186D01*
Y532687D01*
X541883D02*
X539550D01*
X538384Y533853D01*
Y536186D01*
X539550Y537352D01*
X541883D01*
X543049Y536186D01*
Y535019D01*
X538384D01*
X545382Y537352D02*
X546548D01*
Y536186D01*
X545382D01*
Y537352D01*
Y533853D02*
X546548D01*
Y532687D01*
X545382D01*
Y533853D01*
X560994Y585762D02*
X559828Y586928D01*
X557495D01*
X556329Y585762D01*
Y584596D01*
X557495Y583430D01*
X559828D01*
X560994Y582263D01*
Y581097D01*
X559828Y579931D01*
X557495D01*
X556329Y581097D01*
X563327Y577598D02*
Y584596D01*
X566826D01*
X567992Y583430D01*
Y581097D01*
X566826Y579931D01*
X563327D01*
X571491Y584596D02*
X573823D01*
X574990Y583430D01*
Y579931D01*
X571491D01*
X570325Y581097D01*
X571491Y582263D01*
X574990D01*
X577322Y584596D02*
Y579931D01*
Y582263D01*
X578489Y583430D01*
X579655Y584596D01*
X580821D01*
X584320Y579931D02*
Y586928D01*
Y582263D02*
X587819Y584596D01*
X584320Y582263D02*
X587819Y579931D01*
X591318Y586928D02*
X593650D01*
X592484D01*
Y579931D01*
X591318D01*
X593650D01*
X600648Y586928D02*
X598315D01*
X597149Y585762D01*
Y581097D01*
X598315Y579931D01*
X600648D01*
X601814Y581097D01*
Y585762D01*
X600648Y586928D01*
X611145D02*
X615810D01*
X613477D01*
Y579931D01*
X618143Y586928D02*
Y579931D01*
Y583430D01*
X619309Y584596D01*
X621641D01*
X622808Y583430D01*
Y579931D01*
X628639D02*
X626306D01*
X625140Y581097D01*
Y583430D01*
X626306Y584596D01*
X628639D01*
X629805Y583430D01*
Y582263D01*
X625140D01*
X632138Y584596D02*
Y579931D01*
Y582263D01*
X633304Y583430D01*
X634471Y584596D01*
X635637D01*
X639136Y579931D02*
Y584596D01*
X640302D01*
X641468Y583430D01*
Y579931D01*
Y583430D01*
X642634Y584596D01*
X643801Y583430D01*
Y579931D01*
X647300Y584596D02*
X649632D01*
X650799Y583430D01*
Y579931D01*
X647300D01*
X646133Y581097D01*
X647300Y582263D01*
X650799D01*
X653131Y579931D02*
X655464D01*
X654297D01*
Y586928D01*
X653131D01*
X670625Y585762D02*
X669459Y586928D01*
X667127D01*
X665960Y585762D01*
Y584596D01*
X667127Y583430D01*
X669459D01*
X670625Y582263D01*
Y581097D01*
X669459Y579931D01*
X667127D01*
X665960Y581097D01*
X672958Y586928D02*
Y579931D01*
Y583430D01*
X674124Y584596D01*
X676457D01*
X677623Y583430D01*
Y579931D01*
X679956D02*
X682288D01*
X681122D01*
Y584596D01*
X679956D01*
X689286Y579931D02*
X686954D01*
X685787Y581097D01*
Y583430D01*
X686954Y584596D01*
X689286D01*
X690452Y583430D01*
Y582263D01*
X685787D01*
X692785Y579931D02*
X695118D01*
X693951D01*
Y586928D01*
X692785D01*
X703282D02*
Y579931D01*
X699783D01*
X698617Y581097D01*
Y583430D01*
X699783Y584596D01*
X703282D01*
X556329Y568120D02*
Y572785D01*
X558662Y575117D01*
X560994Y572785D01*
Y568120D01*
Y571619D01*
X556329D01*
X560994Y563306D02*
X558662D01*
X559828D01*
Y557475D01*
X558662Y556309D01*
X557495D01*
X556329Y557475D01*
X563327Y556309D02*
X565659D01*
X564493D01*
Y560974D01*
X563327D01*
X569158Y556309D02*
Y560974D01*
X570325D01*
X571491Y559807D01*
Y556309D01*
Y559807D01*
X572657Y560974D01*
X573823Y559807D01*
Y556309D01*
X587819Y562140D02*
X586653Y563306D01*
X584320D01*
X583154Y562140D01*
Y557475D01*
X584320Y556309D01*
X586653D01*
X587819Y557475D01*
Y559807D01*
X585486D01*
X590152Y560974D02*
Y556309D01*
Y558641D01*
X591318Y559807D01*
X592484Y560974D01*
X593650D01*
X597149Y556309D02*
X599482D01*
X598315D01*
Y560974D01*
X597149D01*
X602981Y556309D02*
X606480D01*
X607646Y557475D01*
X606480Y558641D01*
X604147D01*
X602981Y559807D01*
X604147Y560974D01*
X607646D01*
X609978D02*
X614644D01*
X609978Y556309D01*
X614644D01*
X616976Y563306D02*
Y556309D01*
X620475D01*
X621641Y557475D01*
Y558641D01*
Y559807D01*
X620475Y560974D01*
X616976D01*
X625140D02*
X627473D01*
X628639Y559807D01*
Y556309D01*
X625140D01*
X623974Y557475D01*
X625140Y558641D01*
X628639D01*
X635637Y560974D02*
X632138D01*
X630972Y559807D01*
Y557475D01*
X632138Y556309D01*
X635637D01*
X637969Y563306D02*
Y556309D01*
Y559807D01*
X639136Y560974D01*
X641468D01*
X642634Y559807D01*
Y556309D01*
X648466D02*
X646133D01*
X644967Y557475D01*
Y559807D01*
X646133Y560974D01*
X648466D01*
X649632Y559807D01*
Y558641D01*
X644967D01*
X651965Y560974D02*
Y556309D01*
Y558641D01*
X653131Y559807D01*
X654297Y560974D01*
X655464D01*
X560994Y539684D02*
X558662Y538518D01*
X556329Y536186D01*
Y533853D01*
X557495Y532687D01*
X559828D01*
X560994Y533853D01*
Y535019D01*
X559828Y536186D01*
X556329D01*
X563327Y537352D02*
X564493D01*
Y536186D01*
X563327D01*
Y537352D01*
Y533853D02*
X564493D01*
Y532687D01*
X563327D01*
Y533853D01*
X573823Y532687D02*
X569158D01*
X573823Y537352D01*
Y538518D01*
X572657Y539684D01*
X570325D01*
X569158Y538518D01*
X579655Y532687D02*
Y539684D01*
X576156Y536186D01*
X580821D01*
X583154Y537352D02*
X584320D01*
Y536186D01*
X583154D01*
Y537352D01*
Y533853D02*
X584320D01*
Y532687D01*
X583154D01*
Y533853D01*
X588985Y538518D02*
X590152Y539684D01*
X592484D01*
X593650Y538518D01*
Y537352D01*
X592484Y536186D01*
X591318D01*
X592484D01*
X593650Y535019D01*
Y533853D01*
X592484Y532687D01*
X590152D01*
X588985Y533853D01*
X600648Y532687D02*
X595983D01*
X600648Y537352D01*
Y538518D01*
X599482Y539684D01*
X597149D01*
X595983Y538518D01*
X609978Y532687D02*
Y539684D01*
X613477D01*
X614644Y538518D01*
Y536186D01*
X613477Y535019D01*
X609978D01*
X616976Y532687D02*
Y539684D01*
X619309Y537352D01*
X621641Y539684D01*
Y532687D01*
X556329Y550329D02*
X557495Y551495D01*
X559828D01*
X560994Y550329D01*
Y549163D01*
X559828Y547997D01*
X560994Y546830D01*
Y545664D01*
X559828Y544498D01*
X557495D01*
X556329Y545664D01*
Y546830D01*
X557495Y547997D01*
X556329Y549163D01*
Y550329D01*
X557495Y547997D02*
X559828D01*
X563327Y544498D02*
X567992Y549163D01*
X570325Y550329D02*
X571491Y551495D01*
X573823D01*
X574990Y550329D01*
Y549163D01*
X573823Y547997D01*
X572657D01*
X573823D01*
X574990Y546830D01*
Y545664D01*
X573823Y544498D01*
X571491D01*
X570325Y545664D01*
X577322Y544498D02*
X581987Y549163D01*
X588985Y544498D02*
X584320D01*
X588985Y549163D01*
Y550329D01*
X587819Y551495D01*
X585486D01*
X584320Y550329D01*
X591318D02*
X592484Y551495D01*
X594817D01*
X595983Y550329D01*
Y545664D01*
X594817Y544498D01*
X592484D01*
X591318Y545664D01*
Y550329D01*
X598315Y544498D02*
X600648D01*
X599482D01*
Y551495D01*
X598315Y550329D01*
X607646Y544498D02*
Y551495D01*
X604147Y547997D01*
X608812D01*
D20*
X485263Y396877D02*
X487231D01*
X489200D02*
X491168D01*
X493137D02*
X495106D01*
X497074D02*
X499043D01*
X501011D02*
X502980D01*
X504948D02*
X506917D01*
X508885D02*
X510853D01*
X512822D02*
X514790D01*
X516759D02*
X518728D01*
X520696D02*
X522665D01*
X524633D02*
X526602D01*
X528570D02*
X530539D01*
X532507D02*
X534476D01*
X536444D02*
X538413D01*
X540381D02*
X542350D01*
X544318D02*
X546287D01*
X548255D02*
X550224D01*
X552192D02*
X554161D01*
X556129D02*
X558098D01*
X560066D02*
X562035D01*
X564003D02*
X565972D01*
X567940D02*
X569909D01*
X571877D02*
X573846D01*
X575814D02*
X577783D01*
X579751D02*
X581720D01*
X583688D02*
X585657D01*
X587625D02*
X589594D01*
X591562D02*
X593531D01*
X595499D02*
X597468D01*
X599436D02*
X601405D01*
X603373D02*
X605342D01*
X607310D02*
X609279D01*
X611247D02*
X613216D01*
X615184D02*
X617153D01*
X619121D02*
X621090D01*
X623058D02*
X625027D01*
X626995D02*
X628964D01*
X630932D02*
X632901D01*
X634869D02*
X636838D01*
X638806D02*
X640775D01*
X642743D02*
X644712D01*
X646680D02*
X648649D01*
X650617D02*
X652586D01*
X654554D02*
X656523D01*
X485563Y434317D02*
X487532D01*
X489500D02*
X491468D01*
X493437D02*
X495405D01*
X497374D02*
X499342D01*
X501311D02*
X503279D01*
X505248D02*
X507217D01*
X509185D02*
X511154D01*
X513122D02*
X515091D01*
X517059D02*
X519028D01*
X520996D02*
X522965D01*
X524933D02*
X526902D01*
X528870D02*
X530839D01*
X532807D02*
X534776D01*
X536744D02*
X538713D01*
X540681D02*
X542650D01*
X544618D02*
X546587D01*
X548555D02*
X550524D01*
X552492D02*
X554461D01*
X556429D02*
X558398D01*
X560366D02*
X562335D01*
X564303D02*
X566272D01*
X568240D02*
X570209D01*
X572177D02*
X574146D01*
X576114D02*
X578083D01*
X580051D02*
X582020D01*
X583988D02*
X585957D01*
X587925D02*
X589894D01*
X591862D02*
X593831D01*
X595799D02*
X597768D01*
X599736D02*
X601705D01*
X603673D02*
X605642D01*
X607610D02*
X609579D01*
X611547D02*
X613516D01*
X615484D02*
X617453D01*
X619421D02*
X621390D01*
X623358D02*
X625327D01*
X627295D02*
X629264D01*
X631232D02*
X633201D01*
X635169D02*
X637138D01*
X639106D02*
X641075D01*
X643043D02*
X645012D01*
X646980D02*
X648949D01*
X650917D02*
X652886D01*
X654854D02*
X656823D01*
X654254Y508427D02*
X656223D01*
X650317D02*
X652286D01*
X646380D02*
X648349D01*
X642443D02*
X644412D01*
X638506D02*
X640475D01*
X634569D02*
X636538D01*
X630632D02*
X632601D01*
X626695D02*
X628664D01*
X622758D02*
X624727D01*
X618821D02*
X620790D01*
X614884D02*
X616853D01*
X610947D02*
X612916D01*
X607010D02*
X608979D01*
X603073D02*
X605042D01*
X599136D02*
X601105D01*
X595199D02*
X597168D01*
X591262D02*
X593231D01*
X587325D02*
X589294D01*
X583388D02*
X585357D01*
X579451D02*
X581420D01*
X575514D02*
X577483D01*
X571577D02*
X573546D01*
X567640D02*
X569609D01*
X563703D02*
X565672D01*
X559766D02*
X561735D01*
X555829D02*
X557798D01*
X551892D02*
X553861D01*
X547955D02*
X549924D01*
X544018D02*
X545987D01*
X540081D02*
X542050D01*
X536144D02*
X538113D01*
X532207D02*
X534176D01*
X528270D02*
X530239D01*
X524333D02*
X526302D01*
X520396D02*
X522365D01*
X516459D02*
X518428D01*
X512522D02*
X514491D01*
X508585D02*
X510554D01*
X504648D02*
X506616D01*
X500711D02*
X502679D01*
X496774D02*
X498742D01*
X492837D02*
X494805D01*
X488900D02*
X490869D01*
X484963D02*
X486932D01*
X658191Y375000D02*
Y507443D01*
X484963Y375000D02*
X658191D01*
X484963D02*
Y507443D01*
Y519253D01*
X658191D01*
Y507443D02*
Y519253D01*
X485463Y528750D02*
Y594700D01*
Y528750D02*
X711600D01*
Y594700D01*
X485463D02*
X711600D01*
D29*
X359610Y198935D02*
G03*
X359610Y197065I0J-935D01*
G01*
X348390Y197100D02*
X359610D01*
X348390D02*
Y199000D01*
X359610D01*
Y197065D02*
Y199000D01*
Y197100D02*
Y198935D01*
X319622Y193764D02*
Y201638D01*
X299937Y193764D02*
Y201638D01*
X319622D01*
X299937Y193764D02*
X319622D01*
X280000Y263000D02*
X290000D01*
X280000D02*
Y383000D01*
X290000D01*
Y263000D02*
Y383000D01*
X411842Y193764D02*
Y201638D01*
X392158Y193764D02*
Y201638D01*
X411842D01*
X392158Y193764D02*
X411842D01*
X350000Y263000D02*
X360000D01*
X350000D02*
Y383000D01*
X360000D01*
Y263000D02*
Y383000D01*
D30*
X303874Y196914D02*
G03*
X303874Y196914I-787J0D01*
G01*
X396094Y196913D02*
G03*
X396094Y196913I-787J0D01*
G01*
D31*
X299425Y188449D02*
G03*
X299425Y188449I-492J0D01*
G01*
X391646Y188449D02*
G03*
X391646Y188449I-492J0D01*
G01*
D32*
X244000Y221999D02*
X246666D01*
X245333D01*
Y218000D01*
X247999Y221999D02*
Y218000D01*
X249998D01*
X250664Y218666D01*
Y219333D01*
X249998Y219999D01*
X247999D01*
X249998D01*
X250664Y220666D01*
Y221332D01*
X249998Y221999D01*
X247999D01*
X251997Y218000D02*
X253330D01*
X252664D01*
Y221999D01*
X251997Y221332D01*
X347700Y211299D02*
Y207966D01*
X348366Y207300D01*
X349699D01*
X350366Y207966D01*
Y211299D01*
X351699Y210632D02*
X352365Y211299D01*
X353698D01*
X354364Y210632D01*
Y209966D01*
X353698Y209299D01*
X353032D01*
X353698D01*
X354364Y208633D01*
Y207966D01*
X353698Y207300D01*
X352365D01*
X351699Y207966D01*
X292425Y209999D02*
Y206667D01*
X293091Y206000D01*
X294424D01*
X295091Y206667D01*
Y209999D01*
X296424Y206000D02*
X297757D01*
X297090D01*
Y209999D01*
X296424Y209333D01*
X278666Y181999D02*
X277333D01*
X277999D01*
Y178666D01*
X277333Y178000D01*
X276666D01*
X276000Y178666D01*
X279999Y178000D02*
X281332D01*
X280665D01*
Y181999D01*
X279999Y181332D01*
X360999Y241000D02*
X357000D01*
Y239001D01*
X357666Y238334D01*
X360332D01*
X360999Y239001D01*
Y241000D01*
X360332Y234335D02*
X360999Y235002D01*
Y236335D01*
X360332Y237001D01*
X359666D01*
X358999Y236335D01*
Y235002D01*
X358333Y234335D01*
X357666D01*
X357000Y235002D01*
Y236335D01*
X357666Y237001D01*
X357000Y233003D02*
Y231670D01*
Y232336D01*
X360999D01*
X360332Y233003D01*
X294000Y381999D02*
Y378000D01*
Y379999D01*
X296666D01*
Y381999D01*
Y378000D01*
X297999D02*
X299332D01*
X298665D01*
Y381999D01*
X297999Y381332D01*
X218166Y186599D02*
X216833D01*
X217499D01*
Y183266D01*
X216833Y182600D01*
X216166D01*
X215500Y183266D01*
X219499Y185932D02*
X220165Y186599D01*
X221498D01*
X222165Y185932D01*
Y185266D01*
X221498Y184599D01*
X220832D01*
X221498D01*
X222165Y183933D01*
Y183266D01*
X221498Y182600D01*
X220165D01*
X219499Y183266D01*
X289032Y200534D02*
X289699Y201201D01*
Y202534D01*
X289032Y203200D01*
X286366D01*
X285700Y202534D01*
Y201201D01*
X286366Y200534D01*
X285700Y199201D02*
Y197868D01*
Y198535D01*
X289699D01*
X289032Y199201D01*
X364666Y181999D02*
X363333D01*
X363999D01*
Y178666D01*
X363333Y178000D01*
X362666D01*
X362000Y178666D01*
X368665Y178000D02*
X365999D01*
X368665Y180666D01*
Y181332D01*
X367998Y181999D01*
X366665D01*
X365999Y181332D01*
X217966Y101499D02*
X216633D01*
X217299D01*
Y98166D01*
X216633Y97500D01*
X215966D01*
X215300Y98166D01*
X221298Y97500D02*
Y101499D01*
X219299Y99499D01*
X221965D01*
X384000Y209999D02*
Y206666D01*
X384666Y206000D01*
X385999D01*
X386666Y206666D01*
Y209999D01*
X390665Y206000D02*
X387999D01*
X390665Y208666D01*
Y209332D01*
X389998Y209999D01*
X388665D01*
X387999Y209332D01*
X394000Y225999D02*
X396666D01*
X395333D01*
Y222000D01*
X397999Y225999D02*
Y222000D01*
X399998D01*
X400665Y222666D01*
Y223333D01*
X399998Y223999D01*
X397999D01*
X399998D01*
X400665Y224666D01*
Y225332D01*
X399998Y225999D01*
X397999D01*
X404663Y222000D02*
X401997D01*
X404663Y224666D01*
Y225332D01*
X403997Y225999D01*
X402664D01*
X401997Y225332D01*
X357000Y257000D02*
X360999D01*
Y255001D01*
X360332Y254334D01*
X358999D01*
X358333Y255001D01*
Y257000D01*
Y255667D02*
X357000Y254334D01*
Y253001D02*
Y251668D01*
Y252335D01*
X360999D01*
X360332Y253001D01*
X357666Y249669D02*
X357000Y249003D01*
Y247670D01*
X357666Y247003D01*
X360332D01*
X360999Y247670D01*
Y249003D01*
X360332Y249669D01*
X359666D01*
X358999Y249003D01*
Y247003D01*
X417700Y177300D02*
Y181299D01*
X419699D01*
X420366Y180632D01*
Y179299D01*
X419699Y178633D01*
X417700D01*
X419033D02*
X420366Y177300D01*
X421699D02*
X423032D01*
X422365D01*
Y181299D01*
X421699Y180632D01*
X425031D02*
X425697Y181299D01*
X427030D01*
X427697Y180632D01*
Y179966D01*
X427030Y179299D01*
X427697Y178633D01*
Y177966D01*
X427030Y177300D01*
X425697D01*
X425031Y177966D01*
Y178633D01*
X425697Y179299D01*
X425031Y179966D01*
Y180632D01*
X425697Y179299D02*
X427030D01*
X249213Y185039D02*
Y189038D01*
X251212D01*
X251878Y188372D01*
Y187039D01*
X251212Y186372D01*
X249213D01*
X250546D02*
X251878Y185039D01*
X253211D02*
X254544D01*
X253878D01*
Y189038D01*
X253211Y188372D01*
X256544Y189038D02*
X259209D01*
Y188372D01*
X256544Y185706D01*
Y185039D01*
X251969Y203794D02*
Y207792D01*
X253968D01*
X254634Y207126D01*
Y205793D01*
X253968Y205127D01*
X251969D01*
X253301D02*
X254634Y203794D01*
X257967D02*
Y207792D01*
X255967Y205793D01*
X258633D01*
X417900Y215600D02*
Y219599D01*
X419899D01*
X420566Y218932D01*
Y217599D01*
X419899Y216933D01*
X417900D01*
X419233D02*
X420566Y215600D01*
X421899D02*
X423232D01*
X422565D01*
Y219599D01*
X421899Y218932D01*
X427897Y219599D02*
X425231D01*
Y217599D01*
X426564Y218266D01*
X427230D01*
X427897Y217599D01*
Y216266D01*
X427230Y215600D01*
X425897D01*
X425231Y216266D01*
X436000Y186000D02*
X432001D01*
Y187999D01*
X432668Y188666D01*
X434001D01*
X434667Y187999D01*
Y186000D01*
Y187333D02*
X436000Y188666D01*
Y189999D02*
Y191332D01*
Y190665D01*
X432001D01*
X432668Y189999D01*
X436000Y195330D02*
X432001D01*
X434001Y193331D01*
Y195997D01*
X385200Y203900D02*
X389199D01*
Y201901D01*
X388532Y201234D01*
X387199D01*
X386533Y201901D01*
Y203900D01*
Y202567D02*
X385200Y201234D01*
X385866Y199901D02*
X385200Y199235D01*
Y197902D01*
X385866Y197236D01*
X388532D01*
X389199Y197902D01*
Y199235D01*
X388532Y199901D01*
X387866D01*
X387199Y199235D01*
Y197236D01*
X368000Y208000D02*
X371999D01*
Y206001D01*
X371332Y205334D01*
X369999D01*
X369333Y206001D01*
Y208000D01*
Y206667D02*
X368000Y205334D01*
Y204001D02*
Y202668D01*
Y203335D01*
X371999D01*
X371332Y204001D01*
X368000Y198003D02*
Y200669D01*
X370666Y198003D01*
X371332D01*
X371999Y198670D01*
Y200003D01*
X371332Y200669D01*
X436000Y202000D02*
X432001D01*
Y203999D01*
X432668Y204666D01*
X434001D01*
X434667Y203999D01*
Y202000D01*
Y203333D02*
X436000Y204666D01*
Y205999D02*
Y207332D01*
Y206665D01*
X432001D01*
X432668Y205999D01*
X436000Y209331D02*
Y210664D01*
Y209997D01*
X432001D01*
X432668Y209331D01*
X378000Y214000D02*
Y217999D01*
X379999D01*
X380666Y217332D01*
Y215999D01*
X379999Y215333D01*
X378000D01*
X379333D02*
X380666Y214000D01*
X381999D02*
X383332D01*
X382665D01*
Y217999D01*
X381999Y217332D01*
X385331D02*
X385997Y217999D01*
X387330D01*
X387997Y217332D01*
Y214666D01*
X387330Y214000D01*
X385997D01*
X385331Y214666D01*
Y217332D01*
X378000Y178000D02*
Y181999D01*
X379999D01*
X380666Y181332D01*
Y179999D01*
X379999Y179333D01*
X378000D01*
X379333D02*
X380666Y178000D01*
X381999D02*
X383332D01*
X382665D01*
Y181999D01*
X381999Y181332D01*
X385331D02*
X385997Y181999D01*
X387330D01*
X387997Y181332D01*
Y180666D01*
X387330Y179999D01*
X386664D01*
X387330D01*
X387997Y179333D01*
Y178666D01*
X387330Y178000D01*
X385997D01*
X385331Y178666D01*
X326200Y177100D02*
Y181099D01*
X328199D01*
X328866Y180432D01*
Y179099D01*
X328199Y178433D01*
X326200D01*
X327533D02*
X328866Y177100D01*
X330199Y180432D02*
X330865Y181099D01*
X332198D01*
X332864Y180432D01*
Y179766D01*
X332198Y179099D01*
X332864Y178433D01*
Y177767D01*
X332198Y177100D01*
X330865D01*
X330199Y177767D01*
Y178433D01*
X330865Y179099D01*
X330199Y179766D01*
Y180432D01*
X330865Y179099D02*
X332198D01*
X326800Y215400D02*
Y219399D01*
X328799D01*
X329466Y218732D01*
Y217399D01*
X328799Y216733D01*
X326800D01*
X328133D02*
X329466Y215400D01*
X330799Y219399D02*
X333465D01*
Y218732D01*
X330799Y216066D01*
Y215400D01*
X344425Y186000D02*
X340426D01*
Y188000D01*
X341093Y188666D01*
X342426D01*
X343092Y188000D01*
Y186000D01*
Y187333D02*
X344425Y188666D01*
X340426Y192665D02*
X341093Y191332D01*
X342426Y189999D01*
X343759D01*
X344425Y190665D01*
Y191998D01*
X343759Y192665D01*
X343092D01*
X342426Y191998D01*
Y189999D01*
X292425Y204000D02*
X296424D01*
Y202001D01*
X295757Y201335D01*
X294424D01*
X293758Y202001D01*
Y204000D01*
Y202667D02*
X292425Y201335D01*
X296424Y197336D02*
Y200002D01*
X294424D01*
X295091Y198669D01*
Y198002D01*
X294424Y197336D01*
X293091D01*
X292425Y198002D01*
Y199335D01*
X293091Y200002D01*
X275700Y207900D02*
X279699D01*
Y205901D01*
X279032Y205234D01*
X277699D01*
X277033Y205901D01*
Y207900D01*
Y206567D02*
X275700Y205234D01*
Y203901D02*
Y202568D01*
Y203235D01*
X279699D01*
X279032Y203901D01*
X279699Y197903D02*
X279032Y199236D01*
X277699Y200569D01*
X276366D01*
X275700Y199903D01*
Y198570D01*
X276366Y197903D01*
X277033D01*
X277699Y198570D01*
Y200569D01*
X344425Y202000D02*
X340426D01*
Y204000D01*
X341093Y204666D01*
X342426D01*
X343092Y204000D01*
Y202000D01*
Y203333D02*
X344425Y204666D01*
X341093Y205999D02*
X340426Y206665D01*
Y207998D01*
X341093Y208665D01*
X341759D01*
X342426Y207998D01*
Y207332D01*
Y207998D01*
X343092Y208665D01*
X343759D01*
X344425Y207998D01*
Y206665D01*
X343759Y205999D01*
X290425Y214000D02*
Y217999D01*
X292424D01*
X293091Y217333D01*
Y216000D01*
X292424Y215333D01*
X290425D01*
X291758D02*
X293091Y214000D01*
X297090D02*
X294424D01*
X297090Y216666D01*
Y217333D01*
X296423Y217999D01*
X295090D01*
X294424Y217333D01*
X290425Y178000D02*
Y181999D01*
X292424D01*
X293091Y181333D01*
Y180000D01*
X292424Y179333D01*
X290425D01*
X291758D02*
X293091Y178000D01*
X294424D02*
X295757D01*
X295090D01*
Y181999D01*
X294424Y181333D01*
X341000Y382999D02*
Y379000D01*
Y380999D01*
X343666D01*
Y382999D01*
Y379000D01*
X347664D02*
X344999D01*
X347664Y381666D01*
Y382332D01*
X346998Y382999D01*
X345665D01*
X344999Y382332D01*
X314332Y368334D02*
X314999Y369001D01*
Y370334D01*
X314332Y371000D01*
X311666D01*
X311000Y370334D01*
Y369001D01*
X311666Y368334D01*
X311000Y367001D02*
Y365668D01*
Y366335D01*
X314999D01*
X314332Y367001D01*
Y363669D02*
X314999Y363003D01*
Y361670D01*
X314332Y361003D01*
X313666D01*
X312999Y361670D01*
Y362336D01*
Y361670D01*
X312333Y361003D01*
X311666D01*
X311000Y361670D01*
Y363003D01*
X311666Y363669D01*
X333332Y368334D02*
X333999Y369001D01*
Y370334D01*
X333332Y371000D01*
X330666D01*
X330000Y370334D01*
Y369001D01*
X330666Y368334D01*
X330000Y367001D02*
Y365668D01*
Y366335D01*
X333999D01*
X333332Y367001D01*
X330000Y361003D02*
Y363669D01*
X332666Y361003D01*
X333332D01*
X333999Y361670D01*
Y363003D01*
X333332Y363669D01*
X253060Y195458D02*
X252393Y196125D01*
X251060D01*
X250394Y195458D01*
Y192792D01*
X251060Y192126D01*
X252393D01*
X253060Y192792D01*
X254392Y192126D02*
X255725D01*
X255059D01*
Y196125D01*
X254392Y195458D01*
X257725Y192126D02*
X259058D01*
X258391D01*
Y196125D01*
X257725Y195458D01*
X251485Y215000D02*
X250819Y215666D01*
X249486D01*
X248819Y215000D01*
Y212334D01*
X249486Y211668D01*
X250819D01*
X251485Y212334D01*
X252818Y211668D02*
X254151D01*
X253484D01*
Y215666D01*
X252818Y215000D01*
X256150D02*
X256817Y215666D01*
X258150D01*
X258816Y215000D01*
Y212334D01*
X258150Y211668D01*
X256817D01*
X256150Y212334D01*
Y215000D01*
X352666Y181332D02*
X351999Y181999D01*
X350666D01*
X350000Y181332D01*
Y178666D01*
X350666Y178000D01*
X351999D01*
X352666Y178666D01*
X353999D02*
X354665Y178000D01*
X355998D01*
X356664Y178666D01*
Y181332D01*
X355998Y181999D01*
X354665D01*
X353999Y181332D01*
Y180666D01*
X354665Y179999D01*
X356664D01*
X344332Y365334D02*
X344999Y366001D01*
Y367334D01*
X344332Y368000D01*
X341666D01*
X341000Y367334D01*
Y366001D01*
X341666Y365334D01*
X344332Y364001D02*
X344999Y363335D01*
Y362002D01*
X344332Y361335D01*
X343666D01*
X342999Y362002D01*
X342333Y361335D01*
X341666D01*
X341000Y362002D01*
Y363335D01*
X341666Y364001D01*
X342333D01*
X342999Y363335D01*
X343666Y364001D01*
X344332D01*
X342999Y363335D02*
Y362002D01*
X324332Y365334D02*
X324999Y366001D01*
Y367334D01*
X324332Y368000D01*
X321666D01*
X321000Y367334D01*
Y366001D01*
X321666Y365334D01*
X324999Y364001D02*
Y361335D01*
X324332D01*
X321666Y364001D01*
X321000D01*
X420568Y202666D02*
X419901Y201999D01*
Y200666D01*
X420568Y200000D01*
X423234D01*
X423900Y200666D01*
Y201999D01*
X423234Y202666D01*
X419901Y206664D02*
X420568Y205332D01*
X421901Y203999D01*
X423234D01*
X423900Y204665D01*
Y205998D01*
X423234Y206664D01*
X422567D01*
X421901Y205998D01*
Y203999D01*
X420668Y191166D02*
X420001Y190499D01*
Y189166D01*
X420668Y188500D01*
X423334D01*
X424000Y189166D01*
Y190499D01*
X423334Y191166D01*
X420001Y195165D02*
Y192499D01*
X422001D01*
X421334Y193832D01*
Y194498D01*
X422001Y195165D01*
X423334D01*
X424000Y194498D01*
Y193165D01*
X423334Y192499D01*
X378332Y201734D02*
X378999Y202401D01*
Y203733D01*
X378332Y204400D01*
X375666D01*
X375000Y203733D01*
Y202401D01*
X375666Y201734D01*
X375000Y198402D02*
X378999D01*
X376999Y200401D01*
Y197736D01*
X329268Y203766D02*
X328601Y203099D01*
Y201766D01*
X329268Y201100D01*
X331934D01*
X332600Y201766D01*
Y203099D01*
X331934Y203766D01*
X329268Y205099D02*
X328601Y205765D01*
Y207098D01*
X329268Y207765D01*
X329934D01*
X330601Y207098D01*
Y206432D01*
Y207098D01*
X331267Y207765D01*
X331934D01*
X332600Y207098D01*
Y205765D01*
X331934Y205099D01*
X328968Y191066D02*
X328301Y190399D01*
Y189067D01*
X328968Y188400D01*
X331634D01*
X332300Y189067D01*
Y190399D01*
X331634Y191066D01*
X332300Y195064D02*
Y192399D01*
X329634Y195064D01*
X328968D01*
X328301Y194398D01*
Y193065D01*
X328968Y192399D01*
D33*
X356300Y226265D02*
X357133Y227098D01*
X358799D01*
X359632Y226265D01*
Y225432D01*
X358799Y224599D01*
X357966D01*
X358799D01*
X359632Y223766D01*
Y222933D01*
X358799Y222100D01*
X357133D01*
X356300Y222933D01*
X361298Y222100D02*
Y222933D01*
X362131D01*
Y222100D01*
X361298D01*
X365464Y226265D02*
X366297Y227098D01*
X367963D01*
X368796Y226265D01*
Y225432D01*
X367963Y224599D01*
X367130D01*
X367963D01*
X368796Y223766D01*
Y222933D01*
X367963Y222100D01*
X366297D01*
X365464Y222933D01*
X370462Y227098D02*
Y223766D01*
X372128Y222100D01*
X373794Y223766D01*
Y227098D01*
X307332Y283165D02*
X306499Y283998D01*
X304833D01*
X304000Y283165D01*
Y282332D01*
X304833Y281499D01*
X306499D01*
X307332Y280666D01*
Y279833D01*
X306499Y279000D01*
X304833D01*
X304000Y279833D01*
X308998Y277334D02*
Y282332D01*
X311498D01*
X312331Y281499D01*
Y279833D01*
X311498Y279000D01*
X308998D01*
X314830Y282332D02*
X316496D01*
X317329Y281499D01*
Y279000D01*
X314830D01*
X313997Y279833D01*
X314830Y280666D01*
X317329D01*
X318995Y282332D02*
Y279000D01*
Y280666D01*
X319828Y281499D01*
X320661Y282332D01*
X321494D01*
X323993Y279000D02*
Y283998D01*
Y280666D02*
X326493Y282332D01*
X323993Y280666D02*
X326493Y279000D01*
X328992Y283998D02*
X330658D01*
X329825D01*
Y279000D01*
X328992D01*
X330658D01*
X335656Y283998D02*
X333990D01*
X333157Y283165D01*
Y279833D01*
X333990Y279000D01*
X335656D01*
X336490Y279833D01*
Y283165D01*
X335656Y283998D01*
X315332Y274165D02*
X314499Y274998D01*
X312833D01*
X312000Y274165D01*
Y270833D01*
X312833Y270000D01*
X314499D01*
X315332Y270833D01*
X317831Y270000D02*
X319498D01*
X320331Y270833D01*
Y272499D01*
X319498Y273332D01*
X317831D01*
X316998Y272499D01*
Y270833D01*
X317831Y270000D01*
X321997Y273332D02*
Y270000D01*
Y271666D01*
X322830Y272499D01*
X323663Y273332D01*
X324496D01*
X329494Y270000D02*
X327828D01*
X326995Y270833D01*
Y272499D01*
X327828Y273332D01*
X329494D01*
X330327Y272499D01*
Y271666D01*
X326995D01*
X279332Y424665D02*
X278499Y425498D01*
X276833D01*
X276000Y424665D01*
Y423832D01*
X276833Y422999D01*
X278499D01*
X279332Y422166D01*
Y421333D01*
X278499Y420500D01*
X276833D01*
X276000Y421333D01*
X280998Y418834D02*
Y423832D01*
X283498D01*
X284331Y422999D01*
Y421333D01*
X283498Y420500D01*
X280998D01*
X286830Y423832D02*
X288496D01*
X289329Y422999D01*
Y420500D01*
X286830D01*
X285997Y421333D01*
X286830Y422166D01*
X289329D01*
X290995Y423832D02*
Y420500D01*
Y422166D01*
X291828Y422999D01*
X292661Y423832D01*
X293494D01*
X295993Y420500D02*
Y425498D01*
Y422166D02*
X298493Y423832D01*
X295993Y422166D02*
X298493Y420500D01*
X300992Y425498D02*
X302658D01*
X301825D01*
Y420500D01*
X300992D01*
X302658D01*
X307656Y425498D02*
X305990D01*
X305157Y424665D01*
Y421333D01*
X305990Y420500D01*
X307656D01*
X308489Y421333D01*
Y424665D01*
X307656Y425498D01*
X315154D02*
X318486D01*
X316820D01*
Y420500D01*
X322652D02*
X320985D01*
X320152Y421333D01*
Y422999D01*
X320985Y423832D01*
X322652D01*
X323485Y422999D01*
Y422166D01*
X320152D01*
X325151Y420500D02*
Y423832D01*
X325984D01*
X326817Y422999D01*
Y420500D01*
Y422999D01*
X327650Y423832D01*
X328483Y422999D01*
Y420500D01*
X330149Y418834D02*
Y423832D01*
X332648D01*
X333481Y422999D01*
Y421333D01*
X332648Y420500D01*
X330149D01*
X337647D02*
X335981D01*
X335148Y421333D01*
Y422999D01*
X335981Y423832D01*
X337647D01*
X338480Y422999D01*
Y422166D01*
X335148D01*
X340146Y423832D02*
Y420500D01*
Y422166D01*
X340979Y422999D01*
X341812Y423832D01*
X342645D01*
X345977D02*
X347643D01*
X348477Y422999D01*
Y420500D01*
X345977D01*
X345144Y421333D01*
X345977Y422166D01*
X348477D01*
X350976Y424665D02*
Y423832D01*
X350143D01*
X351809D01*
X350976D01*
Y421333D01*
X351809Y420500D01*
X354308Y423832D02*
Y421333D01*
X355141Y420500D01*
X357640D01*
Y423832D01*
X359306D02*
Y420500D01*
Y422166D01*
X360139Y422999D01*
X360972Y423832D01*
X361806D01*
X366804Y420500D02*
X365138D01*
X364305Y421333D01*
Y422999D01*
X365138Y423832D01*
X366804D01*
X367637Y422999D01*
Y422166D01*
X364305D01*
X292732Y415165D02*
X291899Y415998D01*
X290233D01*
X289400Y415165D01*
Y414332D01*
X290233Y413499D01*
X291899D01*
X292732Y412666D01*
Y411833D01*
X291899Y411000D01*
X290233D01*
X289400Y411833D01*
X296898Y411000D02*
X295231D01*
X294398Y411833D01*
Y413499D01*
X295231Y414332D01*
X296898D01*
X297731Y413499D01*
Y412666D01*
X294398D01*
X299397Y411000D02*
Y414332D01*
X301896D01*
X302729Y413499D01*
Y411000D01*
X304395D02*
X306894D01*
X307727Y411833D01*
X306894Y412666D01*
X305228D01*
X304395Y413499D01*
X305228Y414332D01*
X307727D01*
X309394Y411000D02*
X311060D01*
X310227D01*
Y414332D01*
X309394D01*
X313559Y411000D02*
Y414332D01*
X316058D01*
X316891Y413499D01*
Y411000D01*
X320223Y409334D02*
X321056D01*
X321889Y410167D01*
Y414332D01*
X319390D01*
X318557Y413499D01*
Y411833D01*
X319390Y411000D01*
X321889D01*
X331886Y415165D02*
X331053Y415998D01*
X329387D01*
X328554Y415165D01*
Y414332D01*
X329387Y413499D01*
X331053D01*
X331886Y412666D01*
Y411833D01*
X331053Y411000D01*
X329387D01*
X328554Y411833D01*
X333552Y415998D02*
Y411000D01*
Y413499D01*
X334385Y414332D01*
X336052D01*
X336885Y413499D01*
Y411000D01*
X338551D02*
X340217D01*
X339384D01*
Y414332D01*
X338551D01*
X345215Y411000D02*
X343549D01*
X342716Y411833D01*
Y413499D01*
X343549Y414332D01*
X345215D01*
X346048Y413499D01*
Y412666D01*
X342716D01*
X347714Y411000D02*
X349381D01*
X348548D01*
Y415998D01*
X347714D01*
X355212D02*
Y411000D01*
X352713D01*
X351880Y411833D01*
Y413499D01*
X352713Y414332D01*
X355212D01*
X359000Y101298D02*
Y96300D01*
Y97966D01*
X362332Y101298D01*
X359833Y98799D01*
X362332Y96300D01*
X368997Y101298D02*
X372329D01*
X370663D01*
Y96300D01*
X373995Y101298D02*
Y96300D01*
Y98799D01*
X374828Y99632D01*
X376494D01*
X377327Y98799D01*
Y96300D01*
X381493D02*
X379827D01*
X378994Y97133D01*
Y98799D01*
X379827Y99632D01*
X381493D01*
X382326Y98799D01*
Y97966D01*
X378994D01*
X383992Y99632D02*
Y96300D01*
Y97966D01*
X384825Y98799D01*
X385658Y99632D01*
X386491D01*
X388990Y96300D02*
Y99632D01*
X389823D01*
X390656Y98799D01*
Y96300D01*
Y98799D01*
X391490Y99632D01*
X392322Y98799D01*
Y96300D01*
X394822D02*
X396488D01*
X397321Y97133D01*
Y98799D01*
X396488Y99632D01*
X394822D01*
X393989Y98799D01*
Y97133D01*
X394822Y96300D01*
X402319Y99632D02*
X399820D01*
X398987Y98799D01*
Y97133D01*
X399820Y96300D01*
X402319D01*
X404818D02*
X406485D01*
X407318Y97133D01*
Y98799D01*
X406485Y99632D01*
X404818D01*
X403985Y98799D01*
Y97133D01*
X404818Y96300D01*
X408984Y99632D02*
Y97133D01*
X409817Y96300D01*
X412316D01*
Y99632D01*
X413982Y94634D02*
Y99632D01*
X416481D01*
X417314Y98799D01*
Y97133D01*
X416481Y96300D01*
X413982D01*
X418981D02*
X420647D01*
X419814D01*
Y101298D01*
X418981D01*
X425645Y96300D02*
X423979D01*
X423146Y97133D01*
Y98799D01*
X423979Y99632D01*
X425645D01*
X426478Y98799D01*
Y97966D01*
X423146D01*
X433143Y101298D02*
Y96300D01*
X435642D01*
X436475Y97133D01*
Y97966D01*
X435642Y98799D01*
X433143D01*
X435642D01*
X436475Y99632D01*
Y100465D01*
X435642Y101298D01*
X433143D01*
X275500Y101098D02*
Y96100D01*
Y97766D01*
X278832Y101098D01*
X276333Y98599D01*
X278832Y96100D01*
X285497Y101098D02*
X288829D01*
X287163D01*
Y96100D01*
X290495Y101098D02*
Y96100D01*
Y98599D01*
X291328Y99432D01*
X292994D01*
X293827Y98599D01*
Y96100D01*
X297993D02*
X296327D01*
X295494Y96933D01*
Y98599D01*
X296327Y99432D01*
X297993D01*
X298826Y98599D01*
Y97766D01*
X295494D01*
X300492Y99432D02*
Y96100D01*
Y97766D01*
X301325Y98599D01*
X302158Y99432D01*
X302991D01*
X305490Y96100D02*
Y99432D01*
X306323D01*
X307156Y98599D01*
Y96100D01*
Y98599D01*
X307990Y99432D01*
X308822Y98599D01*
Y96100D01*
X311322D02*
X312988D01*
X313821Y96933D01*
Y98599D01*
X312988Y99432D01*
X311322D01*
X310489Y98599D01*
Y96933D01*
X311322Y96100D01*
X318819Y99432D02*
X316320D01*
X315487Y98599D01*
Y96933D01*
X316320Y96100D01*
X318819D01*
X321319D02*
X322985D01*
X323818Y96933D01*
Y98599D01*
X322985Y99432D01*
X321319D01*
X320485Y98599D01*
Y96933D01*
X321319Y96100D01*
X325484Y99432D02*
Y96933D01*
X326317Y96100D01*
X328816D01*
Y99432D01*
X330482Y94434D02*
Y99432D01*
X332981D01*
X333814Y98599D01*
Y96933D01*
X332981Y96100D01*
X330482D01*
X335481D02*
X337147D01*
X336314D01*
Y101098D01*
X335481D01*
X342145Y96100D02*
X340479D01*
X339646Y96933D01*
Y98599D01*
X340479Y99432D01*
X342145D01*
X342978Y98599D01*
Y97766D01*
X339646D01*
X349643Y96100D02*
Y99432D01*
X351309Y101098D01*
X352975Y99432D01*
Y96100D01*
Y98599D01*
X349643D01*
X270198Y179000D02*
Y175668D01*
Y177334D01*
X265200D01*
X270198Y174002D02*
X265200D01*
X267699D01*
X268532Y173169D01*
Y171502D01*
X267699Y170669D01*
X265200D01*
X268532Y169003D02*
X265200D01*
X266866D01*
X267699Y168170D01*
X268532Y167337D01*
Y166504D01*
X265200Y164005D02*
X268532D01*
Y163172D01*
X267699Y162339D01*
X265200D01*
X267699D01*
X268532Y161506D01*
X267699Y160673D01*
X265200D01*
Y159007D02*
Y156507D01*
X266033Y155674D01*
X266866Y156507D01*
Y158173D01*
X267699Y159007D01*
X268532Y158173D01*
Y155674D01*
X269365Y153175D02*
X268532D01*
Y154008D01*
Y152342D01*
Y153175D01*
X266033D01*
X265200Y152342D01*
X268532Y149843D02*
X265200D01*
X266866D01*
X267699Y149010D01*
X268532Y148177D01*
Y147344D01*
X265200Y144844D02*
X268532D01*
X270198Y143178D01*
X268532Y141512D01*
X265200D01*
X267699D01*
Y144844D01*
X269998Y138200D02*
Y134868D01*
Y136534D01*
X265000D01*
X269998Y133202D02*
X265000D01*
X267499D01*
X268332Y132369D01*
Y130702D01*
X267499Y129869D01*
X265000D01*
X268332Y128203D02*
X265000D01*
X266666D01*
X267499Y127370D01*
X268332Y126537D01*
Y125704D01*
X265000Y123205D02*
X268332D01*
Y122372D01*
X267499Y121539D01*
X265000D01*
X267499D01*
X268332Y120706D01*
X267499Y119873D01*
X265000D01*
Y118207D02*
Y115707D01*
X265833Y114874D01*
X266666Y115707D01*
Y117373D01*
X267499Y118207D01*
X268332Y117373D01*
Y114874D01*
X269165Y112375D02*
X268332D01*
Y113208D01*
Y111542D01*
Y112375D01*
X265833D01*
X265000Y111542D01*
X268332Y109043D02*
X265000D01*
X266666D01*
X267499Y108210D01*
X268332Y107377D01*
Y106544D01*
X269998Y104044D02*
X265000D01*
Y101545D01*
X265833Y100712D01*
X266666D01*
X267499Y101545D01*
Y104044D01*
Y101545D01*
X268332Y100712D01*
X269165D01*
X269998Y101545D01*
Y104044D01*
X293532Y404965D02*
X292699Y405798D01*
X291033D01*
X290200Y404965D01*
Y401633D01*
X291033Y400800D01*
X292699D01*
X293532Y401633D01*
X295198Y405798D02*
Y400800D01*
Y403299D01*
X296031Y404132D01*
X297698D01*
X298531Y403299D01*
Y400800D01*
X301030Y404132D02*
X302696D01*
X303529Y403299D01*
Y400800D01*
X301030D01*
X300197Y401633D01*
X301030Y402466D01*
X303529D01*
X305195Y404132D02*
Y400800D01*
Y402466D01*
X306028Y403299D01*
X306861Y404132D01*
X307694D01*
X310193Y400800D02*
Y405798D01*
X312693D01*
X313526Y404965D01*
Y403299D01*
X312693Y402466D01*
X310193D01*
X318524Y404965D02*
X317691Y405798D01*
X316025D01*
X315192Y404965D01*
Y401633D01*
X316025Y400800D01*
X317691D01*
X318524Y401633D01*
X320190Y405798D02*
Y400800D01*
X322690D01*
X323522Y401633D01*
Y402466D01*
X322690Y403299D01*
X320190D01*
X322690D01*
X323522Y404132D01*
Y404965D01*
X322690Y405798D01*
X320190D01*
X330187Y400800D02*
Y405798D01*
X332686D01*
X333519Y404965D01*
Y403299D01*
X332686Y402466D01*
X330187D01*
X331853D02*
X333519Y400800D01*
X337685D02*
X336018D01*
X335185Y401633D01*
Y403299D01*
X336018Y404132D01*
X337685D01*
X338518Y403299D01*
Y402466D01*
X335185D01*
X340184Y404132D02*
X341850Y400800D01*
X343516Y404132D01*
X350181Y400800D02*
Y404132D01*
X351847Y405798D01*
X353513Y404132D01*
Y400800D01*
Y403299D01*
X350181D01*
M02*
