%FSLAX25Y25*%
%MOIN*%
G70*
G01*
G75*
G04 Layer_Physical_Order=2*
G04 Layer_Color=16711680*
G04:AMPARAMS|DCode=10|XSize=37.4mil|YSize=25.59mil|CornerRadius=6.4mil|HoleSize=0mil|Usage=FLASHONLY|Rotation=270.000|XOffset=0mil|YOffset=0mil|HoleType=Round|Shape=RoundedRectangle|*
%AMROUNDEDRECTD10*
21,1,0.03740,0.01280,0,0,270.0*
21,1,0.02461,0.02559,0,0,270.0*
1,1,0.01280,-0.00640,-0.01230*
1,1,0.01280,-0.00640,0.01230*
1,1,0.01280,0.00640,0.01230*
1,1,0.01280,0.00640,-0.01230*
%
%ADD10ROUNDEDRECTD10*%
%ADD11R,0.02559X0.03740*%
%ADD12O,0.02362X0.07480*%
%ADD13R,0.03900X0.04300*%
%ADD14C,0.04000*%
%ADD15R,0.04300X0.03900*%
%ADD16C,0.01500*%
%ADD17C,0.01000*%
%ADD18C,0.02000*%
%ADD19C,0.01200*%
%ADD20C,0.00394*%
%ADD21R,0.07087X0.07087*%
%ADD22C,0.07087*%
%ADD23C,0.09449*%
%ADD24R,0.07500X0.07500*%
%ADD25C,0.07500*%
%ADD26C,0.08661*%
%ADD27C,0.31496*%
%ADD28C,0.02500*%
G36*
X409929Y427401D02*
X410043Y426914D01*
X408891Y426346D01*
X407066Y425127D01*
X405415Y423679D01*
X403968Y422028D01*
X402748Y420203D01*
X401777Y418234D01*
X401071Y416155D01*
X400643Y414002D01*
X400532Y412311D01*
X417283D01*
Y411811D01*
X417783D01*
Y395060D01*
X419474Y395171D01*
X421627Y395599D01*
X423706Y396305D01*
X425675Y397276D01*
X427501Y398495D01*
X429151Y399943D01*
X430599Y401594D01*
X431616Y403116D01*
X434966Y403087D01*
X434900Y389900D01*
X434900Y389900D01*
X435000Y389859D01*
Y97500D01*
X217500D01*
Y193102D01*
X217979Y193247D01*
X218968Y191767D01*
X220415Y190116D01*
X222066Y188669D01*
X223891Y187449D01*
X225861Y186478D01*
X227939Y185772D01*
X230093Y185344D01*
X231784Y185233D01*
Y201984D01*
Y218735D01*
X230093Y218624D01*
X227939Y218196D01*
X225861Y217491D01*
X223891Y216519D01*
X222066Y215300D01*
X220415Y213852D01*
X218968Y212201D01*
X217979Y210721D01*
X217500Y210866D01*
Y403102D01*
X217979Y403247D01*
X218968Y401767D01*
X220415Y400116D01*
X222066Y398669D01*
X223891Y397449D01*
X225861Y396478D01*
X227939Y395772D01*
X230093Y395344D01*
X231784Y395233D01*
Y411984D01*
X232283D01*
Y412484D01*
X249035D01*
X248924Y414175D01*
X248496Y416328D01*
X247790Y418407D01*
X246819Y420376D01*
X245599Y422202D01*
X244151Y423852D01*
X242501Y425300D01*
X240675Y426520D01*
X239698Y427002D01*
X239812Y427489D01*
X409929Y427401D01*
D02*
G37*
%LPC*%
G36*
X329200Y183400D02*
X327505D01*
X327580Y183022D01*
X328078Y182278D01*
X328822Y181781D01*
X329200Y181705D01*
Y183400D01*
D02*
G37*
G36*
X267800Y183095D02*
Y181400D01*
X269495D01*
X269420Y181778D01*
X268922Y182522D01*
X268178Y183019D01*
X267800Y183095D01*
D02*
G37*
G36*
X269495Y180400D02*
X267800D01*
Y178705D01*
X268178Y178780D01*
X268922Y179278D01*
X269420Y180022D01*
X269495Y180400D01*
D02*
G37*
G36*
X266800Y183095D02*
X266422Y183019D01*
X265678Y182522D01*
X265180Y181778D01*
X265105Y181400D01*
X266800D01*
Y183095D01*
D02*
G37*
G36*
X423195Y183400D02*
X421500D01*
Y181705D01*
X421878Y181781D01*
X422622Y182278D01*
X423119Y183022D01*
X423195Y183400D01*
D02*
G37*
G36*
X329200Y186095D02*
X328822Y186020D01*
X328078Y185522D01*
X327580Y184778D01*
X327505Y184400D01*
X329200D01*
Y186095D01*
D02*
G37*
G36*
X331895Y183400D02*
X330200D01*
Y181705D01*
X330578Y181781D01*
X331322Y182278D01*
X331820Y183022D01*
X331895Y183400D01*
D02*
G37*
G36*
X420500D02*
X418805D01*
X418881Y183022D01*
X419378Y182278D01*
X420122Y181781D01*
X420500Y181705D01*
Y183400D01*
D02*
G37*
G36*
X266800Y180400D02*
X265105D01*
X265180Y180022D01*
X265678Y179278D01*
X266422Y178780D01*
X266800Y178705D01*
Y180400D01*
D02*
G37*
G36*
X424606Y171128D02*
X423112Y170931D01*
X421719Y170355D01*
X420524Y169437D01*
X419606Y168241D01*
X419029Y166849D01*
X418832Y165354D01*
X419029Y163860D01*
X419606Y162467D01*
X420524Y161272D01*
X421719Y160354D01*
X423112Y159777D01*
X424606Y159581D01*
X426101Y159777D01*
X427493Y160354D01*
X428689Y161272D01*
X429607Y162467D01*
X430183Y163860D01*
X430380Y165354D01*
X430183Y166849D01*
X429607Y168241D01*
X428689Y169437D01*
X427493Y170355D01*
X426101Y170931D01*
X424606Y171128D01*
D02*
G37*
G36*
X231665Y169311D02*
X226854D01*
X226972Y168419D01*
X227509Y167123D01*
X228363Y166009D01*
X229477Y165155D01*
X230774Y164618D01*
X231665Y164500D01*
Y169311D01*
D02*
G37*
G36*
X341929Y171128D02*
X340435Y170931D01*
X339042Y170355D01*
X337846Y169437D01*
X336929Y168241D01*
X336352Y166849D01*
X336155Y165354D01*
X336352Y163860D01*
X336929Y162467D01*
X337846Y161272D01*
X339042Y160354D01*
X340435Y159777D01*
X341929Y159581D01*
X343424Y159777D01*
X344816Y160354D01*
X346012Y161272D01*
X346929Y162467D01*
X347506Y163860D01*
X347703Y165354D01*
X347506Y166849D01*
X346929Y168241D01*
X346012Y169437D01*
X344816Y170355D01*
X343424Y170931D01*
X341929Y171128D01*
D02*
G37*
G36*
X370669D02*
X369175Y170931D01*
X367782Y170355D01*
X366587Y169437D01*
X365669Y168241D01*
X365092Y166849D01*
X364896Y165354D01*
X365092Y163860D01*
X365669Y162467D01*
X366587Y161272D01*
X367782Y160354D01*
X369175Y159777D01*
X370669Y159581D01*
X372164Y159777D01*
X373556Y160354D01*
X374752Y161272D01*
X375670Y162467D01*
X376246Y163860D01*
X376443Y165354D01*
X376246Y166849D01*
X375670Y168241D01*
X374752Y169437D01*
X373556Y170355D01*
X372164Y170931D01*
X370669Y171128D01*
D02*
G37*
G36*
X231665Y175122D02*
X230774Y175004D01*
X229477Y174467D01*
X228363Y173613D01*
X227509Y172499D01*
X226972Y171203D01*
X226854Y170311D01*
X231665D01*
Y175122D01*
D02*
G37*
G36*
X232665D02*
Y170311D01*
X237476D01*
X237359Y171203D01*
X236822Y172499D01*
X235967Y173613D01*
X234854Y174467D01*
X233557Y175004D01*
X232665Y175122D01*
D02*
G37*
G36*
X237476Y169311D02*
X232665D01*
Y164500D01*
X233557Y164618D01*
X234854Y165155D01*
X235967Y166009D01*
X236822Y167123D01*
X237359Y168419D01*
X237476Y169311D01*
D02*
G37*
G36*
X253819Y178724D02*
X252633Y178568D01*
X251528Y178110D01*
X250579Y177382D01*
X249850Y176433D01*
X249393Y175328D01*
X249236Y174142D01*
X249393Y172956D01*
X249850Y171851D01*
X250579Y170901D01*
X251528Y170173D01*
X252633Y169715D01*
X253819Y169559D01*
X255005Y169715D01*
X256110Y170173D01*
X257059Y170901D01*
X257787Y171851D01*
X258245Y172956D01*
X258401Y174142D01*
X258245Y175328D01*
X257787Y176433D01*
X257059Y177382D01*
X256110Y178110D01*
X255005Y178568D01*
X253819Y178724D01*
D02*
G37*
G36*
X383995Y199700D02*
X382300D01*
Y198005D01*
X382678Y198081D01*
X383422Y198578D01*
X383920Y199322D01*
X383995Y199700D01*
D02*
G37*
G36*
X282200Y202095D02*
X281822Y202020D01*
X281078Y201522D01*
X280580Y200778D01*
X280505Y200400D01*
X282200D01*
Y202095D01*
D02*
G37*
G36*
X284895Y199400D02*
X283200D01*
Y197705D01*
X283578Y197781D01*
X284322Y198278D01*
X284820Y199022D01*
X284895Y199400D01*
D02*
G37*
G36*
X381300Y199700D02*
X379605D01*
X379680Y199322D01*
X380178Y198578D01*
X380922Y198081D01*
X381300Y198005D01*
Y199700D01*
D02*
G37*
G36*
X382300Y202395D02*
Y200700D01*
X383995D01*
X383920Y201078D01*
X383422Y201822D01*
X382678Y202320D01*
X382300Y202395D01*
D02*
G37*
G36*
X232784Y218735D02*
Y202484D01*
X249035D01*
X248924Y204175D01*
X248496Y206328D01*
X247790Y208407D01*
X246819Y210376D01*
X245599Y212201D01*
X244151Y213852D01*
X242501Y215300D01*
X240675Y216519D01*
X238706Y217491D01*
X236628Y218196D01*
X234474Y218624D01*
X232784Y218735D01*
D02*
G37*
G36*
X283200Y202095D02*
Y200400D01*
X284895D01*
X284820Y200778D01*
X284322Y201522D01*
X283578Y202020D01*
X283200Y202095D01*
D02*
G37*
G36*
X381300Y202395D02*
X380922Y202320D01*
X380178Y201822D01*
X379680Y201078D01*
X379605Y200700D01*
X381300D01*
Y202395D01*
D02*
G37*
G36*
X282200Y199400D02*
X280505D01*
X280580Y199022D01*
X281078Y198278D01*
X281822Y197781D01*
X282200Y197705D01*
Y199400D01*
D02*
G37*
G36*
X421500Y186095D02*
Y184400D01*
X423195D01*
X423119Y184778D01*
X422622Y185522D01*
X421878Y186020D01*
X421500Y186095D01*
D02*
G37*
G36*
X249035Y201484D02*
X232784D01*
Y185233D01*
X234474Y185344D01*
X236628Y185772D01*
X238706Y186478D01*
X240675Y187449D01*
X242501Y188669D01*
X244151Y190116D01*
X245599Y191767D01*
X246819Y193592D01*
X247790Y195561D01*
X248496Y197640D01*
X248924Y199793D01*
X249035Y201484D01*
D02*
G37*
G36*
X330200Y186095D02*
Y184400D01*
X331895D01*
X331820Y184778D01*
X331322Y185522D01*
X330578Y186020D01*
X330200Y186095D01*
D02*
G37*
G36*
X420500D02*
X420122Y186020D01*
X419378Y185522D01*
X418881Y184778D01*
X418805Y184400D01*
X420500D01*
Y186095D01*
D02*
G37*
G36*
X363600Y192495D02*
X363222Y192420D01*
X362478Y191922D01*
X361981Y191178D01*
X361905Y190800D01*
X363600D01*
Y192495D01*
D02*
G37*
G36*
X364600D02*
Y190800D01*
X366295D01*
X366219Y191178D01*
X365722Y191922D01*
X364978Y192420D01*
X364600Y192495D01*
D02*
G37*
G36*
X363600Y189800D02*
X361905D01*
X361981Y189422D01*
X362478Y188678D01*
X363222Y188180D01*
X363600Y188105D01*
Y189800D01*
D02*
G37*
G36*
X366295D02*
X364600D01*
Y188105D01*
X364978Y188180D01*
X365722Y188678D01*
X366219Y189422D01*
X366295Y189800D01*
D02*
G37*
G36*
X231665Y116437D02*
X230774Y116320D01*
X229477Y115782D01*
X228363Y114928D01*
X227509Y113814D01*
X226972Y112518D01*
X226854Y111626D01*
X231665D01*
Y116437D01*
D02*
G37*
G36*
X232665D02*
Y111626D01*
X237476D01*
X237359Y112518D01*
X236822Y113814D01*
X235967Y114928D01*
X234854Y115782D01*
X233557Y116320D01*
X232665Y116437D01*
D02*
G37*
G36*
X428043Y111705D02*
X422835D01*
X422966Y110710D01*
X423543Y109318D01*
X424461Y108122D01*
X425656Y107204D01*
X427049Y106628D01*
X428043Y106497D01*
Y111705D01*
D02*
G37*
G36*
X434251D02*
X429043D01*
Y106497D01*
X430038Y106628D01*
X431430Y107204D01*
X432626Y108122D01*
X433544Y109318D01*
X434120Y110710D01*
X434251Y111705D01*
D02*
G37*
G36*
X345366Y117913D02*
X344372Y117782D01*
X342979Y117205D01*
X341783Y116287D01*
X340866Y115092D01*
X340289Y113699D01*
X340158Y112705D01*
X345366D01*
Y117913D01*
D02*
G37*
G36*
X346366D02*
Y112705D01*
X351574D01*
X351443Y113699D01*
X350866Y115092D01*
X349949Y116287D01*
X348753Y117205D01*
X347360Y117782D01*
X346366Y117913D01*
D02*
G37*
G36*
X283555D02*
X282561Y117782D01*
X281168Y117205D01*
X279972Y116287D01*
X279055Y115092D01*
X278478Y113699D01*
X278347Y112705D01*
X283555D01*
Y117913D01*
D02*
G37*
G36*
X284555D02*
Y112705D01*
X289763D01*
X289632Y113699D01*
X289055Y115092D01*
X288138Y116287D01*
X286942Y117205D01*
X285549Y117782D01*
X284555Y117913D01*
D02*
G37*
G36*
X372440Y111705D02*
X367232D01*
Y106497D01*
X368227Y106628D01*
X369619Y107204D01*
X370815Y108122D01*
X371733Y109318D01*
X372309Y110710D01*
X372440Y111705D01*
D02*
G37*
G36*
X237476Y110626D02*
X232665D01*
Y105815D01*
X233557Y105932D01*
X234854Y106470D01*
X235967Y107324D01*
X236822Y108438D01*
X237359Y109734D01*
X237476Y110626D01*
D02*
G37*
G36*
X283555Y111705D02*
X278347D01*
X278478Y110710D01*
X279055Y109318D01*
X279972Y108122D01*
X281168Y107204D01*
X282561Y106628D01*
X283555Y106497D01*
Y111705D01*
D02*
G37*
G36*
X245945Y113740D02*
X244759Y113584D01*
X243654Y113126D01*
X242705Y112398D01*
X241976Y111449D01*
X241518Y110344D01*
X241362Y109158D01*
X241518Y107971D01*
X241976Y106866D01*
X242705Y105917D01*
X243654Y105189D01*
X244759Y104731D01*
X245945Y104575D01*
X247131Y104731D01*
X248236Y105189D01*
X249185Y105917D01*
X249913Y106866D01*
X250371Y107971D01*
X250527Y109158D01*
X250371Y110344D01*
X249913Y111449D01*
X249185Y112398D01*
X248236Y113126D01*
X247131Y113584D01*
X245945Y113740D01*
D02*
G37*
G36*
X231665Y110626D02*
X226854D01*
X226972Y109734D01*
X227509Y108438D01*
X228363Y107324D01*
X229477Y106470D01*
X230774Y105932D01*
X231665Y105815D01*
Y110626D01*
D02*
G37*
G36*
X351574Y111705D02*
X346366D01*
Y106497D01*
X347360Y106628D01*
X348753Y107204D01*
X349949Y108122D01*
X350866Y109318D01*
X351443Y110710D01*
X351574Y111705D01*
D02*
G37*
G36*
X366232D02*
X361024D01*
X361155Y110710D01*
X361732Y109318D01*
X362650Y108122D01*
X363845Y107204D01*
X365238Y106628D01*
X366232Y106497D01*
Y111705D01*
D02*
G37*
G36*
X289763D02*
X284555D01*
Y106497D01*
X285549Y106628D01*
X286942Y107204D01*
X288138Y108122D01*
X289055Y109318D01*
X289632Y110710D01*
X289763Y111705D01*
D02*
G37*
G36*
X345366D02*
X340158D01*
X340289Y110710D01*
X340866Y109318D01*
X341783Y108122D01*
X342979Y107204D01*
X344372Y106628D01*
X345366Y106497D01*
Y111705D01*
D02*
G37*
G36*
X231665Y149626D02*
X226854D01*
X226972Y148734D01*
X227509Y147438D01*
X228363Y146324D01*
X229477Y145470D01*
X230774Y144932D01*
X231665Y144815D01*
Y149626D01*
D02*
G37*
G36*
X237476D02*
X232665D01*
Y144815D01*
X233557Y144932D01*
X234854Y145470D01*
X235967Y146324D01*
X236822Y147438D01*
X237359Y148734D01*
X237476Y149626D01*
D02*
G37*
G36*
X232665Y136122D02*
Y131311D01*
X237476D01*
X237359Y132203D01*
X236822Y133499D01*
X235967Y134613D01*
X234854Y135467D01*
X233557Y136004D01*
X232665Y136122D01*
D02*
G37*
G36*
X245945Y152740D02*
X244759Y152584D01*
X243654Y152126D01*
X242705Y151398D01*
X241976Y150449D01*
X241518Y149344D01*
X241362Y148158D01*
X241518Y146971D01*
X241976Y145866D01*
X242705Y144917D01*
X243654Y144189D01*
X244759Y143731D01*
X245945Y143575D01*
X247131Y143731D01*
X248236Y144189D01*
X249185Y144917D01*
X249913Y145866D01*
X250371Y146971D01*
X250527Y148158D01*
X250371Y149344D01*
X249913Y150449D01*
X249185Y151398D01*
X248236Y152126D01*
X247131Y152584D01*
X245945Y152740D01*
D02*
G37*
G36*
X255000Y162583D02*
X253814Y162426D01*
X252709Y161969D01*
X251760Y161240D01*
X251031Y160291D01*
X250574Y159186D01*
X250417Y158000D01*
X250574Y156814D01*
X251031Y155709D01*
X251760Y154760D01*
X252709Y154031D01*
X253814Y153574D01*
X255000Y153418D01*
X256186Y153574D01*
X257291Y154031D01*
X258240Y154760D01*
X258969Y155709D01*
X259426Y156814D01*
X259582Y158000D01*
X259426Y159186D01*
X258969Y160291D01*
X258240Y161240D01*
X257291Y161969D01*
X256186Y162426D01*
X255000Y162583D01*
D02*
G37*
G36*
X287992Y171128D02*
X286498Y170931D01*
X285105Y170355D01*
X283909Y169437D01*
X282992Y168241D01*
X282415Y166849D01*
X282218Y165354D01*
X282415Y163860D01*
X282992Y162467D01*
X283909Y161272D01*
X285105Y160354D01*
X286498Y159777D01*
X287992Y159581D01*
X289487Y159777D01*
X290879Y160354D01*
X292075Y161272D01*
X292992Y162467D01*
X293569Y163860D01*
X293766Y165354D01*
X293569Y166849D01*
X292992Y168241D01*
X292075Y169437D01*
X290879Y170355D01*
X289487Y170931D01*
X287992Y171128D01*
D02*
G37*
G36*
X231665Y155437D02*
X230774Y155319D01*
X229477Y154782D01*
X228363Y153928D01*
X227509Y152814D01*
X226972Y151518D01*
X226854Y150626D01*
X231665D01*
Y155437D01*
D02*
G37*
G36*
X232665D02*
Y150626D01*
X237476D01*
X237359Y151518D01*
X236822Y152814D01*
X235967Y153928D01*
X234854Y154782D01*
X233557Y155319D01*
X232665Y155437D01*
D02*
G37*
G36*
X231665Y136122D02*
X230774Y136004D01*
X229477Y135467D01*
X228363Y134613D01*
X227509Y133499D01*
X226972Y132203D01*
X226854Y131311D01*
X231665D01*
Y136122D01*
D02*
G37*
G36*
X428043Y117913D02*
X427049Y117782D01*
X425656Y117205D01*
X424461Y116287D01*
X423543Y115092D01*
X422966Y113699D01*
X422835Y112705D01*
X428043D01*
Y117913D01*
D02*
G37*
G36*
X429043D02*
Y112705D01*
X434251D01*
X434120Y113699D01*
X433544Y115092D01*
X432626Y116287D01*
X431430Y117205D01*
X430038Y117782D01*
X429043Y117913D01*
D02*
G37*
G36*
X366232D02*
X365238Y117782D01*
X363845Y117205D01*
X362650Y116287D01*
X361732Y115092D01*
X361155Y113699D01*
X361024Y112705D01*
X366232D01*
Y117913D01*
D02*
G37*
G36*
X367232D02*
Y112705D01*
X372440D01*
X372309Y113699D01*
X371733Y115092D01*
X370815Y116287D01*
X369619Y117205D01*
X368227Y117782D01*
X367232Y117913D01*
D02*
G37*
G36*
X237476Y130311D02*
X232665D01*
Y125500D01*
X233557Y125618D01*
X234854Y126155D01*
X235967Y127009D01*
X236822Y128123D01*
X237359Y129419D01*
X237476Y130311D01*
D02*
G37*
G36*
X253819Y139724D02*
X252633Y139568D01*
X251528Y139110D01*
X250579Y138382D01*
X249850Y137433D01*
X249393Y136328D01*
X249236Y135142D01*
X249393Y133956D01*
X249850Y132851D01*
X250579Y131901D01*
X251528Y131173D01*
X252633Y130715D01*
X253819Y130559D01*
X255005Y130715D01*
X256110Y131173D01*
X257059Y131901D01*
X257787Y132851D01*
X258245Y133956D01*
X258401Y135142D01*
X258245Y136328D01*
X257787Y137433D01*
X257059Y138382D01*
X256110Y139110D01*
X255005Y139568D01*
X253819Y139724D01*
D02*
G37*
G36*
X255000Y123582D02*
X253814Y123426D01*
X252709Y122969D01*
X251760Y122240D01*
X251031Y121291D01*
X250574Y120186D01*
X250417Y119000D01*
X250574Y117814D01*
X251031Y116709D01*
X251760Y115760D01*
X252709Y115031D01*
X253814Y114574D01*
X255000Y114418D01*
X256186Y114574D01*
X257291Y115031D01*
X258240Y115760D01*
X258969Y116709D01*
X259426Y117814D01*
X259582Y119000D01*
X259426Y120186D01*
X258969Y121291D01*
X258240Y122240D01*
X257291Y122969D01*
X256186Y123426D01*
X255000Y123582D01*
D02*
G37*
G36*
X231665Y130311D02*
X226854D01*
X226972Y129419D01*
X227509Y128123D01*
X228363Y127009D01*
X229477Y126155D01*
X230774Y125618D01*
X231665Y125500D01*
Y130311D01*
D02*
G37*
G36*
X381500Y224694D02*
X380622Y224519D01*
X379878Y224022D01*
X379380Y223278D01*
X379206Y222400D01*
X379380Y221522D01*
X379716Y221021D01*
Y213339D01*
X378014Y211637D01*
X377422Y211520D01*
X376678Y211022D01*
X376181Y210278D01*
X376006Y209400D01*
X376181Y208522D01*
X376678Y207778D01*
X377422Y207280D01*
X378300Y207106D01*
X379178Y207280D01*
X379922Y207778D01*
X380419Y208522D01*
X380537Y209114D01*
X382762Y211338D01*
X382762Y211338D01*
X383149Y211917D01*
X383284Y212600D01*
Y221021D01*
X383619Y221522D01*
X383794Y222400D01*
X383619Y223278D01*
X383122Y224022D01*
X382378Y224519D01*
X381500Y224694D01*
D02*
G37*
G36*
X420500Y348383D02*
X419814Y348292D01*
X418709Y347835D01*
X417760Y347107D01*
X417031Y346157D01*
X416574Y345052D01*
X416483Y344366D01*
X420500D01*
Y348383D01*
D02*
G37*
G36*
X421500D02*
Y344366D01*
X425517D01*
X425426Y345052D01*
X424969Y346157D01*
X424240Y347107D01*
X423291Y347835D01*
X422186Y348292D01*
X421500Y348383D01*
D02*
G37*
G36*
X326900Y345995D02*
X326522Y345919D01*
X325778Y345422D01*
X325280Y344678D01*
X325205Y344300D01*
X326900D01*
Y345995D01*
D02*
G37*
G36*
X327900D02*
Y344300D01*
X329595D01*
X329520Y344678D01*
X329022Y345422D01*
X328278Y345919D01*
X327900Y345995D01*
D02*
G37*
G36*
X228000Y359394D02*
X226814Y359237D01*
X225709Y358780D01*
X224760Y358051D01*
X224031Y357102D01*
X223574Y355997D01*
X223417Y354811D01*
X223574Y353625D01*
X224031Y352520D01*
X224760Y351571D01*
X225709Y350842D01*
X226814Y350385D01*
X228000Y350229D01*
X229186Y350385D01*
X230291Y350842D01*
X231240Y351571D01*
X231969Y352520D01*
X232426Y353625D01*
X232582Y354811D01*
X232426Y355997D01*
X231969Y357102D01*
X231240Y358051D01*
X230291Y358780D01*
X229186Y359237D01*
X228000Y359394D01*
D02*
G37*
G36*
X421000Y362228D02*
X419814Y362072D01*
X418709Y361614D01*
X417760Y360886D01*
X417031Y359937D01*
X416574Y358832D01*
X416418Y357646D01*
X416574Y356460D01*
X417031Y355354D01*
X417760Y354405D01*
X418709Y353677D01*
X419814Y353219D01*
X421000Y353063D01*
X422186Y353219D01*
X423291Y353677D01*
X424240Y354405D01*
X424969Y355354D01*
X425426Y356460D01*
X425583Y357646D01*
X425426Y358832D01*
X424969Y359937D01*
X424240Y360886D01*
X423291Y361614D01*
X422186Y362072D01*
X421000Y362228D01*
D02*
G37*
G36*
X354500Y352725D02*
X353760Y352628D01*
X352605Y352149D01*
X351612Y351388D01*
X350851Y350395D01*
X350372Y349240D01*
X350275Y348500D01*
X354500D01*
Y352725D01*
D02*
G37*
G36*
X355500D02*
Y348500D01*
X359725D01*
X359628Y349240D01*
X359149Y350395D01*
X358388Y351388D01*
X357396Y352149D01*
X356240Y352628D01*
X355500Y352725D01*
D02*
G37*
G36*
X359725Y347500D02*
X355500D01*
Y343275D01*
X356240Y343372D01*
X357396Y343851D01*
X358388Y344612D01*
X359149Y345604D01*
X359628Y346760D01*
X359725Y347500D01*
D02*
G37*
G36*
X228000Y345614D02*
X226814Y345458D01*
X225709Y345000D01*
X224760Y344272D01*
X224031Y343323D01*
X223574Y342217D01*
X223417Y341032D01*
X223574Y339845D01*
X224031Y338740D01*
X224760Y337791D01*
X225709Y337063D01*
X226814Y336605D01*
X228000Y336449D01*
X229186Y336605D01*
X230291Y337063D01*
X231240Y337791D01*
X231969Y338740D01*
X232426Y339845D01*
X232582Y341032D01*
X232426Y342217D01*
X231969Y343323D01*
X231240Y344272D01*
X230291Y345000D01*
X229186Y345458D01*
X228000Y345614D01*
D02*
G37*
G36*
X420500Y343366D02*
X416483D01*
X416574Y342680D01*
X417031Y341575D01*
X417760Y340626D01*
X418709Y339898D01*
X419814Y339440D01*
X420500Y339350D01*
Y343366D01*
D02*
G37*
G36*
X228000Y331835D02*
X226814Y331678D01*
X225709Y331221D01*
X224760Y330492D01*
X224031Y329543D01*
X223574Y328438D01*
X223417Y327252D01*
X223574Y326066D01*
X224031Y324961D01*
X224760Y324012D01*
X225709Y323283D01*
X226814Y322826D01*
X228000Y322670D01*
X229186Y322826D01*
X230291Y323283D01*
X231240Y324012D01*
X231969Y324961D01*
X232426Y326066D01*
X232582Y327252D01*
X232426Y328438D01*
X231969Y329543D01*
X231240Y330492D01*
X230291Y331221D01*
X229186Y331678D01*
X228000Y331835D01*
D02*
G37*
G36*
X421000Y334669D02*
X419814Y334513D01*
X418709Y334055D01*
X417760Y333327D01*
X417031Y332378D01*
X416574Y331273D01*
X416418Y330087D01*
X416574Y328901D01*
X417031Y327795D01*
X417760Y326846D01*
X418709Y326118D01*
X419814Y325660D01*
X421000Y325504D01*
X422186Y325660D01*
X423291Y326118D01*
X424240Y326846D01*
X424969Y327795D01*
X425426Y328901D01*
X425583Y330087D01*
X425426Y331273D01*
X424969Y332378D01*
X424240Y333327D01*
X423291Y334055D01*
X422186Y334513D01*
X421000Y334669D01*
D02*
G37*
G36*
X329595Y343300D02*
X327900D01*
Y341605D01*
X328278Y341681D01*
X329022Y342178D01*
X329520Y342922D01*
X329595Y343300D01*
D02*
G37*
G36*
X354500Y347500D02*
X350275D01*
X350372Y346760D01*
X350851Y345604D01*
X351612Y344612D01*
X352605Y343851D01*
X353760Y343372D01*
X354500Y343275D01*
Y347500D01*
D02*
G37*
G36*
X425517Y343366D02*
X421500D01*
Y339350D01*
X422186Y339440D01*
X423291Y339898D01*
X424240Y340626D01*
X424969Y341575D01*
X425426Y342680D01*
X425517Y343366D01*
D02*
G37*
G36*
X326900Y343300D02*
X325205D01*
X325280Y342922D01*
X325778Y342178D01*
X326522Y341681D01*
X326900Y341605D01*
Y343300D01*
D02*
G37*
G36*
X232543Y386913D02*
X223457D01*
Y377827D01*
X232543D01*
Y386913D01*
D02*
G37*
G36*
X421000Y389787D02*
X419814Y389631D01*
X418709Y389173D01*
X417760Y388445D01*
X417031Y387496D01*
X416574Y386391D01*
X416418Y385205D01*
X416574Y384019D01*
X417031Y382913D01*
X417760Y381964D01*
X418709Y381236D01*
X419814Y380778D01*
X421000Y380622D01*
X422186Y380778D01*
X423291Y381236D01*
X424240Y381964D01*
X424969Y382913D01*
X425426Y384019D01*
X425583Y385205D01*
X425426Y386391D01*
X424969Y387496D01*
X424240Y388445D01*
X423291Y389173D01*
X422186Y389631D01*
X421000Y389787D01*
D02*
G37*
G36*
X228500Y373107D02*
Y369091D01*
X232517D01*
X232426Y369777D01*
X231969Y370882D01*
X231240Y371831D01*
X230291Y372559D01*
X229186Y373017D01*
X228500Y373107D01*
D02*
G37*
G36*
X289750Y382750D02*
X280250D01*
Y373250D01*
X284664D01*
X284665Y373230D01*
X285335D01*
X285336Y373250D01*
X289750D01*
Y382750D01*
D02*
G37*
G36*
X265000Y407579D02*
X263556Y407389D01*
X262211Y406831D01*
X261055Y405945D01*
X260169Y404789D01*
X259611Y403444D01*
X259421Y402000D01*
X259611Y400556D01*
X260169Y399211D01*
X261055Y398055D01*
X262211Y397169D01*
X263556Y396611D01*
X265000Y396421D01*
X266444Y396611D01*
X267789Y397169D01*
X268945Y398055D01*
X269831Y399211D01*
X270389Y400556D01*
X270579Y402000D01*
X270389Y403444D01*
X269831Y404789D01*
X268945Y405945D01*
X267789Y406831D01*
X266444Y407389D01*
X265000Y407579D01*
D02*
G37*
G36*
X380000D02*
X378556Y407389D01*
X377211Y406831D01*
X376055Y405945D01*
X375169Y404789D01*
X374611Y403444D01*
X374421Y402000D01*
X374611Y400556D01*
X375169Y399211D01*
X376055Y398055D01*
X377211Y397169D01*
X378556Y396611D01*
X380000Y396421D01*
X381444Y396611D01*
X382789Y397169D01*
X383945Y398055D01*
X384831Y399211D01*
X385389Y400556D01*
X385579Y402000D01*
X385389Y403444D01*
X384831Y404789D01*
X383945Y405945D01*
X382789Y406831D01*
X381444Y407389D01*
X380000Y407579D01*
D02*
G37*
G36*
X416783Y411311D02*
X400532D01*
X400643Y409620D01*
X401071Y407467D01*
X401777Y405388D01*
X402748Y403419D01*
X403968Y401594D01*
X405415Y399943D01*
X407066Y398495D01*
X408891Y397276D01*
X410860Y396305D01*
X412939Y395599D01*
X415093Y395171D01*
X416783Y395060D01*
Y411311D01*
D02*
G37*
G36*
X249035Y411484D02*
X232784D01*
Y395233D01*
X234474Y395344D01*
X236628Y395772D01*
X238706Y396478D01*
X240675Y397449D01*
X242501Y398669D01*
X244151Y400116D01*
X245599Y401767D01*
X246819Y403592D01*
X247790Y405561D01*
X248496Y407640D01*
X248924Y409794D01*
X249035Y411484D01*
D02*
G37*
G36*
X227500Y373107D02*
X226814Y373017D01*
X225709Y372559D01*
X224760Y371831D01*
X224031Y370882D01*
X223574Y369777D01*
X223483Y369091D01*
X227500D01*
Y373107D01*
D02*
G37*
G36*
X289725Y367500D02*
X285500D01*
Y363275D01*
X286240Y363372D01*
X287396Y363851D01*
X288388Y364612D01*
X289149Y365604D01*
X289628Y366760D01*
X289725Y367500D01*
D02*
G37*
G36*
X227500Y368091D02*
X223483D01*
X223574Y367405D01*
X224031Y366299D01*
X224760Y365350D01*
X225709Y364622D01*
X226814Y364164D01*
X227500Y364074D01*
Y368091D01*
D02*
G37*
G36*
X359750Y382750D02*
X350250D01*
Y373250D01*
X354664D01*
X354697Y372751D01*
X353760Y372628D01*
X352605Y372149D01*
X351612Y371388D01*
X350851Y370395D01*
X350372Y369240D01*
X350209Y368000D01*
X350372Y366760D01*
X350851Y365604D01*
X351612Y364612D01*
X352605Y363851D01*
X353760Y363372D01*
X354689Y363250D01*
Y362750D01*
X353760Y362628D01*
X352605Y362149D01*
X351612Y361388D01*
X350851Y360396D01*
X350372Y359240D01*
X350209Y358000D01*
X350372Y356760D01*
X350851Y355605D01*
X351612Y354612D01*
X352605Y353851D01*
X353760Y353372D01*
X354689Y353250D01*
Y353229D01*
X354843D01*
X355000Y353209D01*
X355157Y353229D01*
X355311D01*
Y353250D01*
X356240Y353372D01*
X357396Y353851D01*
X358388Y354612D01*
X359149Y355605D01*
X359628Y356760D01*
X359791Y358000D01*
X359628Y359240D01*
X359149Y360396D01*
X358388Y361388D01*
X357396Y362149D01*
X356240Y362628D01*
X355311Y362750D01*
Y363250D01*
X356240Y363372D01*
X357396Y363851D01*
X358388Y364612D01*
X359149Y365604D01*
X359628Y366760D01*
X359791Y368000D01*
X359628Y369240D01*
X359149Y370395D01*
X358388Y371388D01*
X357396Y372149D01*
X356240Y372628D01*
X355303Y372751D01*
X355336Y373250D01*
X359750D01*
Y382750D01*
D02*
G37*
G36*
X284500Y367500D02*
X280275D01*
X280372Y366760D01*
X280851Y365604D01*
X281612Y364612D01*
X282605Y363851D01*
X283760Y363372D01*
X284500Y363275D01*
Y367500D01*
D02*
G37*
G36*
Y372725D02*
X283760Y372628D01*
X282605Y372149D01*
X281612Y371388D01*
X280851Y370395D01*
X280372Y369240D01*
X280275Y368500D01*
X284500D01*
Y372725D01*
D02*
G37*
G36*
X285500D02*
Y368500D01*
X289725D01*
X289628Y369240D01*
X289149Y370395D01*
X288388Y371388D01*
X287396Y372149D01*
X286240Y372628D01*
X285500Y372725D01*
D02*
G37*
G36*
X232517Y368091D02*
X228500D01*
Y364074D01*
X229186Y364164D01*
X230291Y364622D01*
X231240Y365350D01*
X231969Y366299D01*
X232426Y367405D01*
X232517Y368091D01*
D02*
G37*
G36*
X421000Y376008D02*
X419814Y375852D01*
X418709Y375394D01*
X417760Y374665D01*
X417031Y373716D01*
X416574Y372611D01*
X416418Y371425D01*
X416574Y370239D01*
X417031Y369134D01*
X417760Y368185D01*
X418709Y367457D01*
X419814Y366999D01*
X421000Y366843D01*
X422186Y366999D01*
X423291Y367457D01*
X424240Y368185D01*
X424969Y369134D01*
X425426Y370239D01*
X425583Y371425D01*
X425426Y372611D01*
X424969Y373716D01*
X424240Y374665D01*
X423291Y375394D01*
X422186Y375852D01*
X421000Y376008D01*
D02*
G37*
G36*
X269200Y221695D02*
X268822Y221620D01*
X268078Y221122D01*
X267581Y220378D01*
X267505Y220000D01*
X269200D01*
Y221695D01*
D02*
G37*
G36*
X270200D02*
Y220000D01*
X271895D01*
X271819Y220378D01*
X271322Y221122D01*
X270578Y221620D01*
X270200Y221695D01*
D02*
G37*
G36*
X271895Y219000D02*
X270200D01*
Y217305D01*
X270578Y217380D01*
X271322Y217878D01*
X271819Y218622D01*
X271895Y219000D01*
D02*
G37*
G36*
X282600Y230479D02*
X281156Y230289D01*
X279811Y229731D01*
X278655Y228845D01*
X277769Y227689D01*
X277211Y226344D01*
X277021Y224900D01*
X277211Y223456D01*
X277769Y222111D01*
X278655Y220955D01*
X279811Y220069D01*
X281156Y219511D01*
X282600Y219321D01*
X284044Y219511D01*
X285389Y220069D01*
X286545Y220955D01*
X287431Y222111D01*
X287989Y223456D01*
X288179Y224900D01*
X287989Y226344D01*
X287431Y227689D01*
X286545Y228845D01*
X285389Y229731D01*
X284044Y230289D01*
X282600Y230479D01*
D02*
G37*
G36*
X371500Y236900D02*
X369805D01*
X369881Y236522D01*
X370378Y235778D01*
X371122Y235280D01*
X371500Y235205D01*
Y236900D01*
D02*
G37*
G36*
X374195D02*
X372500D01*
Y235205D01*
X372878Y235280D01*
X373622Y235778D01*
X374119Y236522D01*
X374195Y236900D01*
D02*
G37*
G36*
X228000Y235378D02*
X226814Y235222D01*
X225709Y234764D01*
X224760Y234036D01*
X224031Y233086D01*
X223574Y231981D01*
X223417Y230795D01*
X223574Y229609D01*
X224031Y228504D01*
X224760Y227555D01*
X225709Y226827D01*
X226814Y226369D01*
X228000Y226213D01*
X229186Y226369D01*
X230291Y226827D01*
X231240Y227555D01*
X231969Y228504D01*
X232426Y229609D01*
X232582Y230795D01*
X232426Y231981D01*
X231969Y233086D01*
X231240Y234036D01*
X230291Y234764D01*
X229186Y235222D01*
X228000Y235378D01*
D02*
G37*
G36*
X425543Y238173D02*
X416457D01*
Y229087D01*
X425543D01*
Y238173D01*
D02*
G37*
G36*
X269200Y219000D02*
X267505D01*
X267581Y218622D01*
X268078Y217878D01*
X268822Y217380D01*
X269200Y217305D01*
Y219000D01*
D02*
G37*
G36*
X329900Y211100D02*
X328205D01*
X328280Y210722D01*
X328778Y209978D01*
X329522Y209481D01*
X329900Y209405D01*
Y211100D01*
D02*
G37*
G36*
X332595D02*
X330900D01*
Y209405D01*
X331278Y209481D01*
X332022Y209978D01*
X332520Y210722D01*
X332595Y211100D01*
D02*
G37*
G36*
X421400Y210600D02*
X419705D01*
X419781Y210222D01*
X420278Y209478D01*
X421022Y208980D01*
X421400Y208905D01*
Y210600D01*
D02*
G37*
G36*
X424095D02*
X422400D01*
Y208905D01*
X422778Y208980D01*
X423522Y209478D01*
X424019Y210222D01*
X424095Y210600D01*
D02*
G37*
G36*
X329900Y213795D02*
X329522Y213720D01*
X328778Y213222D01*
X328280Y212478D01*
X328205Y212100D01*
X329900D01*
Y213795D01*
D02*
G37*
G36*
X330900D02*
Y212100D01*
X332595D01*
X332520Y212478D01*
X332022Y213222D01*
X331278Y213720D01*
X330900Y213795D01*
D02*
G37*
G36*
X421400Y213295D02*
X421022Y213219D01*
X420278Y212722D01*
X419781Y211978D01*
X419705Y211600D01*
X421400D01*
Y213295D01*
D02*
G37*
G36*
X422400D02*
Y211600D01*
X424095D01*
X424019Y211978D01*
X423522Y212722D01*
X422778Y213219D01*
X422400Y213295D01*
D02*
G37*
G36*
X228000Y290496D02*
X226814Y290340D01*
X225709Y289882D01*
X224760Y289154D01*
X224031Y288205D01*
X223574Y287099D01*
X223417Y285913D01*
X223574Y284727D01*
X224031Y283622D01*
X224760Y282673D01*
X225709Y281945D01*
X226814Y281487D01*
X228000Y281331D01*
X229186Y281487D01*
X230291Y281945D01*
X231240Y282673D01*
X231969Y283622D01*
X232426Y284727D01*
X232582Y285913D01*
X232426Y287099D01*
X231969Y288205D01*
X231240Y289154D01*
X230291Y289882D01*
X229186Y290340D01*
X228000Y290496D01*
D02*
G37*
G36*
X421000Y293331D02*
X419814Y293174D01*
X418709Y292717D01*
X417760Y291988D01*
X417031Y291039D01*
X416574Y289934D01*
X416418Y288748D01*
X416574Y287562D01*
X417031Y286457D01*
X417760Y285508D01*
X418709Y284780D01*
X419814Y284322D01*
X421000Y284166D01*
X422186Y284322D01*
X423291Y284780D01*
X424240Y285508D01*
X424969Y286457D01*
X425426Y287562D01*
X425583Y288748D01*
X425426Y289934D01*
X424969Y291039D01*
X424240Y291988D01*
X423291Y292717D01*
X422186Y293174D01*
X421000Y293331D01*
D02*
G37*
G36*
X228000Y276716D02*
X226814Y276560D01*
X225709Y276102D01*
X224760Y275374D01*
X224031Y274425D01*
X223574Y273320D01*
X223417Y272134D01*
X223574Y270948D01*
X224031Y269843D01*
X224760Y268894D01*
X225709Y268165D01*
X226814Y267707D01*
X228000Y267551D01*
X229186Y267707D01*
X230291Y268165D01*
X231240Y268894D01*
X231969Y269843D01*
X232426Y270948D01*
X232582Y272134D01*
X232426Y273320D01*
X231969Y274425D01*
X231240Y275374D01*
X230291Y276102D01*
X229186Y276560D01*
X228000Y276716D01*
D02*
G37*
G36*
X421000Y279551D02*
X419814Y279395D01*
X418709Y278937D01*
X417760Y278209D01*
X417031Y277260D01*
X416574Y276154D01*
X416418Y274969D01*
X416574Y273782D01*
X417031Y272677D01*
X417760Y271728D01*
X418709Y271000D01*
X419814Y270542D01*
X421000Y270386D01*
X422186Y270542D01*
X423291Y271000D01*
X424240Y271728D01*
X424969Y272677D01*
X425426Y273782D01*
X425583Y274969D01*
X425426Y276154D01*
X424969Y277260D01*
X424240Y278209D01*
X423291Y278937D01*
X422186Y279395D01*
X421000Y279551D01*
D02*
G37*
G36*
X228000Y318055D02*
X226814Y317899D01*
X225709Y317441D01*
X224760Y316713D01*
X224031Y315764D01*
X223574Y314658D01*
X223417Y313472D01*
X223574Y312286D01*
X224031Y311181D01*
X224760Y310232D01*
X225709Y309504D01*
X226814Y309046D01*
X228000Y308890D01*
X229186Y309046D01*
X230291Y309504D01*
X231240Y310232D01*
X231969Y311181D01*
X232426Y312286D01*
X232582Y313472D01*
X232426Y314658D01*
X231969Y315764D01*
X231240Y316713D01*
X230291Y317441D01*
X229186Y317899D01*
X228000Y318055D01*
D02*
G37*
G36*
X421000Y320890D02*
X419814Y320733D01*
X418709Y320276D01*
X417760Y319547D01*
X417031Y318598D01*
X416574Y317493D01*
X416418Y316307D01*
X416574Y315121D01*
X417031Y314016D01*
X417760Y313067D01*
X418709Y312338D01*
X419814Y311881D01*
X421000Y311725D01*
X422186Y311881D01*
X423291Y312338D01*
X424240Y313067D01*
X424969Y314016D01*
X425426Y315121D01*
X425583Y316307D01*
X425426Y317493D01*
X424969Y318598D01*
X424240Y319547D01*
X423291Y320276D01*
X422186Y320733D01*
X421000Y320890D01*
D02*
G37*
G36*
X228000Y304275D02*
X226814Y304119D01*
X225709Y303661D01*
X224760Y302933D01*
X224031Y301984D01*
X223574Y300879D01*
X223417Y299693D01*
X223574Y298507D01*
X224031Y297402D01*
X224760Y296453D01*
X225709Y295724D01*
X226814Y295267D01*
X228000Y295110D01*
X229186Y295267D01*
X230291Y295724D01*
X231240Y296453D01*
X231969Y297402D01*
X232426Y298507D01*
X232582Y299693D01*
X232426Y300879D01*
X231969Y301984D01*
X231240Y302933D01*
X230291Y303661D01*
X229186Y304119D01*
X228000Y304275D01*
D02*
G37*
G36*
X421000Y307110D02*
X419814Y306954D01*
X418709Y306496D01*
X417760Y305768D01*
X417031Y304819D01*
X416574Y303714D01*
X416418Y302528D01*
X416574Y301342D01*
X417031Y300236D01*
X417760Y299287D01*
X418709Y298559D01*
X419814Y298101D01*
X421000Y297945D01*
X422186Y298101D01*
X423291Y298559D01*
X424240Y299287D01*
X424969Y300236D01*
X425426Y301342D01*
X425583Y302528D01*
X425426Y303714D01*
X424969Y304819D01*
X424240Y305768D01*
X423291Y306496D01*
X422186Y306954D01*
X421000Y307110D01*
D02*
G37*
G36*
X355000Y342791D02*
X354843Y342771D01*
X354689D01*
Y342750D01*
X353760Y342628D01*
X352605Y342149D01*
X351612Y341388D01*
X350851Y340395D01*
X350372Y339240D01*
X350209Y338000D01*
X350372Y336760D01*
X350851Y335605D01*
X351612Y334612D01*
X352605Y333851D01*
X353760Y333372D01*
X354689Y333250D01*
Y332750D01*
X353760Y332628D01*
X352605Y332149D01*
X351612Y331388D01*
X350851Y330396D01*
X350372Y329240D01*
X350209Y328000D01*
X350372Y326760D01*
X350851Y325605D01*
X351612Y324612D01*
X352605Y323851D01*
X353760Y323372D01*
X354689Y323250D01*
Y322750D01*
X353760Y322628D01*
X352605Y322149D01*
X351612Y321388D01*
X350851Y320395D01*
X350372Y319240D01*
X350209Y318000D01*
X350372Y316760D01*
X350851Y315604D01*
X351612Y314612D01*
X352605Y313851D01*
X353760Y313372D01*
X354689Y313250D01*
Y312750D01*
X353760Y312628D01*
X352605Y312149D01*
X351612Y311388D01*
X350851Y310396D01*
X350372Y309240D01*
X350209Y308000D01*
X350372Y306760D01*
X350851Y305605D01*
X351612Y304612D01*
X352605Y303851D01*
X353760Y303372D01*
X354689Y303250D01*
Y302750D01*
X353760Y302628D01*
X352605Y302149D01*
X351612Y301388D01*
X350851Y300395D01*
X350372Y299240D01*
X350209Y298000D01*
X350372Y296760D01*
X350851Y295604D01*
X351612Y294612D01*
X352605Y293851D01*
X353760Y293372D01*
X354689Y293250D01*
Y292750D01*
X353760Y292628D01*
X352605Y292149D01*
X351612Y291388D01*
X350851Y290395D01*
X350372Y289240D01*
X350209Y288000D01*
X350372Y286760D01*
X350851Y285605D01*
X351612Y284612D01*
X352605Y283851D01*
X353760Y283372D01*
X354689Y283250D01*
Y282750D01*
X353760Y282628D01*
X352605Y282149D01*
X351612Y281388D01*
X350851Y280396D01*
X350372Y279240D01*
X350209Y278000D01*
X350372Y276760D01*
X350851Y275605D01*
X351612Y274612D01*
X352605Y273851D01*
X353760Y273372D01*
X354689Y273250D01*
Y272750D01*
X353760Y272628D01*
X352605Y272149D01*
X351612Y271388D01*
X350851Y270395D01*
X350372Y269240D01*
X350209Y268000D01*
X350372Y266760D01*
X350851Y265604D01*
X351612Y264612D01*
X352605Y263851D01*
X353760Y263372D01*
X355000Y263209D01*
X356240Y263372D01*
X357396Y263851D01*
X358388Y264612D01*
X359149Y265604D01*
X359628Y266760D01*
X359791Y268000D01*
X359628Y269240D01*
X359149Y270395D01*
X358388Y271388D01*
X357396Y272149D01*
X356240Y272628D01*
X355311Y272750D01*
Y273250D01*
X356240Y273372D01*
X357396Y273851D01*
X358388Y274612D01*
X359149Y275605D01*
X359628Y276760D01*
X359791Y278000D01*
X359628Y279240D01*
X359149Y280396D01*
X358388Y281388D01*
X357396Y282149D01*
X356240Y282628D01*
X355311Y282750D01*
Y283250D01*
X356240Y283372D01*
X357396Y283851D01*
X358388Y284612D01*
X359149Y285605D01*
X359628Y286760D01*
X359791Y288000D01*
X359628Y289240D01*
X359149Y290395D01*
X358388Y291388D01*
X357396Y292149D01*
X356240Y292628D01*
X355311Y292750D01*
Y293250D01*
X356240Y293372D01*
X357396Y293851D01*
X358388Y294612D01*
X359149Y295604D01*
X359628Y296760D01*
X359791Y298000D01*
X359628Y299240D01*
X359149Y300395D01*
X358388Y301388D01*
X357396Y302149D01*
X356240Y302628D01*
X355311Y302750D01*
Y303250D01*
X356240Y303372D01*
X357396Y303851D01*
X358388Y304612D01*
X359149Y305605D01*
X359628Y306760D01*
X359791Y308000D01*
X359628Y309240D01*
X359149Y310396D01*
X358388Y311388D01*
X357396Y312149D01*
X356240Y312628D01*
X355311Y312750D01*
Y313250D01*
X356240Y313372D01*
X357396Y313851D01*
X358388Y314612D01*
X359149Y315604D01*
X359628Y316760D01*
X359791Y318000D01*
X359628Y319240D01*
X359149Y320395D01*
X358388Y321388D01*
X357396Y322149D01*
X356240Y322628D01*
X355311Y322750D01*
Y323250D01*
X356240Y323372D01*
X357396Y323851D01*
X358388Y324612D01*
X359149Y325605D01*
X359628Y326760D01*
X359791Y328000D01*
X359628Y329240D01*
X359149Y330396D01*
X358388Y331388D01*
X357396Y332149D01*
X356240Y332628D01*
X355311Y332750D01*
Y333250D01*
X356240Y333372D01*
X357396Y333851D01*
X358388Y334612D01*
X359149Y335605D01*
X359628Y336760D01*
X359791Y338000D01*
X359628Y339240D01*
X359149Y340395D01*
X358388Y341388D01*
X357396Y342149D01*
X356240Y342628D01*
X355311Y342750D01*
Y342771D01*
X355157D01*
X355000Y342791D01*
D02*
G37*
G36*
X228000Y249157D02*
X226814Y249001D01*
X225709Y248543D01*
X224760Y247815D01*
X224031Y246866D01*
X223574Y245761D01*
X223417Y244575D01*
X223574Y243389D01*
X224031Y242284D01*
X224760Y241335D01*
X225709Y240606D01*
X226814Y240148D01*
X228000Y239992D01*
X229186Y240148D01*
X230291Y240606D01*
X231240Y241335D01*
X231969Y242284D01*
X232426Y243389D01*
X232582Y244575D01*
X232426Y245761D01*
X231969Y246866D01*
X231240Y247815D01*
X230291Y248543D01*
X229186Y249001D01*
X228000Y249157D01*
D02*
G37*
G36*
X421000Y251992D02*
X419814Y251836D01*
X418709Y251378D01*
X417760Y250650D01*
X417031Y249701D01*
X416574Y248595D01*
X416418Y247410D01*
X416574Y246223D01*
X417031Y245118D01*
X417760Y244169D01*
X418709Y243441D01*
X419814Y242983D01*
X421000Y242827D01*
X422186Y242983D01*
X423291Y243441D01*
X424240Y244169D01*
X424969Y245118D01*
X425426Y246223D01*
X425583Y247410D01*
X425426Y248595D01*
X424969Y249701D01*
X424240Y250650D01*
X423291Y251378D01*
X422186Y251836D01*
X421000Y251992D01*
D02*
G37*
G36*
X371500Y239595D02*
X371122Y239520D01*
X370378Y239022D01*
X369881Y238278D01*
X369805Y237900D01*
X371500D01*
Y239595D01*
D02*
G37*
G36*
X372500D02*
Y237900D01*
X374195D01*
X374119Y238278D01*
X373622Y239022D01*
X372878Y239520D01*
X372500Y239595D01*
D02*
G37*
G36*
X421000Y265772D02*
X419814Y265615D01*
X418709Y265158D01*
X417760Y264429D01*
X417031Y263480D01*
X416574Y262375D01*
X416418Y261189D01*
X416574Y260003D01*
X417031Y258898D01*
X417760Y257949D01*
X418709Y257220D01*
X419814Y256763D01*
X421000Y256607D01*
X422186Y256763D01*
X423291Y257220D01*
X424240Y257949D01*
X424969Y258898D01*
X425426Y260003D01*
X425583Y261189D01*
X425426Y262375D01*
X424969Y263480D01*
X424240Y264429D01*
X423291Y265158D01*
X422186Y265615D01*
X421000Y265772D01*
D02*
G37*
G36*
X285000Y362791D02*
X284843Y362771D01*
X284689D01*
Y362750D01*
X283760Y362628D01*
X282605Y362149D01*
X281612Y361388D01*
X280851Y360396D01*
X280372Y359240D01*
X280209Y358000D01*
X280372Y356760D01*
X280851Y355605D01*
X281612Y354612D01*
X282605Y353851D01*
X283760Y353372D01*
X284689Y353250D01*
Y352750D01*
X283760Y352628D01*
X282605Y352149D01*
X281612Y351388D01*
X280851Y350395D01*
X280372Y349240D01*
X280209Y348000D01*
X280372Y346760D01*
X280851Y345604D01*
X281612Y344612D01*
X282605Y343851D01*
X283760Y343372D01*
X284689Y343250D01*
Y342750D01*
X283760Y342628D01*
X282605Y342149D01*
X281612Y341388D01*
X280851Y340395D01*
X280372Y339240D01*
X280209Y338000D01*
X280372Y336760D01*
X280851Y335605D01*
X281612Y334612D01*
X282605Y333851D01*
X283760Y333372D01*
X284689Y333250D01*
Y332750D01*
X283760Y332628D01*
X282605Y332149D01*
X281612Y331388D01*
X280851Y330396D01*
X280372Y329240D01*
X280209Y328000D01*
X280372Y326760D01*
X280851Y325605D01*
X281612Y324612D01*
X282605Y323851D01*
X283760Y323372D01*
X284689Y323250D01*
Y322750D01*
X283760Y322628D01*
X282605Y322149D01*
X281612Y321388D01*
X280851Y320395D01*
X280372Y319240D01*
X280209Y318000D01*
X280372Y316760D01*
X280851Y315604D01*
X281612Y314612D01*
X282605Y313851D01*
X283760Y313372D01*
X284689Y313250D01*
Y312750D01*
X283760Y312628D01*
X282605Y312149D01*
X281612Y311388D01*
X280851Y310396D01*
X280372Y309240D01*
X280209Y308000D01*
X280372Y306760D01*
X280851Y305605D01*
X281612Y304612D01*
X282605Y303851D01*
X283760Y303372D01*
X284689Y303250D01*
Y302750D01*
X283760Y302628D01*
X282605Y302149D01*
X281612Y301388D01*
X280851Y300395D01*
X280372Y299240D01*
X280209Y298000D01*
X280372Y296760D01*
X280851Y295604D01*
X281612Y294612D01*
X282605Y293851D01*
X283760Y293372D01*
X284689Y293250D01*
Y292750D01*
X283760Y292628D01*
X282605Y292149D01*
X281612Y291388D01*
X280851Y290395D01*
X280372Y289240D01*
X280209Y288000D01*
X280372Y286760D01*
X280851Y285605D01*
X281612Y284612D01*
X282605Y283851D01*
X283760Y283372D01*
X284689Y283250D01*
Y282750D01*
X283760Y282628D01*
X282605Y282149D01*
X281612Y281388D01*
X280851Y280396D01*
X280372Y279240D01*
X280209Y278000D01*
X280372Y276760D01*
X280851Y275605D01*
X281612Y274612D01*
X282605Y273851D01*
X283760Y273372D01*
X284689Y273250D01*
Y272750D01*
X283760Y272628D01*
X282605Y272149D01*
X281612Y271388D01*
X280851Y270395D01*
X280372Y269240D01*
X280209Y268000D01*
X280372Y266760D01*
X280851Y265604D01*
X281612Y264612D01*
X282605Y263851D01*
X283760Y263372D01*
X285000Y263209D01*
X286240Y263372D01*
X287396Y263851D01*
X288388Y264612D01*
X289149Y265604D01*
X289628Y266760D01*
X289791Y268000D01*
X289628Y269240D01*
X289149Y270395D01*
X288388Y271388D01*
X287396Y272149D01*
X286240Y272628D01*
X285311Y272750D01*
Y273250D01*
X286240Y273372D01*
X287396Y273851D01*
X288388Y274612D01*
X289149Y275605D01*
X289628Y276760D01*
X289791Y278000D01*
X289628Y279240D01*
X289149Y280396D01*
X288388Y281388D01*
X287396Y282149D01*
X286240Y282628D01*
X285311Y282750D01*
Y283250D01*
X286240Y283372D01*
X287396Y283851D01*
X288388Y284612D01*
X289149Y285605D01*
X289628Y286760D01*
X289791Y288000D01*
X289628Y289240D01*
X289149Y290395D01*
X288388Y291388D01*
X287396Y292149D01*
X286240Y292628D01*
X285311Y292750D01*
Y293250D01*
X286240Y293372D01*
X287396Y293851D01*
X288388Y294612D01*
X289149Y295604D01*
X289628Y296760D01*
X289791Y298000D01*
X289628Y299240D01*
X289149Y300395D01*
X288388Y301388D01*
X287396Y302149D01*
X286240Y302628D01*
X285311Y302750D01*
Y303250D01*
X286240Y303372D01*
X287396Y303851D01*
X288388Y304612D01*
X289149Y305605D01*
X289628Y306760D01*
X289791Y308000D01*
X289628Y309240D01*
X289149Y310396D01*
X288388Y311388D01*
X287396Y312149D01*
X286240Y312628D01*
X285311Y312750D01*
Y313250D01*
X286240Y313372D01*
X287396Y313851D01*
X288388Y314612D01*
X289149Y315604D01*
X289628Y316760D01*
X289791Y318000D01*
X289628Y319240D01*
X289149Y320395D01*
X288388Y321388D01*
X287396Y322149D01*
X286240Y322628D01*
X285311Y322750D01*
Y323250D01*
X286240Y323372D01*
X287396Y323851D01*
X288388Y324612D01*
X289149Y325605D01*
X289628Y326760D01*
X289791Y328000D01*
X289628Y329240D01*
X289149Y330396D01*
X288388Y331388D01*
X287396Y332149D01*
X286240Y332628D01*
X285311Y332750D01*
Y333250D01*
X286240Y333372D01*
X287396Y333851D01*
X288388Y334612D01*
X289149Y335605D01*
X289628Y336760D01*
X289791Y338000D01*
X289628Y339240D01*
X289149Y340395D01*
X288388Y341388D01*
X287396Y342149D01*
X286240Y342628D01*
X285311Y342750D01*
Y343250D01*
X286240Y343372D01*
X287396Y343851D01*
X288388Y344612D01*
X289149Y345604D01*
X289628Y346760D01*
X289791Y348000D01*
X289628Y349240D01*
X289149Y350395D01*
X288388Y351388D01*
X287396Y352149D01*
X286240Y352628D01*
X285311Y352750D01*
Y353250D01*
X286240Y353372D01*
X287396Y353851D01*
X288388Y354612D01*
X289149Y355605D01*
X289628Y356760D01*
X289791Y358000D01*
X289628Y359240D01*
X289149Y360396D01*
X288388Y361388D01*
X287396Y362149D01*
X286240Y362628D01*
X285311Y362750D01*
Y362771D01*
X285157D01*
X285000Y362791D01*
D02*
G37*
G36*
X324700Y260394D02*
X323822Y260220D01*
X323078Y259722D01*
X322581Y258978D01*
X322463Y258386D01*
X314461Y250384D01*
X297779D01*
X297278Y250719D01*
X296400Y250894D01*
X295522Y250719D01*
X294778Y250222D01*
X294281Y249478D01*
X294106Y248600D01*
X294281Y247722D01*
X294778Y246978D01*
X295522Y246480D01*
X296400Y246306D01*
X297278Y246480D01*
X297779Y246816D01*
X315200D01*
X315883Y246952D01*
X316462Y247338D01*
X324986Y255863D01*
X325578Y255980D01*
X326322Y256478D01*
X326819Y257222D01*
X326994Y258100D01*
X326819Y258978D01*
X326322Y259722D01*
X325578Y260220D01*
X324700Y260394D01*
D02*
G37*
G36*
X228000Y262937D02*
X226814Y262781D01*
X225709Y262323D01*
X224760Y261595D01*
X224031Y260646D01*
X223574Y259540D01*
X223417Y258354D01*
X223574Y257168D01*
X224031Y256063D01*
X224760Y255114D01*
X225709Y254386D01*
X226814Y253928D01*
X228000Y253772D01*
X229186Y253928D01*
X230291Y254386D01*
X231240Y255114D01*
X231969Y256063D01*
X232426Y257168D01*
X232582Y258354D01*
X232426Y259540D01*
X231969Y260646D01*
X231240Y261595D01*
X230291Y262323D01*
X229186Y262781D01*
X228000Y262937D01*
D02*
G37*
%LPD*%
D16*
X315200Y248600D02*
X324700Y258100D01*
X296400Y248600D02*
X315200D01*
X381400Y222300D02*
X381500Y222400D01*
Y212600D02*
Y222400D01*
X378300Y209400D02*
X381500Y212600D01*
D17*
X211000Y92700D02*
X441000D01*
Y93200D02*
Y432700D01*
X211000D02*
X441000D01*
X211000Y92700D02*
Y432700D01*
D19*
X492799Y440000D02*
X490800D01*
Y445998D01*
X492799D01*
X499797Y440000D02*
X495798D01*
X499797Y443999D01*
Y444998D01*
X498797Y445998D01*
X496798D01*
X495798Y444998D01*
X501796Y440000D02*
X503796D01*
Y445998D01*
X501796D01*
X512793D02*
Y440000D01*
X515792D01*
X516792Y441000D01*
Y441999D01*
X515792Y442999D01*
X512793D01*
X515792D01*
X516792Y443999D01*
Y444998D01*
X515792Y445998D01*
X512793D01*
X519791Y440000D02*
X521790D01*
X522790Y441000D01*
Y442999D01*
X521790Y443999D01*
X519791D01*
X518791Y442999D01*
Y441000D01*
X519791Y440000D01*
X525789Y444998D02*
Y443999D01*
X524789D01*
X526788D01*
X525789D01*
Y441000D01*
X526788Y440000D01*
X530787Y444998D02*
Y443999D01*
X529787D01*
X531787D01*
X530787D01*
Y441000D01*
X531787Y440000D01*
X535785D02*
X537785D01*
X538785Y441000D01*
Y442999D01*
X537785Y443999D01*
X535785D01*
X534786Y442999D01*
Y441000D01*
X535785Y440000D01*
X540784D02*
Y443999D01*
X541784D01*
X542783Y442999D01*
Y440000D01*
Y442999D01*
X543783Y443999D01*
X544782Y442999D01*
Y440000D01*
X552780Y445998D02*
Y440000D01*
X556779D01*
X559778Y443999D02*
X561777D01*
X562777Y442999D01*
Y440000D01*
X559778D01*
X558778Y441000D01*
X559778Y441999D01*
X562777D01*
X564776Y443999D02*
Y441000D01*
X565776Y440000D01*
X568775D01*
Y439000D01*
X567775Y438001D01*
X566775D01*
X568775Y440000D02*
Y443999D01*
X573773Y440000D02*
X571774D01*
X570774Y441000D01*
Y442999D01*
X571774Y443999D01*
X573773D01*
X574773Y442999D01*
Y441999D01*
X570774D01*
X576772Y443999D02*
Y440000D01*
Y441999D01*
X577772Y442999D01*
X578771Y443999D01*
X579771D01*
X493399Y422800D02*
X491400D01*
Y428798D01*
X493399D01*
X496398Y422800D02*
Y428798D01*
X498398Y426799D01*
X500397Y428798D01*
Y422800D01*
X502396D02*
X504396D01*
X503396D01*
Y428798D01*
X502396Y427798D01*
X507395Y422800D02*
X509394D01*
Y428798D01*
X507395D01*
X518391D02*
Y422800D01*
X521390D01*
X522390Y423800D01*
Y424799D01*
X521390Y425799D01*
X518391D01*
X521390D01*
X522390Y426799D01*
Y427798D01*
X521390Y428798D01*
X518391D01*
X525389Y422800D02*
X527388D01*
X528388Y423800D01*
Y425799D01*
X527388Y426799D01*
X525389D01*
X524389Y425799D01*
Y423800D01*
X525389Y422800D01*
X531387Y426799D02*
X533386D01*
X534386Y425799D01*
Y422800D01*
X531387D01*
X530387Y423800D01*
X531387Y424799D01*
X534386D01*
X536385Y426799D02*
Y422800D01*
Y424799D01*
X537385Y425799D01*
X538385Y426799D01*
X539385D01*
X546382Y428798D02*
Y422800D01*
X543383D01*
X542383Y423800D01*
Y425799D01*
X543383Y426799D01*
X546382D01*
X557379Y428798D02*
X555379D01*
X554380Y427798D01*
Y423800D01*
X555379Y422800D01*
X557379D01*
X558378Y423800D01*
Y427798D01*
X557379Y428798D01*
X560378Y426799D02*
Y423800D01*
X561377Y422800D01*
X564376D01*
Y426799D01*
X567375Y427798D02*
Y426799D01*
X566376D01*
X568375D01*
X567375D01*
Y423800D01*
X568375Y422800D01*
X571374D02*
X573374D01*
X572374D01*
Y428798D01*
X571374D01*
X576372Y422800D02*
X578372D01*
X577372D01*
Y426799D01*
X576372D01*
X581371Y422800D02*
Y426799D01*
X584370D01*
X585370Y425799D01*
Y422800D01*
X590368D02*
X588369D01*
X587369Y423800D01*
Y425799D01*
X588369Y426799D01*
X590368D01*
X591368Y425799D01*
Y424799D01*
X587369D01*
X490800Y517378D02*
Y513379D01*
X492799Y511379D01*
X494799Y513379D01*
Y517378D01*
X496798Y511379D02*
X498797D01*
X497798D01*
Y515378D01*
X496798D01*
X501796Y511379D02*
X504796D01*
X505795Y512379D01*
X504796Y513379D01*
X502796D01*
X501796Y514378D01*
X502796Y515378D01*
X505795D01*
X507795Y511379D02*
X509794D01*
X508794D01*
Y515378D01*
X507795D01*
X512793Y517378D02*
Y511379D01*
X515792D01*
X516792Y512379D01*
Y513379D01*
Y514378D01*
X515792Y515378D01*
X512793D01*
X518791Y511379D02*
X520790D01*
X519791D01*
Y517378D01*
X518791D01*
X526788Y511379D02*
X524789D01*
X523789Y512379D01*
Y514378D01*
X524789Y515378D01*
X526788D01*
X527788Y514378D01*
Y513379D01*
X523789D01*
X535785Y517378D02*
Y511379D01*
X539784D01*
X542783Y515378D02*
X544782D01*
X545782Y514378D01*
Y511379D01*
X542783D01*
X541784Y512379D01*
X542783Y513379D01*
X545782D01*
X547782Y515378D02*
Y512379D01*
X548781Y511379D01*
X551780D01*
Y510380D01*
X550781Y509380D01*
X549781D01*
X551780Y511379D02*
Y515378D01*
X556779Y511379D02*
X554779D01*
X553780Y512379D01*
Y514378D01*
X554779Y515378D01*
X556779D01*
X557778Y514378D01*
Y513379D01*
X553780D01*
X559778Y515378D02*
Y511379D01*
Y513379D01*
X560777Y514378D01*
X561777Y515378D01*
X562777D01*
X567775Y511379D02*
X565776Y513379D01*
Y515378D01*
X567775Y517378D01*
X570774Y511379D02*
X573773D01*
X574773Y512379D01*
X573773Y513379D01*
X571774D01*
X570774Y514378D01*
X571774Y515378D01*
X574773D01*
X576772Y511379D02*
X578771Y513379D01*
Y515378D01*
X576772Y517378D01*
X497564Y579931D02*
Y586928D01*
X501063D01*
X502229Y585762D01*
Y583430D01*
X501063Y582263D01*
X497564D01*
X504562Y584596D02*
Y579931D01*
Y582263D01*
X505728Y583430D01*
X506894Y584596D01*
X508061D01*
X512726Y579931D02*
X515058D01*
X516225Y581097D01*
Y583430D01*
X515058Y584596D01*
X512726D01*
X511559Y583430D01*
Y581097D01*
X512726Y579931D01*
X518557Y577598D02*
X519724D01*
X520890Y578764D01*
Y584596D01*
X529054Y579931D02*
X526721D01*
X525555Y581097D01*
Y583430D01*
X526721Y584596D01*
X529054D01*
X530220Y583430D01*
Y582263D01*
X525555D01*
X537218Y584596D02*
X533719D01*
X532553Y583430D01*
Y581097D01*
X533719Y579931D01*
X537218D01*
X540717Y585762D02*
Y584596D01*
X539550D01*
X541883D01*
X540717D01*
Y581097D01*
X541883Y579931D01*
X545382Y584596D02*
X546548D01*
Y583430D01*
X545382D01*
Y584596D01*
Y581097D02*
X546548D01*
Y579931D01*
X545382D01*
Y581097D01*
X491733Y568120D02*
Y575117D01*
X495231D01*
X496398Y573951D01*
Y571619D01*
X495231Y570452D01*
X491733D01*
X494065D02*
X496398Y568120D01*
X502229D02*
X499897D01*
X498730Y569286D01*
Y571619D01*
X499897Y572785D01*
X502229D01*
X503395Y571619D01*
Y570452D01*
X498730D01*
X505728Y572785D02*
X508061Y568120D01*
X510393Y572785D01*
X512726Y568120D02*
X515058D01*
X513892D01*
Y572785D01*
X512726D01*
X518557Y568120D02*
X522056D01*
X523222Y569286D01*
X522056Y570452D01*
X519724D01*
X518557Y571619D01*
X519724Y572785D01*
X523222D01*
X525555Y568120D02*
X527887D01*
X526721D01*
Y572785D01*
X525555D01*
X532553Y568120D02*
X534885D01*
X536052Y569286D01*
Y571619D01*
X534885Y572785D01*
X532553D01*
X531386Y571619D01*
Y569286D01*
X532553Y568120D01*
X538384D02*
Y572785D01*
X541883D01*
X543049Y571619D01*
Y568120D01*
X545382Y572785D02*
X546548D01*
Y571619D01*
X545382D01*
Y572785D01*
Y569286D02*
X546548D01*
Y568120D01*
X545382D01*
Y569286D01*
X489400Y563306D02*
Y556309D01*
X492899D01*
X494065Y557475D01*
Y562140D01*
X492899Y563306D01*
X489400D01*
X496398Y560974D02*
Y556309D01*
Y558641D01*
X497564Y559807D01*
X498730Y560974D01*
X499897D01*
X504562D02*
X506894D01*
X508061Y559807D01*
Y556309D01*
X504562D01*
X503395Y557475D01*
X504562Y558641D01*
X508061D01*
X510393Y560974D02*
Y557475D01*
X511559Y556309D01*
X512726Y557475D01*
X513892Y556309D01*
X515058Y557475D01*
Y560974D01*
X517391Y556309D02*
Y560974D01*
X520890D01*
X522056Y559807D01*
Y556309D01*
X531386Y563306D02*
Y556309D01*
X534885D01*
X536052Y557475D01*
Y558641D01*
X534885Y559807D01*
X531386D01*
X534885D01*
X536052Y560974D01*
Y562140D01*
X534885Y563306D01*
X531386D01*
X538384Y560974D02*
Y557475D01*
X539550Y556309D01*
X543049D01*
Y555142D01*
X541883Y553976D01*
X540717D01*
X543049Y556309D02*
Y560974D01*
X545382D02*
X546548D01*
Y559807D01*
X545382D01*
Y560974D01*
Y557475D02*
X546548D01*
Y556309D01*
X545382D01*
Y557475D01*
X518557Y551495D02*
Y544498D01*
X522056D01*
X523222Y545664D01*
Y550329D01*
X522056Y551495D01*
X518557D01*
X526721Y549163D02*
X529054D01*
X530220Y547997D01*
Y544498D01*
X526721D01*
X525555Y545664D01*
X526721Y546830D01*
X530220D01*
X533719Y550329D02*
Y549163D01*
X532553D01*
X534885D01*
X533719D01*
Y545664D01*
X534885Y544498D01*
X541883D02*
X539550D01*
X538384Y545664D01*
Y547997D01*
X539550Y549163D01*
X541883D01*
X543049Y547997D01*
Y546830D01*
X538384D01*
X545382Y549163D02*
X546548D01*
Y547997D01*
X545382D01*
Y549163D01*
Y545664D02*
X546548D01*
Y544498D01*
X545382D01*
Y545664D01*
X518557Y539684D02*
X523222D01*
X520890D01*
Y532687D01*
X525555D02*
X527887D01*
X526721D01*
Y537352D01*
X525555D01*
X531386Y532687D02*
Y537352D01*
X532553D01*
X533719Y536186D01*
Y532687D01*
Y536186D01*
X534885Y537352D01*
X536052Y536186D01*
Y532687D01*
X541883D02*
X539550D01*
X538384Y533853D01*
Y536186D01*
X539550Y537352D01*
X541883D01*
X543049Y536186D01*
Y535019D01*
X538384D01*
X545382Y537352D02*
X546548D01*
Y536186D01*
X545382D01*
Y537352D01*
Y533853D02*
X546548D01*
Y532687D01*
X545382D01*
Y533853D01*
X560994Y585762D02*
X559828Y586928D01*
X557495D01*
X556329Y585762D01*
Y584596D01*
X557495Y583430D01*
X559828D01*
X560994Y582263D01*
Y581097D01*
X559828Y579931D01*
X557495D01*
X556329Y581097D01*
X563327Y577598D02*
Y584596D01*
X566826D01*
X567992Y583430D01*
Y581097D01*
X566826Y579931D01*
X563327D01*
X571491Y584596D02*
X573823D01*
X574990Y583430D01*
Y579931D01*
X571491D01*
X570325Y581097D01*
X571491Y582263D01*
X574990D01*
X577322Y584596D02*
Y579931D01*
Y582263D01*
X578489Y583430D01*
X579655Y584596D01*
X580821D01*
X584320Y579931D02*
Y586928D01*
Y582263D02*
X587819Y584596D01*
X584320Y582263D02*
X587819Y579931D01*
X591318Y586928D02*
X593650D01*
X592484D01*
Y579931D01*
X591318D01*
X593650D01*
X600648Y586928D02*
X598315D01*
X597149Y585762D01*
Y581097D01*
X598315Y579931D01*
X600648D01*
X601814Y581097D01*
Y585762D01*
X600648Y586928D01*
X611145D02*
X615810D01*
X613477D01*
Y579931D01*
X618143Y586928D02*
Y579931D01*
Y583430D01*
X619309Y584596D01*
X621641D01*
X622808Y583430D01*
Y579931D01*
X628639D02*
X626306D01*
X625140Y581097D01*
Y583430D01*
X626306Y584596D01*
X628639D01*
X629805Y583430D01*
Y582263D01*
X625140D01*
X632138Y584596D02*
Y579931D01*
Y582263D01*
X633304Y583430D01*
X634471Y584596D01*
X635637D01*
X639136Y579931D02*
Y584596D01*
X640302D01*
X641468Y583430D01*
Y579931D01*
Y583430D01*
X642634Y584596D01*
X643801Y583430D01*
Y579931D01*
X647300Y584596D02*
X649632D01*
X650799Y583430D01*
Y579931D01*
X647300D01*
X646133Y581097D01*
X647300Y582263D01*
X650799D01*
X653131Y579931D02*
X655464D01*
X654297D01*
Y586928D01*
X653131D01*
X670625Y585762D02*
X669459Y586928D01*
X667127D01*
X665960Y585762D01*
Y584596D01*
X667127Y583430D01*
X669459D01*
X670625Y582263D01*
Y581097D01*
X669459Y579931D01*
X667127D01*
X665960Y581097D01*
X672958Y586928D02*
Y579931D01*
Y583430D01*
X674124Y584596D01*
X676457D01*
X677623Y583430D01*
Y579931D01*
X679956D02*
X682288D01*
X681122D01*
Y584596D01*
X679956D01*
X689286Y579931D02*
X686954D01*
X685787Y581097D01*
Y583430D01*
X686954Y584596D01*
X689286D01*
X690452Y583430D01*
Y582263D01*
X685787D01*
X692785Y579931D02*
X695118D01*
X693951D01*
Y586928D01*
X692785D01*
X703282D02*
Y579931D01*
X699783D01*
X698617Y581097D01*
Y583430D01*
X699783Y584596D01*
X703282D01*
X556329Y568120D02*
Y572785D01*
X558662Y575117D01*
X560994Y572785D01*
Y568120D01*
Y571619D01*
X556329D01*
X560994Y563306D02*
X558662D01*
X559828D01*
Y557475D01*
X558662Y556309D01*
X557495D01*
X556329Y557475D01*
X563327Y556309D02*
X565659D01*
X564493D01*
Y560974D01*
X563327D01*
X569158Y556309D02*
Y560974D01*
X570325D01*
X571491Y559807D01*
Y556309D01*
Y559807D01*
X572657Y560974D01*
X573823Y559807D01*
Y556309D01*
X587819Y562140D02*
X586653Y563306D01*
X584320D01*
X583154Y562140D01*
Y557475D01*
X584320Y556309D01*
X586653D01*
X587819Y557475D01*
Y559807D01*
X585486D01*
X590152Y560974D02*
Y556309D01*
Y558641D01*
X591318Y559807D01*
X592484Y560974D01*
X593650D01*
X597149Y556309D02*
X599482D01*
X598315D01*
Y560974D01*
X597149D01*
X602981Y556309D02*
X606480D01*
X607646Y557475D01*
X606480Y558641D01*
X604147D01*
X602981Y559807D01*
X604147Y560974D01*
X607646D01*
X609978D02*
X614644D01*
X609978Y556309D01*
X614644D01*
X616976Y563306D02*
Y556309D01*
X620475D01*
X621641Y557475D01*
Y558641D01*
Y559807D01*
X620475Y560974D01*
X616976D01*
X625140D02*
X627473D01*
X628639Y559807D01*
Y556309D01*
X625140D01*
X623974Y557475D01*
X625140Y558641D01*
X628639D01*
X635637Y560974D02*
X632138D01*
X630972Y559807D01*
Y557475D01*
X632138Y556309D01*
X635637D01*
X637969Y563306D02*
Y556309D01*
Y559807D01*
X639136Y560974D01*
X641468D01*
X642634Y559807D01*
Y556309D01*
X648466D02*
X646133D01*
X644967Y557475D01*
Y559807D01*
X646133Y560974D01*
X648466D01*
X649632Y559807D01*
Y558641D01*
X644967D01*
X651965Y560974D02*
Y556309D01*
Y558641D01*
X653131Y559807D01*
X654297Y560974D01*
X655464D01*
X560994Y539684D02*
X558662Y538518D01*
X556329Y536186D01*
Y533853D01*
X557495Y532687D01*
X559828D01*
X560994Y533853D01*
Y535019D01*
X559828Y536186D01*
X556329D01*
X563327Y537352D02*
X564493D01*
Y536186D01*
X563327D01*
Y537352D01*
Y533853D02*
X564493D01*
Y532687D01*
X563327D01*
Y533853D01*
X573823Y532687D02*
X569158D01*
X573823Y537352D01*
Y538518D01*
X572657Y539684D01*
X570325D01*
X569158Y538518D01*
X579655Y532687D02*
Y539684D01*
X576156Y536186D01*
X580821D01*
X583154Y537352D02*
X584320D01*
Y536186D01*
X583154D01*
Y537352D01*
Y533853D02*
X584320D01*
Y532687D01*
X583154D01*
Y533853D01*
X588985Y538518D02*
X590152Y539684D01*
X592484D01*
X593650Y538518D01*
Y537352D01*
X592484Y536186D01*
X591318D01*
X592484D01*
X593650Y535019D01*
Y533853D01*
X592484Y532687D01*
X590152D01*
X588985Y533853D01*
X600648Y532687D02*
X595983D01*
X600648Y537352D01*
Y538518D01*
X599482Y539684D01*
X597149D01*
X595983Y538518D01*
X609978Y532687D02*
Y539684D01*
X613477D01*
X614644Y538518D01*
Y536186D01*
X613477Y535019D01*
X609978D01*
X616976Y532687D02*
Y539684D01*
X619309Y537352D01*
X621641Y539684D01*
Y532687D01*
X556329Y550329D02*
X557495Y551495D01*
X559828D01*
X560994Y550329D01*
Y549163D01*
X559828Y547997D01*
X560994Y546830D01*
Y545664D01*
X559828Y544498D01*
X557495D01*
X556329Y545664D01*
Y546830D01*
X557495Y547997D01*
X556329Y549163D01*
Y550329D01*
X557495Y547997D02*
X559828D01*
X563327Y544498D02*
X567992Y549163D01*
X570325Y550329D02*
X571491Y551495D01*
X573823D01*
X574990Y550329D01*
Y549163D01*
X573823Y547997D01*
X572657D01*
X573823D01*
X574990Y546830D01*
Y545664D01*
X573823Y544498D01*
X571491D01*
X570325Y545664D01*
X577322Y544498D02*
X581987Y549163D01*
X588985Y544498D02*
X584320D01*
X588985Y549163D01*
Y550329D01*
X587819Y551495D01*
X585486D01*
X584320Y550329D01*
X591318D02*
X592484Y551495D01*
X594817D01*
X595983Y550329D01*
Y545664D01*
X594817Y544498D01*
X592484D01*
X591318Y545664D01*
Y550329D01*
X598315Y544498D02*
X600648D01*
X599482D01*
Y551495D01*
X598315Y550329D01*
X607646Y544498D02*
Y551495D01*
X604147Y547997D01*
X608812D01*
D20*
X485263Y396877D02*
X487231D01*
X489200D02*
X491168D01*
X493137D02*
X495106D01*
X497074D02*
X499043D01*
X501011D02*
X502980D01*
X504948D02*
X506917D01*
X508885D02*
X510853D01*
X512822D02*
X514790D01*
X516759D02*
X518728D01*
X520696D02*
X522665D01*
X524633D02*
X526602D01*
X528570D02*
X530539D01*
X532507D02*
X534476D01*
X536444D02*
X538413D01*
X540381D02*
X542350D01*
X544318D02*
X546287D01*
X548255D02*
X550224D01*
X552192D02*
X554161D01*
X556129D02*
X558098D01*
X560066D02*
X562035D01*
X564003D02*
X565972D01*
X567940D02*
X569909D01*
X571877D02*
X573846D01*
X575814D02*
X577783D01*
X579751D02*
X581720D01*
X583688D02*
X585657D01*
X587625D02*
X589594D01*
X591562D02*
X593531D01*
X595499D02*
X597468D01*
X599436D02*
X601405D01*
X603373D02*
X605342D01*
X607310D02*
X609279D01*
X611247D02*
X613216D01*
X615184D02*
X617153D01*
X619121D02*
X621090D01*
X623058D02*
X625027D01*
X626995D02*
X628964D01*
X630932D02*
X632901D01*
X634869D02*
X636838D01*
X638806D02*
X640775D01*
X642743D02*
X644712D01*
X646680D02*
X648649D01*
X650617D02*
X652586D01*
X654554D02*
X656523D01*
X485563Y434317D02*
X487532D01*
X489500D02*
X491468D01*
X493437D02*
X495405D01*
X497374D02*
X499342D01*
X501311D02*
X503279D01*
X505248D02*
X507217D01*
X509185D02*
X511154D01*
X513122D02*
X515091D01*
X517059D02*
X519028D01*
X520996D02*
X522965D01*
X524933D02*
X526902D01*
X528870D02*
X530839D01*
X532807D02*
X534776D01*
X536744D02*
X538713D01*
X540681D02*
X542650D01*
X544618D02*
X546587D01*
X548555D02*
X550524D01*
X552492D02*
X554461D01*
X556429D02*
X558398D01*
X560366D02*
X562335D01*
X564303D02*
X566272D01*
X568240D02*
X570209D01*
X572177D02*
X574146D01*
X576114D02*
X578083D01*
X580051D02*
X582020D01*
X583988D02*
X585957D01*
X587925D02*
X589894D01*
X591862D02*
X593831D01*
X595799D02*
X597768D01*
X599736D02*
X601705D01*
X603673D02*
X605642D01*
X607610D02*
X609579D01*
X611547D02*
X613516D01*
X615484D02*
X617453D01*
X619421D02*
X621390D01*
X623358D02*
X625327D01*
X627295D02*
X629264D01*
X631232D02*
X633201D01*
X635169D02*
X637138D01*
X639106D02*
X641075D01*
X643043D02*
X645012D01*
X646980D02*
X648949D01*
X650917D02*
X652886D01*
X654854D02*
X656823D01*
X654254Y508427D02*
X656223D01*
X650317D02*
X652286D01*
X646380D02*
X648349D01*
X642443D02*
X644412D01*
X638506D02*
X640475D01*
X634569D02*
X636538D01*
X630632D02*
X632601D01*
X626695D02*
X628664D01*
X622758D02*
X624727D01*
X618821D02*
X620790D01*
X614884D02*
X616853D01*
X610947D02*
X612916D01*
X607010D02*
X608979D01*
X603073D02*
X605042D01*
X599136D02*
X601105D01*
X595199D02*
X597168D01*
X591262D02*
X593231D01*
X587325D02*
X589294D01*
X583388D02*
X585357D01*
X579451D02*
X581420D01*
X575514D02*
X577483D01*
X571577D02*
X573546D01*
X567640D02*
X569609D01*
X563703D02*
X565672D01*
X559766D02*
X561735D01*
X555829D02*
X557798D01*
X551892D02*
X553861D01*
X547955D02*
X549924D01*
X544018D02*
X545987D01*
X540081D02*
X542050D01*
X536144D02*
X538113D01*
X532207D02*
X534176D01*
X528270D02*
X530239D01*
X524333D02*
X526302D01*
X520396D02*
X522365D01*
X516459D02*
X518428D01*
X512522D02*
X514491D01*
X508585D02*
X510554D01*
X504648D02*
X506616D01*
X500711D02*
X502679D01*
X496774D02*
X498742D01*
X492837D02*
X494805D01*
X488900D02*
X490869D01*
X484963D02*
X486932D01*
X658191Y375000D02*
Y507443D01*
X484963Y375000D02*
X658191D01*
X484963D02*
Y507443D01*
Y519253D01*
X658191D01*
Y507443D02*
Y519253D01*
X485463Y528750D02*
Y594700D01*
Y528750D02*
X711600D01*
Y594700D01*
X485463D02*
X711600D01*
D21*
X228000Y382370D02*
D03*
X421000Y233630D02*
D03*
D22*
X228000Y368590D02*
D03*
Y354811D02*
D03*
Y341032D02*
D03*
Y327252D02*
D03*
Y313472D02*
D03*
Y299693D02*
D03*
Y285913D02*
D03*
Y272134D02*
D03*
Y258354D02*
D03*
Y244575D02*
D03*
Y230795D02*
D03*
X245945Y148158D02*
D03*
X253819Y174142D02*
D03*
X255000Y158000D02*
D03*
X245945Y109158D02*
D03*
X253819Y135142D02*
D03*
X255000Y119000D02*
D03*
X421000Y247410D02*
D03*
Y261189D02*
D03*
Y274969D02*
D03*
Y288748D02*
D03*
Y302528D02*
D03*
Y316307D02*
D03*
Y330087D02*
D03*
Y343866D02*
D03*
Y357646D02*
D03*
Y371425D02*
D03*
Y385205D02*
D03*
D23*
X345866Y112205D02*
D03*
X284055D02*
D03*
X341929Y165354D02*
D03*
X287992D02*
D03*
X428543Y112205D02*
D03*
X366732D02*
D03*
X424606Y165354D02*
D03*
X370669D02*
D03*
D24*
X285000Y378000D02*
D03*
X355000D02*
D03*
D25*
X285000Y368000D02*
D03*
Y358000D02*
D03*
Y348000D02*
D03*
Y338000D02*
D03*
Y328000D02*
D03*
Y318000D02*
D03*
Y308000D02*
D03*
Y298000D02*
D03*
Y288000D02*
D03*
Y278000D02*
D03*
Y268000D02*
D03*
X355000Y368000D02*
D03*
Y358000D02*
D03*
Y348000D02*
D03*
Y338000D02*
D03*
Y328000D02*
D03*
Y318000D02*
D03*
Y308000D02*
D03*
Y298000D02*
D03*
Y288000D02*
D03*
Y278000D02*
D03*
Y268000D02*
D03*
D26*
X232165Y169811D02*
D03*
Y150126D02*
D03*
Y130811D02*
D03*
Y111126D02*
D03*
D27*
X232283Y201984D02*
D03*
Y411984D02*
D03*
X417283Y411811D02*
D03*
D28*
X324700Y258100D02*
D03*
X296400Y248600D02*
D03*
X267300Y180900D02*
D03*
X381500Y222400D02*
D03*
X330400Y211600D02*
D03*
X329700Y183900D02*
D03*
X282700Y199900D02*
D03*
X269700Y219500D02*
D03*
X421900Y211100D02*
D03*
X421000Y183900D02*
D03*
X381800Y200200D02*
D03*
X327400Y343800D02*
D03*
X372000Y237400D02*
D03*
X378300Y209400D02*
D03*
X364100Y190300D02*
D03*
M02*
