%FSLAX25Y25*%
%MOIN*%
G70*
G01*
G75*
G04 Layer_Color=32768*
G04:AMPARAMS|DCode=10|XSize=37.4mil|YSize=25.59mil|CornerRadius=6.4mil|HoleSize=0mil|Usage=FLASHONLY|Rotation=270.000|XOffset=0mil|YOffset=0mil|HoleType=Round|Shape=RoundedRectangle|*
%AMROUNDEDRECTD10*
21,1,0.03740,0.01280,0,0,270.0*
21,1,0.02461,0.02559,0,0,270.0*
1,1,0.01280,-0.00640,-0.01230*
1,1,0.01280,-0.00640,0.01230*
1,1,0.01280,0.00640,0.01230*
1,1,0.01280,0.00640,-0.01230*
%
%ADD10ROUNDEDRECTD10*%
%ADD11R,0.02559X0.03740*%
%ADD12O,0.02362X0.07480*%
%ADD13R,0.03900X0.04300*%
%ADD14C,0.04000*%
%ADD15R,0.04300X0.03900*%
%ADD16C,0.01500*%
%ADD17C,0.01000*%
%ADD18C,0.02000*%
%ADD19C,0.01200*%
%ADD20C,0.00394*%
%ADD21R,0.07087X0.07087*%
%ADD22C,0.07087*%
%ADD23C,0.09449*%
%ADD24R,0.07500X0.07500*%
%ADD25C,0.07500*%
%ADD26C,0.08661*%
%ADD27C,0.31496*%
%ADD28C,0.02500*%
%ADD29C,0.00787*%
%ADD30C,0.01575*%
%ADD31C,0.00984*%
%ADD32C,0.00700*%
%ADD33C,0.00800*%
G04:AMPARAMS|DCode=34|XSize=45.4mil|YSize=33.59mil|CornerRadius=10.4mil|HoleSize=0mil|Usage=FLASHONLY|Rotation=270.000|XOffset=0mil|YOffset=0mil|HoleType=Round|Shape=RoundedRectangle|*
%AMROUNDEDRECTD34*
21,1,0.04540,0.01280,0,0,270.0*
21,1,0.02461,0.03359,0,0,270.0*
1,1,0.02080,-0.00640,-0.01230*
1,1,0.02080,-0.00640,0.01230*
1,1,0.02080,0.00640,0.01230*
1,1,0.02080,0.00640,-0.01230*
%
%ADD34ROUNDEDRECTD34*%
%ADD35R,0.03359X0.04540*%
%ADD36O,0.03162X0.08280*%
%ADD37R,0.04700X0.05100*%
%ADD38C,0.08000*%
%ADD39R,0.05100X0.04700*%
%ADD40R,0.07887X0.07887*%
%ADD41C,0.07887*%
%ADD42C,0.10249*%
%ADD43R,0.08300X0.08300*%
%ADD44C,0.08300*%
%ADD45C,0.09461*%
%ADD46C,0.32296*%
%ADD47C,0.03300*%
%ADD48C,0.00197*%
D17*
X214614Y223315D02*
X241386D01*
X214614D02*
Y393000D01*
X241386Y223315D02*
Y393000D01*
X214614D02*
X241386D01*
X275590Y175197D02*
X354331D01*
X275590Y104331D02*
Y175197D01*
Y104331D02*
X354331D01*
Y175197D01*
X260906Y143236D02*
Y179654D01*
X214646Y143236D02*
X260906D01*
X214646D02*
Y179654D01*
X260906D01*
X358268Y175197D02*
X437008D01*
X358268Y104331D02*
Y175197D01*
Y104331D02*
X437008D01*
Y175197D01*
X260906Y104236D02*
Y140654D01*
X214646Y104236D02*
X260906D01*
X214646D02*
Y140654D01*
X260906D01*
X407614Y392685D02*
X434386D01*
Y223000D02*
Y392685D01*
X407614Y223000D02*
Y392685D01*
Y223000D02*
X434386D01*
X211000Y92700D02*
X441000D01*
Y93200D02*
Y432700D01*
X211000D02*
X441000D01*
X211000Y92700D02*
Y432700D01*
D19*
X493399Y400600D02*
X491400D01*
Y406598D01*
X493399D01*
X496398Y400600D02*
Y406598D01*
X498398Y404599D01*
X500397Y406598D01*
Y400600D01*
X502396D02*
X504396D01*
X503396D01*
Y406598D01*
X502396Y405598D01*
X511393Y406598D02*
X507395D01*
Y403599D01*
X509394Y404599D01*
X510394D01*
X511393Y403599D01*
Y401600D01*
X510394Y400600D01*
X508394D01*
X507395Y401600D01*
X513393Y400600D02*
X515392D01*
Y406598D01*
X513393D01*
X524389D02*
X528388D01*
X526389D01*
Y400600D01*
X531387D02*
X533386D01*
X534386Y401600D01*
Y403599D01*
X533386Y404599D01*
X531387D01*
X530387Y403599D01*
Y401600D01*
X531387Y400600D01*
X536385Y398601D02*
Y404599D01*
X539385D01*
X540384Y403599D01*
Y401600D01*
X539385Y400600D01*
X536385D01*
X552380Y405598D02*
X551381Y406598D01*
X549381D01*
X548382Y405598D01*
Y401600D01*
X549381Y400600D01*
X551381D01*
X552380Y401600D01*
X555379Y400600D02*
X557379D01*
X558378Y401600D01*
Y403599D01*
X557379Y404599D01*
X555379D01*
X554380Y403599D01*
Y401600D01*
X555379Y400600D01*
X560378D02*
Y404599D01*
X561377D01*
X562377Y403599D01*
Y400600D01*
Y403599D01*
X563377Y404599D01*
X564376Y403599D01*
Y400600D01*
X566376Y398601D02*
Y404599D01*
X569375D01*
X570374Y403599D01*
Y401600D01*
X569375Y400600D01*
X566376D01*
X573374D02*
X575373D01*
X576372Y401600D01*
Y403599D01*
X575373Y404599D01*
X573374D01*
X572374Y403599D01*
Y401600D01*
X573374Y400600D01*
X578372D02*
Y404599D01*
X581371D01*
X582371Y403599D01*
Y400600D01*
X587369D02*
X585370D01*
X584370Y401600D01*
Y403599D01*
X585370Y404599D01*
X587369D01*
X588369Y403599D01*
Y402599D01*
X584370D01*
X590368Y400600D02*
Y404599D01*
X593367D01*
X594367Y403599D01*
Y400600D01*
X597366Y405598D02*
Y404599D01*
X596366D01*
X598365D01*
X597366D01*
Y401600D01*
X598365Y400600D01*
X607363Y406598D02*
Y400600D01*
Y402599D01*
X611361Y406598D01*
X608362Y403599D01*
X611361Y400600D01*
X616360D02*
X614360D01*
X613361Y401600D01*
Y403599D01*
X614360Y404599D01*
X616360D01*
X617359Y403599D01*
Y402599D01*
X613361D01*
X622358Y400600D02*
X620358D01*
X619359Y401600D01*
Y403599D01*
X620358Y404599D01*
X622358D01*
X623357Y403599D01*
Y402599D01*
X619359D01*
X625357Y398601D02*
Y404599D01*
X628356D01*
X629355Y403599D01*
Y401600D01*
X628356Y400600D01*
X625357D01*
X632354D02*
X634354D01*
X635353Y401600D01*
Y403599D01*
X634354Y404599D01*
X632354D01*
X631355Y403599D01*
Y401600D01*
X632354Y400600D01*
X637353Y404599D02*
Y401600D01*
X638352Y400600D01*
X641352D01*
Y404599D01*
X644350Y405598D02*
Y404599D01*
X643351D01*
X645350D01*
X644350D01*
Y401600D01*
X645350Y400600D01*
X493399Y422800D02*
X491400D01*
Y428798D01*
X493399D01*
X496398Y422800D02*
Y428798D01*
X498398Y426799D01*
X500397Y428798D01*
Y422800D01*
X502396D02*
X504396D01*
X503396D01*
Y428798D01*
X502396Y427798D01*
X507395Y422800D02*
X509394D01*
Y428798D01*
X507395D01*
X518391D02*
Y422800D01*
X521390D01*
X522390Y423800D01*
Y424799D01*
X521390Y425799D01*
X518391D01*
X521390D01*
X522390Y426799D01*
Y427798D01*
X521390Y428798D01*
X518391D01*
X525389Y422800D02*
X527388D01*
X528388Y423800D01*
Y425799D01*
X527388Y426799D01*
X525389D01*
X524389Y425799D01*
Y423800D01*
X525389Y422800D01*
X531387Y426799D02*
X533386D01*
X534386Y425799D01*
Y422800D01*
X531387D01*
X530387Y423800D01*
X531387Y424799D01*
X534386D01*
X536385Y426799D02*
Y422800D01*
Y424799D01*
X537385Y425799D01*
X538385Y426799D01*
X539385D01*
X546382Y428798D02*
Y422800D01*
X543383D01*
X542383Y423800D01*
Y425799D01*
X543383Y426799D01*
X546382D01*
X557379Y428798D02*
X555379D01*
X554380Y427798D01*
Y423800D01*
X555379Y422800D01*
X557379D01*
X558378Y423800D01*
Y427798D01*
X557379Y428798D01*
X560378Y426799D02*
Y423800D01*
X561377Y422800D01*
X564376D01*
Y426799D01*
X567375Y427798D02*
Y426799D01*
X566376D01*
X568375D01*
X567375D01*
Y423800D01*
X568375Y422800D01*
X571374D02*
X573374D01*
X572374D01*
Y428798D01*
X571374D01*
X576372Y422800D02*
X578372D01*
X577372D01*
Y426799D01*
X576372D01*
X581371Y422800D02*
Y426799D01*
X584370D01*
X585370Y425799D01*
Y422800D01*
X590368D02*
X588369D01*
X587369Y423800D01*
Y425799D01*
X588369Y426799D01*
X590368D01*
X591368Y425799D01*
Y424799D01*
X587369D01*
X490800Y517378D02*
Y513379D01*
X492799Y511379D01*
X494799Y513379D01*
Y517378D01*
X496798Y511379D02*
X498797D01*
X497798D01*
Y515378D01*
X496798D01*
X501796Y511379D02*
X504796D01*
X505795Y512379D01*
X504796Y513379D01*
X502796D01*
X501796Y514378D01*
X502796Y515378D01*
X505795D01*
X507795Y511379D02*
X509794D01*
X508794D01*
Y515378D01*
X507795D01*
X512793Y517378D02*
Y511379D01*
X515792D01*
X516792Y512379D01*
Y513379D01*
Y514378D01*
X515792Y515378D01*
X512793D01*
X518791Y511379D02*
X520790D01*
X519791D01*
Y517378D01*
X518791D01*
X526788Y511379D02*
X524789D01*
X523789Y512379D01*
Y514378D01*
X524789Y515378D01*
X526788D01*
X527788Y514378D01*
Y513379D01*
X523789D01*
X535785Y517378D02*
Y511379D01*
X539784D01*
X542783Y515378D02*
X544782D01*
X545782Y514378D01*
Y511379D01*
X542783D01*
X541784Y512379D01*
X542783Y513379D01*
X545782D01*
X547782Y515378D02*
Y512379D01*
X548781Y511379D01*
X551780D01*
Y510380D01*
X550781Y509380D01*
X549781D01*
X551780Y511379D02*
Y515378D01*
X556779Y511379D02*
X554779D01*
X553780Y512379D01*
Y514378D01*
X554779Y515378D01*
X556779D01*
X557778Y514378D01*
Y513379D01*
X553780D01*
X559778Y515378D02*
Y511379D01*
Y513379D01*
X560777Y514378D01*
X561777Y515378D01*
X562777D01*
X567775Y511379D02*
X565776Y513379D01*
Y515378D01*
X567775Y517378D01*
X570774Y511379D02*
X573773D01*
X574773Y512379D01*
X573773Y513379D01*
X571774D01*
X570774Y514378D01*
X571774Y515378D01*
X574773D01*
X576772Y511379D02*
X578771Y513379D01*
Y515378D01*
X576772Y517378D01*
X497564Y579931D02*
Y586928D01*
X501063D01*
X502229Y585762D01*
Y583430D01*
X501063Y582263D01*
X497564D01*
X504562Y584596D02*
Y579931D01*
Y582263D01*
X505728Y583430D01*
X506894Y584596D01*
X508061D01*
X512726Y579931D02*
X515058D01*
X516225Y581097D01*
Y583430D01*
X515058Y584596D01*
X512726D01*
X511559Y583430D01*
Y581097D01*
X512726Y579931D01*
X518557Y577598D02*
X519724D01*
X520890Y578764D01*
Y584596D01*
X529054Y579931D02*
X526721D01*
X525555Y581097D01*
Y583430D01*
X526721Y584596D01*
X529054D01*
X530220Y583430D01*
Y582263D01*
X525555D01*
X537218Y584596D02*
X533719D01*
X532553Y583430D01*
Y581097D01*
X533719Y579931D01*
X537218D01*
X540717Y585762D02*
Y584596D01*
X539550D01*
X541883D01*
X540717D01*
Y581097D01*
X541883Y579931D01*
X545382Y584596D02*
X546548D01*
Y583430D01*
X545382D01*
Y584596D01*
Y581097D02*
X546548D01*
Y579931D01*
X545382D01*
Y581097D01*
X491733Y568120D02*
Y575117D01*
X495231D01*
X496398Y573951D01*
Y571619D01*
X495231Y570452D01*
X491733D01*
X494065D02*
X496398Y568120D01*
X502229D02*
X499897D01*
X498730Y569286D01*
Y571619D01*
X499897Y572785D01*
X502229D01*
X503395Y571619D01*
Y570452D01*
X498730D01*
X505728Y572785D02*
X508061Y568120D01*
X510393Y572785D01*
X512726Y568120D02*
X515058D01*
X513892D01*
Y572785D01*
X512726D01*
X518557Y568120D02*
X522056D01*
X523222Y569286D01*
X522056Y570452D01*
X519724D01*
X518557Y571619D01*
X519724Y572785D01*
X523222D01*
X525555Y568120D02*
X527887D01*
X526721D01*
Y572785D01*
X525555D01*
X532553Y568120D02*
X534885D01*
X536052Y569286D01*
Y571619D01*
X534885Y572785D01*
X532553D01*
X531386Y571619D01*
Y569286D01*
X532553Y568120D01*
X538384D02*
Y572785D01*
X541883D01*
X543049Y571619D01*
Y568120D01*
X545382Y572785D02*
X546548D01*
Y571619D01*
X545382D01*
Y572785D01*
Y569286D02*
X546548D01*
Y568120D01*
X545382D01*
Y569286D01*
X489400Y563306D02*
Y556309D01*
X492899D01*
X494065Y557475D01*
Y562140D01*
X492899Y563306D01*
X489400D01*
X496398Y560974D02*
Y556309D01*
Y558641D01*
X497564Y559807D01*
X498730Y560974D01*
X499897D01*
X504562D02*
X506894D01*
X508061Y559807D01*
Y556309D01*
X504562D01*
X503395Y557475D01*
X504562Y558641D01*
X508061D01*
X510393Y560974D02*
Y557475D01*
X511559Y556309D01*
X512726Y557475D01*
X513892Y556309D01*
X515058Y557475D01*
Y560974D01*
X517391Y556309D02*
Y560974D01*
X520890D01*
X522056Y559807D01*
Y556309D01*
X531386Y563306D02*
Y556309D01*
X534885D01*
X536052Y557475D01*
Y558641D01*
X534885Y559807D01*
X531386D01*
X534885D01*
X536052Y560974D01*
Y562140D01*
X534885Y563306D01*
X531386D01*
X538384Y560974D02*
Y557475D01*
X539550Y556309D01*
X543049D01*
Y555142D01*
X541883Y553976D01*
X540717D01*
X543049Y556309D02*
Y560974D01*
X545382D02*
X546548D01*
Y559807D01*
X545382D01*
Y560974D01*
Y557475D02*
X546548D01*
Y556309D01*
X545382D01*
Y557475D01*
X518557Y551495D02*
Y544498D01*
X522056D01*
X523222Y545664D01*
Y550329D01*
X522056Y551495D01*
X518557D01*
X526721Y549163D02*
X529054D01*
X530220Y547997D01*
Y544498D01*
X526721D01*
X525555Y545664D01*
X526721Y546830D01*
X530220D01*
X533719Y550329D02*
Y549163D01*
X532553D01*
X534885D01*
X533719D01*
Y545664D01*
X534885Y544498D01*
X541883D02*
X539550D01*
X538384Y545664D01*
Y547997D01*
X539550Y549163D01*
X541883D01*
X543049Y547997D01*
Y546830D01*
X538384D01*
X545382Y549163D02*
X546548D01*
Y547997D01*
X545382D01*
Y549163D01*
Y545664D02*
X546548D01*
Y544498D01*
X545382D01*
Y545664D01*
X518557Y539684D02*
X523222D01*
X520890D01*
Y532687D01*
X525555D02*
X527887D01*
X526721D01*
Y537352D01*
X525555D01*
X531386Y532687D02*
Y537352D01*
X532553D01*
X533719Y536186D01*
Y532687D01*
Y536186D01*
X534885Y537352D01*
X536052Y536186D01*
Y532687D01*
X541883D02*
X539550D01*
X538384Y533853D01*
Y536186D01*
X539550Y537352D01*
X541883D01*
X543049Y536186D01*
Y535019D01*
X538384D01*
X545382Y537352D02*
X546548D01*
Y536186D01*
X545382D01*
Y537352D01*
Y533853D02*
X546548D01*
Y532687D01*
X545382D01*
Y533853D01*
X560994Y585762D02*
X559828Y586928D01*
X557495D01*
X556329Y585762D01*
Y584596D01*
X557495Y583430D01*
X559828D01*
X560994Y582263D01*
Y581097D01*
X559828Y579931D01*
X557495D01*
X556329Y581097D01*
X563327Y577598D02*
Y584596D01*
X566826D01*
X567992Y583430D01*
Y581097D01*
X566826Y579931D01*
X563327D01*
X571491Y584596D02*
X573823D01*
X574990Y583430D01*
Y579931D01*
X571491D01*
X570325Y581097D01*
X571491Y582263D01*
X574990D01*
X577322Y584596D02*
Y579931D01*
Y582263D01*
X578489Y583430D01*
X579655Y584596D01*
X580821D01*
X584320Y579931D02*
Y586928D01*
Y582263D02*
X587819Y584596D01*
X584320Y582263D02*
X587819Y579931D01*
X591318Y586928D02*
X593650D01*
X592484D01*
Y579931D01*
X591318D01*
X593650D01*
X600648Y586928D02*
X598315D01*
X597149Y585762D01*
Y581097D01*
X598315Y579931D01*
X600648D01*
X601814Y581097D01*
Y585762D01*
X600648Y586928D01*
X611145D02*
X615810D01*
X613477D01*
Y579931D01*
X618143Y586928D02*
Y579931D01*
Y583430D01*
X619309Y584596D01*
X621641D01*
X622808Y583430D01*
Y579931D01*
X628639D02*
X626306D01*
X625140Y581097D01*
Y583430D01*
X626306Y584596D01*
X628639D01*
X629805Y583430D01*
Y582263D01*
X625140D01*
X632138Y584596D02*
Y579931D01*
Y582263D01*
X633304Y583430D01*
X634471Y584596D01*
X635637D01*
X639136Y579931D02*
Y584596D01*
X640302D01*
X641468Y583430D01*
Y579931D01*
Y583430D01*
X642634Y584596D01*
X643801Y583430D01*
Y579931D01*
X647300Y584596D02*
X649632D01*
X650799Y583430D01*
Y579931D01*
X647300D01*
X646133Y581097D01*
X647300Y582263D01*
X650799D01*
X653131Y579931D02*
X655464D01*
X654297D01*
Y586928D01*
X653131D01*
X670625Y585762D02*
X669459Y586928D01*
X667127D01*
X665960Y585762D01*
Y584596D01*
X667127Y583430D01*
X669459D01*
X670625Y582263D01*
Y581097D01*
X669459Y579931D01*
X667127D01*
X665960Y581097D01*
X672958Y586928D02*
Y579931D01*
Y583430D01*
X674124Y584596D01*
X676457D01*
X677623Y583430D01*
Y579931D01*
X679956D02*
X682288D01*
X681122D01*
Y584596D01*
X679956D01*
X689286Y579931D02*
X686954D01*
X685787Y581097D01*
Y583430D01*
X686954Y584596D01*
X689286D01*
X690452Y583430D01*
Y582263D01*
X685787D01*
X692785Y579931D02*
X695118D01*
X693951D01*
Y586928D01*
X692785D01*
X703282D02*
Y579931D01*
X699783D01*
X698617Y581097D01*
Y583430D01*
X699783Y584596D01*
X703282D01*
X556329Y568120D02*
Y572785D01*
X558662Y575117D01*
X560994Y572785D01*
Y568120D01*
Y571619D01*
X556329D01*
X560994Y563306D02*
X558662D01*
X559828D01*
Y557475D01*
X558662Y556309D01*
X557495D01*
X556329Y557475D01*
X563327Y556309D02*
X565659D01*
X564493D01*
Y560974D01*
X563327D01*
X569158Y556309D02*
Y560974D01*
X570325D01*
X571491Y559807D01*
Y556309D01*
Y559807D01*
X572657Y560974D01*
X573823Y559807D01*
Y556309D01*
X587819Y562140D02*
X586653Y563306D01*
X584320D01*
X583154Y562140D01*
Y557475D01*
X584320Y556309D01*
X586653D01*
X587819Y557475D01*
Y559807D01*
X585486D01*
X590152Y560974D02*
Y556309D01*
Y558641D01*
X591318Y559807D01*
X592484Y560974D01*
X593650D01*
X597149Y556309D02*
X599482D01*
X598315D01*
Y560974D01*
X597149D01*
X602981Y556309D02*
X606480D01*
X607646Y557475D01*
X606480Y558641D01*
X604147D01*
X602981Y559807D01*
X604147Y560974D01*
X607646D01*
X609978D02*
X614644D01*
X609978Y556309D01*
X614644D01*
X616976Y563306D02*
Y556309D01*
X620475D01*
X621641Y557475D01*
Y558641D01*
Y559807D01*
X620475Y560974D01*
X616976D01*
X625140D02*
X627473D01*
X628639Y559807D01*
Y556309D01*
X625140D01*
X623974Y557475D01*
X625140Y558641D01*
X628639D01*
X635637Y560974D02*
X632138D01*
X630972Y559807D01*
Y557475D01*
X632138Y556309D01*
X635637D01*
X637969Y563306D02*
Y556309D01*
Y559807D01*
X639136Y560974D01*
X641468D01*
X642634Y559807D01*
Y556309D01*
X648466D02*
X646133D01*
X644967Y557475D01*
Y559807D01*
X646133Y560974D01*
X648466D01*
X649632Y559807D01*
Y558641D01*
X644967D01*
X651965Y560974D02*
Y556309D01*
Y558641D01*
X653131Y559807D01*
X654297Y560974D01*
X655464D01*
X560994Y539684D02*
X558662Y538518D01*
X556329Y536186D01*
Y533853D01*
X557495Y532687D01*
X559828D01*
X560994Y533853D01*
Y535019D01*
X559828Y536186D01*
X556329D01*
X563327Y537352D02*
X564493D01*
Y536186D01*
X563327D01*
Y537352D01*
Y533853D02*
X564493D01*
Y532687D01*
X563327D01*
Y533853D01*
X573823Y532687D02*
X569158D01*
X573823Y537352D01*
Y538518D01*
X572657Y539684D01*
X570325D01*
X569158Y538518D01*
X579655Y532687D02*
Y539684D01*
X576156Y536186D01*
X580821D01*
X583154Y537352D02*
X584320D01*
Y536186D01*
X583154D01*
Y537352D01*
Y533853D02*
X584320D01*
Y532687D01*
X583154D01*
Y533853D01*
X588985Y538518D02*
X590152Y539684D01*
X592484D01*
X593650Y538518D01*
Y537352D01*
X592484Y536186D01*
X591318D01*
X592484D01*
X593650Y535019D01*
Y533853D01*
X592484Y532687D01*
X590152D01*
X588985Y533853D01*
X595983Y538518D02*
X597149Y539684D01*
X599482D01*
X600648Y538518D01*
Y537352D01*
X599482Y536186D01*
X598315D01*
X599482D01*
X600648Y535019D01*
Y533853D01*
X599482Y532687D01*
X597149D01*
X595983Y533853D01*
X609978Y532687D02*
Y539684D01*
X613477D01*
X614644Y538518D01*
Y536186D01*
X613477Y535019D01*
X609978D01*
X616976Y532687D02*
Y539684D01*
X619309Y537352D01*
X621641Y539684D01*
Y532687D01*
X556329Y550329D02*
X557495Y551495D01*
X559828D01*
X560994Y550329D01*
Y549163D01*
X559828Y547997D01*
X560994Y546830D01*
Y545664D01*
X559828Y544498D01*
X557495D01*
X556329Y545664D01*
Y546830D01*
X557495Y547997D01*
X556329Y549163D01*
Y550329D01*
X557495Y547997D02*
X559828D01*
X563327Y544498D02*
X567992Y549163D01*
X570325Y550329D02*
X571491Y551495D01*
X573823D01*
X574990Y550329D01*
Y549163D01*
X573823Y547997D01*
X572657D01*
X573823D01*
X574990Y546830D01*
Y545664D01*
X573823Y544498D01*
X571491D01*
X570325Y545664D01*
X577322Y544498D02*
X581987Y549163D01*
X588985Y544498D02*
X584320D01*
X588985Y549163D01*
Y550329D01*
X587819Y551495D01*
X585486D01*
X584320Y550329D01*
X591318D02*
X592484Y551495D01*
X594817D01*
X595983Y550329D01*
Y545664D01*
X594817Y544498D01*
X592484D01*
X591318Y545664D01*
Y550329D01*
X598315Y544498D02*
X600648D01*
X599482D01*
Y551495D01*
X598315Y550329D01*
X607646Y544498D02*
Y551495D01*
X604147Y547997D01*
X608812D01*
D20*
X360740Y191701D02*
Y204299D01*
X347240Y191701D02*
X360740D01*
X347240D02*
Y204299D01*
X360740D01*
X353000Y198000D02*
X355000D01*
X354000Y197000D02*
Y199000D01*
X307811Y197701D02*
X311748D01*
X309779Y195733D02*
Y199670D01*
X361850Y243650D02*
X368150D01*
X361850Y230350D02*
X368150D01*
Y243650D01*
X361850Y230350D02*
Y243650D01*
X365000Y235130D02*
Y238870D01*
X363130Y237000D02*
X366870D01*
X283275Y196650D02*
X289575D01*
X283275Y183350D02*
X289575D01*
Y196650D01*
X283275Y183350D02*
Y196650D01*
X286425Y188130D02*
Y191870D01*
X284555Y190000D02*
X288295D01*
X400032Y197701D02*
X403968D01*
X402000Y195732D02*
Y199669D01*
X361850Y258650D02*
X368150D01*
X361850Y245350D02*
X368150D01*
Y258650D01*
X361850Y245350D02*
Y258650D01*
X365000Y250130D02*
Y253870D01*
X363130Y252000D02*
X366870D01*
X416650Y176850D02*
Y183150D01*
X403350Y176850D02*
Y183150D01*
Y176850D02*
X416650D01*
X403350Y183150D02*
X416650D01*
X408130Y180000D02*
X411870D01*
X410000Y178130D02*
Y181870D01*
X260043Y183228D02*
Y189528D01*
X273343Y183228D02*
Y189528D01*
X260043D02*
X273343D01*
X260043Y183228D02*
X273343D01*
X264823Y186378D02*
X268563D01*
X266693Y184508D02*
Y188248D01*
X260043Y202518D02*
Y208818D01*
X273343Y202518D02*
Y208818D01*
X260043D02*
X273343D01*
X260043Y202518D02*
X273343D01*
X264823Y205667D02*
X268563D01*
X266693Y203797D02*
Y207538D01*
X416650Y212850D02*
Y219150D01*
X403350Y212850D02*
Y219150D01*
Y212850D02*
X416650D01*
X403350Y219150D02*
X416650D01*
X408130Y216000D02*
X411870D01*
X410000Y214130D02*
Y217870D01*
X424850Y196650D02*
X431150D01*
X424850Y183350D02*
X431150D01*
Y196650D01*
X424850Y183350D02*
Y196650D01*
X428000Y188130D02*
Y191870D01*
X426130Y190000D02*
X429870D01*
X382850Y196650D02*
X389150D01*
X382850Y183350D02*
X389150D01*
Y196650D01*
X382850Y183350D02*
Y196650D01*
X386000Y188130D02*
Y191870D01*
X384130Y190000D02*
X387870D01*
X366850Y196650D02*
X373150D01*
X366850Y183350D02*
X373150D01*
Y196650D01*
X366850Y183350D02*
Y196650D01*
X370000Y188130D02*
Y191870D01*
X368130Y190000D02*
X371870D01*
X424850Y199350D02*
X431150D01*
X424850Y212650D02*
X431150D01*
X424850Y199350D02*
Y212650D01*
X431150Y199350D02*
Y212650D01*
X428000Y204130D02*
Y207870D01*
X426130Y206000D02*
X429870D01*
X389350Y212850D02*
Y219150D01*
X402650Y212850D02*
Y219150D01*
X389350D02*
X402650D01*
X389350Y212850D02*
X402650D01*
X394130Y216000D02*
X397870D01*
X396000Y214130D02*
Y217870D01*
X389350Y176850D02*
Y183150D01*
X402650Y176850D02*
Y183150D01*
X389350D02*
X402650D01*
X389350Y176850D02*
X402650D01*
X394130Y180000D02*
X397870D01*
X396000Y178130D02*
Y181870D01*
X325075Y176850D02*
Y183150D01*
X311775Y176850D02*
Y183150D01*
Y176850D02*
X325075D01*
X311775Y183150D02*
X325075D01*
X316555Y180000D02*
X320295D01*
X318425Y178130D02*
Y181870D01*
X325075Y212850D02*
Y219150D01*
X311775Y212850D02*
Y219150D01*
Y212850D02*
X325075D01*
X311775Y219150D02*
X325075D01*
X316555Y216000D02*
X320295D01*
X318425Y214130D02*
Y217870D01*
X333275Y196650D02*
X339575D01*
X333275Y183350D02*
X339575D01*
Y196650D01*
X333275Y183350D02*
Y196650D01*
X336425Y188130D02*
Y191870D01*
X334555Y190000D02*
X338295D01*
X291275Y196650D02*
X297575D01*
X291275Y183350D02*
X297575D01*
Y196650D01*
X291275Y183350D02*
Y196650D01*
X294425Y188130D02*
Y191870D01*
X292555Y190000D02*
X296295D01*
X275275Y196650D02*
X281575D01*
X275275Y183350D02*
X281575D01*
Y196650D01*
X275275Y183350D02*
Y196650D01*
X278425Y188130D02*
Y191870D01*
X276555Y190000D02*
X280295D01*
X333275Y199350D02*
X339575D01*
X333275Y212650D02*
X339575D01*
X333275Y199350D02*
Y212650D01*
X339575Y199350D02*
Y212650D01*
X336425Y204130D02*
Y207870D01*
X334555Y206000D02*
X338295D01*
X297775Y212850D02*
Y219150D01*
X311075Y212850D02*
Y219150D01*
X297775D02*
X311075D01*
X297775Y212850D02*
X311075D01*
X302555Y216000D02*
X306295D01*
X304425Y214130D02*
Y217870D01*
X297775Y176850D02*
Y183150D01*
X311075Y176850D02*
Y183150D01*
X297775D02*
X311075D01*
X297775Y176850D02*
X311075D01*
X302555Y180000D02*
X306295D01*
X304425Y178130D02*
Y181870D01*
X309350Y359650D02*
X315650D01*
X309350Y346350D02*
X315650D01*
Y359650D01*
X309350Y346350D02*
Y359650D01*
X312500Y351130D02*
Y354870D01*
X310630Y353000D02*
X314370D01*
X329350Y359650D02*
X335650D01*
X329350Y346350D02*
X335650D01*
Y359650D01*
X329350Y346350D02*
Y359650D01*
X332500Y351130D02*
Y354870D01*
X330630Y353000D02*
X334370D01*
X260043Y191228D02*
Y197528D01*
X273343Y191228D02*
Y197528D01*
X260043D02*
X273343D01*
X260043Y191228D02*
X273343D01*
X264823Y194378D02*
X268563D01*
X266693Y192508D02*
Y196248D01*
X260043Y210518D02*
Y216817D01*
X273343Y210518D02*
Y216817D01*
X260043D02*
X273343D01*
X260043Y210518D02*
X273343D01*
X264823Y213667D02*
X268563D01*
X266693Y211797D02*
Y215538D01*
X347350Y182850D02*
Y189150D01*
X360650Y182850D02*
Y189150D01*
X347350D02*
X360650D01*
X347350Y182850D02*
X360650D01*
X352130Y186000D02*
X355870D01*
X354000Y184130D02*
Y187870D01*
X339350Y359650D02*
X345650D01*
X339350Y346350D02*
X345650D01*
Y359650D01*
X339350Y346350D02*
Y359650D01*
X342500Y351130D02*
Y354870D01*
X340630Y353000D02*
X344370D01*
X319350Y359650D02*
X325650D01*
X319350Y346350D02*
X325650D01*
Y359650D01*
X319350Y346350D02*
Y359650D01*
X322500Y351130D02*
Y354870D01*
X320630Y353000D02*
X324370D01*
X412850Y212650D02*
X419150D01*
X412850Y199350D02*
X419150D01*
Y212650D01*
X412850Y199350D02*
Y212650D01*
X416000Y204130D02*
Y207870D01*
X414130Y206000D02*
X417870D01*
X412850Y196650D02*
X419150D01*
X412850Y183350D02*
X419150D01*
Y196650D01*
X412850Y183350D02*
Y196650D01*
X416000Y188130D02*
Y191870D01*
X414130Y190000D02*
X417870D01*
X374850Y196650D02*
X381150D01*
X374850Y183350D02*
X381150D01*
Y196650D01*
X374850Y183350D02*
Y196650D01*
X378000Y188130D02*
Y191870D01*
X376130Y190000D02*
X379870D01*
X321275Y212650D02*
X327575D01*
X321275Y199350D02*
X327575D01*
Y212650D01*
X321275Y199350D02*
Y212650D01*
X324425Y204130D02*
Y207870D01*
X322555Y206000D02*
X326295D01*
X321275Y196650D02*
X327575D01*
X321275Y183350D02*
X327575D01*
Y196650D01*
X321275Y183350D02*
Y196650D01*
X324425Y188130D02*
Y191870D01*
X322555Y190000D02*
X326295D01*
X485263Y396877D02*
X487231D01*
X489200D02*
X491168D01*
X493137D02*
X495106D01*
X497074D02*
X499043D01*
X501011D02*
X502980D01*
X504948D02*
X506917D01*
X508885D02*
X510853D01*
X512822D02*
X514790D01*
X516759D02*
X518728D01*
X520696D02*
X522665D01*
X524633D02*
X526602D01*
X528570D02*
X530539D01*
X532507D02*
X534476D01*
X536444D02*
X538413D01*
X540381D02*
X542350D01*
X544318D02*
X546287D01*
X548255D02*
X550224D01*
X552192D02*
X554161D01*
X556129D02*
X558098D01*
X560066D02*
X562035D01*
X564003D02*
X565972D01*
X567940D02*
X569909D01*
X571877D02*
X573846D01*
X575814D02*
X577783D01*
X579751D02*
X581720D01*
X583688D02*
X585657D01*
X587625D02*
X589594D01*
X591562D02*
X593531D01*
X595499D02*
X597468D01*
X599436D02*
X601405D01*
X603373D02*
X605342D01*
X607310D02*
X609279D01*
X611247D02*
X613216D01*
X615184D02*
X617153D01*
X619121D02*
X621090D01*
X623058D02*
X625027D01*
X626995D02*
X628964D01*
X630932D02*
X632901D01*
X634869D02*
X636838D01*
X638806D02*
X640775D01*
X642743D02*
X644712D01*
X646680D02*
X648649D01*
X650617D02*
X652586D01*
X654554D02*
X656523D01*
X485563Y434317D02*
X487532D01*
X489500D02*
X491468D01*
X493437D02*
X495405D01*
X497374D02*
X499342D01*
X501311D02*
X503279D01*
X505248D02*
X507217D01*
X509185D02*
X511154D01*
X513122D02*
X515091D01*
X517059D02*
X519028D01*
X520996D02*
X522965D01*
X524933D02*
X526902D01*
X528870D02*
X530839D01*
X532807D02*
X534776D01*
X536744D02*
X538713D01*
X540681D02*
X542650D01*
X544618D02*
X546587D01*
X548555D02*
X550524D01*
X552492D02*
X554461D01*
X556429D02*
X558398D01*
X560366D02*
X562335D01*
X564303D02*
X566272D01*
X568240D02*
X570209D01*
X572177D02*
X574146D01*
X576114D02*
X578083D01*
X580051D02*
X582020D01*
X583988D02*
X585957D01*
X587925D02*
X589894D01*
X591862D02*
X593831D01*
X595799D02*
X597768D01*
X599736D02*
X601705D01*
X603673D02*
X605642D01*
X607610D02*
X609579D01*
X611547D02*
X613516D01*
X615484D02*
X617453D01*
X619421D02*
X621390D01*
X623358D02*
X625327D01*
X627295D02*
X629264D01*
X631232D02*
X633201D01*
X635169D02*
X637138D01*
X639106D02*
X641075D01*
X643043D02*
X645012D01*
X646980D02*
X648949D01*
X650917D02*
X652886D01*
X654854D02*
X656823D01*
X654254Y508427D02*
X656223D01*
X650317D02*
X652286D01*
X646380D02*
X648349D01*
X642443D02*
X644412D01*
X638506D02*
X640475D01*
X634569D02*
X636538D01*
X630632D02*
X632601D01*
X626695D02*
X628664D01*
X622758D02*
X624727D01*
X618821D02*
X620790D01*
X614884D02*
X616853D01*
X610947D02*
X612916D01*
X607010D02*
X608979D01*
X603073D02*
X605042D01*
X599136D02*
X601105D01*
X595199D02*
X597168D01*
X591262D02*
X593231D01*
X587325D02*
X589294D01*
X583388D02*
X585357D01*
X579451D02*
X581420D01*
X575514D02*
X577483D01*
X571577D02*
X573546D01*
X567640D02*
X569609D01*
X563703D02*
X565672D01*
X559766D02*
X561735D01*
X555829D02*
X557798D01*
X551892D02*
X553861D01*
X547955D02*
X549924D01*
X544018D02*
X545987D01*
X540081D02*
X542050D01*
X536144D02*
X538113D01*
X532207D02*
X534176D01*
X528270D02*
X530239D01*
X524333D02*
X526302D01*
X520396D02*
X522365D01*
X516459D02*
X518428D01*
X512522D02*
X514491D01*
X508585D02*
X510554D01*
X504648D02*
X506616D01*
X500711D02*
X502679D01*
X496774D02*
X498742D01*
X492837D02*
X494805D01*
X488900D02*
X490869D01*
X484963D02*
X486932D01*
X658191Y375000D02*
Y507443D01*
X484963Y375000D02*
X658191D01*
X484963D02*
Y507443D01*
Y519253D01*
X658191D01*
Y507443D02*
Y519253D01*
X485463Y528750D02*
Y594700D01*
Y528750D02*
X711600D01*
Y594700D01*
X485463D02*
X711600D01*
D29*
X290000Y263000D02*
Y383000D01*
X280000D02*
X290000D01*
X280000Y263000D02*
Y383000D01*
Y263000D02*
X290000D01*
X360000D02*
Y383000D01*
X350000D02*
X360000D01*
X350000Y263000D02*
Y383000D01*
Y263000D02*
X360000D01*
D48*
X320016Y184315D02*
Y211087D01*
X299543Y184315D02*
Y211087D01*
X320016D01*
X299543Y184315D02*
X320016D01*
X412236Y184315D02*
Y211087D01*
X391764Y184315D02*
Y211087D01*
X412236D01*
X391764Y184315D02*
X412236D01*
M02*
